M48
INCH,LZ
;FILE_FORMAT=2:4
;TYPE=PLATED
;Layer: PTH_Through_Via
;EasyEDA v6.5.22, 2023-01-05 17:43:04
;408631a24da54ebd81f1ad95a11f4f05,373fc183506b451e961249744e80b011,10
;Gerber Generator version 0.2
;Holesize 1 = 0.0120 inch
T01C0.0120
;Holesize 2 = 0.0250 inch
T02C0.0250
;Holesize 3 = 0.0400 inch
T03C0.0400
%
G05
G90
T01
X021850Y010600
X023500Y010700
X011450Y018000
X011550Y017250
X015150Y017950
X013850Y016100
X014700Y019600
X018700Y003000
X021050Y007150
X017950Y002650
X019300Y004500
X006050Y007700
X007100Y009050
X012500Y005000
X006650Y007000
X010350Y007200
X010800Y007500
X007600Y010250
X009550Y010200
X007200Y000850
X012050Y003800
X015450Y009200
X015400Y008650
X007100Y004150
X006800Y005400
X005800Y012350
X005500Y013450
X006550Y014050
X006000Y014150
X018000Y007100
X018400Y007700
X018700Y008050
X022000Y017550
X008250Y000500
X012900Y002050
X015450Y004450
X014200Y002050
X015300Y007950
X014850Y009150
X014500Y008950
X021700Y002900
X014250Y006900
X021150Y005650
X014250Y007450
X023800Y010900
X005350Y010050
X008550Y020500
X011350Y020850
X011900Y018950
X005850Y009550
X012750Y011750
X012850Y005400
X019150Y001200
X023350Y004800
X013700Y002400
X012150Y006700
X011700Y014050
X012700Y007200
X021050Y009000
X006650Y008100
X011400Y008050
X011600Y011800
X019100Y007800
X020150Y011950
X020900Y009450
X020150Y012550
X019750Y009950
X020850Y012600
X021250Y021600
X019850Y020250
X015500Y021500
X011100Y008350
X010250Y010250
X012900Y008650
X011750Y008300
X024000Y015400
X021800Y017900
X021550Y018250
X013750Y017950
X019500Y019800
X015200Y009450
X015000Y019150
X018500Y017450
X011200Y016750
X019050Y017450
X024950Y018550
X013150Y011200
X010300Y011400
X021200Y018450
X005950Y004650
X019700Y006950
X017500Y005750
X017500Y004800
X005900Y003000
X016400Y016100
X021900Y010950
X015800Y005750
T02
X021150Y013100
X018700Y017850
X013950Y020150
T03
X010350Y013300
X009250Y016500
X017500Y012250
X016500Y012250
X015100Y011800
X023000Y006150
X019150Y009600
X015900Y010650
M30
