M48
INCH,LZ
;FILE_FORMAT=2:4
;TYPE=PLATED
;Layer: PTH_Through
;EasyEDA v6.5.22, 2023-01-05 17:43:04
;408631a24da54ebd81f1ad95a11f4f05,373fc183506b451e961249744e80b011,10
;Gerber Generator version 0.2
;Holesize 1 = 0.0280 inch
T01C0.0280
;Holesize 2 = 0.0350 inch
T02C0.0350
;Holesize 3 = 0.0360 inch
T03C0.0360
;Holesize 4 = 0.0390 inch
T04C0.0390
;Holesize 5 = 0.0400 inch
T05C0.0400
;Holesize 6 = 0.0600 inch
T06C0.0600
;Holesize 7 = 0.1180 inch
T07C0.1180
%
G05
G90
T01
X027400Y013250
X027400Y011250
X027400Y010250
X027400Y009250
X025400Y009250
X025400Y010250
X025400Y011250
X025400Y013250
X030650Y013250
X030650Y011250
X030650Y010250
X030650Y009250
X028650Y009250
X028650Y010250
X028650Y011250
X028650Y013250
T02
X005344Y001800
X006131Y001800
X006918Y001800
X004556Y001800
X003769Y001800
X002982Y001800
T03
X030160Y005934
X030160Y006934
X024809Y005934
X024809Y006934
X027484Y005934
X027484Y006934
X024809Y003334
X024809Y004334
X027484Y003359
X027484Y004359
X030159Y003359
X030159Y004359
X024809Y000909
X024809Y001909
X027484Y000909
X027484Y001909
X030159Y000909
X030159Y001909
X023766Y021950
X022766Y021950
X029050Y021600
X026050Y021600
X027050Y021600
X028050Y021600
X003881Y015416
X003881Y014416
T04
X024050Y014550
X025050Y014550
X027050Y014550
X028050Y014550
X029050Y014550
X030050Y014550
X031050Y014550
X031050Y019550
X030050Y019550
X029050Y019550
X028050Y019550
X027050Y019550
X026050Y019550
X025050Y019550
X024050Y019550
X026050Y014550
T05
X003700Y018350
X003700Y017350
X003700Y019350
X003700Y021450
X003700Y020450
X003700Y022450
X008000Y021950
X007000Y021950
X009000Y021950
X019000Y021950
X018000Y021950
X020000Y021950
X013500Y021950
X012500Y021950
X014500Y021950
T06
X014924Y002250G85X014926Y002250
X014924Y000650G85X014926Y000650
X017324Y002250G85X017326Y002250
X017324Y000650G85X017326Y000650
X022501Y000650G85X022499Y000650
X022501Y002250G85X022499Y002250
X020101Y000650G85X020099Y000650
X020101Y002250G85X020099Y002250
X009749Y002250G85X009751Y002250
X009749Y000650G85X009751Y000650
X012149Y002250G85X012151Y002250
X012149Y000650G85X012151Y000650
T07
X010700Y019664
X022500Y019664
X010700Y003916
X022511Y003916
M30
