G04 Layer: BottomSilkscreenLayer*
G04 EasyEDA v6.5.22, 2023-01-05 17:43:04*
G04 408631a24da54ebd81f1ad95a11f4f05,373fc183506b451e961249744e80b011,10*
G04 Gerber Generator version 0.2*
G04 Scale: 100 percent, Rotated: No, Reflected: No *
G04 Dimensions in inches *
G04 leading zeros omitted , absolute positions ,3 integer and 6 decimal *
%FSLAX36Y36*%
%MOIN*%

%ADD10C,0.0060*%
%ADD11C,0.0150*%
%ADD12C,0.0079*%

%LPD*%
G36*
X913720Y1243500D02*
G01*
X910360Y1243180D01*
X906700Y1242300D01*
X903139Y1241020D01*
X900160Y1239420D01*
X897560Y1237460D01*
X895020Y1235120D01*
X892840Y1232700D01*
X891300Y1230500D01*
X890759Y1229320D01*
X890240Y1227820D01*
X889360Y1224140D01*
X888760Y1219920D01*
X888520Y1215660D01*
X888560Y1212860D01*
X888740Y1210440D01*
X889100Y1208280D01*
X889640Y1206360D01*
X890420Y1204540D01*
X891460Y1202760D01*
X892780Y1200960D01*
X894400Y1199020D01*
X896200Y1197120D01*
X897900Y1195580D01*
X899599Y1194360D01*
X901420Y1193400D01*
X903480Y1192680D01*
X905860Y1192140D01*
X908700Y1191720D01*
X912080Y1191380D01*
X915759Y1191120D01*
X918720Y1191020D01*
X921120Y1191160D01*
X923180Y1191620D01*
X925060Y1192400D01*
X926960Y1193620D01*
X929040Y1195300D01*
X931500Y1197500D01*
X933500Y1199420D01*
X935200Y1201260D01*
X936600Y1203080D01*
X937780Y1204920D01*
X938720Y1206800D01*
X939440Y1208780D01*
X940000Y1210900D01*
X940380Y1213180D01*
X940600Y1215320D01*
X940680Y1217400D01*
X940620Y1219400D01*
X940400Y1221340D01*
X940040Y1223200D01*
X939520Y1225040D01*
X938860Y1226800D01*
X938060Y1228540D01*
X937220Y1229980D01*
X936160Y1231480D01*
X934940Y1233020D01*
X932180Y1235960D01*
X930720Y1237280D01*
X929240Y1238440D01*
X927820Y1239400D01*
X926320Y1240220D01*
X924620Y1241000D01*
X922800Y1241700D01*
X920900Y1242300D01*
X918980Y1242800D01*
X917099Y1243180D01*
X915320Y1243420D01*
G37*
G36*
X863620Y1241080D02*
G01*
X854880Y1240960D01*
X832660Y1240360D01*
X831460Y1193000D01*
X880020Y1193000D01*
X880000Y1220420D01*
X879780Y1228780D01*
X879380Y1235360D01*
X878860Y1239320D01*
X878560Y1240080D01*
X877800Y1240360D01*
X876240Y1240600D01*
X871000Y1240940D01*
G37*
G36*
X804659Y1241080D02*
G01*
X795920Y1240960D01*
X773720Y1240360D01*
X772520Y1193000D01*
X821080Y1193000D01*
X821040Y1220420D01*
X820819Y1228780D01*
X820420Y1235360D01*
X820180Y1237720D01*
X819900Y1239320D01*
X819599Y1240080D01*
X818860Y1240360D01*
X817280Y1240600D01*
X814980Y1240800D01*
X808580Y1241040D01*
G37*
G36*
X890560Y1182480D02*
G01*
X890560Y1133920D01*
X937920Y1135100D01*
X938620Y1160260D01*
X938680Y1168160D01*
X938560Y1174560D01*
X938280Y1178700D01*
X938060Y1179700D01*
X937760Y1180180D01*
X937200Y1180620D01*
X936380Y1181000D01*
X935260Y1181340D01*
X932120Y1181860D01*
X927580Y1182220D01*
X921520Y1182420D01*
G37*
G36*
X863620Y1182120D02*
G01*
X854880Y1182020D01*
X832660Y1181420D01*
X832660Y1135100D01*
X880020Y1133920D01*
X880000Y1161420D01*
X879780Y1169820D01*
X879380Y1176400D01*
X878860Y1180380D01*
X878560Y1181140D01*
X877800Y1181420D01*
X876240Y1181660D01*
X871000Y1182000D01*
G37*
G36*
X880020Y1123660D02*
G01*
X832660Y1122480D01*
X832660Y1076160D01*
X880020Y1074960D01*
G37*
G36*
X821080Y1123660D02*
G01*
X773720Y1122480D01*
X773720Y1076160D01*
X821080Y1074960D01*
G37*
G36*
X890560Y1123520D02*
G01*
X890560Y1075100D01*
X938980Y1075100D01*
X938940Y1102520D01*
X938740Y1110880D01*
X938360Y1117440D01*
X938120Y1119780D01*
X937860Y1121380D01*
X937580Y1122120D01*
X936820Y1122400D01*
X935220Y1122660D01*
X929880Y1123120D01*
X922320Y1123420D01*
X913360Y1123520D01*
G37*
G36*
X890420Y1064580D02*
G01*
X891600Y1017220D01*
X937920Y1017220D01*
X938620Y1042360D01*
X938680Y1050260D01*
X938560Y1056660D01*
X938280Y1060820D01*
X938060Y1061800D01*
X937760Y1062280D01*
X937200Y1062720D01*
X936360Y1063100D01*
X935260Y1063440D01*
X932099Y1063960D01*
X927560Y1064320D01*
X921480Y1064520D01*
G37*
G36*
X863120Y1064280D02*
G01*
X832660Y1063520D01*
X832660Y1017220D01*
X878980Y1017220D01*
X879680Y1042380D01*
X879740Y1050260D01*
X879479Y1059120D01*
X879300Y1060860D01*
X879100Y1061860D01*
X878780Y1062380D01*
X878259Y1062840D01*
X877500Y1063220D01*
X876460Y1063540D01*
X875120Y1063800D01*
X871480Y1064140D01*
X866320Y1064280D01*
G37*
G36*
X702800Y982340D02*
G01*
X700180Y982240D01*
X697240Y981840D01*
X694340Y981240D01*
X691840Y980460D01*
X689520Y979180D01*
X687140Y977180D01*
X684960Y974740D01*
X683280Y972140D01*
X682640Y970699D01*
X682020Y969020D01*
X681460Y967140D01*
X680580Y963100D01*
X680280Y961060D01*
X680020Y957220D01*
X690560Y957220D01*
X690819Y961160D01*
X691600Y964580D01*
X692920Y967480D01*
X694760Y969840D01*
X696600Y971460D01*
X698520Y972740D01*
X700260Y973580D01*
X701600Y973800D01*
X704520Y973360D01*
X707800Y972620D01*
X709360Y971700D01*
X711000Y969900D01*
X712500Y967460D01*
X713680Y964659D01*
X714479Y961500D01*
X714920Y958080D01*
X714980Y954820D01*
X714620Y952120D01*
X713720Y949720D01*
X712340Y947300D01*
X710620Y945120D01*
X708800Y943480D01*
X706860Y942280D01*
X704860Y941280D01*
X703060Y940620D01*
X701660Y940360D01*
X700280Y940699D01*
X698520Y941600D01*
X696620Y942940D01*
X694760Y944580D01*
X692920Y946940D01*
X691600Y949840D01*
X690819Y953259D01*
X690560Y957220D01*
X680020Y957220D01*
X680280Y953379D01*
X680939Y949340D01*
X681400Y947400D01*
X681940Y945560D01*
X682520Y943940D01*
X683139Y942540D01*
X684980Y939860D01*
X687460Y937460D01*
X690440Y935480D01*
X693820Y934020D01*
X697280Y933160D01*
X701160Y932640D01*
X704980Y932520D01*
X708240Y932820D01*
X711320Y933760D01*
X714599Y935320D01*
X717700Y937320D01*
X720220Y939520D01*
X721620Y941140D01*
X722760Y942740D01*
X723660Y944400D01*
X724320Y946240D01*
X724780Y948340D01*
X725080Y950800D01*
X725240Y953700D01*
X725300Y957159D01*
X725240Y960400D01*
X725080Y963220D01*
X724800Y965660D01*
X724380Y967760D01*
X723820Y969620D01*
X723080Y971240D01*
X722180Y972720D01*
X721080Y974080D01*
X719120Y976040D01*
X716860Y977900D01*
X714620Y979440D01*
X712660Y980480D01*
X710580Y981160D01*
X708020Y981740D01*
X705320Y982159D01*
G37*
G36*
X940939Y981720D02*
G01*
X937039Y981460D01*
X933360Y980980D01*
X930240Y980460D01*
X928000Y979980D01*
X926979Y979599D01*
X926800Y979020D01*
X926880Y978000D01*
X927159Y976680D01*
X927660Y975180D01*
X928660Y973460D01*
X930240Y972520D01*
X932600Y972260D01*
X939260Y972940D01*
X941919Y972680D01*
X944040Y971860D01*
X945680Y970440D01*
X946919Y968660D01*
X947180Y967300D01*
X946400Y966120D01*
X944500Y964800D01*
X939780Y961900D01*
X933980Y958199D01*
X930960Y955879D01*
X928800Y953400D01*
X927420Y950600D01*
X926760Y947400D01*
X926740Y944479D01*
X927220Y941740D01*
X928180Y939340D01*
X929539Y937480D01*
X931260Y936040D01*
X933460Y934680D01*
X935819Y933540D01*
X938080Y932780D01*
X940660Y932380D01*
X943860Y932260D01*
X947300Y932420D01*
X950560Y932860D01*
X954280Y933780D01*
X956520Y934980D01*
X957620Y936820D01*
X957920Y939560D01*
X957760Y942260D01*
X957080Y943640D01*
X955639Y943920D01*
X950939Y942640D01*
X948300Y942099D01*
X945600Y941720D01*
X943180Y941540D01*
X940720Y941700D01*
X939100Y942380D01*
X938199Y943660D01*
X937920Y945620D01*
X938439Y947700D01*
X939960Y949840D01*
X942420Y951960D01*
X949020Y956120D01*
X952000Y958660D01*
X954440Y961360D01*
X955960Y963860D01*
X956900Y966680D01*
X957220Y969160D01*
X956900Y971480D01*
X955960Y973780D01*
X954780Y975620D01*
X953259Y977480D01*
X951600Y979120D01*
X950000Y980340D01*
X947840Y981120D01*
X944680Y981600D01*
G37*
G36*
X1023180Y980360D02*
G01*
X1023220Y945860D01*
X1023379Y939040D01*
X1023540Y936660D01*
X1023800Y934900D01*
X1024140Y933640D01*
X1024620Y932820D01*
X1025200Y932360D01*
X1025939Y932180D01*
X1027920Y932320D01*
X1028980Y932500D01*
X1029860Y932780D01*
X1030600Y933199D01*
X1031200Y933880D01*
X1031680Y934860D01*
X1032080Y936220D01*
X1032380Y938040D01*
X1032820Y943379D01*
X1033120Y951440D01*
X1033840Y980360D01*
G37*
G36*
X966200Y980360D02*
G01*
X967400Y933000D01*
X973720Y933000D01*
X975660Y933100D01*
X977380Y933500D01*
X978960Y934300D01*
X980540Y935680D01*
X982260Y937720D01*
X984240Y940580D01*
X986620Y944380D01*
X991420Y952540D01*
X994960Y958360D01*
X997820Y962760D01*
X999620Y965240D01*
X1000020Y965580D01*
X1000240Y965260D01*
X1000440Y964320D01*
X1000780Y960819D01*
X1001000Y955660D01*
X1001200Y940480D01*
X1001400Y937600D01*
X1001740Y935560D01*
X1002260Y934240D01*
X1003000Y933460D01*
X1004000Y933080D01*
X1005300Y933000D01*
X1006200Y933040D01*
X1006979Y933220D01*
X1007620Y933600D01*
X1008160Y934240D01*
X1008600Y935200D01*
X1008960Y936560D01*
X1009240Y938379D01*
X1009479Y940720D01*
X1009820Y947260D01*
X1010699Y980360D01*
X1001919Y980340D01*
X1000520Y980220D01*
X999300Y979980D01*
X998160Y979560D01*
X997080Y978920D01*
X996000Y978000D01*
X994880Y976760D01*
X993680Y975180D01*
X990840Y970720D01*
X977920Y948220D01*
X977099Y969460D01*
X976860Y973379D01*
X976520Y976220D01*
X976060Y978160D01*
X975380Y979380D01*
X974419Y980040D01*
X973139Y980320D01*
G37*
G36*
X903020Y980360D02*
G01*
X892880Y980260D01*
X889539Y980080D01*
X887200Y979760D01*
X885680Y979300D01*
X884840Y978640D01*
X884539Y977780D01*
X884620Y976680D01*
X885360Y975040D01*
X886860Y973780D01*
X889100Y972860D01*
X892080Y972340D01*
X898820Y971700D01*
X899640Y946420D01*
X899860Y941840D01*
X900180Y938420D01*
X900580Y936020D01*
X901160Y934440D01*
X901940Y933520D01*
X902940Y933100D01*
X904240Y933000D01*
X905540Y933100D01*
X906540Y933540D01*
X907320Y934460D01*
X907880Y936040D01*
X908300Y938460D01*
X908600Y941900D01*
X909060Y952480D01*
X909659Y971940D01*
X915900Y971940D01*
X918900Y972140D01*
X920819Y972820D01*
X921840Y974120D01*
X922140Y976160D01*
X922039Y977460D01*
X921640Y978460D01*
X920759Y979200D01*
X919220Y979720D01*
X916860Y980060D01*
X913480Y980260D01*
G37*
G36*
X867260Y980360D02*
G01*
X867980Y951580D01*
X868280Y943660D01*
X868700Y938379D01*
X869000Y936560D01*
X869340Y935200D01*
X869800Y934240D01*
X870320Y933600D01*
X870980Y933220D01*
X871740Y933040D01*
X873560Y933040D01*
X874340Y933220D01*
X874980Y933600D01*
X875520Y934240D01*
X875960Y935200D01*
X876320Y936560D01*
X876620Y938379D01*
X877039Y943660D01*
X877320Y951580D01*
X878060Y980360D01*
G37*
G36*
X841080Y980360D02*
G01*
X831320Y980260D01*
X828180Y980060D01*
X825939Y979720D01*
X824500Y979200D01*
X823660Y978460D01*
X823280Y977460D01*
X823180Y976160D01*
X823480Y974120D01*
X824500Y972820D01*
X826400Y972140D01*
X829419Y971940D01*
X835660Y971940D01*
X836480Y946360D01*
X836720Y941660D01*
X837020Y938199D01*
X837480Y935740D01*
X838100Y934140D01*
X838960Y933160D01*
X840120Y932620D01*
X841600Y932320D01*
X843139Y932159D01*
X844300Y932320D01*
X845140Y933000D01*
X845720Y934440D01*
X846060Y936820D01*
X846260Y940360D01*
X846340Y951800D01*
X846340Y971940D01*
X852660Y971940D01*
X855720Y972140D01*
X857660Y972820D01*
X858680Y974120D01*
X858980Y976160D01*
X858880Y977460D01*
X858500Y978460D01*
X857660Y979200D01*
X856220Y979720D01*
X853980Y980060D01*
X850840Y980260D01*
G37*
G36*
X774340Y980360D02*
G01*
X775240Y957660D01*
X775639Y951480D01*
X776180Y946900D01*
X776540Y945080D01*
X776960Y943520D01*
X777480Y942159D01*
X778100Y940939D01*
X778820Y939860D01*
X779640Y938820D01*
X780620Y937800D01*
X782000Y936540D01*
X783400Y935500D01*
X784920Y934659D01*
X786560Y934020D01*
X788420Y933540D01*
X790500Y933240D01*
X792900Y933060D01*
X795660Y933000D01*
X798199Y933060D01*
X800520Y933240D01*
X802620Y933540D01*
X804500Y933960D01*
X806220Y934520D01*
X807740Y935200D01*
X809100Y936040D01*
X810340Y937020D01*
X811240Y937880D01*
X812020Y938780D01*
X812680Y939760D01*
X813220Y940879D01*
X813660Y942159D01*
X814020Y943680D01*
X814280Y945480D01*
X814620Y950180D01*
X814760Y956660D01*
X814659Y971320D01*
X814460Y974780D01*
X814140Y977240D01*
X813640Y978860D01*
X812940Y979820D01*
X811979Y980260D01*
X810780Y980360D01*
X809580Y980260D01*
X808640Y979820D01*
X807900Y978960D01*
X807340Y977520D01*
X806900Y975400D01*
X806560Y972460D01*
X805480Y955699D01*
X805100Y952540D01*
X804640Y949880D01*
X804080Y947660D01*
X803420Y945840D01*
X802660Y944419D01*
X801780Y943319D01*
X799920Y941880D01*
X797840Y941040D01*
X795560Y940780D01*
X793080Y941120D01*
X790939Y942000D01*
X789020Y943420D01*
X787520Y945200D01*
X786620Y947180D01*
X786120Y950160D01*
X785720Y954720D01*
X785440Y960260D01*
X785200Y974240D01*
X784980Y976760D01*
X784560Y978480D01*
X783900Y979539D01*
X782920Y980100D01*
X781580Y980320D01*
G37*
G36*
X749500Y980360D02*
G01*
X739260Y980260D01*
X735900Y980080D01*
X733540Y979760D01*
X732000Y979300D01*
X731160Y978640D01*
X730860Y977780D01*
X730939Y976680D01*
X731680Y975040D01*
X733199Y973760D01*
X735460Y972860D01*
X738460Y972340D01*
X745300Y971680D01*
X745300Y945200D01*
X745380Y940300D01*
X745560Y936780D01*
X745920Y934419D01*
X746500Y933000D01*
X747340Y932320D01*
X748500Y932159D01*
X750020Y932320D01*
X751520Y932620D01*
X752660Y933160D01*
X753520Y934120D01*
X754160Y935740D01*
X754599Y938160D01*
X754920Y941600D01*
X755639Y960480D01*
X756000Y965960D01*
X756260Y967860D01*
X756620Y969320D01*
X757060Y970400D01*
X757640Y971140D01*
X758379Y971660D01*
X759260Y971979D01*
X761660Y972340D01*
X764040Y972880D01*
X765980Y973840D01*
X767360Y975140D01*
X768060Y976680D01*
X768139Y977780D01*
X767840Y978640D01*
X767000Y979300D01*
X765460Y979760D01*
X763100Y980080D01*
X759740Y980260D01*
G37*
G36*
X984300Y923520D02*
G01*
X976940Y923400D01*
X974520Y923199D01*
X972800Y922840D01*
X971640Y922300D01*
X970960Y921560D01*
X970639Y920580D01*
X970560Y919320D01*
X970900Y917140D01*
X972260Y915860D01*
X975140Y915260D01*
X985360Y914980D01*
X987039Y914720D01*
X988180Y914220D01*
X988900Y913460D01*
X989300Y912340D01*
X989460Y910800D01*
X989500Y908780D01*
X989300Y905280D01*
X988280Y903400D01*
X985759Y902620D01*
X976840Y902300D01*
X974260Y901700D01*
X973000Y900440D01*
X972660Y898400D01*
X973020Y896380D01*
X974280Y895020D01*
X976720Y894160D01*
X980560Y893660D01*
X983139Y893420D01*
X985100Y893100D01*
X986520Y892600D01*
X987520Y891780D01*
X988180Y890520D01*
X988600Y888700D01*
X989580Y877480D01*
X990400Y874520D01*
X991880Y873360D01*
X994360Y873400D01*
X995360Y873580D01*
X996220Y873840D01*
X996940Y874260D01*
X997520Y874920D01*
X998000Y875860D01*
X998400Y877140D01*
X998700Y878860D01*
X999140Y883800D01*
X999440Y891220D01*
X999680Y900480D01*
X999740Y908740D01*
X999599Y915440D01*
X999320Y919740D01*
X999120Y920759D01*
X998660Y921420D01*
X997820Y921979D01*
X996600Y922460D01*
X994980Y922860D01*
X992940Y923160D01*
X990500Y923360D01*
G37*
G36*
X947460Y923520D02*
G01*
X939500Y923400D01*
X936880Y923199D01*
X935040Y922860D01*
X933800Y922320D01*
X933080Y921580D01*
X932740Y920600D01*
X932660Y919320D01*
X933000Y917140D01*
X934360Y915860D01*
X937240Y915260D01*
X947280Y914960D01*
X950140Y914280D01*
X951340Y912700D01*
X951600Y909840D01*
X951360Y907020D01*
X950240Y905440D01*
X947700Y904740D01*
X938900Y904419D01*
X936340Y903780D01*
X935100Y902500D01*
X934760Y900360D01*
X935100Y898240D01*
X936340Y896940D01*
X938900Y896320D01*
X947840Y896000D01*
X950360Y895240D01*
X951400Y893379D01*
X951600Y889960D01*
X951380Y886540D01*
X950260Y884599D01*
X947580Y883640D01*
X938160Y882620D01*
X935440Y881780D01*
X934080Y880400D01*
X933720Y878259D01*
X933800Y877000D01*
X934120Y876020D01*
X934800Y875280D01*
X935939Y874740D01*
X937660Y874380D01*
X940080Y874180D01*
X947400Y874060D01*
X961080Y874060D01*
X962260Y923520D01*
G37*
G36*
X912240Y923520D02*
G01*
X908100Y923300D01*
X903640Y922640D01*
X899400Y921700D01*
X897520Y921140D01*
X895879Y920540D01*
X894320Y919780D01*
X892740Y918820D01*
X891220Y917720D01*
X889760Y916460D01*
X888379Y915120D01*
X887140Y913680D01*
X886080Y912200D01*
X885200Y910720D01*
X884380Y908960D01*
X883700Y907180D01*
X883180Y905340D01*
X882820Y903460D01*
X882600Y901520D01*
X882549Y898760D01*
X893800Y898760D01*
X894060Y902900D01*
X894900Y906160D01*
X896420Y908820D01*
X898720Y911120D01*
X900920Y912660D01*
X903280Y913940D01*
X905480Y914800D01*
X907280Y915100D01*
X908800Y915000D01*
X910260Y914700D01*
X911480Y914240D01*
X912300Y913700D01*
X912580Y913120D01*
X912860Y912020D01*
X913300Y908480D01*
X913600Y903600D01*
X913720Y897920D01*
X913720Y883520D01*
X906600Y883520D01*
X903580Y883800D01*
X900720Y884520D01*
X898319Y885600D01*
X896640Y886960D01*
X895540Y888940D01*
X894640Y891840D01*
X894040Y895240D01*
X893800Y898760D01*
X882549Y898760D01*
X882600Y897440D01*
X882820Y895280D01*
X883199Y893120D01*
X883700Y891100D01*
X884380Y889200D01*
X885200Y887400D01*
X886200Y885699D01*
X887380Y884100D01*
X888720Y882560D01*
X890260Y881060D01*
X891979Y879659D01*
X893780Y878420D01*
X895720Y877360D01*
X897800Y876420D01*
X900040Y875639D01*
X902500Y874980D01*
X905200Y874440D01*
X908139Y874000D01*
X912800Y873560D01*
X916979Y873400D01*
X920180Y873520D01*
X921979Y873960D01*
X922460Y874659D01*
X922920Y876120D01*
X923300Y878280D01*
X923620Y881100D01*
X924080Y888520D01*
X924240Y898040D01*
X924120Y906960D01*
X923820Y914460D01*
X923379Y919780D01*
X923120Y921380D01*
X922840Y922120D01*
X921560Y922660D01*
X919140Y923120D01*
X915920Y923420D01*
G37*
G36*
X857920Y923520D02*
G01*
X850600Y923400D01*
X848199Y923199D01*
X846480Y922840D01*
X845320Y922300D01*
X844640Y921560D01*
X844320Y920580D01*
X844240Y919320D01*
X844560Y917180D01*
X845819Y915900D01*
X848379Y915280D01*
X857180Y914940D01*
X859720Y914260D01*
X860819Y912660D01*
X861080Y909840D01*
X860840Y907080D01*
X859820Y905480D01*
X857580Y904760D01*
X850040Y904400D01*
X847800Y903760D01*
X846660Y902460D01*
X846340Y900360D01*
X846660Y898280D01*
X847800Y896979D01*
X850040Y896340D01*
X857700Y895980D01*
X859920Y895180D01*
X860879Y893319D01*
X861080Y889960D01*
X860860Y886600D01*
X859820Y884659D01*
X857440Y883660D01*
X849300Y882620D01*
X846880Y881760D01*
X845639Y880360D01*
X845300Y878259D01*
X845380Y877020D01*
X845720Y876020D01*
X846400Y875260D01*
X847540Y874659D01*
X849220Y874220D01*
X851520Y873900D01*
X858439Y873420D01*
X871600Y872800D01*
X871600Y923520D01*
G37*
G36*
X771680Y923520D02*
G01*
X769000Y923360D01*
X767900Y923080D01*
X766919Y922540D01*
X766000Y921700D01*
X765080Y920460D01*
X764160Y918780D01*
X763139Y916560D01*
X760699Y910220D01*
X756102Y897159D01*
X766820Y897159D01*
X767460Y900900D01*
X768160Y903780D01*
X768960Y906580D01*
X769780Y908960D01*
X770500Y910620D01*
X771340Y911540D01*
X772260Y911200D01*
X773280Y909580D01*
X774460Y906640D01*
X775400Y903740D01*
X776160Y900920D01*
X776680Y898540D01*
X776860Y896900D01*
X776460Y895759D01*
X775340Y894860D01*
X773620Y894260D01*
X771440Y894060D01*
X768500Y894240D01*
X767060Y895100D01*
X766820Y897159D01*
X756102Y897159D01*
X752580Y886540D01*
X750120Y878439D01*
X749500Y875639D01*
X749840Y874620D01*
X750800Y873780D01*
X752180Y873199D01*
X753900Y873000D01*
X755980Y873400D01*
X757780Y874560D01*
X759360Y876540D01*
X762200Y882660D01*
X764100Y884580D01*
X767000Y885440D01*
X771600Y885639D01*
X776220Y885440D01*
X779120Y884580D01*
X781000Y882660D01*
X782540Y879320D01*
X783319Y877360D01*
X784120Y875860D01*
X785020Y874740D01*
X786160Y873960D01*
X787660Y873460D01*
X789620Y873160D01*
X795440Y873000D01*
X798840Y873040D01*
X801500Y873199D01*
X803600Y873580D01*
X805340Y874300D01*
X806860Y875440D01*
X808340Y877120D01*
X809980Y879440D01*
X814460Y886140D01*
X816900Y889160D01*
X818980Y891200D01*
X820440Y891940D01*
X821480Y891280D01*
X822420Y889419D01*
X823139Y886580D01*
X824100Y878439D01*
X825000Y875620D01*
X826540Y874080D01*
X828980Y873379D01*
X830060Y873240D01*
X830960Y873240D01*
X831700Y873420D01*
X832280Y873900D01*
X832740Y874760D01*
X833100Y876060D01*
X833360Y877920D01*
X833640Y883540D01*
X833720Y923520D01*
X821600Y923439D01*
X817240Y923020D01*
X813120Y922300D01*
X809740Y921360D01*
X808480Y920819D01*
X806300Y919340D01*
X804200Y917260D01*
X802440Y914880D01*
X801240Y912440D01*
X800420Y909320D01*
X800520Y906600D01*
X810780Y906600D01*
X810860Y908240D01*
X811820Y910240D01*
X813080Y911780D01*
X814780Y913139D01*
X816720Y914160D01*
X818660Y914720D01*
X821020Y914820D01*
X822380Y913960D01*
X823020Y911780D01*
X823180Y907880D01*
X823000Y904680D01*
X822460Y902340D01*
X821600Y900860D01*
X820420Y900360D01*
X819040Y900600D01*
X817280Y901260D01*
X815400Y902220D01*
X813580Y903400D01*
X811680Y905060D01*
X810780Y906600D01*
X800520Y906600D01*
X801640Y903780D01*
X803880Y900400D01*
X808540Y894100D01*
X802960Y885660D01*
X800660Y882380D01*
X798540Y879700D01*
X796840Y877880D01*
X795800Y877220D01*
X795500Y877420D01*
X794539Y879040D01*
X793139Y882060D01*
X791400Y886240D01*
X789400Y891380D01*
X781440Y913540D01*
X780280Y916440D01*
X779260Y918700D01*
X778300Y920440D01*
X777400Y921680D01*
X776460Y922540D01*
X775480Y923080D01*
X774380Y923379D01*
X773139Y923500D01*
G37*
G36*
X738319Y923300D02*
G01*
X737420Y923280D01*
X734860Y922860D01*
X733700Y922320D01*
X732840Y921340D01*
X732220Y919740D01*
X731760Y917320D01*
X731440Y913860D01*
X731000Y903120D01*
X730400Y883760D01*
X721520Y883120D01*
X717020Y882600D01*
X714200Y881700D01*
X712680Y880160D01*
X711979Y877740D01*
X711820Y876240D01*
X711940Y875080D01*
X712440Y874240D01*
X713520Y873680D01*
X715280Y873300D01*
X717880Y873100D01*
X726200Y873000D01*
X741080Y873000D01*
X741060Y909020D01*
X740900Y916140D01*
X740720Y918620D01*
X740460Y920460D01*
X740120Y921760D01*
X739659Y922620D01*
X739060Y923100D01*
G37*
G36*
X823680Y854060D02*
G01*
X822159Y853900D01*
X821720Y853280D01*
X822420Y852000D01*
X824240Y849840D01*
X825800Y848259D01*
X827180Y847080D01*
X828240Y846400D01*
X828840Y846380D01*
X829020Y846940D01*
X828980Y847920D01*
X828720Y849200D01*
X828280Y850600D01*
X827500Y851940D01*
X826380Y853040D01*
X825060Y853780D01*
G37*
G36*
X847820Y853840D02*
G01*
X847300Y853439D01*
X846800Y852240D01*
X846540Y851100D01*
X846540Y849980D01*
X846760Y849020D01*
X847180Y848300D01*
X847760Y847920D01*
X848439Y847780D01*
X849120Y847900D01*
X849720Y848300D01*
X850080Y849000D01*
X850120Y849980D01*
X849860Y851100D01*
X849320Y852220D01*
X848480Y853439D01*
G37*
G36*
X900920Y851940D02*
G01*
X896900Y851780D01*
X893600Y851320D01*
X891380Y850660D01*
X890560Y849840D01*
X891240Y849020D01*
X893139Y848360D01*
X895920Y847900D01*
X903180Y847480D01*
X906740Y846780D01*
X909760Y845680D01*
X911960Y844260D01*
X913520Y842320D01*
X914740Y839780D01*
X915540Y836840D01*
X915819Y833720D01*
X915520Y830540D01*
X914659Y827460D01*
X913340Y824700D01*
X911600Y822480D01*
X909460Y820819D01*
X906780Y819500D01*
X903880Y818600D01*
X901080Y818259D01*
X897720Y818460D01*
X895819Y819320D01*
X894960Y821220D01*
X894760Y824580D01*
X894960Y827720D01*
X895680Y829659D01*
X897099Y830620D01*
X899400Y830900D01*
X901400Y831020D01*
X902440Y831420D01*
X902540Y832120D01*
X901740Y833180D01*
X900460Y834020D01*
X898660Y834580D01*
X896600Y834860D01*
X894479Y834760D01*
X892000Y834100D01*
X890380Y832760D01*
X889380Y830460D01*
X888820Y826940D01*
X888720Y824000D01*
X888980Y821280D01*
X889539Y819060D01*
X890340Y817640D01*
X891960Y816800D01*
X894780Y816100D01*
X898379Y815620D01*
X902380Y815460D01*
X905080Y815500D01*
X907380Y815680D01*
X909340Y815980D01*
X911020Y816440D01*
X912500Y817080D01*
X913800Y817920D01*
X915000Y818960D01*
X916140Y820260D01*
X917700Y822760D01*
X918920Y825920D01*
X919740Y829440D01*
X920020Y832960D01*
X919720Y836600D01*
X918840Y840220D01*
X917460Y843560D01*
X915660Y846400D01*
X914340Y847980D01*
X913040Y849220D01*
X911680Y850200D01*
X910180Y850920D01*
X908439Y851420D01*
X906380Y851740D01*
X903900Y851900D01*
G37*
G36*
X870560Y843520D02*
G01*
X868360Y843259D01*
X866080Y842560D01*
X863960Y841500D01*
X862280Y840220D01*
X860900Y838540D01*
X859580Y836380D01*
X858460Y834040D01*
X857700Y831780D01*
X857400Y829320D01*
X857454Y828760D01*
X861460Y828760D01*
X861800Y831280D01*
X862800Y834060D01*
X864200Y836400D01*
X865920Y838040D01*
X868040Y839000D01*
X870580Y839320D01*
X872760Y839080D01*
X874700Y838439D01*
X876220Y837500D01*
X877080Y836360D01*
X877480Y834659D01*
X877680Y832200D01*
X877720Y829320D01*
X877540Y826360D01*
X876979Y822740D01*
X875920Y820500D01*
X874060Y819260D01*
X871100Y818660D01*
X868180Y818580D01*
X866020Y819240D01*
X864320Y820800D01*
X862860Y823379D01*
X861820Y826220D01*
X861460Y828760D01*
X857454Y828760D01*
X857660Y826660D01*
X858460Y824020D01*
X859740Y821560D01*
X861380Y819479D01*
X863379Y817560D01*
X865480Y816040D01*
X867440Y815100D01*
X869599Y814780D01*
X872039Y815020D01*
X874560Y815800D01*
X876979Y817080D01*
X879479Y819100D01*
X881060Y821480D01*
X881900Y824539D01*
X882140Y828680D01*
X881880Y832200D01*
X881180Y835500D01*
X880140Y838280D01*
X878820Y840220D01*
X877140Y841500D01*
X875020Y842560D01*
X872740Y843259D01*
G37*
G36*
X848439Y843520D02*
G01*
X847620Y842480D01*
X846940Y839580D01*
X846500Y835240D01*
X846340Y829840D01*
X846500Y824440D01*
X846940Y820100D01*
X847620Y817220D01*
X848439Y816160D01*
X849280Y817220D01*
X849940Y820100D01*
X850400Y824440D01*
X850560Y829840D01*
X850400Y835240D01*
X849940Y839580D01*
X849280Y842480D01*
G37*
G36*
X827700Y843520D02*
G01*
X825260Y843319D01*
X822880Y842780D01*
X820840Y841979D01*
X819400Y841000D01*
X818420Y839140D01*
X817620Y835980D01*
X817060Y831919D01*
X816860Y827440D01*
X816899Y826060D01*
X821080Y826060D01*
X821360Y827099D01*
X822159Y827940D01*
X823340Y828480D01*
X824760Y828620D01*
X826400Y828480D01*
X828139Y828199D01*
X829760Y827820D01*
X831080Y827400D01*
X832099Y826660D01*
X832940Y825460D01*
X833500Y823940D01*
X833720Y822300D01*
X833439Y820620D01*
X832700Y819360D01*
X831500Y818540D01*
X829920Y818259D01*
X828259Y818460D01*
X826500Y819000D01*
X824880Y819800D01*
X823600Y820800D01*
X822620Y821979D01*
X821820Y823379D01*
X821280Y824800D01*
X821080Y826060D01*
X816899Y826060D01*
X817020Y821880D01*
X817560Y818520D01*
X818700Y816880D01*
X820560Y816480D01*
X822340Y816380D01*
X824460Y816100D01*
X826660Y815660D01*
X828660Y815120D01*
X830780Y814760D01*
X832840Y815000D01*
X834780Y815800D01*
X836560Y817200D01*
X837900Y818660D01*
X839000Y820060D01*
X839740Y821260D01*
X840000Y822099D01*
X839840Y822880D01*
X839440Y823940D01*
X838860Y825160D01*
X838160Y826360D01*
X836900Y827580D01*
X834800Y828800D01*
X832159Y829880D01*
X826380Y831480D01*
X824120Y832580D01*
X822660Y833840D01*
X822140Y835200D01*
X822600Y836540D01*
X823960Y837620D01*
X826120Y838439D01*
X831600Y839340D01*
X833520Y839980D01*
X834599Y840740D01*
X834680Y841560D01*
X833760Y842320D01*
X832120Y842940D01*
X830020Y843379D01*
G37*
G36*
X798560Y843520D02*
G01*
X795620Y843340D01*
X793439Y842780D01*
X792080Y841919D01*
X791600Y840740D01*
X791979Y839560D01*
X793100Y838860D01*
X795000Y838620D01*
X800140Y839000D01*
X802360Y838800D01*
X804100Y838300D01*
X805100Y837500D01*
X805160Y836400D01*
X804320Y835020D01*
X802700Y833560D01*
X797940Y830720D01*
X795480Y829100D01*
X793400Y827460D01*
X791940Y826040D01*
X791060Y824599D01*
X790520Y822960D01*
X790380Y821280D01*
X790660Y819800D01*
X791500Y818439D01*
X792860Y817180D01*
X794560Y816100D01*
X796420Y815380D01*
X798560Y815020D01*
X801040Y814900D01*
X803540Y815040D01*
X805759Y815420D01*
X807620Y816000D01*
X809140Y816680D01*
X810180Y817400D01*
X810560Y818060D01*
X810000Y818560D01*
X808460Y818860D01*
X806200Y818900D01*
X800560Y818540D01*
X798000Y818760D01*
X796040Y819300D01*
X794940Y820100D01*
X795060Y821380D01*
X796460Y823240D01*
X798860Y825420D01*
X805360Y829980D01*
X808060Y832280D01*
X809880Y834280D01*
X810560Y835759D01*
X810360Y837020D01*
X809820Y838420D01*
X809000Y839800D01*
X808020Y841000D01*
X806500Y841979D01*
X804200Y842780D01*
X801440Y843319D01*
G37*
G36*
X824280Y788780D02*
G01*
X753520Y788580D01*
X706680Y788220D01*
X675300Y787720D01*
X665500Y787400D01*
X659700Y787039D01*
X657980Y786740D01*
X657920Y786640D01*
X658560Y786440D01*
X660200Y786240D01*
X666520Y785879D01*
X676900Y785580D01*
X691300Y785300D01*
X732180Y784900D01*
X789060Y784659D01*
X881020Y784580D01*
X958640Y784760D01*
X1006520Y785100D01*
X1024460Y785340D01*
X1038360Y785620D01*
X1048220Y785920D01*
X1054040Y786280D01*
X1055760Y786580D01*
X1055820Y786680D01*
X1055180Y786880D01*
X1053540Y787080D01*
X1047220Y787440D01*
X1036940Y787740D01*
X1022720Y788020D01*
X1004580Y788259D01*
X956780Y788600D01*
X927200Y788700D01*
G37*
G36*
X908520Y767740D02*
G01*
X907400Y767540D01*
X906100Y767000D01*
X904780Y766200D01*
X903600Y765220D01*
X902620Y764080D01*
X901820Y762860D01*
X901280Y761700D01*
X901080Y760740D01*
X901300Y760180D01*
X901919Y760080D01*
X902840Y760420D01*
X903960Y761200D01*
X905360Y762020D01*
X907020Y762500D01*
X908720Y762600D01*
X911620Y761940D01*
X912700Y761940D01*
X913439Y762280D01*
X913720Y762960D01*
X913600Y763840D01*
X913300Y764760D01*
X912860Y765639D01*
X912300Y766340D01*
X911580Y766880D01*
X910620Y767320D01*
X909560Y767620D01*
G37*
G36*
X933940Y765639D02*
G01*
X930980Y765460D01*
X928360Y765020D01*
X926380Y764340D01*
X925300Y763520D01*
X925340Y762660D01*
X926620Y762000D01*
X928960Y761580D01*
X935920Y761180D01*
X939100Y760500D01*
X941640Y759419D01*
X943400Y758000D01*
X944500Y756000D01*
X945420Y753120D01*
X946020Y749740D01*
X946240Y746220D01*
X946020Y742280D01*
X945280Y739140D01*
X944020Y736720D01*
X942200Y734900D01*
X940080Y733760D01*
X937280Y732820D01*
X934160Y732180D01*
X928300Y731800D01*
X926320Y731360D01*
X925280Y730699D01*
X925300Y729840D01*
X926380Y729020D01*
X928360Y728360D01*
X930980Y727900D01*
X933940Y727740D01*
X937500Y728060D01*
X940740Y729000D01*
X943700Y730620D01*
X946440Y732900D01*
X947760Y734320D01*
X948840Y735780D01*
X949740Y737260D01*
X950440Y738840D01*
X950980Y740540D01*
X951340Y742400D01*
X951540Y744419D01*
X951600Y746680D01*
X951540Y748940D01*
X951340Y750980D01*
X950980Y752820D01*
X950440Y754520D01*
X949740Y756100D01*
X948840Y757600D01*
X947760Y759040D01*
X946440Y760460D01*
X943700Y762760D01*
X940740Y764360D01*
X937500Y765320D01*
G37*
G36*
X769599Y757180D02*
G01*
X767680Y757000D01*
X765639Y756560D01*
X763700Y755900D01*
X762140Y755100D01*
X761060Y754140D01*
X761420Y753500D01*
X763319Y753160D01*
X770460Y752840D01*
X772900Y752280D01*
X774320Y751300D01*
X774760Y749880D01*
X774180Y748420D01*
X772600Y746760D01*
X770260Y745100D01*
X764140Y742039D01*
X761840Y740300D01*
X760480Y738400D01*
X760020Y736340D01*
X760360Y734500D01*
X761300Y732660D01*
X762660Y731020D01*
X764340Y729780D01*
X766380Y728940D01*
X768700Y728340D01*
X771060Y728060D01*
X773120Y728139D01*
X774920Y728560D01*
X776480Y729220D01*
X777660Y730040D01*
X778280Y730920D01*
X778040Y731740D01*
X776820Y732420D01*
X774860Y732860D01*
X769680Y733220D01*
X767380Y733780D01*
X765660Y734640D01*
X764780Y735660D01*
X764980Y736960D01*
X766280Y738460D01*
X768480Y740020D01*
X774580Y743060D01*
X776940Y744800D01*
X778460Y746600D01*
X778980Y748400D01*
X778780Y750060D01*
X778240Y751800D01*
X777420Y753400D01*
X776440Y754680D01*
X775120Y755660D01*
X773400Y756460D01*
X771480Y757000D01*
G37*
G36*
X859100Y757120D02*
G01*
X857240Y756860D01*
X855280Y755920D01*
X854340Y755160D01*
X853520Y754160D01*
X852840Y752860D01*
X852280Y751220D01*
X851820Y749200D01*
X851460Y746760D01*
X851180Y743880D01*
X850980Y740480D01*
X850840Y734820D01*
X851060Y730980D01*
X851620Y728940D01*
X852560Y728720D01*
X853420Y730160D01*
X854120Y733060D01*
X854580Y737000D01*
X854900Y747400D01*
X855460Y750879D01*
X856620Y752560D01*
X858560Y753000D01*
X860220Y752800D01*
X861979Y752260D01*
X863580Y751460D01*
X864860Y750480D01*
X865840Y748700D01*
X866660Y745720D01*
X867200Y741960D01*
X867560Y733920D01*
X867980Y730699D01*
X868620Y728540D01*
X869400Y727740D01*
X870220Y728700D01*
X871000Y731300D01*
X871620Y735140D01*
X872020Y739840D01*
X872240Y743620D01*
X872500Y746520D01*
X872860Y748660D01*
X873340Y750140D01*
X874040Y751100D01*
X875000Y751660D01*
X876280Y751900D01*
X879560Y751900D01*
X880840Y751660D01*
X881800Y751100D01*
X882500Y750140D01*
X883000Y748660D01*
X883340Y746520D01*
X883600Y743620D01*
X883820Y739840D01*
X884220Y735140D01*
X884840Y731300D01*
X885620Y728700D01*
X886440Y727740D01*
X886840Y728020D01*
X887220Y728860D01*
X887560Y730180D01*
X887860Y731919D01*
X888300Y736460D01*
X888439Y742000D01*
X888439Y756280D01*
X880560Y756160D01*
X877280Y755980D01*
X874220Y755600D01*
X871720Y755080D01*
X870120Y754440D01*
X868780Y754040D01*
X867060Y754120D01*
X865140Y754620D01*
X861060Y756680D01*
G37*
G36*
X907020Y757039D02*
G01*
X905380Y756840D01*
X903560Y756200D01*
X901740Y755180D01*
X900180Y753900D01*
X898780Y751820D01*
X897740Y748780D01*
X897099Y744920D01*
X896860Y740340D01*
X896886Y739740D01*
X901080Y739740D01*
X901480Y740800D01*
X902540Y741680D01*
X904140Y742260D01*
X906080Y742480D01*
X908220Y742240D01*
X910360Y741580D01*
X912260Y740600D01*
X913640Y739400D01*
X914520Y738040D01*
X915040Y736600D01*
X915140Y735240D01*
X914820Y734140D01*
X914000Y733300D01*
X912780Y732600D01*
X911320Y732120D01*
X909800Y731940D01*
X908180Y732140D01*
X906460Y732700D01*
X904880Y733500D01*
X903600Y734479D01*
X902620Y735680D01*
X901820Y737060D01*
X901280Y738480D01*
X901080Y739740D01*
X896886Y739740D01*
X897039Y736260D01*
X897480Y732720D01*
X898160Y730100D01*
X898980Y728780D01*
X899800Y728500D01*
X900460Y728640D01*
X900920Y729220D01*
X901200Y731300D01*
X901600Y731720D01*
X902380Y731360D01*
X903600Y730260D01*
X904940Y729280D01*
X906680Y728480D01*
X908640Y727940D01*
X910560Y727740D01*
X912460Y727940D01*
X914419Y728480D01*
X916180Y729280D01*
X917500Y730260D01*
X918480Y731540D01*
X919280Y733139D01*
X919820Y734860D01*
X920020Y736500D01*
X919700Y738120D01*
X918840Y739760D01*
X917540Y741260D01*
X915960Y742400D01*
X913940Y743240D01*
X911440Y743940D01*
X908800Y744400D01*
X903740Y744760D01*
X902140Y745380D01*
X901440Y746520D01*
X901500Y748259D01*
X902220Y749940D01*
X903660Y751080D01*
X905900Y751720D01*
X911660Y752039D01*
X913820Y752340D01*
X915280Y752780D01*
X915819Y753340D01*
X915600Y753960D01*
X915040Y754640D01*
X914200Y755300D01*
X913180Y755819D01*
X911880Y756240D01*
X910280Y756620D01*
X908600Y756900D01*
G37*
G36*
X839640Y756800D02*
G01*
X839100Y756640D01*
X837880Y754659D01*
X836740Y754280D01*
X835020Y754560D01*
X829900Y756480D01*
X827500Y756620D01*
X825060Y755920D01*
X822220Y754300D01*
X819620Y752220D01*
X817980Y749860D01*
X817120Y746820D01*
X816918Y743680D01*
X821380Y743680D01*
X821720Y746160D01*
X822360Y748340D01*
X823280Y749960D01*
X824560Y751140D01*
X826120Y752120D01*
X827820Y752760D01*
X829400Y753000D01*
X830920Y752880D01*
X832360Y752580D01*
X833580Y752140D01*
X834419Y751600D01*
X834960Y750400D01*
X835400Y748220D01*
X835699Y745320D01*
X835819Y742060D01*
X835620Y738340D01*
X834980Y735580D01*
X833900Y733680D01*
X832380Y732600D01*
X830759Y732260D01*
X828940Y732300D01*
X827120Y732680D01*
X825520Y733400D01*
X824160Y734680D01*
X822940Y736580D01*
X821979Y738860D01*
X821460Y741240D01*
X821380Y743680D01*
X816918Y743680D01*
X816860Y742760D01*
X817140Y739020D01*
X817900Y735800D01*
X819200Y733100D01*
X821000Y730980D01*
X823120Y729419D01*
X825400Y728500D01*
X827800Y728199D01*
X830340Y728540D01*
X833139Y729040D01*
X834800Y728520D01*
X835699Y726620D01*
X836640Y720380D01*
X837300Y718319D01*
X838100Y717020D01*
X838980Y716680D01*
X839400Y717120D01*
X839840Y718220D01*
X840260Y719900D01*
X841000Y724700D01*
X841300Y727660D01*
X841700Y734380D01*
X841820Y741340D01*
X841720Y747520D01*
X841420Y752280D01*
X841200Y753900D01*
X840920Y754920D01*
X840260Y756240D01*
G37*
G36*
X788940Y756220D02*
G01*
X788560Y755819D01*
X788220Y754860D01*
X787960Y753360D01*
X787620Y748820D01*
X787560Y742360D01*
X787700Y736480D01*
X787980Y732060D01*
X788360Y729520D01*
X788560Y729100D01*
X788780Y729300D01*
X789500Y730420D01*
X790540Y730840D01*
X792020Y730580D01*
X794080Y729640D01*
X796100Y728860D01*
X798480Y728400D01*
X800920Y728300D01*
X803120Y728580D01*
X805100Y729440D01*
X806900Y730840D01*
X808340Y732620D01*
X809220Y734560D01*
X809720Y737000D01*
X810120Y740140D01*
X810420Y743560D01*
X810520Y746860D01*
X810420Y749920D01*
X810080Y752660D01*
X809580Y754780D01*
X808980Y756000D01*
X808319Y756000D01*
X807700Y754760D01*
X807180Y752540D01*
X806120Y742360D01*
X805639Y739080D01*
X805180Y736560D01*
X804400Y734200D01*
X803160Y732800D01*
X801220Y732240D01*
X798379Y732340D01*
X796620Y732600D01*
X795240Y732980D01*
X794200Y733600D01*
X793439Y734520D01*
X792900Y735879D01*
X792520Y737780D01*
X791600Y747780D01*
X790960Y751540D01*
X790200Y754440D01*
X789380Y756060D01*
G37*
G36*
X851600Y708780D02*
G01*
X850500Y708600D01*
X849220Y708040D01*
X847920Y707240D01*
X846760Y706260D01*
X845780Y705140D01*
X844980Y703960D01*
X844440Y702860D01*
X844240Y701979D01*
X844580Y701480D01*
X845520Y701420D01*
X846900Y701780D01*
X850780Y703500D01*
X852640Y703800D01*
X854300Y703420D01*
X857120Y701540D01*
X858080Y701160D01*
X858740Y701240D01*
X858980Y701800D01*
X858780Y702740D01*
X858240Y703900D01*
X857420Y705120D01*
X856440Y706260D01*
X855280Y707240D01*
X853980Y708040D01*
X852700Y708600D01*
G37*
G36*
X924920Y706680D02*
G01*
X921380Y706520D01*
X918500Y706060D01*
X916540Y705400D01*
X915819Y704580D01*
X916460Y703760D01*
X918240Y703100D01*
X920879Y702640D01*
X927620Y702220D01*
X930939Y701520D01*
X933720Y700480D01*
X935660Y699160D01*
X936960Y697280D01*
X938000Y694599D01*
X938720Y691480D01*
X938980Y688280D01*
X938700Y685040D01*
X937960Y681800D01*
X936840Y678940D01*
X935480Y676840D01*
X933560Y675300D01*
X931020Y674080D01*
X928060Y673280D01*
X924960Y673000D01*
X921180Y673180D01*
X919040Y673980D01*
X918120Y675840D01*
X917920Y679160D01*
X918139Y682180D01*
X918920Y684220D01*
X920380Y685480D01*
X922660Y686160D01*
X925040Y686660D01*
X925960Y687140D01*
X925500Y687760D01*
X923720Y688640D01*
X922039Y689180D01*
X920180Y689460D01*
X918379Y689419D01*
X916860Y689080D01*
X915500Y688020D01*
X914520Y686080D01*
X913920Y683259D01*
X913720Y679599D01*
X913920Y675879D01*
X914539Y673060D01*
X915560Y671140D01*
X917039Y670060D01*
X918800Y669580D01*
X921160Y669160D01*
X923800Y668900D01*
X926400Y668780D01*
X929180Y669180D01*
X932300Y670220D01*
X935400Y671760D01*
X938060Y673640D01*
X939539Y675020D01*
X940780Y676380D01*
X941780Y677800D01*
X942540Y679320D01*
X943139Y680960D01*
X943540Y682800D01*
X943800Y684860D01*
X943940Y687200D01*
X943920Y689500D01*
X943780Y691580D01*
X943480Y693460D01*
X943000Y695180D01*
X942340Y696780D01*
X941480Y698300D01*
X940400Y699800D01*
X939100Y701300D01*
X937640Y702720D01*
X936220Y703900D01*
X934740Y704840D01*
X933180Y705560D01*
X931480Y706080D01*
X929560Y706420D01*
X927400Y706620D01*
G37*
G36*
X871600Y706680D02*
G01*
X870780Y706520D01*
X870120Y706060D01*
X869659Y705400D01*
X869500Y704580D01*
X869659Y703760D01*
X870120Y703100D01*
X870780Y702640D01*
X871600Y702480D01*
X872420Y702640D01*
X873100Y703100D01*
X873540Y703760D01*
X873720Y704580D01*
X873540Y705400D01*
X873100Y706060D01*
X872420Y706520D01*
G37*
G36*
X798980Y706680D02*
G01*
X797740Y706520D01*
X796740Y706060D01*
X796060Y705400D01*
X795819Y704580D01*
X796060Y703760D01*
X796740Y703100D01*
X797740Y702640D01*
X798980Y702480D01*
X800200Y702640D01*
X801200Y703100D01*
X801880Y703760D01*
X802140Y704580D01*
X801880Y705400D01*
X801200Y706060D01*
X800200Y706520D01*
G37*
G36*
X895240Y698259D02*
G01*
X893400Y698000D01*
X891220Y697300D01*
X888920Y696260D01*
X886820Y694980D01*
X884620Y693020D01*
X883180Y690620D01*
X882380Y687540D01*
X882140Y683520D01*
X886340Y683520D01*
X886540Y685860D01*
X887080Y688139D01*
X887880Y690120D01*
X888860Y691520D01*
X890160Y692500D01*
X891780Y693319D01*
X893540Y693860D01*
X895240Y694060D01*
X896900Y693640D01*
X898640Y692500D01*
X900220Y690840D01*
X901460Y688780D01*
X902480Y686040D01*
X902800Y683520D01*
X902480Y681020D01*
X901460Y678259D01*
X900220Y676220D01*
X898640Y674539D01*
X896900Y673420D01*
X895240Y673000D01*
X893540Y673199D01*
X891780Y673740D01*
X890160Y674539D01*
X888860Y675520D01*
X887880Y676940D01*
X887080Y678920D01*
X886540Y681200D01*
X886340Y683520D01*
X882140Y683520D01*
X882380Y679520D01*
X883180Y676440D01*
X884620Y674020D01*
X886820Y672060D01*
X888920Y670800D01*
X891220Y669760D01*
X893400Y669040D01*
X895240Y668780D01*
X897020Y669120D01*
X899120Y670020D01*
X901260Y671360D01*
X903180Y673000D01*
X904820Y675140D01*
X906160Y677820D01*
X907060Y680740D01*
X907400Y683520D01*
X907060Y686320D01*
X906160Y689220D01*
X904820Y691919D01*
X903180Y694060D01*
X901260Y695680D01*
X899120Y697020D01*
X897020Y697940D01*
G37*
G36*
X851680Y698259D02*
G01*
X849740Y698060D01*
X847760Y697520D01*
X846000Y696720D01*
X844659Y695740D01*
X844140Y694960D01*
X843660Y693760D01*
X843240Y692200D01*
X842620Y688139D01*
X842420Y685740D01*
X842303Y680980D01*
X846620Y680980D01*
X847080Y682440D01*
X848139Y683259D01*
X849880Y683500D01*
X851600Y683340D01*
X853439Y682920D01*
X855200Y682320D01*
X856640Y681600D01*
X857720Y680600D01*
X858360Y679260D01*
X858560Y677760D01*
X858240Y676220D01*
X857340Y674800D01*
X855980Y673820D01*
X854220Y673340D01*
X852140Y673379D01*
X850060Y673980D01*
X848439Y675100D01*
X847320Y676720D01*
X846720Y678780D01*
X846620Y680980D01*
X842303Y680980D01*
X842440Y675720D01*
X842700Y672180D01*
X843060Y670220D01*
X843460Y670140D01*
X844240Y671160D01*
X845580Y671500D01*
X847620Y671220D01*
X853540Y669320D01*
X855960Y669080D01*
X857980Y669539D01*
X859860Y670759D01*
X861140Y672099D01*
X862200Y673740D01*
X862920Y675460D01*
X863180Y677039D01*
X862980Y678620D01*
X862440Y680280D01*
X861640Y681840D01*
X860660Y683100D01*
X859220Y684080D01*
X857140Y684880D01*
X854720Y685440D01*
X849380Y685840D01*
X847560Y686560D01*
X846620Y687920D01*
X846340Y690080D01*
X846580Y692320D01*
X847500Y693540D01*
X849419Y693900D01*
X855120Y693360D01*
X857120Y693360D01*
X858480Y693600D01*
X858980Y694060D01*
X858860Y694720D01*
X858560Y695460D01*
X858120Y696200D01*
X857580Y696860D01*
X856680Y697400D01*
X855260Y697860D01*
X853540Y698160D01*
G37*
G36*
X798620Y698259D02*
G01*
X798480Y697960D01*
X798240Y695720D01*
X798040Y691700D01*
X797940Y686380D01*
X797960Y680100D01*
X798060Y677220D01*
X798240Y674780D01*
X798480Y672800D01*
X798780Y671300D01*
X799140Y670300D01*
X799560Y669800D01*
X800020Y669840D01*
X800840Y671300D01*
X801520Y674340D01*
X801960Y678480D01*
X802140Y683300D01*
X802020Y688139D01*
X801720Y692300D01*
X801280Y695360D01*
X800720Y696860D01*
X799539Y697860D01*
X799000Y698160D01*
G37*
G36*
X777820Y698240D02*
G01*
X775939Y698040D01*
X774020Y697520D01*
X772300Y696720D01*
X770980Y695740D01*
X770000Y693840D01*
X769200Y690520D01*
X768640Y686260D01*
X768440Y680980D01*
X772920Y680980D01*
X773379Y682420D01*
X774460Y683180D01*
X776200Y683360D01*
X777900Y683220D01*
X779680Y682940D01*
X781340Y682560D01*
X782660Y682140D01*
X783680Y681400D01*
X784520Y680160D01*
X785080Y678600D01*
X785300Y676900D01*
X785040Y674880D01*
X784120Y673700D01*
X782340Y673240D01*
X779500Y673379D01*
X776800Y673960D01*
X774900Y675000D01*
X773660Y676580D01*
X773040Y678780D01*
X772920Y680980D01*
X768440Y680980D01*
X768460Y669840D01*
X777159Y669840D01*
X781180Y670060D01*
X784320Y670740D01*
X786640Y671880D01*
X788199Y673520D01*
X789160Y675440D01*
X789479Y677220D01*
X789160Y679000D01*
X788220Y680900D01*
X786800Y682380D01*
X784620Y683700D01*
X781960Y684700D01*
X776020Y685740D01*
X774060Y686560D01*
X773120Y687760D01*
X773080Y689460D01*
X773820Y691040D01*
X775400Y692280D01*
X777800Y693160D01*
X784160Y694120D01*
X785860Y694659D01*
X786180Y695360D01*
X785160Y696280D01*
X783640Y697039D01*
X781760Y697640D01*
X779740Y698060D01*
G37*
G36*
X817780Y697980D02*
G01*
X815759Y697500D01*
X813880Y696300D01*
X813060Y695440D01*
X812360Y694320D01*
X811780Y692920D01*
X811320Y691200D01*
X810980Y689140D01*
X810740Y686740D01*
X810600Y683940D01*
X810560Y680740D01*
X810680Y675500D01*
X811080Y671880D01*
X811700Y669980D01*
X812540Y669940D01*
X813360Y671560D01*
X814120Y674460D01*
X814760Y678220D01*
X815660Y687980D01*
X816540Y691260D01*
X818060Y692960D01*
X820560Y693680D01*
X822880Y693700D01*
X824700Y692960D01*
X826160Y691360D01*
X827400Y688800D01*
X828220Y686060D01*
X828880Y682720D01*
X829340Y679200D01*
X829659Y673000D01*
X830080Y670939D01*
X830740Y669840D01*
X831600Y669840D01*
X832420Y671300D01*
X833100Y674340D01*
X833540Y678480D01*
X833720Y683300D01*
X833580Y688139D01*
X833259Y692340D01*
X832780Y695440D01*
X832180Y697000D01*
X831520Y697420D01*
X830900Y697480D01*
X830360Y697180D01*
X829960Y696520D01*
X829280Y695819D01*
X827860Y695639D01*
X825819Y695960D01*
X820200Y697740D01*
G37*
G36*
X872080Y697240D02*
G01*
X871600Y697220D01*
X870780Y695720D01*
X870120Y692660D01*
X869659Y688439D01*
X869500Y683520D01*
X869659Y678620D01*
X870120Y674400D01*
X870780Y671320D01*
X871600Y669840D01*
X872080Y669800D01*
X872500Y670300D01*
X872860Y671320D01*
X873160Y672840D01*
X873400Y674820D01*
X873680Y680200D01*
X873680Y686860D01*
X873400Y692220D01*
X873160Y694220D01*
X872860Y695740D01*
X872500Y696740D01*
G37*
D10*
X3001818Y1090273D02*
G01*
X3004544Y1088908D01*
X3007272Y1086181D01*
X3008635Y1083454D01*
X3010000Y1079364D01*
X3010000Y1072545D01*
X3008635Y1068454D01*
X3007272Y1065727D01*
X3004544Y1063000D01*
X3001818Y1061635D01*
X2996364Y1061635D01*
X2993635Y1063000D01*
X2990909Y1065727D01*
X2989544Y1068454D01*
X2988181Y1072545D01*
X2988181Y1079364D01*
X2989544Y1083454D01*
X2990909Y1086181D01*
X2993635Y1088908D01*
X2996364Y1090273D01*
X3001818Y1090273D01*
X2997727Y1067091D02*
G01*
X2989544Y1058908D01*
X2961454Y1080727D02*
G01*
X2962817Y1076635D01*
X2965545Y1073908D01*
X2969636Y1072545D01*
X2971000Y1072545D01*
X2975091Y1073908D01*
X2977817Y1076635D01*
X2979182Y1080727D01*
X2979182Y1082091D01*
X2977817Y1086181D01*
X2975091Y1088908D01*
X2971000Y1090273D01*
X2969636Y1090273D01*
X2965545Y1088908D01*
X2962817Y1086181D01*
X2961454Y1080727D01*
X2961454Y1073908D01*
X2962817Y1067091D01*
X2965545Y1063000D01*
X2969636Y1061635D01*
X2972363Y1061635D01*
X2976454Y1063000D01*
X2977817Y1065727D01*
X2571093Y1207462D02*
G01*
X2569728Y1204735D01*
X2567002Y1202006D01*
X2564274Y1200644D01*
X2560183Y1199279D01*
X2553365Y1199279D01*
X2549274Y1200644D01*
X2546547Y1202006D01*
X2543819Y1204735D01*
X2542456Y1207462D01*
X2542456Y1212916D01*
X2543819Y1215644D01*
X2546547Y1218371D01*
X2549274Y1219735D01*
X2553365Y1221098D01*
X2560183Y1221098D01*
X2564274Y1219735D01*
X2567002Y1218371D01*
X2569728Y1215644D01*
X2571093Y1212916D01*
X2571093Y1207462D01*
X2547911Y1211552D02*
G01*
X2539728Y1219735D01*
X2565637Y1230097D02*
G01*
X2567002Y1232824D01*
X2571093Y1236916D01*
X2542456Y1236916D01*
X2564274Y1247280D02*
G01*
X2565637Y1247280D01*
X2568365Y1248643D01*
X2569728Y1250007D01*
X2571093Y1252734D01*
X2571093Y1258189D01*
X2569728Y1260916D01*
X2568365Y1262280D01*
X2565637Y1263643D01*
X2562911Y1263643D01*
X2560183Y1262280D01*
X2556093Y1259553D01*
X2542456Y1245916D01*
X2542456Y1265007D01*
X3005000Y1155273D02*
G01*
X3005000Y1126635D01*
X3005000Y1155273D02*
G01*
X2992727Y1155273D01*
X2988635Y1153908D01*
X2987272Y1152545D01*
X2985909Y1149818D01*
X2985909Y1147091D01*
X2987272Y1144364D01*
X2988635Y1143000D01*
X2992727Y1141635D01*
X3005000Y1141635D01*
X2995455Y1141635D02*
G01*
X2985909Y1126635D01*
X2975545Y1148454D02*
G01*
X2975545Y1149818D01*
X2974182Y1152545D01*
X2972817Y1153908D01*
X2970091Y1155273D01*
X2964636Y1155273D01*
X2961908Y1153908D01*
X2960545Y1152545D01*
X2959182Y1149818D01*
X2959182Y1147091D01*
X2960545Y1144364D01*
X2963272Y1140273D01*
X2976908Y1126635D01*
X2957817Y1126635D01*
X2946090Y1155273D02*
G01*
X2931090Y1155273D01*
X2939273Y1144364D01*
X2935182Y1144364D01*
X2932455Y1143000D01*
X2931090Y1141635D01*
X2929727Y1137545D01*
X2929727Y1134818D01*
X2931090Y1130727D01*
X2933818Y1128000D01*
X2937908Y1126635D01*
X2941999Y1126635D01*
X2946090Y1128000D01*
X2947455Y1129364D01*
X2948818Y1132091D01*
X2523373Y1201999D02*
G01*
X2494736Y1201999D01*
X2523373Y1201999D02*
G01*
X2523373Y1214272D01*
X2522008Y1218364D01*
X2520645Y1219726D01*
X2517917Y1221091D01*
X2515191Y1221091D01*
X2512464Y1219726D01*
X2511099Y1218364D01*
X2509736Y1214272D01*
X2509736Y1201999D01*
X2509736Y1211545D02*
G01*
X2494736Y1221091D01*
X2523373Y1232818D02*
G01*
X2523373Y1247818D01*
X2512464Y1239636D01*
X2512464Y1243726D01*
X2511099Y1246455D01*
X2509736Y1247818D01*
X2505645Y1249182D01*
X2502917Y1249182D01*
X2498827Y1247818D01*
X2496099Y1245091D01*
X2494736Y1240999D01*
X2494736Y1236909D01*
X2496099Y1232818D01*
X2497464Y1231455D01*
X2500191Y1230091D01*
X2517917Y1258182D02*
G01*
X2519282Y1260909D01*
X2523373Y1265000D01*
X2494736Y1265000D01*
X2629447Y1082635D02*
G01*
X2658083Y1082635D01*
X2629447Y1092179D02*
G01*
X2629447Y1073089D01*
X2629447Y1064088D02*
G01*
X2658083Y1064088D01*
X2629447Y1064088D02*
G01*
X2629447Y1051815D01*
X2630811Y1047725D01*
X2632174Y1046361D01*
X2634902Y1044998D01*
X2638993Y1044998D01*
X2641719Y1046361D01*
X2643083Y1047725D01*
X2644447Y1051815D01*
X2644447Y1064088D01*
X2629447Y1022361D02*
G01*
X2648537Y1035997D01*
X2648537Y1015543D01*
X2629447Y1022361D02*
G01*
X2658083Y1022361D01*
X2634902Y1006543D02*
G01*
X2633537Y1003816D01*
X2629447Y999724D01*
X2658083Y999724D01*
X2035455Y1915273D02*
G01*
X2035455Y1886635D01*
X2045000Y1915273D02*
G01*
X2025909Y1915273D01*
X2016908Y1915273D02*
G01*
X2016908Y1886635D01*
X2016908Y1915273D02*
G01*
X2004636Y1915273D01*
X2000545Y1913908D01*
X1999182Y1912545D01*
X1997817Y1909818D01*
X1997817Y1905727D01*
X1999182Y1903000D01*
X2000545Y1901635D01*
X2004636Y1900273D01*
X2016908Y1900273D01*
X1988818Y1909818D02*
G01*
X1986090Y1911181D01*
X1981999Y1915273D01*
X1981999Y1886635D01*
X1966181Y1915273D02*
G01*
X1970272Y1913908D01*
X1971635Y1911181D01*
X1971635Y1908454D01*
X1970272Y1905727D01*
X1967545Y1904364D01*
X1962091Y1903000D01*
X1958000Y1901635D01*
X1955272Y1898908D01*
X1953909Y1896181D01*
X1953909Y1892091D01*
X1955272Y1889364D01*
X1956635Y1888000D01*
X1960726Y1886635D01*
X1966181Y1886635D01*
X1970272Y1888000D01*
X1971635Y1889364D01*
X1973000Y1892091D01*
X1973000Y1896181D01*
X1971635Y1898908D01*
X1968909Y1901635D01*
X1964817Y1903000D01*
X1959363Y1904364D01*
X1956635Y1905727D01*
X1955272Y1908454D01*
X1955272Y1911181D01*
X1956635Y1913908D01*
X1960726Y1915273D01*
X1966181Y1915273D01*
D11*
X641131Y1281131D02*
G01*
X641131Y641131D01*
X1081131Y641131D01*
X1081131Y1281131D01*
X641131Y1281131D01*
D10*
X2979490Y1174520D02*
G01*
X2910499Y1174520D01*
X2910499Y1215527D01*
X2979490Y1295479D02*
G01*
X2910499Y1295479D01*
X2910499Y1254472D01*
X2979490Y1217071D02*
G01*
X2979490Y1252928D01*
X2700509Y1285479D02*
G01*
X2769501Y1285479D01*
X2769501Y1244472D01*
X2700509Y1164520D02*
G01*
X2769501Y1164520D01*
X2769501Y1205527D01*
X2700509Y1242928D02*
G01*
X2700509Y1207071D01*
D12*
X2961059Y1312440D02*
G01*
X2961059Y1320320D01*
X2976809Y1332130D01*
X2953190Y1340000D01*
X2976809Y1351810D01*
X2961059Y1359679D01*
X2961059Y1367559D01*
X2647560Y1221060D02*
G01*
X2639679Y1221060D01*
X2627870Y1236810D01*
X2620000Y1213189D01*
X2608190Y1236810D01*
X2600320Y1221060D01*
X2592439Y1221060D01*
M02*
