G04 Layer: BottomSolderMaskLayer*
G04 EasyEDA v6.5.22, 2023-01-05 17:43:04*
G04 408631a24da54ebd81f1ad95a11f4f05,373fc183506b451e961249744e80b011,10*
G04 Gerber Generator version 0.2*
G04 Scale: 100 percent, Rotated: No, Reflected: No *
G04 Dimensions in inches *
G04 leading zeros omitted , absolute positions ,3 integer and 6 decimal *
%FSLAX36Y36*%
%MOIN*%

%AMMACRO1*1,1,$1,$2,$3*1,1,$1,$4,$5*1,1,$1,0-$2,0-$3*1,1,$1,0-$4,0-$5*20,1,$1,$2,$3,$4,$5,0*20,1,$1,$4,$5,0-$2,0-$3,0*20,1,$1,0-$2,0-$3,0-$4,0-$5,0*20,1,$1,0-$4,0-$5,$2,$3,0*4,1,4,$2,$3,$4,$5,0-$2,0-$3,0-$4,0-$5,$2,$3,0*%
%ADD10MACRO1,0.004X-0.0211X-0.0118X0.0211X-0.0118*%
%ADD11MACRO1,0.004X0.0211X0.0118X-0.0211X0.0118*%
%ADD12C,0.0433*%
%ADD13C,0.0631*%
%ADD14MACRO1,0.004X0.0295X0.0295X0.0295X-0.0295*%
%ADD15C,0.0680*%
%ADD16C,0.0840*%
%ADD17O,0.10800000000000001X0.078*%
%ADD18O,0.078X0.10800000000000001*%
%ADD19C,0.0640*%
%ADD20O,0.080835X0.106425*%
%ADD21C,0.2049*%
%ADD22C,0.0106*%

%LPD*%
G36*
X236000Y1276400D02*
G01*
X230980Y1276260D01*
X226380Y1275820D01*
X222200Y1275080D01*
X218440Y1274040D01*
X215120Y1272720D01*
X212200Y1271100D01*
X208660Y1268060D01*
X206119Y1264340D01*
X204600Y1259960D01*
X204109Y1255000D01*
X213800Y1255000D01*
X213939Y1256640D01*
X214340Y1258100D01*
X215040Y1259340D01*
X216000Y1260400D01*
X217260Y1261280D01*
X218860Y1262040D01*
X220760Y1262680D01*
X223000Y1263200D01*
X228660Y1263880D01*
X236000Y1264100D01*
X243619Y1263880D01*
X249300Y1263200D01*
X251480Y1262740D01*
X253359Y1262120D01*
X254880Y1261380D01*
X256100Y1260500D01*
X257020Y1259500D01*
X257680Y1258280D01*
X258060Y1256840D01*
X258200Y1255200D01*
X258060Y1253420D01*
X257680Y1251880D01*
X257020Y1250560D01*
X256100Y1249500D01*
X254880Y1248620D01*
X253359Y1247880D01*
X251480Y1247260D01*
X249300Y1246800D01*
X243619Y1246200D01*
X236000Y1246000D01*
X228420Y1246200D01*
X222700Y1246800D01*
X220520Y1247320D01*
X218660Y1247960D01*
X217120Y1248720D01*
X215900Y1249600D01*
X214980Y1250620D01*
X214320Y1251840D01*
X213939Y1253320D01*
X213800Y1255000D01*
X204109Y1255000D01*
X204420Y1250860D01*
X205380Y1247240D01*
X206980Y1244040D01*
X209200Y1241260D01*
X212079Y1238920D01*
X215580Y1237000D01*
X219740Y1235520D01*
X224520Y1234460D01*
X229940Y1233820D01*
X236000Y1233600D01*
X241300Y1233760D01*
X246080Y1234200D01*
X250340Y1234940D01*
X254100Y1236000D01*
X260240Y1238900D01*
X264500Y1243000D01*
X266980Y1248380D01*
X267800Y1255300D01*
X267300Y1260380D01*
X265820Y1264760D01*
X263360Y1268380D01*
X259899Y1271300D01*
X257020Y1272860D01*
X253680Y1274140D01*
X249920Y1275120D01*
X245720Y1275840D01*
X241080Y1276260D01*
G37*
G36*
X205000Y1223900D02*
G01*
X205000Y1211200D01*
X218400Y1211200D01*
X218400Y1223900D01*
G37*
G36*
X205000Y1202600D02*
G01*
X205000Y1160700D01*
X214200Y1160700D01*
X214200Y1176000D01*
X256400Y1176000D01*
X247100Y1161200D01*
X256900Y1161200D01*
X266900Y1176700D01*
X266900Y1188400D01*
X214200Y1188400D01*
X214200Y1202600D01*
G37*
G36*
X252500Y1154600D02*
G01*
X205000Y1137100D01*
X205000Y1122300D01*
X252500Y1105300D01*
X252500Y1118400D01*
X226000Y1126700D01*
X215000Y1129800D01*
X221300Y1131600D01*
X252500Y1141700D01*
G37*
G36*
X205000Y1073900D02*
G01*
X205000Y1062400D01*
X243800Y1062420D01*
X256000Y1062900D01*
X245980Y1060200D01*
X239500Y1058300D01*
X205000Y1047099D01*
X205000Y1037900D01*
X239500Y1026700D01*
X256000Y1022000D01*
X247520Y1022380D01*
X242500Y1022500D01*
X205000Y1022500D01*
X205000Y1011000D01*
X266900Y1011000D01*
X266900Y1028400D01*
X229000Y1040400D01*
X220600Y1042500D01*
X230600Y1045300D01*
X266900Y1056700D01*
X266900Y1073900D01*
G37*
G36*
X205000Y1002600D02*
G01*
X205000Y989800D01*
X220799Y984300D01*
X220799Y981400D01*
X230600Y981400D01*
X248400Y975300D01*
X257399Y972500D01*
X253780Y971480D01*
X230600Y963600D01*
X230600Y981400D01*
X220799Y981400D01*
X220799Y960699D01*
X205000Y955200D01*
X205000Y942200D01*
X266900Y964800D01*
X266900Y980100D01*
G37*
G36*
X221800Y937500D02*
G01*
X217640Y935480D01*
X214020Y933020D01*
X210980Y930140D01*
X208500Y926800D01*
X206580Y923120D01*
X205200Y919080D01*
X204380Y914659D01*
X204100Y909900D01*
X204340Y905120D01*
X205040Y900720D01*
X206220Y896680D01*
X207880Y893020D01*
X210000Y889720D01*
X212600Y886800D01*
X215580Y884320D01*
X218960Y882300D01*
X222700Y880720D01*
X226820Y879599D01*
X231320Y878920D01*
X236200Y878700D01*
X241100Y878920D01*
X245620Y879580D01*
X249720Y880680D01*
X253440Y882220D01*
X256759Y884180D01*
X259700Y886600D01*
X262180Y889400D01*
X264200Y892600D01*
X265780Y896200D01*
X266900Y900200D01*
X267580Y904599D01*
X267800Y909400D01*
X267540Y914599D01*
X266720Y919280D01*
X265380Y923439D01*
X263500Y927099D01*
X261040Y930280D01*
X258080Y932960D01*
X254600Y935080D01*
X250600Y936700D01*
X247500Y925300D01*
X249720Y924419D01*
X251700Y923180D01*
X253420Y921560D01*
X254899Y919599D01*
X256920Y915000D01*
X257600Y909599D01*
X257260Y905460D01*
X256260Y901880D01*
X254560Y898820D01*
X252200Y896300D01*
X249140Y894280D01*
X245460Y892860D01*
X241140Y891979D01*
X236200Y891700D01*
X231200Y892000D01*
X226820Y892880D01*
X223060Y894340D01*
X219899Y896400D01*
X217440Y899000D01*
X215700Y902120D01*
X214640Y905759D01*
X214300Y909900D01*
X215040Y915340D01*
X217240Y919880D01*
X220940Y923500D01*
X226100Y926200D01*
G37*
G36*
X236200Y846200D02*
G01*
X231540Y845960D01*
X227140Y845260D01*
X223039Y844060D01*
X219200Y842400D01*
X215760Y840300D01*
X212740Y837780D01*
X210159Y834840D01*
X208000Y831500D01*
X206300Y827760D01*
X205080Y823720D01*
X204340Y819400D01*
X204100Y814800D01*
X214300Y814800D01*
X214660Y818900D01*
X215720Y822520D01*
X217500Y825660D01*
X220000Y828300D01*
X223160Y830360D01*
X226900Y831820D01*
X231260Y832700D01*
X236200Y833000D01*
X240980Y832700D01*
X245200Y831800D01*
X248880Y830300D01*
X252000Y828199D01*
X254460Y825600D01*
X256200Y822520D01*
X257260Y818960D01*
X257600Y814900D01*
X257260Y810800D01*
X256200Y807200D01*
X254440Y804100D01*
X252000Y801500D01*
X248920Y799400D01*
X245240Y797900D01*
X241020Y797000D01*
X236200Y796700D01*
X231380Y797000D01*
X227100Y797920D01*
X223380Y799460D01*
X220200Y801600D01*
X217620Y804260D01*
X215780Y807340D01*
X214660Y810860D01*
X214300Y814800D01*
X204100Y814800D01*
X204340Y810140D01*
X205060Y805819D01*
X206260Y801860D01*
X207920Y798220D01*
X210080Y794940D01*
X212700Y792000D01*
X215740Y789460D01*
X219140Y787380D01*
X222880Y785780D01*
X226960Y784620D01*
X231400Y783940D01*
X236200Y783700D01*
X240980Y783920D01*
X245420Y784620D01*
X249480Y785759D01*
X253180Y787340D01*
X256520Y789400D01*
X259500Y791900D01*
X262040Y794840D01*
X264120Y798139D01*
X265720Y801800D01*
X266880Y805819D01*
X267560Y810180D01*
X267800Y814900D01*
X267560Y819640D01*
X266860Y824040D01*
X265700Y828060D01*
X264060Y831700D01*
X261960Y834980D01*
X259400Y837900D01*
X256420Y840440D01*
X253080Y842520D01*
X249400Y844120D01*
X245360Y845280D01*
X240960Y845960D01*
G37*
G36*
X272200Y831100D02*
G01*
X272200Y824100D01*
X278900Y815200D01*
X278900Y815000D01*
X272200Y805699D01*
X272200Y798700D01*
X273500Y798700D01*
X285600Y810100D01*
X285600Y820100D01*
X273500Y831100D01*
G37*
G36*
X222700Y775900D02*
G01*
X218700Y775500D01*
X215180Y774320D01*
X212140Y772360D01*
X209600Y769599D01*
X207580Y766140D01*
X206140Y762039D01*
X205280Y757340D01*
X205000Y752000D01*
X205000Y734000D01*
X214600Y734000D01*
X214600Y750900D01*
X214740Y753800D01*
X215180Y756280D01*
X215900Y758340D01*
X216900Y760000D01*
X218180Y761260D01*
X219760Y762180D01*
X221580Y762720D01*
X223700Y762900D01*
X227500Y762120D01*
X230219Y759780D01*
X231860Y755860D01*
X232399Y750400D01*
X232399Y734000D01*
X242000Y734000D01*
X242000Y748800D01*
X242120Y751360D01*
X242480Y753560D01*
X243060Y755360D01*
X243900Y756800D01*
X244960Y757900D01*
X246280Y758680D01*
X247820Y759140D01*
X249600Y759300D01*
X251540Y759140D01*
X253180Y758620D01*
X254500Y757780D01*
X255500Y756600D01*
X256280Y755140D01*
X256840Y753319D01*
X257180Y751180D01*
X257300Y748700D01*
X257300Y734000D01*
X205000Y734000D01*
X205000Y721000D01*
X266900Y721000D01*
X266900Y749400D01*
X266660Y754700D01*
X265920Y759320D01*
X264700Y763259D01*
X263000Y766500D01*
X258140Y770860D01*
X251400Y772300D01*
X248860Y772120D01*
X246520Y771580D01*
X244400Y770660D01*
X242500Y769400D01*
X239420Y765720D01*
X237600Y760500D01*
X235960Y767120D01*
X232800Y772000D01*
X228380Y774920D01*
G37*
G36*
X236200Y711200D02*
G01*
X231540Y710960D01*
X227140Y710260D01*
X223039Y709060D01*
X219200Y707400D01*
X215760Y705300D01*
X212740Y702780D01*
X210159Y699840D01*
X208000Y696500D01*
X206300Y692760D01*
X205080Y688720D01*
X204340Y684400D01*
X204100Y679800D01*
X214300Y679800D01*
X214660Y683900D01*
X215720Y687520D01*
X217500Y690660D01*
X220000Y693300D01*
X223160Y695360D01*
X226900Y696820D01*
X231260Y697700D01*
X236200Y698000D01*
X240980Y697700D01*
X245200Y696800D01*
X248880Y695300D01*
X252000Y693199D01*
X254460Y690600D01*
X256200Y687520D01*
X257260Y683960D01*
X257600Y679900D01*
X257260Y675800D01*
X256200Y672200D01*
X254440Y669100D01*
X252000Y666500D01*
X248920Y664400D01*
X245240Y662900D01*
X241020Y662000D01*
X236200Y661700D01*
X231380Y662000D01*
X227100Y662920D01*
X223380Y664460D01*
X220200Y666600D01*
X217620Y669260D01*
X215780Y672340D01*
X214660Y675860D01*
X214300Y679800D01*
X204100Y679800D01*
X204340Y675140D01*
X205060Y670819D01*
X206260Y666860D01*
X207920Y663220D01*
X210080Y659940D01*
X212700Y657000D01*
X215740Y654460D01*
X219140Y652380D01*
X222880Y650780D01*
X226960Y649620D01*
X231400Y648940D01*
X236200Y648700D01*
X240980Y648920D01*
X245420Y649620D01*
X249480Y650759D01*
X253180Y652340D01*
X256520Y654400D01*
X259500Y656900D01*
X262040Y659840D01*
X264120Y663139D01*
X265720Y666800D01*
X266880Y670819D01*
X267560Y675180D01*
X267800Y679900D01*
X267560Y684640D01*
X266860Y689040D01*
X265700Y693060D01*
X264060Y696700D01*
X261960Y699980D01*
X259400Y702900D01*
X256420Y705440D01*
X253080Y707520D01*
X249400Y709120D01*
X245360Y710280D01*
X240960Y710960D01*
G37*
G36*
X205000Y643100D02*
G01*
X205000Y628600D01*
X228500Y614200D01*
X228500Y599000D01*
X238600Y599000D01*
X238600Y615900D01*
X238740Y618480D01*
X239200Y620720D01*
X239940Y622640D01*
X241000Y624200D01*
X242360Y625420D01*
X243980Y626300D01*
X245820Y626820D01*
X247900Y627000D01*
X251840Y626280D01*
X254660Y624140D01*
X256340Y620580D01*
X256900Y615600D01*
X256900Y599000D01*
X205000Y599000D01*
X205000Y586000D01*
X266900Y586000D01*
X266900Y617000D01*
X266600Y622200D01*
X265720Y626780D01*
X264260Y630740D01*
X262200Y634100D01*
X259540Y636720D01*
X256380Y638600D01*
X252700Y639720D01*
X248500Y640100D01*
X242420Y639180D01*
X237200Y636400D01*
X233299Y632040D01*
X231000Y626400D01*
G37*
D10*
G01*
X2993622Y1272400D03*
G01*
X2993622Y1197600D03*
G01*
X2896377Y1235000D03*
D11*
G01*
X2686377Y1187600D03*
G01*
X2686377Y1262400D03*
G01*
X2783622Y1225000D03*
G36*
X2913699Y1310399D02*
G01*
X2912899Y1310500D01*
X2911899Y1310599D01*
X2911000Y1310900D01*
X2910100Y1311300D01*
X2909300Y1311799D01*
X2908599Y1312399D01*
X2907899Y1313099D01*
X2907299Y1313800D01*
X2906800Y1314699D01*
X2906400Y1315500D01*
X2906099Y1316399D01*
X2905900Y1317399D01*
X2905900Y1362600D01*
X2906099Y1363600D01*
X2906400Y1364499D01*
X2906800Y1365300D01*
X2907299Y1366199D01*
X2907899Y1366900D01*
X2908599Y1367600D01*
X2909300Y1368200D01*
X2910100Y1368699D01*
X2911000Y1369099D01*
X2911899Y1369400D01*
X2912899Y1369499D01*
X2913699Y1369600D01*
X2937600Y1369600D01*
X2938400Y1369499D01*
X2939300Y1369400D01*
X2940299Y1369099D01*
X2941099Y1368699D01*
X2941999Y1368200D01*
X2942700Y1367600D01*
X2943400Y1366900D01*
X2943999Y1366199D01*
X2944499Y1365300D01*
X2944899Y1364499D01*
X2945100Y1363600D01*
X2945299Y1362600D01*
X2945399Y1361799D01*
X2945399Y1318200D01*
X2945299Y1317399D01*
X2945100Y1316399D01*
X2944899Y1315500D01*
X2944499Y1314699D01*
X2943999Y1313800D01*
X2943400Y1313099D01*
X2942700Y1312399D01*
X2941999Y1311799D01*
X2941099Y1311300D01*
X2940299Y1310900D01*
X2939300Y1310599D01*
X2938400Y1310500D01*
X2937600Y1310399D01*
G37*
G36*
X2992399Y1310399D02*
G01*
X2991599Y1310500D01*
X2990699Y1310599D01*
X2989700Y1310900D01*
X2988900Y1311300D01*
X2988000Y1311799D01*
X2987299Y1312399D01*
X2986599Y1313099D01*
X2986000Y1313800D01*
X2985500Y1314699D01*
X2985100Y1315500D01*
X2984899Y1316399D01*
X2984700Y1317399D01*
X2984600Y1318200D01*
X2984600Y1361799D01*
X2984700Y1362600D01*
X2984899Y1363600D01*
X2985100Y1364499D01*
X2985500Y1365300D01*
X2986000Y1366199D01*
X2986599Y1366900D01*
X2987299Y1367600D01*
X2988000Y1368200D01*
X2988900Y1368699D01*
X2989700Y1369099D01*
X2990699Y1369400D01*
X2991599Y1369499D01*
X2992399Y1369600D01*
X3016300Y1369600D01*
X3017100Y1369499D01*
X3018100Y1369400D01*
X3018999Y1369099D01*
X3019899Y1368699D01*
X3020699Y1368200D01*
X3021400Y1367600D01*
X3022100Y1366900D01*
X3022700Y1366199D01*
X3023199Y1365300D01*
X3023599Y1364499D01*
X3023900Y1363600D01*
X3024099Y1362600D01*
X3024099Y1317399D01*
X3023900Y1316399D01*
X3023599Y1315500D01*
X3023199Y1314699D01*
X3022700Y1313800D01*
X3022100Y1313099D01*
X3021400Y1312399D01*
X3020699Y1311799D01*
X3019899Y1311300D01*
X3018999Y1310900D01*
X3018100Y1310599D01*
X3017100Y1310500D01*
X3016300Y1310399D01*
G37*
G36*
X2597399Y1165900D02*
G01*
X2596400Y1166100D01*
X2595500Y1166399D01*
X2594700Y1166799D01*
X2593800Y1167300D01*
X2593100Y1167899D01*
X2592399Y1168600D01*
X2591800Y1169299D01*
X2591300Y1170100D01*
X2590900Y1170999D01*
X2590600Y1171900D01*
X2590500Y1172899D01*
X2590399Y1173699D01*
X2590399Y1197600D01*
X2590500Y1198400D01*
X2590600Y1199299D01*
X2590900Y1200300D01*
X2591300Y1201100D01*
X2591800Y1201999D01*
X2592399Y1202699D01*
X2593100Y1203400D01*
X2593800Y1204000D01*
X2594700Y1204499D01*
X2595500Y1204899D01*
X2596400Y1205100D01*
X2597399Y1205300D01*
X2598199Y1205399D01*
X2641800Y1205399D01*
X2642600Y1205300D01*
X2643599Y1205100D01*
X2644499Y1204899D01*
X2645299Y1204499D01*
X2646199Y1204000D01*
X2646899Y1203400D01*
X2647600Y1202699D01*
X2648199Y1201999D01*
X2648699Y1201100D01*
X2649099Y1200300D01*
X2649399Y1199299D01*
X2649499Y1198400D01*
X2649600Y1197600D01*
X2649600Y1173699D01*
X2649499Y1172899D01*
X2649399Y1171900D01*
X2649099Y1170999D01*
X2648699Y1170100D01*
X2648199Y1169299D01*
X2647600Y1168600D01*
X2646899Y1167899D01*
X2646199Y1167300D01*
X2645299Y1166799D01*
X2644499Y1166399D01*
X2643599Y1166100D01*
X2642600Y1165900D01*
G37*
G36*
X2598199Y1244600D02*
G01*
X2597399Y1244699D01*
X2596400Y1244899D01*
X2595500Y1245100D01*
X2594700Y1245500D01*
X2593800Y1245999D01*
X2593100Y1246599D01*
X2592399Y1247300D01*
X2591800Y1248000D01*
X2591300Y1248899D01*
X2590900Y1249699D01*
X2590600Y1250700D01*
X2590500Y1251599D01*
X2590399Y1252399D01*
X2590399Y1276300D01*
X2590500Y1277100D01*
X2590600Y1278099D01*
X2590900Y1279000D01*
X2591300Y1279899D01*
X2591800Y1280700D01*
X2592399Y1281399D01*
X2593100Y1282100D01*
X2593800Y1282699D01*
X2594700Y1283200D01*
X2595500Y1283600D01*
X2596400Y1283899D01*
X2597399Y1284099D01*
X2642600Y1284099D01*
X2643599Y1283899D01*
X2644499Y1283600D01*
X2645299Y1283200D01*
X2646199Y1282699D01*
X2646899Y1282100D01*
X2647600Y1281399D01*
X2648199Y1280700D01*
X2648699Y1279899D01*
X2649099Y1279000D01*
X2649399Y1278099D01*
X2649499Y1277100D01*
X2649600Y1276300D01*
X2649600Y1252399D01*
X2649499Y1251599D01*
X2649399Y1250700D01*
X2649099Y1249699D01*
X2648699Y1248899D01*
X2648199Y1248000D01*
X2647600Y1247300D01*
X2646899Y1246599D01*
X2646199Y1245999D01*
X2645299Y1245500D01*
X2644499Y1245100D01*
X2643599Y1244899D01*
X2642600Y1244699D01*
X2641800Y1244600D01*
G37*
D12*
G01*
X2645000Y1135000D03*
G01*
X2010000Y1860000D03*
D13*
G01*
X2740000Y1325000D03*
G01*
X2740000Y1125000D03*
G01*
X2740000Y1025000D03*
G01*
X2740000Y925000D03*
G01*
X2540000Y925000D03*
G01*
X2540000Y1025000D03*
G01*
X2540000Y1125000D03*
D14*
G01*
X2540000Y1325000D03*
D13*
G01*
X3065000Y1325000D03*
G01*
X3065000Y1125000D03*
G01*
X3065000Y1025000D03*
G01*
X3065000Y925000D03*
G01*
X2865000Y925000D03*
G01*
X2865000Y1025000D03*
G01*
X2865000Y1125000D03*
D14*
G01*
X2865000Y1325000D03*
D15*
G01*
X3015959Y593389D03*
G01*
X3015959Y693389D03*
G01*
X2480950Y593389D03*
G01*
X2480950Y693389D03*
G01*
X2748450Y593389D03*
G01*
X2748450Y693389D03*
G01*
X2480959Y333389D03*
G01*
X2480959Y433389D03*
G01*
X2748450Y335889D03*
G01*
X2748450Y435889D03*
G01*
X3015950Y335889D03*
G01*
X3015950Y435889D03*
G01*
X2480959Y90889D03*
G01*
X2480959Y190889D03*
G01*
X2748450Y90889D03*
G01*
X2748450Y190889D03*
G01*
X3015950Y90889D03*
G01*
X3015950Y190889D03*
G01*
X2376610Y2195000D03*
G01*
X2276610Y2195000D03*
D16*
G01*
X1492500Y225000D03*
G01*
X1492500Y65000D03*
G01*
X1732500Y225000D03*
G01*
X1732500Y65000D03*
G01*
X2250000Y65000D03*
G01*
X2250000Y225000D03*
G01*
X2010000Y65000D03*
G01*
X2010000Y225000D03*
G01*
X975000Y225000D03*
G01*
X975000Y65000D03*
G01*
X1215000Y225000D03*
G01*
X1215000Y65000D03*
D17*
G01*
X370000Y1835000D03*
G01*
X370000Y1735000D03*
G01*
X370000Y1935000D03*
G01*
X370000Y2145000D03*
G01*
X370000Y2045000D03*
G01*
X370000Y2245000D03*
D18*
G01*
X800000Y2195000D03*
G01*
X700000Y2195000D03*
G01*
X900000Y2195000D03*
G01*
X1900000Y2195000D03*
G01*
X1800000Y2195000D03*
G01*
X2000000Y2195000D03*
G01*
X1350000Y2195000D03*
G01*
X1250000Y2195000D03*
G01*
X1450000Y2195000D03*
D15*
G01*
X2905000Y2160000D03*
G01*
X2605000Y2160000D03*
G01*
X2705000Y2160000D03*
G01*
X2805000Y2160000D03*
G01*
X388110Y1541610D03*
G01*
X388110Y1441610D03*
D19*
G01*
X534369Y180000D03*
G01*
X613110Y180000D03*
G01*
X691849Y180000D03*
G01*
X455630Y180000D03*
G01*
X376889Y180000D03*
G01*
X298150Y180000D03*
D20*
G01*
X2405000Y1455000D03*
G01*
X2505000Y1455000D03*
G01*
X2705000Y1455000D03*
G01*
X2805000Y1455000D03*
G01*
X2905000Y1455000D03*
G01*
X3005000Y1455000D03*
G01*
X3105000Y1455000D03*
G01*
X3105000Y1955000D03*
G01*
X3005000Y1955000D03*
G01*
X2905000Y1955000D03*
G01*
X2805000Y1955000D03*
G01*
X2705000Y1955000D03*
G01*
X2605000Y1955000D03*
G01*
X2505000Y1955000D03*
G01*
X2405000Y1955000D03*
G01*
X2605000Y1455000D03*
D21*
G01*
X1070000Y1966350D03*
G01*
X2250000Y1966350D03*
G01*
X1070000Y391550D03*
G01*
X2251099Y391550D03*
M02*
