G04 Layer: TopSolderMaskLayer*
G04 EasyEDA v6.5.22, 2023-01-05 17:43:04*
G04 408631a24da54ebd81f1ad95a11f4f05,373fc183506b451e961249744e80b011,10*
G04 Gerber Generator version 0.2*
G04 Scale: 100 percent, Rotated: No, Reflected: No *
G04 Dimensions in inches *
G04 leading zeros omitted , absolute positions ,3 integer and 6 decimal *
%FSLAX36Y36*%
%MOIN*%

%AMMACRO1*1,1,$1,$2,$3*1,1,$1,$4,$5*1,1,$1,0-$2,0-$3*1,1,$1,0-$4,0-$5*20,1,$1,$2,$3,$4,$5,0*20,1,$1,$4,$5,0-$2,0-$3,0*20,1,$1,0-$2,0-$3,0-$4,0-$5,0*20,1,$1,0-$4,0-$5,$2,$3,0*4,1,4,$2,$3,$4,$5,0-$2,0-$3,0-$4,0-$5,$2,$3,0*%
%AMMACRO2*4,1,48,-0.0226,-0.024,-0.0236,-0.0239,-0.0246,-0.0237,-0.0257,-0.0234,-0.0267,-0.023,-0.0285,-0.0218,-0.0293,-0.021,-0.0305,-0.0192,-0.0309,-0.0182,-0.0312,-0.0171,-0.0314,-0.0161,-0.0315,-0.0151,-0.0315,0.0151,-0.0314,0.0161,-0.0312,0.0171,-0.0309,0.0182,-0.0305,0.0192,-0.0293,0.021,-0.0285,0.0218,-0.0267,0.023,-0.0257,0.0234,-0.0247,0.0237,-0.0236,0.0239,-0.0226,0.024,0.0226,0.024,0.0236,0.0239,0.0247,0.0237,0.0257,0.0234,0.0267,0.023,0.0285,0.0218,0.0293,0.021,0.0305,0.0192,0.0309,0.0182,0.0312,0.0171,0.0314,0.0161,0.0315,0.0151,0.0315,-0.0151,0.0314,-0.0161,0.0312,-0.0171,0.0309,-0.0182,0.0305,-0.0192,0.0293,-0.021,0.0285,-0.0218,0.0267,-0.023,0.0257,-0.0234,0.0246,-0.0237,0.0236,-0.0239,0.0226,-0.024,-0.0226,-0.024,0*%
%AMMACRO3*4,1,48,-0.0226,-0.024,-0.0236,-0.0239,-0.0247,-0.0237,-0.0257,-0.0234,-0.0267,-0.023,-0.0285,-0.0218,-0.0293,-0.021,-0.0305,-0.0192,-0.0309,-0.0182,-0.0312,-0.0171,-0.0314,-0.0161,-0.0315,-0.0151,-0.0315,0.0151,-0.0314,0.0161,-0.0312,0.0171,-0.0309,0.0182,-0.0305,0.0192,-0.0293,0.021,-0.0285,0.0218,-0.0267,0.023,-0.0257,0.0234,-0.0246,0.0237,-0.0236,0.0239,-0.0226,0.024,0.0226,0.024,0.0236,0.0239,0.0246,0.0237,0.0257,0.0234,0.0267,0.023,0.0285,0.0218,0.0293,0.021,0.0305,0.0192,0.0309,0.0182,0.0312,0.0171,0.0314,0.0161,0.0315,0.0151,0.0315,-0.0151,0.0314,-0.0161,0.0312,-0.0171,0.0309,-0.0182,0.0305,-0.0192,0.0293,-0.021,0.0285,-0.0218,0.0267,-0.023,0.0257,-0.0234,0.0247,-0.0237,0.0236,-0.0239,0.0226,-0.024,-0.0226,-0.024,0*%
%AMMACRO4*4,1,48,-0.0151,-0.0315,-0.0161,-0.0314,-0.0171,-0.0312,-0.0182,-0.0309,-0.0192,-0.0305,-0.021,-0.0293,-0.0218,-0.0285,-0.023,-0.0267,-0.0234,-0.0257,-0.0237,-0.0246,-0.0239,-0.0236,-0.024,-0.0226,-0.024,0.0226,-0.0239,0.0236,-0.0237,0.0246,-0.0234,0.0257,-0.023,0.0267,-0.0218,0.0285,-0.021,0.0293,-0.0192,0.0305,-0.0182,0.0309,-0.0171,0.0312,-0.0161,0.0314,-0.0151,0.0315,0.0151,0.0315,0.0161,0.0314,0.0171,0.0312,0.0182,0.0309,0.0192,0.0305,0.021,0.0293,0.0218,0.0285,0.023,0.0267,0.0234,0.0257,0.0237,0.0247,0.0239,0.0236,0.024,0.0226,0.024,-0.0226,0.0239,-0.0236,0.0237,-0.0247,0.0234,-0.0257,0.023,-0.0267,0.0218,-0.0285,0.021,-0.0293,0.0192,-0.0305,0.0182,-0.0309,0.0171,-0.0312,0.0161,-0.0314,0.0151,-0.0315,-0.0151,-0.0315,0*%
%AMMACRO5*4,1,48,-0.0151,-0.0315,-0.0161,-0.0314,-0.0171,-0.0312,-0.0182,-0.0309,-0.0192,-0.0305,-0.021,-0.0293,-0.0218,-0.0285,-0.023,-0.0267,-0.0234,-0.0257,-0.0237,-0.0247,-0.0239,-0.0236,-0.024,-0.0226,-0.024,0.0226,-0.0239,0.0236,-0.0237,0.0247,-0.0234,0.0257,-0.023,0.0267,-0.0218,0.0285,-0.021,0.0293,-0.0192,0.0305,-0.0182,0.0309,-0.0171,0.0312,-0.0161,0.0314,-0.0151,0.0315,0.0151,0.0315,0.0161,0.0314,0.0171,0.0312,0.0182,0.0309,0.0192,0.0305,0.021,0.0293,0.0218,0.0285,0.023,0.0267,0.0234,0.0257,0.0237,0.0246,0.0239,0.0236,0.024,0.0226,0.024,-0.0226,0.0239,-0.0236,0.0237,-0.0246,0.0234,-0.0257,0.023,-0.0267,0.0218,-0.0285,0.021,-0.0293,0.0192,-0.0305,0.0182,-0.0309,0.0171,-0.0312,0.0161,-0.0314,0.0151,-0.0315,-0.0151,-0.0315,0*%
%ADD10C,0.0433*%
%ADD11MACRO1,0.004X0.0118X0.0211X0.0118X-0.0211*%
%ADD12MACRO1,0.004X0.0197X-0.0246X-0.0197X-0.0246*%
%ADD13MACRO1,0.004X-0.0394X0.0177X0.0394X0.0177*%
%ADD14MACRO1,0.004X-0.0177X0.0394X0.0177X0.0394*%
%ADD15MACRO1,0.004X0.0394X-0.0177X-0.0394X-0.0177*%
%ADD16MACRO1,0.004X-0.0262X-0.0262X-0.0262X0.0262*%
%ADD17R,0.0564X0.0564*%
%ADD18MACRO2*%
%ADD19MACRO3*%
%ADD20MACRO4*%
%ADD21MACRO5*%
%ADD22MACRO1,0.004X0.034X-0.0292X-0.034X-0.0292*%
%ADD23MACRO1,0.004X0.034X0.0292X-0.034X0.0292*%
%ADD24MACRO1,0.004X0.0283X0.0319X0.0283X-0.0319*%
%ADD25MACRO1,0.004X-0.0283X0.0319X-0.0283X-0.0319*%
%ADD26C,0.0631*%
%ADD27MACRO1,0.004X0.0295X0.0295X0.0295X-0.0295*%
%ADD28MACRO1,0.004X-0.0827X0.0315X0.0827X0.0315*%
%ADD29C,0.0680*%
%ADD30MACRO1,0.004X-0.0138X-0.0246X-0.0138X0.0246*%
%ADD31C,0.0840*%
%ADD32MACRO1,0.004X0.0118X-0.0236X-0.0118X-0.0236*%
%ADD33MACRO1,0.004X-0.0689X0.0492X0.0689X0.0492*%
%ADD34MACRO1,0.004X-0.0197X0.0246X0.0197X0.0246*%
%ADD35O,0.10800000000000001X0.078*%
%ADD36O,0.078X0.10800000000000001*%
%ADD37C,0.0640*%
%ADD38O,0.080835X0.106425*%
%ADD39MACRO1,0.008X0.0355X-0.008X-0.0355X-0.008*%
%ADD40MACRO1,0.008X0.025X-0.012X-0.025X-0.012*%
%ADD41MACRO1,0.008X0.0201X-0.012X-0.0201X-0.012*%
%ADD42MACRO1,0.008X0.077X-0.075X-0.077X-0.075*%
%ADD43MACRO1,0.004X-0.0211X0.0118X0.0211X0.0118*%
%ADD44MACRO1,0.004X-0.0204X0.0105X-0.0204X-0.0105*%
%ADD45MACRO1,0.004X0.0096X-0.0228X-0.0096X-0.0228*%
%ADD46MACRO1,0.004X0.0096X-0.0231X-0.0096X-0.0231*%
%ADD47C,0.2049*%
%ADD48C,0.0151*%

%LPD*%
G36*
X4808060Y3860940D02*
G01*
X4806080Y3860899D01*
X4804080Y3860580D01*
X4802100Y3859980D01*
X4800180Y3859120D01*
X4798440Y3858039D01*
X4796900Y3856740D01*
X4795580Y3855260D01*
X4794460Y3853600D01*
X4793580Y3851800D01*
X4792940Y3849840D01*
X4792540Y3847780D01*
X4792400Y3845620D01*
X4792560Y3843279D01*
X4793000Y3841120D01*
X4793720Y3839140D01*
X4794680Y3837340D01*
X4795840Y3835740D01*
X4797200Y3834320D01*
X4798720Y3833120D01*
X4800360Y3832120D01*
X4802120Y3831320D01*
X4803960Y3830760D01*
X4805860Y3830440D01*
X4807780Y3830340D01*
X4809700Y3830480D01*
X4811620Y3830860D01*
X4813460Y3831500D01*
X4815240Y3832400D01*
X4816920Y3833580D01*
X4818460Y3835020D01*
X4819840Y3836740D01*
X4821060Y3838740D01*
X4822180Y3841480D01*
X4822780Y3844220D01*
X4822840Y3846920D01*
X4822380Y3849540D01*
X4821420Y3852040D01*
X4819980Y3854380D01*
X4818040Y3856520D01*
X4815640Y3858420D01*
X4813840Y3859460D01*
X4811960Y3860220D01*
X4810040Y3860720D01*
G37*
G36*
X4843680Y3860120D02*
G01*
X4835000Y3860059D01*
X4831260Y3859880D01*
X4828840Y3859600D01*
X4827600Y3859160D01*
X4826920Y3858260D01*
X4826560Y3856220D01*
X4826460Y3852140D01*
X4826740Y3832120D01*
X4846760Y3831840D01*
X4850840Y3831960D01*
X4852880Y3832320D01*
X4853780Y3833000D01*
X4854200Y3834240D01*
X4854500Y3836760D01*
X4854660Y3840640D01*
X4854720Y3852260D01*
X4854620Y3854540D01*
X4854380Y3856320D01*
X4853940Y3857679D01*
X4853240Y3858680D01*
X4852200Y3859340D01*
X4850800Y3859780D01*
X4848940Y3860000D01*
G37*
G36*
X4871320Y3860080D02*
G01*
X4865780Y3859880D01*
X4863540Y3859660D01*
X4861860Y3859360D01*
X4860880Y3858980D01*
X4859920Y3858060D01*
X4859420Y3856280D01*
X4859220Y3852520D01*
X4859240Y3840160D01*
X4859400Y3836220D01*
X4859680Y3833759D01*
X4860100Y3832640D01*
X4860860Y3832360D01*
X4862400Y3832120D01*
X4867260Y3831800D01*
X4873380Y3831700D01*
X4879500Y3831800D01*
X4884340Y3832120D01*
X4885900Y3832360D01*
X4886660Y3832640D01*
X4886920Y3833360D01*
X4887300Y3836920D01*
X4887520Y3842360D01*
X4887560Y3848440D01*
X4887400Y3853980D01*
X4887260Y3856180D01*
X4887060Y3857760D01*
X4886820Y3858620D01*
X4886120Y3859020D01*
X4884680Y3859360D01*
X4882640Y3859640D01*
X4880140Y3859860D01*
X4874320Y3860080D01*
G37*
G36*
X4843800Y3827280D02*
G01*
X4835080Y3827220D01*
X4831300Y3827040D01*
X4828840Y3826760D01*
X4827600Y3826340D01*
X4826920Y3825419D01*
X4826560Y3823380D01*
X4826460Y3819320D01*
X4826740Y3799280D01*
X4845540Y3799040D01*
X4849780Y3799140D01*
X4852460Y3799360D01*
X4853680Y3799740D01*
X4854180Y3800700D01*
X4854500Y3802900D01*
X4854660Y3806680D01*
X4854720Y3816019D01*
X4854600Y3821360D01*
X4854360Y3823260D01*
X4853920Y3824680D01*
X4853220Y3825740D01*
X4852200Y3826460D01*
X4850820Y3826900D01*
X4848980Y3827160D01*
G37*
G36*
X4807180Y3827260D02*
G01*
X4800960Y3827220D01*
X4797320Y3827040D01*
X4795400Y3826580D01*
X4794260Y3825779D01*
X4793460Y3824640D01*
X4793020Y3822660D01*
X4792820Y3818900D01*
X4792820Y3806680D01*
X4793000Y3802900D01*
X4793320Y3800700D01*
X4793800Y3799740D01*
X4795040Y3799360D01*
X4797720Y3799140D01*
X4801940Y3799040D01*
X4820760Y3799280D01*
X4821040Y3819320D01*
X4820920Y3823380D01*
X4820560Y3825419D01*
X4819900Y3826340D01*
X4818660Y3826760D01*
X4816200Y3827040D01*
X4812420Y3827220D01*
G37*
G36*
X4807240Y3793680D02*
G01*
X4801060Y3793639D01*
X4797200Y3793460D01*
X4795020Y3793100D01*
X4793960Y3792520D01*
X4793560Y3791680D01*
X4793220Y3790100D01*
X4792800Y3785380D01*
X4792680Y3782520D01*
X4792680Y3776500D01*
X4792980Y3771060D01*
X4793220Y3768920D01*
X4793560Y3767340D01*
X4793960Y3766500D01*
X4795020Y3765899D01*
X4797200Y3765560D01*
X4801060Y3765380D01*
X4807240Y3765320D01*
X4812740Y3765380D01*
X4816660Y3765539D01*
X4819120Y3765820D01*
X4820240Y3766220D01*
X4820520Y3766980D01*
X4820760Y3768540D01*
X4821080Y3773399D01*
X4821180Y3779500D01*
X4821080Y3785620D01*
X4820760Y3790480D01*
X4820520Y3792020D01*
X4820240Y3792799D01*
X4819120Y3793200D01*
X4816660Y3793480D01*
X4812740Y3793639D01*
G37*
G36*
X4840260Y3793680D02*
G01*
X4834760Y3793639D01*
X4830840Y3793480D01*
X4828360Y3793200D01*
X4827260Y3792799D01*
X4826960Y3792020D01*
X4826540Y3788279D01*
X4826340Y3782640D01*
X4826340Y3776380D01*
X4826540Y3770720D01*
X4826960Y3766980D01*
X4827260Y3766220D01*
X4828380Y3765820D01*
X4830920Y3765539D01*
X4834960Y3765380D01*
X4840660Y3765320D01*
X4847540Y3765360D01*
X4851380Y3765539D01*
X4853200Y3765980D01*
X4853940Y3766780D01*
X4854260Y3768220D01*
X4854500Y3771120D01*
X4854660Y3775100D01*
X4854720Y3779780D01*
X4854680Y3785640D01*
X4854500Y3789360D01*
X4854140Y3791460D01*
X4853540Y3792520D01*
X4852460Y3793100D01*
X4850300Y3793460D01*
X4846420Y3793639D01*
G37*
G36*
X4873260Y3793680D02*
G01*
X4866380Y3793639D01*
X4862520Y3793460D01*
X4860720Y3793039D01*
X4859960Y3792240D01*
X4859660Y3790800D01*
X4859420Y3787960D01*
X4859260Y3784060D01*
X4859200Y3779500D01*
X4859260Y3774960D01*
X4859420Y3771060D01*
X4859660Y3768220D01*
X4859960Y3766780D01*
X4860720Y3765980D01*
X4862520Y3765539D01*
X4866380Y3765360D01*
X4873260Y3765320D01*
X4878940Y3765380D01*
X4883000Y3765539D01*
X4885520Y3765820D01*
X4886660Y3766220D01*
X4886940Y3766980D01*
X4887180Y3768540D01*
X4887500Y3773399D01*
X4887600Y3779500D01*
X4887500Y3785620D01*
X4887180Y3790480D01*
X4886940Y3792020D01*
X4886660Y3792799D01*
X4885520Y3793200D01*
X4883000Y3793480D01*
X4878940Y3793639D01*
G37*
G36*
X4807180Y3760860D02*
G01*
X4801640Y3760800D01*
X4798000Y3760620D01*
X4795740Y3760260D01*
X4794440Y3759680D01*
X4793500Y3758800D01*
X4793000Y3757080D01*
X4792820Y3753480D01*
X4792780Y3746960D01*
X4792840Y3742280D01*
X4793000Y3738300D01*
X4793240Y3735400D01*
X4793540Y3733940D01*
X4794300Y3733140D01*
X4796100Y3732720D01*
X4799960Y3732540D01*
X4812520Y3732540D01*
X4816580Y3732700D01*
X4819120Y3732980D01*
X4820240Y3733380D01*
X4820640Y3734520D01*
X4820920Y3737060D01*
X4821080Y3741100D01*
X4821140Y3746800D01*
X4821100Y3753660D01*
X4820920Y3757520D01*
X4820480Y3759340D01*
X4819700Y3760080D01*
X4818260Y3760380D01*
X4815460Y3760620D01*
X4811640Y3760800D01*
G37*
G36*
X4840680Y3760820D02*
G01*
X4835980Y3760760D01*
X4831980Y3760600D01*
X4829080Y3760340D01*
X4827660Y3760040D01*
X4826980Y3759260D01*
X4826580Y3757340D01*
X4826400Y3753460D01*
X4826360Y3746780D01*
X4826420Y3741100D01*
X4826580Y3737040D01*
X4826860Y3734520D01*
X4827260Y3733380D01*
X4828380Y3732980D01*
X4830920Y3732700D01*
X4834960Y3732540D01*
X4847540Y3732540D01*
X4851380Y3732720D01*
X4853200Y3733140D01*
X4853940Y3733940D01*
X4854260Y3735400D01*
X4854500Y3738300D01*
X4854660Y3742260D01*
X4854720Y3746940D01*
X4854680Y3752820D01*
X4854500Y3756520D01*
X4854140Y3758620D01*
X4853540Y3759680D01*
X4852480Y3760260D01*
X4850360Y3760620D01*
X4846620Y3760800D01*
G37*
G36*
X4793020Y3714440D02*
G01*
X4791320Y3714380D01*
X4789360Y3714080D01*
X4788580Y3713780D01*
X4787560Y3713220D01*
X4786480Y3712460D01*
X4785440Y3711600D01*
X4784240Y3710380D01*
X4783520Y3709240D01*
X4783180Y3707940D01*
X4783100Y3706220D01*
X4783400Y3703560D01*
X4784520Y3701400D01*
X4786680Y3699400D01*
X4792980Y3695419D01*
X4794440Y3693820D01*
X4794560Y3692420D01*
X4793360Y3691180D01*
X4792580Y3690860D01*
X4791580Y3690779D01*
X4790240Y3690960D01*
X4785300Y3692200D01*
X4783540Y3692340D01*
X4782760Y3691740D01*
X4782480Y3690260D01*
X4782600Y3688320D01*
X4783580Y3687000D01*
X4785580Y3686180D01*
X4788840Y3685720D01*
X4792960Y3685680D01*
X4796220Y3686400D01*
X4798700Y3687880D01*
X4800420Y3690120D01*
X4801160Y3691920D01*
X4801480Y3693600D01*
X4801340Y3695200D01*
X4800760Y3696720D01*
X4799720Y3698220D01*
X4798200Y3699680D01*
X4796180Y3701139D01*
X4791980Y3703620D01*
X4790900Y3704500D01*
X4790320Y3705380D01*
X4790160Y3706380D01*
X4790260Y3707360D01*
X4790620Y3707919D01*
X4791400Y3708159D01*
X4793940Y3708180D01*
X4796380Y3707880D01*
X4798420Y3707460D01*
X4799140Y3707620D01*
X4799700Y3708260D01*
X4800280Y3709440D01*
X4800760Y3711060D01*
X4800460Y3712140D01*
X4799120Y3712980D01*
X4796500Y3713820D01*
X4794680Y3714260D01*
G37*
G36*
X4927860Y3714220D02*
G01*
X4924560Y3714200D01*
X4921500Y3713519D01*
X4918560Y3711920D01*
X4916060Y3709560D01*
X4914220Y3706700D01*
X4913240Y3703620D01*
X4912980Y3700640D01*
X4913003Y3700160D01*
X4919720Y3700160D01*
X4920000Y3702280D01*
X4920700Y3704460D01*
X4922060Y3706760D01*
X4923880Y3708120D01*
X4926220Y3708580D01*
X4929100Y3708159D01*
X4930580Y3707280D01*
X4931740Y3705680D01*
X4932520Y3703560D01*
X4932940Y3701139D01*
X4932980Y3698600D01*
X4932600Y3696160D01*
X4931800Y3694040D01*
X4930540Y3692440D01*
X4928940Y3691360D01*
X4927360Y3690840D01*
X4925820Y3690800D01*
X4924360Y3691200D01*
X4923040Y3692000D01*
X4921880Y3693140D01*
X4920920Y3694580D01*
X4920220Y3696259D01*
X4919800Y3698140D01*
X4919720Y3700160D01*
X4913003Y3700160D01*
X4913120Y3697780D01*
X4913620Y3695100D01*
X4914480Y3692660D01*
X4915640Y3690500D01*
X4917100Y3688700D01*
X4918820Y3687300D01*
X4920800Y3686340D01*
X4924240Y3685700D01*
X4928160Y3685740D01*
X4931840Y3686360D01*
X4934500Y3687540D01*
X4936180Y3689080D01*
X4937540Y3690960D01*
X4938580Y3693080D01*
X4939300Y3695400D01*
X4939720Y3697840D01*
X4939840Y3700320D01*
X4939620Y3702780D01*
X4939120Y3705160D01*
X4938300Y3707360D01*
X4937160Y3709360D01*
X4935740Y3711040D01*
X4934000Y3712360D01*
X4931120Y3713600D01*
G37*
G36*
X4740600Y3713840D02*
G01*
X4740160Y3686220D01*
X4746500Y3686220D01*
X4746500Y3713840D01*
G37*
G36*
X4753220Y3713840D02*
G01*
X4753220Y3686220D01*
X4759140Y3686220D01*
X4759560Y3704500D01*
X4762000Y3699880D01*
X4769740Y3686220D01*
X4778640Y3686220D01*
X4778220Y3713460D01*
X4772260Y3713460D01*
X4772480Y3694240D01*
X4761800Y3712559D01*
X4760840Y3713440D01*
X4759460Y3713780D01*
G37*
G36*
X4813700Y3713840D02*
G01*
X4808480Y3713780D01*
X4805200Y3713620D01*
X4803440Y3713300D01*
X4802780Y3712780D01*
X4802560Y3711500D01*
X4802600Y3709980D01*
X4802860Y3709060D01*
X4803440Y3708500D01*
X4804540Y3708200D01*
X4809940Y3707780D01*
X4809940Y3686220D01*
X4816660Y3686220D01*
X4816660Y3707780D01*
X4822240Y3708180D01*
X4823320Y3708560D01*
X4823780Y3709420D01*
X4824220Y3713840D01*
G37*
G36*
X4827860Y3713840D02*
G01*
X4827860Y3686220D01*
X4834560Y3686220D01*
X4834560Y3713840D01*
G37*
G36*
X4848760Y3713840D02*
G01*
X4843560Y3713780D01*
X4840280Y3713620D01*
X4838500Y3713300D01*
X4837840Y3712780D01*
X4837620Y3711500D01*
X4837680Y3709980D01*
X4837940Y3709060D01*
X4838500Y3708500D01*
X4839620Y3708200D01*
X4845020Y3707780D01*
X4845020Y3686220D01*
X4851740Y3686220D01*
X4851740Y3707780D01*
X4857320Y3708180D01*
X4858400Y3708560D01*
X4858860Y3709420D01*
X4859280Y3713840D01*
G37*
G36*
X4862920Y3713840D02*
G01*
X4862920Y3691700D01*
X4867000Y3687080D01*
X4868360Y3686220D01*
X4870300Y3685899D01*
X4873540Y3685860D01*
X4877520Y3686060D01*
X4880480Y3686720D01*
X4882660Y3687980D01*
X4884380Y3689900D01*
X4885040Y3691320D01*
X4885480Y3693580D01*
X4885760Y3697240D01*
X4886200Y3713840D01*
X4879460Y3713840D01*
X4879040Y3697700D01*
X4878780Y3694380D01*
X4878300Y3692640D01*
X4877520Y3691760D01*
X4875840Y3690920D01*
X4874080Y3690779D01*
X4872360Y3691320D01*
X4870720Y3692540D01*
X4869700Y3693759D01*
X4869160Y3695480D01*
X4868940Y3698600D01*
X4868900Y3713840D01*
G37*
G36*
X4900260Y3713840D02*
G01*
X4895040Y3713780D01*
X4891760Y3713620D01*
X4890000Y3713300D01*
X4889340Y3712780D01*
X4889120Y3711500D01*
X4889180Y3709980D01*
X4889420Y3709060D01*
X4890000Y3708500D01*
X4891120Y3708200D01*
X4896500Y3707780D01*
X4896500Y3686220D01*
X4903220Y3686220D01*
X4903220Y3707780D01*
X4908800Y3708180D01*
X4909880Y3708560D01*
X4910360Y3709420D01*
X4910780Y3713840D01*
G37*
G36*
X4780840Y3681000D02*
G01*
X4780840Y3652640D01*
X4797260Y3652640D01*
X4797260Y3658620D01*
X4787560Y3658620D01*
X4787560Y3664580D01*
X4796500Y3664580D01*
X4796500Y3669800D01*
X4787560Y3669800D01*
X4787560Y3674960D01*
X4796880Y3675400D01*
X4797340Y3681000D01*
G37*
G36*
X4802480Y3681000D02*
G01*
X4802480Y3675040D01*
X4811800Y3675040D01*
X4813400Y3674940D01*
X4814700Y3674680D01*
X4815760Y3674240D01*
X4816620Y3673580D01*
X4817620Y3672180D01*
X4818280Y3670440D01*
X4818620Y3668480D01*
X4818640Y3666420D01*
X4818360Y3664380D01*
X4817780Y3662500D01*
X4816900Y3660920D01*
X4815720Y3659760D01*
X4814860Y3659320D01*
X4813740Y3658940D01*
X4812500Y3658700D01*
X4811260Y3658620D01*
X4808440Y3658620D01*
X4808440Y3675040D01*
X4802480Y3675040D01*
X4802480Y3652640D01*
X4808640Y3652660D01*
X4811160Y3652740D01*
X4813420Y3652940D01*
X4815440Y3653320D01*
X4817240Y3653840D01*
X4818840Y3654540D01*
X4820300Y3655419D01*
X4821600Y3656500D01*
X4822800Y3657760D01*
X4824100Y3659740D01*
X4825000Y3662040D01*
X4825480Y3664540D01*
X4825600Y3667140D01*
X4825300Y3669760D01*
X4824620Y3672260D01*
X4823560Y3674580D01*
X4822120Y3676560D01*
X4820940Y3677760D01*
X4819720Y3678720D01*
X4818400Y3679500D01*
X4816940Y3680080D01*
X4815240Y3680520D01*
X4813280Y3680800D01*
X4808260Y3681000D01*
G37*
G36*
X4830840Y3681000D02*
G01*
X4830840Y3652640D01*
X4847340Y3652640D01*
X4846880Y3658240D01*
X4837560Y3658680D01*
X4837560Y3664580D01*
X4846500Y3664580D01*
X4846500Y3669800D01*
X4837560Y3669800D01*
X4837560Y3674960D01*
X4846880Y3675400D01*
X4847340Y3681000D01*
G37*
G36*
X4857720Y3681000D02*
G01*
X4853880Y3680720D01*
X4852060Y3680040D01*
X4851940Y3678639D01*
X4851860Y3671680D01*
X4859200Y3671680D01*
X4859240Y3673540D01*
X4859500Y3674540D01*
X4860120Y3674960D01*
X4861280Y3675040D01*
X4862160Y3674960D01*
X4863020Y3674760D01*
X4863760Y3674480D01*
X4864260Y3674140D01*
X4865040Y3672360D01*
X4864440Y3670440D01*
X4862840Y3668940D01*
X4860520Y3668320D01*
X4859860Y3668460D01*
X4859460Y3668980D01*
X4859260Y3670000D01*
X4859200Y3671680D01*
X4851860Y3671680D01*
X4852100Y3653020D01*
X4858820Y3653020D01*
X4859200Y3660220D01*
X4859440Y3661760D01*
X4859840Y3662679D01*
X4860360Y3662960D01*
X4861080Y3662620D01*
X4861980Y3661660D01*
X4863100Y3660059D01*
X4867600Y3652580D01*
X4881080Y3653020D01*
X4882740Y3658980D01*
X4892440Y3659420D01*
X4894060Y3654080D01*
X4894720Y3653080D01*
X4895820Y3652700D01*
X4897720Y3652640D01*
X4899120Y3652700D01*
X4900140Y3652880D01*
X4900760Y3653180D01*
X4900960Y3653580D01*
X4900600Y3654960D01*
X4898100Y3662420D01*
X4891660Y3680620D01*
X4883600Y3680620D01*
X4878336Y3665600D01*
X4885020Y3665600D01*
X4885300Y3667000D01*
X4885940Y3669260D01*
X4886660Y3671360D01*
X4887340Y3672919D01*
X4887820Y3673540D01*
X4888040Y3673240D01*
X4888840Y3671280D01*
X4890240Y3666900D01*
X4890340Y3665320D01*
X4889520Y3664700D01*
X4887640Y3664580D01*
X4885960Y3664620D01*
X4885160Y3664880D01*
X4885020Y3665600D01*
X4878336Y3665600D01*
X4875100Y3656180D01*
X4874660Y3655260D01*
X4874400Y3654980D01*
X4874180Y3654880D01*
X4873720Y3655280D01*
X4871700Y3657900D01*
X4868540Y3662679D01*
X4867740Y3664280D01*
X4867840Y3665179D01*
X4870360Y3667720D01*
X4871420Y3669740D01*
X4871900Y3671880D01*
X4871800Y3674020D01*
X4871140Y3676040D01*
X4869940Y3677840D01*
X4868240Y3679280D01*
X4866060Y3680220D01*
X4862220Y3680840D01*
G37*
G36*
X4907820Y3681000D02*
G01*
X4905660Y3680860D01*
X4904880Y3680700D01*
X4904460Y3680500D01*
X4904280Y3679240D01*
X4904120Y3676139D01*
X4903980Y3666320D01*
X4903980Y3652640D01*
X4921880Y3652640D01*
X4921880Y3658620D01*
X4910680Y3658620D01*
X4910680Y3681000D01*
G37*
G36*
X4764100Y3680899D02*
G01*
X4761560Y3680800D01*
X4760120Y3680520D01*
X4759540Y3680059D01*
X4759400Y3678660D01*
X4759320Y3671180D01*
X4759560Y3653020D01*
X4765920Y3652559D01*
X4765920Y3663840D01*
X4775700Y3663840D01*
X4775480Y3666259D01*
X4775260Y3667660D01*
X4774680Y3668420D01*
X4773280Y3668740D01*
X4765920Y3669140D01*
X4765920Y3674960D01*
X4775980Y3675400D01*
X4775980Y3680620D01*
G37*
G36*
X4858980Y3642200D02*
G01*
X4858040Y3642060D01*
X4857180Y3641620D01*
X4856360Y3640860D01*
X4855560Y3639760D01*
X4854840Y3638560D01*
X4854540Y3637780D01*
X4854620Y3637320D01*
X4855100Y3637100D01*
X4855980Y3637220D01*
X4857100Y3637900D01*
X4858400Y3639140D01*
X4859860Y3640880D01*
X4860340Y3641580D01*
X4860400Y3641980D01*
X4859960Y3642160D01*
G37*
G36*
X4814600Y3641480D02*
G01*
X4812340Y3641180D01*
X4810160Y3640539D01*
X4808220Y3639520D01*
X4806120Y3637799D01*
X4804820Y3635820D01*
X4804160Y3633200D01*
X4803980Y3629560D01*
X4804060Y3627400D01*
X4804320Y3625740D01*
X4804800Y3624400D01*
X4805520Y3623240D01*
X4806800Y3621900D01*
X4808260Y3620800D01*
X4809900Y3619960D01*
X4811660Y3619380D01*
X4813540Y3619080D01*
X4815500Y3619060D01*
X4817500Y3619320D01*
X4819540Y3619880D01*
X4820880Y3620440D01*
X4821580Y3621259D01*
X4821840Y3622880D01*
X4821880Y3631000D01*
X4815620Y3630960D01*
X4814380Y3630740D01*
X4813800Y3630299D01*
X4813680Y3629500D01*
X4813780Y3628780D01*
X4814140Y3628320D01*
X4814840Y3628080D01*
X4817220Y3627960D01*
X4817880Y3627620D01*
X4818080Y3626780D01*
X4818000Y3625220D01*
X4817820Y3623700D01*
X4817440Y3622820D01*
X4816680Y3622400D01*
X4815400Y3622180D01*
X4813160Y3622340D01*
X4810900Y3623120D01*
X4808940Y3624340D01*
X4807640Y3625899D01*
X4807340Y3626820D01*
X4807140Y3628120D01*
X4807080Y3629640D01*
X4807160Y3631259D01*
X4807420Y3633180D01*
X4807860Y3634600D01*
X4808580Y3635720D01*
X4809660Y3636740D01*
X4811720Y3637860D01*
X4814200Y3638420D01*
X4816720Y3638399D01*
X4818880Y3637740D01*
X4819560Y3637440D01*
X4820060Y3637420D01*
X4820420Y3637700D01*
X4820720Y3638279D01*
X4820780Y3639480D01*
X4820020Y3640419D01*
X4818620Y3641080D01*
X4816760Y3641440D01*
G37*
G36*
X4844800Y3641280D02*
G01*
X4843780Y3641139D01*
X4843040Y3640340D01*
X4842920Y3639800D01*
X4842960Y3639240D01*
X4843100Y3638720D01*
X4843380Y3638320D01*
X4844360Y3637840D01*
X4845400Y3638039D01*
X4846180Y3638720D01*
X4846360Y3639760D01*
X4845800Y3640800D01*
G37*
G36*
X4832020Y3636220D02*
G01*
X4830400Y3636019D01*
X4828860Y3635460D01*
X4827440Y3634520D01*
X4826200Y3633020D01*
X4825360Y3631180D01*
X4824940Y3629080D01*
X4824940Y3627640D01*
X4828220Y3627640D01*
X4828300Y3628960D01*
X4828520Y3630220D01*
X4828860Y3631280D01*
X4829260Y3632000D01*
X4830500Y3632840D01*
X4832160Y3633200D01*
X4833860Y3633039D01*
X4835160Y3632340D01*
X4835800Y3630779D01*
X4836040Y3628240D01*
X4835860Y3625560D01*
X4835280Y3623480D01*
X4834140Y3622460D01*
X4832440Y3622060D01*
X4830660Y3622340D01*
X4829260Y3623279D01*
X4828860Y3624000D01*
X4828520Y3625059D01*
X4828300Y3626320D01*
X4828220Y3627640D01*
X4824940Y3627640D01*
X4824940Y3626920D01*
X4825320Y3624800D01*
X4826060Y3622880D01*
X4827180Y3621280D01*
X4828660Y3620140D01*
X4831040Y3619240D01*
X4833180Y3619160D01*
X4835200Y3619940D01*
X4837260Y3621600D01*
X4838980Y3623880D01*
X4839780Y3626380D01*
X4839660Y3629100D01*
X4838640Y3632080D01*
X4837720Y3633540D01*
X4836540Y3634700D01*
X4835140Y3635539D01*
X4833620Y3636040D01*
G37*
G36*
X4873480Y3636160D02*
G01*
X4870300Y3636060D01*
X4867580Y3635059D01*
X4866240Y3633519D01*
X4865880Y3631680D01*
X4866460Y3629800D01*
X4867960Y3628220D01*
X4870040Y3626960D01*
X4873020Y3625440D01*
X4873620Y3624920D01*
X4873940Y3624340D01*
X4873960Y3623720D01*
X4873660Y3623080D01*
X4872980Y3622700D01*
X4871760Y3622520D01*
X4867800Y3622520D01*
X4866620Y3622360D01*
X4866060Y3621960D01*
X4865920Y3621240D01*
X4866060Y3620600D01*
X4866520Y3620080D01*
X4867360Y3619680D01*
X4868580Y3619380D01*
X4871280Y3619200D01*
X4873720Y3619640D01*
X4875700Y3620680D01*
X4877080Y3622220D01*
X4877640Y3623360D01*
X4877780Y3624220D01*
X4877480Y3625080D01*
X4876680Y3626240D01*
X4875900Y3627100D01*
X4874920Y3627919D01*
X4873840Y3628620D01*
X4869880Y3630520D01*
X4869000Y3631920D01*
X4870140Y3632900D01*
X4873260Y3633120D01*
X4874940Y3633039D01*
X4876040Y3633159D01*
X4876660Y3633500D01*
X4876940Y3634080D01*
X4876060Y3635460D01*
G37*
G36*
X4857360Y3636120D02*
G01*
X4855060Y3636100D01*
X4852680Y3635460D01*
X4852000Y3635100D01*
X4851560Y3634660D01*
X4851380Y3634180D01*
X4851460Y3633639D01*
X4851800Y3633120D01*
X4852440Y3632840D01*
X4853440Y3632799D01*
X4856460Y3633159D01*
X4857540Y3633100D01*
X4858300Y3632760D01*
X4858940Y3632100D01*
X4859720Y3630840D01*
X4859640Y3630080D01*
X4858500Y3629620D01*
X4856100Y3629260D01*
X4853180Y3628660D01*
X4851120Y3627620D01*
X4849900Y3626139D01*
X4849557Y3624480D01*
X4852800Y3624480D01*
X4853400Y3625520D01*
X4854640Y3626280D01*
X4856460Y3626680D01*
X4858280Y3626800D01*
X4859280Y3626640D01*
X4859620Y3626139D01*
X4859440Y3625200D01*
X4858100Y3623300D01*
X4856140Y3622220D01*
X4854180Y3622140D01*
X4852920Y3623260D01*
X4852800Y3624480D01*
X4849557Y3624480D01*
X4849500Y3624200D01*
X4850360Y3621480D01*
X4852520Y3619680D01*
X4855320Y3619120D01*
X4858100Y3620100D01*
X4858860Y3620600D01*
X4859420Y3620760D01*
X4859880Y3620560D01*
X4860360Y3619980D01*
X4861480Y3619080D01*
X4862280Y3619840D01*
X4862760Y3622220D01*
X4862920Y3626220D01*
X4862880Y3629680D01*
X4862640Y3631840D01*
X4862080Y3633220D01*
X4861100Y3634400D01*
X4859420Y3635560D01*
G37*
G36*
X4844420Y3636060D02*
G01*
X4843940Y3635880D01*
X4843520Y3635539D01*
X4843240Y3635080D01*
X4843060Y3634100D01*
X4842820Y3629940D01*
X4842840Y3624120D01*
X4843020Y3621940D01*
X4843380Y3620560D01*
X4843920Y3619780D01*
X4845220Y3619220D01*
X4846000Y3620260D01*
X4846360Y3623140D01*
X4846360Y3628080D01*
X4846200Y3632020D01*
X4845940Y3634420D01*
X4845540Y3635640D01*
X4844920Y3636060D01*
G37*
G36*
X2982380Y2211040D02*
G01*
X2979140Y2210940D01*
X2977760Y2210680D01*
X2977240Y2210180D01*
X2976920Y2209360D01*
X2976740Y2207640D01*
X2976640Y2204460D01*
X2976640Y2193560D01*
X2976740Y2190500D01*
X2977020Y2189140D01*
X2977520Y2188480D01*
X2978240Y2188000D01*
X2979680Y2187740D01*
X2994440Y2187640D01*
X2997559Y2187740D01*
X2998920Y2188020D01*
X2999580Y2188540D01*
X3000059Y2189240D01*
X3000320Y2190660D01*
X3000419Y2193720D01*
X3000400Y2204500D01*
X3000320Y2207640D01*
X3000140Y2209360D01*
X2999820Y2210180D01*
X2999300Y2210680D01*
X2997919Y2210940D01*
X2994680Y2211040D01*
G37*
G36*
X3044180Y2211040D02*
G01*
X3035240Y2210940D01*
X3033700Y2210720D01*
X3033080Y2210340D01*
X3032740Y2209620D01*
X3032540Y2208000D01*
X3032440Y2193700D01*
X3032540Y2190560D01*
X3032780Y2189080D01*
X3033220Y2188420D01*
X3033880Y2187980D01*
X3035360Y2187740D01*
X3044280Y2187640D01*
X3053240Y2187740D01*
X3054680Y2188000D01*
X3055299Y2188460D01*
X3055700Y2189160D01*
X3055940Y2190620D01*
X3056080Y2193560D01*
X3056180Y2202420D01*
X3056139Y2207880D01*
X3056060Y2208960D01*
X3055720Y2209760D01*
X3055240Y2210440D01*
X3054540Y2210760D01*
X3052860Y2210940D01*
G37*
G36*
X2988519Y2183340D02*
G01*
X2982760Y2183320D01*
X2979560Y2183220D01*
X2978080Y2183000D01*
X2977400Y2182560D01*
X2976980Y2181900D01*
X2976740Y2180420D01*
X2976640Y2177300D01*
X2976640Y2165960D01*
X2976740Y2162840D01*
X2976980Y2161380D01*
X2977400Y2160700D01*
X2978080Y2160280D01*
X2979560Y2160040D01*
X2982760Y2159940D01*
X2994300Y2159940D01*
X2997500Y2160040D01*
X2998980Y2160280D01*
X2999660Y2160700D01*
X3000080Y2161380D01*
X3000320Y2162840D01*
X3000419Y2165960D01*
X3000419Y2177300D01*
X3000320Y2180420D01*
X3000080Y2181900D01*
X2999660Y2182560D01*
X2998980Y2183000D01*
X2997500Y2183220D01*
X2994300Y2183320D01*
G37*
G36*
X3016460Y2183340D02*
G01*
X3007540Y2183240D01*
X3006000Y2183020D01*
X3005380Y2182620D01*
X3005020Y2181920D01*
X3004840Y2180260D01*
X3004740Y2177040D01*
X3004740Y2165920D01*
X3004840Y2162720D01*
X3005040Y2161200D01*
X3005440Y2160580D01*
X3006160Y2160240D01*
X3007799Y2160040D01*
X3011019Y2159940D01*
X3022160Y2159940D01*
X3025340Y2160040D01*
X3026860Y2160260D01*
X3027500Y2160640D01*
X3027840Y2161340D01*
X3028020Y2162960D01*
X3028120Y2166140D01*
X3028120Y2176700D01*
X3028020Y2179900D01*
X3027840Y2181640D01*
X3027540Y2182480D01*
X3027000Y2182980D01*
X3025659Y2183240D01*
G37*
G36*
X3044100Y2183340D02*
G01*
X3034920Y2183240D01*
X3033560Y2182980D01*
X3033039Y2182480D01*
X3032720Y2181660D01*
X3032540Y2179920D01*
X3032440Y2165940D01*
X3032540Y2162820D01*
X3032780Y2161380D01*
X3033220Y2160700D01*
X3033880Y2160280D01*
X3035360Y2160040D01*
X3038540Y2159940D01*
X3054620Y2159920D01*
X3055440Y2160980D01*
X3055920Y2161760D01*
X3056139Y2163240D01*
X3056200Y2166300D01*
X3056080Y2177240D01*
X3055940Y2180300D01*
X3055700Y2181800D01*
X3055299Y2182520D01*
X3054660Y2182980D01*
X3053220Y2183220D01*
X3050020Y2183320D01*
G37*
G36*
X3072060Y2183340D02*
G01*
X3063480Y2183240D01*
X3061820Y2183040D01*
X3061139Y2182720D01*
X3060820Y2182040D01*
X3060640Y2180360D01*
X3060520Y2171640D01*
X3060640Y2162900D01*
X3060820Y2161220D01*
X3061139Y2160540D01*
X3061820Y2160220D01*
X3063480Y2160040D01*
X3066700Y2159940D01*
X3077840Y2159940D01*
X3081019Y2160040D01*
X3082500Y2160280D01*
X3083159Y2160700D01*
X3083600Y2161380D01*
X3083840Y2162840D01*
X3083940Y2171640D01*
X3083840Y2180420D01*
X3083600Y2181900D01*
X3083159Y2182560D01*
X3082500Y2183000D01*
X3081019Y2183220D01*
X3077840Y2183320D01*
G37*
G36*
X2988560Y2156620D02*
G01*
X2986880Y2156560D01*
X2985580Y2156420D01*
X2984440Y2156100D01*
X2983200Y2155580D01*
X2981180Y2154360D01*
X2980200Y2153640D01*
X2979420Y2152920D01*
X2978039Y2151240D01*
X2976940Y2149460D01*
X2976500Y2148420D01*
X2976220Y2147320D01*
X2976040Y2146000D01*
X2975960Y2142800D01*
X2976040Y2141460D01*
X2976200Y2140360D01*
X2976440Y2139500D01*
X2977160Y2138020D01*
X2978080Y2136540D01*
X2979200Y2135200D01*
X2980400Y2134020D01*
X2981820Y2133040D01*
X2983519Y2132140D01*
X2984580Y2131720D01*
X2985680Y2131460D01*
X2986940Y2131320D01*
X2990179Y2131320D01*
X2991460Y2131460D01*
X2992600Y2131760D01*
X2993800Y2132280D01*
X2995800Y2133480D01*
X2996800Y2134240D01*
X2998320Y2135780D01*
X2999660Y2137620D01*
X3000140Y2138440D01*
X3000539Y2139420D01*
X3000840Y2140520D01*
X3001040Y2141760D01*
X3001180Y2144660D01*
X3000940Y2147080D01*
X3000659Y2148100D01*
X2999780Y2150000D01*
X2998560Y2151920D01*
X2997740Y2152900D01*
X2996820Y2153740D01*
X2995720Y2154500D01*
X2992880Y2155980D01*
X2991660Y2156380D01*
X2990340Y2156560D01*
G37*
G36*
X3044340Y2155640D02*
G01*
X3038820Y2155620D01*
X3035760Y2155520D01*
X3034260Y2155280D01*
X3033460Y2154820D01*
X3032440Y2154020D01*
X3032440Y2133440D01*
X3033460Y2132640D01*
X3034260Y2132180D01*
X3035760Y2131940D01*
X3038820Y2131840D01*
X3049760Y2131840D01*
X3052840Y2131940D01*
X3054360Y2132160D01*
X3055120Y2132580D01*
X3056040Y2133320D01*
X3056040Y2154140D01*
X3055120Y2154880D01*
X3054360Y2155300D01*
X3052840Y2155520D01*
X3049760Y2155620D01*
G37*
G36*
X3072080Y2155640D02*
G01*
X3067020Y2155620D01*
X3063920Y2155520D01*
X3062220Y2155340D01*
X3061400Y2155020D01*
X3060899Y2154500D01*
X3060640Y2153120D01*
X3060539Y2149880D01*
X3060539Y2137580D01*
X3060640Y2134340D01*
X3060899Y2132960D01*
X3061400Y2132440D01*
X3062220Y2132120D01*
X3063920Y2131940D01*
X3072080Y2131820D01*
X3077580Y2131840D01*
X3080620Y2131940D01*
X3082120Y2132180D01*
X3082919Y2132640D01*
X3083940Y2133440D01*
X3083940Y2154020D01*
X3082919Y2154820D01*
X3082120Y2155280D01*
X3080620Y2155520D01*
X3077580Y2155620D01*
G37*
G36*
X3019400Y2155580D02*
G01*
X3010940Y2155480D01*
X3007900Y2155360D01*
X3006139Y2155160D01*
X3005360Y2154900D01*
X3005020Y2154280D01*
X3004840Y2152700D01*
X3004740Y2149440D01*
X3004740Y2137980D01*
X3004840Y2134760D01*
X3005080Y2133260D01*
X3005520Y2132600D01*
X3006180Y2132140D01*
X3007640Y2131920D01*
X3010820Y2131860D01*
X3022420Y2132000D01*
X3025580Y2132120D01*
X3027020Y2132360D01*
X3027580Y2132780D01*
X3027860Y2133600D01*
X3028020Y2135420D01*
X3028120Y2138680D01*
X3028120Y2149100D01*
X3028020Y2152300D01*
X3027840Y2153940D01*
X3027520Y2154640D01*
X3026840Y2155120D01*
X3026060Y2155460D01*
X3022640Y2155580D01*
G37*
G36*
X4840480Y3593920D02*
G01*
X4835180Y3587120D01*
X4840280Y3587120D01*
X4842980Y3591220D01*
X4845680Y3587120D01*
X4850680Y3587120D01*
X4845180Y3593920D01*
G37*
G36*
X4928880Y3593920D02*
G01*
X4923580Y3587120D01*
X4928680Y3587120D01*
X4931380Y3591220D01*
X4934080Y3587120D01*
X4939080Y3587120D01*
X4933580Y3593920D01*
G37*
G36*
X4770880Y3585520D02*
G01*
X4763980Y3584260D01*
X4758480Y3580520D01*
X4756380Y3577720D01*
X4754880Y3574460D01*
X4753980Y3570720D01*
X4753680Y3566520D01*
X4758580Y3566520D01*
X4759480Y3573380D01*
X4762180Y3578020D01*
X4766200Y3580560D01*
X4770880Y3581420D01*
X4772580Y3581300D01*
X4774220Y3580980D01*
X4775780Y3580460D01*
X4777280Y3579720D01*
X4778580Y3578720D01*
X4779740Y3577540D01*
X4780740Y3576180D01*
X4781580Y3574620D01*
X4782220Y3572900D01*
X4782700Y3571060D01*
X4782980Y3569100D01*
X4783080Y3567020D01*
X4782200Y3560880D01*
X4779580Y3556320D01*
X4775680Y3553460D01*
X4770780Y3552520D01*
X4766000Y3553460D01*
X4762080Y3556320D01*
X4759440Y3560720D01*
X4758580Y3566520D01*
X4753680Y3566520D01*
X4753800Y3564200D01*
X4754200Y3561940D01*
X4754860Y3559740D01*
X4755780Y3557620D01*
X4756900Y3555620D01*
X4758280Y3553840D01*
X4759900Y3552280D01*
X4761780Y3550920D01*
X4763840Y3549860D01*
X4766020Y3549120D01*
X4768340Y3548660D01*
X4770780Y3548519D01*
X4773080Y3548660D01*
X4775300Y3549060D01*
X4777420Y3549760D01*
X4779480Y3550720D01*
X4781400Y3551940D01*
X4783100Y3553440D01*
X4784560Y3555200D01*
X4785780Y3557220D01*
X4787420Y3561780D01*
X4787980Y3566920D01*
X4787440Y3572040D01*
X4785880Y3576620D01*
X4784700Y3578600D01*
X4783300Y3580360D01*
X4781660Y3581900D01*
X4779780Y3583220D01*
X4777720Y3584220D01*
X4775540Y3584940D01*
X4773260Y3585380D01*
G37*
G36*
X4843080Y3585520D02*
G01*
X4836200Y3584260D01*
X4830780Y3580520D01*
X4828680Y3577720D01*
X4827180Y3574460D01*
X4826280Y3570720D01*
X4825980Y3566520D01*
X4830780Y3566520D01*
X4831700Y3573380D01*
X4834480Y3578020D01*
X4836360Y3579500D01*
X4838420Y3580560D01*
X4840660Y3581200D01*
X4843080Y3581420D01*
X4844820Y3581300D01*
X4846480Y3580980D01*
X4848020Y3580460D01*
X4849480Y3579720D01*
X4850820Y3578720D01*
X4852000Y3577540D01*
X4852980Y3576180D01*
X4853780Y3574620D01*
X4854420Y3572900D01*
X4854900Y3571060D01*
X4855180Y3569100D01*
X4855280Y3567020D01*
X4854420Y3560880D01*
X4851880Y3556320D01*
X4847920Y3553460D01*
X4843080Y3552520D01*
X4838220Y3553460D01*
X4834280Y3556320D01*
X4831640Y3560720D01*
X4830780Y3566520D01*
X4825980Y3566520D01*
X4826100Y3564200D01*
X4826480Y3561940D01*
X4827100Y3559740D01*
X4827980Y3557620D01*
X4829140Y3555620D01*
X4830520Y3553840D01*
X4832140Y3552280D01*
X4833980Y3550920D01*
X4836040Y3549860D01*
X4838240Y3549120D01*
X4840580Y3548660D01*
X4843080Y3548519D01*
X4845340Y3548660D01*
X4847540Y3549060D01*
X4849680Y3549760D01*
X4851780Y3550720D01*
X4853660Y3551940D01*
X4855320Y3553440D01*
X4856760Y3555200D01*
X4857980Y3557220D01*
X4859620Y3561780D01*
X4860180Y3566920D01*
X4859640Y3572040D01*
X4858080Y3576620D01*
X4856900Y3578600D01*
X4855500Y3580360D01*
X4853860Y3581900D01*
X4851980Y3583220D01*
X4849960Y3584220D01*
X4847800Y3584940D01*
X4845500Y3585380D01*
G37*
G36*
X4898480Y3585520D02*
G01*
X4896120Y3585380D01*
X4893900Y3584960D01*
X4891780Y3584280D01*
X4889780Y3583320D01*
X4887920Y3582140D01*
X4886300Y3580680D01*
X4884880Y3578980D01*
X4883680Y3577020D01*
X4882100Y3572540D01*
X4881580Y3567320D01*
X4881680Y3564760D01*
X4882040Y3562320D01*
X4882640Y3559960D01*
X4883480Y3557720D01*
X4884520Y3555600D01*
X4885800Y3553740D01*
X4887280Y3552140D01*
X4888980Y3550820D01*
X4893120Y3549080D01*
X4898380Y3548519D01*
X4903540Y3549280D01*
X4907880Y3551620D01*
X4911100Y3555340D01*
X4913180Y3560520D01*
X4908480Y3561620D01*
X4907860Y3559500D01*
X4907040Y3557660D01*
X4906020Y3556100D01*
X4904780Y3554820D01*
X4903300Y3553800D01*
X4901680Y3553080D01*
X4899900Y3552660D01*
X4897980Y3552520D01*
X4896360Y3552620D01*
X4894800Y3552940D01*
X4893300Y3553480D01*
X4891880Y3554220D01*
X4890560Y3555179D01*
X4889440Y3556340D01*
X4888520Y3557720D01*
X4887780Y3559320D01*
X4887200Y3561080D01*
X4886800Y3563020D01*
X4886560Y3565080D01*
X4886480Y3567320D01*
X4886540Y3569060D01*
X4886740Y3570779D01*
X4887080Y3572500D01*
X4887580Y3574220D01*
X4888220Y3575779D01*
X4889100Y3577180D01*
X4890180Y3578440D01*
X4891480Y3579520D01*
X4892960Y3580340D01*
X4894600Y3580940D01*
X4896400Y3581300D01*
X4898380Y3581420D01*
X4900080Y3581300D01*
X4901640Y3580980D01*
X4903040Y3580460D01*
X4904280Y3579720D01*
X4905400Y3578680D01*
X4906380Y3577380D01*
X4907200Y3575840D01*
X4907880Y3574020D01*
X4912580Y3575120D01*
X4911720Y3577440D01*
X4910600Y3579480D01*
X4909180Y3581280D01*
X4907480Y3582820D01*
X4905520Y3584000D01*
X4903380Y3584840D01*
X4901020Y3585340D01*
G37*
G36*
X5144880Y3585020D02*
G01*
X5144220Y3583860D01*
X5143339Y3582679D01*
X5142260Y3581500D01*
X5139560Y3579120D01*
X5138020Y3578020D01*
X5136360Y3577020D01*
X5134580Y3576120D01*
X5134580Y3571820D01*
X5136720Y3572780D01*
X5139180Y3574120D01*
X5141520Y3575620D01*
X5143380Y3577120D01*
X5143380Y3549120D01*
X5147780Y3549120D01*
X5147780Y3585020D01*
G37*
G36*
X5184580Y3585020D02*
G01*
X5182700Y3584880D01*
X5181000Y3584480D01*
X5179460Y3583840D01*
X5178080Y3582919D01*
X5176860Y3581760D01*
X5175800Y3580380D01*
X5174900Y3578800D01*
X5174180Y3577020D01*
X5173200Y3572520D01*
X5172880Y3566820D01*
X5177380Y3566820D01*
X5177940Y3574220D01*
X5179680Y3578820D01*
X5180640Y3579960D01*
X5181780Y3580760D01*
X5183040Y3581259D01*
X5184480Y3581420D01*
X5185960Y3581240D01*
X5187320Y3580680D01*
X5188560Y3579780D01*
X5189680Y3578519D01*
X5191180Y3574140D01*
X5191680Y3566820D01*
X5191180Y3559460D01*
X5189680Y3555020D01*
X5188560Y3553740D01*
X5187340Y3552840D01*
X5186020Y3552300D01*
X5184580Y3552120D01*
X5183120Y3552300D01*
X5181799Y3552840D01*
X5180580Y3553740D01*
X5179480Y3555020D01*
X5177900Y3559420D01*
X5177380Y3566820D01*
X5172880Y3566820D01*
X5173099Y3562120D01*
X5173780Y3558120D01*
X5174900Y3554820D01*
X5176480Y3552220D01*
X5178060Y3550600D01*
X5179940Y3549440D01*
X5182120Y3548740D01*
X5184580Y3548519D01*
X5186440Y3548639D01*
X5188140Y3549040D01*
X5189680Y3549700D01*
X5191079Y3550620D01*
X5192279Y3551780D01*
X5193339Y3553159D01*
X5194240Y3554780D01*
X5194980Y3556620D01*
X5195940Y3561120D01*
X5196280Y3566820D01*
X5196220Y3569320D01*
X5196040Y3571560D01*
X5195760Y3573519D01*
X5195380Y3575220D01*
X5194940Y3576700D01*
X5193840Y3579360D01*
X5193180Y3580520D01*
X5192420Y3581560D01*
X5191580Y3582460D01*
X5190620Y3583260D01*
X5189580Y3583920D01*
X5188480Y3584400D01*
X5187279Y3584740D01*
X5185980Y3584940D01*
G37*
G36*
X4719080Y3584920D02*
G01*
X4719080Y3580920D01*
X4735180Y3580920D01*
X4737040Y3580820D01*
X4738620Y3580520D01*
X4739940Y3580020D01*
X4740980Y3579320D01*
X4741800Y3578460D01*
X4742400Y3577460D01*
X4742760Y3576360D01*
X4742880Y3575120D01*
X4742800Y3574280D01*
X4742620Y3573460D01*
X4741880Y3571920D01*
X4741360Y3571220D01*
X4740720Y3570640D01*
X4739960Y3570179D01*
X4738080Y3569500D01*
X4736900Y3569280D01*
X4733980Y3569120D01*
X4723880Y3569120D01*
X4723880Y3580920D01*
X4719080Y3580920D01*
X4719080Y3549120D01*
X4723880Y3549120D01*
X4723880Y3565020D01*
X4730200Y3565000D01*
X4731500Y3564900D01*
X4732520Y3564680D01*
X4733620Y3564240D01*
X4734180Y3563920D01*
X4735280Y3562960D01*
X4736580Y3561520D01*
X4738080Y3559420D01*
X4744680Y3549120D01*
X4750680Y3549120D01*
X4743460Y3560200D01*
X4742500Y3561460D01*
X4740480Y3563620D01*
X4739280Y3564520D01*
X4737680Y3565419D01*
X4740060Y3565880D01*
X4742120Y3566580D01*
X4743860Y3567540D01*
X4745280Y3568720D01*
X4746320Y3570080D01*
X4747080Y3571620D01*
X4747520Y3573279D01*
X4747680Y3575120D01*
X4747580Y3576580D01*
X4747320Y3577960D01*
X4746880Y3579280D01*
X4746280Y3580520D01*
X4745460Y3581660D01*
X4744520Y3582620D01*
X4743460Y3583360D01*
X4742280Y3583920D01*
X4740880Y3584360D01*
X4739200Y3584660D01*
X4737220Y3584860D01*
X4734980Y3584920D01*
G37*
G36*
X4793880Y3584920D02*
G01*
X4793880Y3580720D01*
X4805780Y3580720D01*
X4809020Y3580580D01*
X4810240Y3580440D01*
X4811180Y3580220D01*
X4811920Y3579900D01*
X4812580Y3579480D01*
X4813120Y3578960D01*
X4813960Y3577640D01*
X4814240Y3576880D01*
X4814420Y3576080D01*
X4814480Y3575220D01*
X4814420Y3574300D01*
X4814240Y3573460D01*
X4813960Y3572700D01*
X4813580Y3572020D01*
X4813060Y3571460D01*
X4812440Y3570980D01*
X4811720Y3570600D01*
X4810060Y3570140D01*
X4807760Y3569940D01*
X4798580Y3569920D01*
X4798580Y3580720D01*
X4793880Y3580720D01*
X4793880Y3565620D01*
X4806880Y3565620D01*
X4809880Y3565460D01*
X4811080Y3565280D01*
X4812080Y3565020D01*
X4813700Y3564220D01*
X4814380Y3563660D01*
X4814980Y3563020D01*
X4815400Y3562240D01*
X4815720Y3561380D01*
X4815900Y3560480D01*
X4815980Y3559520D01*
X4815800Y3557919D01*
X4815580Y3557180D01*
X4814900Y3555899D01*
X4814000Y3554900D01*
X4812880Y3554180D01*
X4811480Y3553680D01*
X4810140Y3553420D01*
X4808540Y3553320D01*
X4798580Y3553320D01*
X4798580Y3565620D01*
X4793880Y3565620D01*
X4793880Y3549120D01*
X4809100Y3549160D01*
X4810620Y3549260D01*
X4813280Y3549720D01*
X4815400Y3550460D01*
X4817180Y3551520D01*
X4817940Y3552140D01*
X4818620Y3552880D01*
X4819240Y3553780D01*
X4820260Y3555940D01*
X4820600Y3557080D01*
X4820800Y3558279D01*
X4820880Y3559520D01*
X4820760Y3561019D01*
X4820420Y3562420D01*
X4819860Y3563720D01*
X4819080Y3564920D01*
X4818120Y3565980D01*
X4817000Y3566860D01*
X4815680Y3567580D01*
X4814180Y3568120D01*
X4815340Y3568800D01*
X4816340Y3569580D01*
X4817180Y3570460D01*
X4817880Y3571420D01*
X4818440Y3572440D01*
X4818840Y3573480D01*
X4819080Y3574580D01*
X4819180Y3575720D01*
X4819080Y3576960D01*
X4818820Y3578159D01*
X4818380Y3579360D01*
X4817780Y3580520D01*
X4816960Y3581540D01*
X4816040Y3582440D01*
X4815020Y3583200D01*
X4813880Y3583820D01*
X4812520Y3584300D01*
X4810980Y3584640D01*
X4809220Y3584840D01*
X4807280Y3584920D01*
G37*
G36*
X4928880Y3584920D02*
G01*
X4920746Y3563820D01*
X4925480Y3563820D01*
X4929380Y3574320D01*
X4930440Y3577720D01*
X4931280Y3581120D01*
X4932320Y3577820D01*
X4937580Y3563820D01*
X4920746Y3563820D01*
X4915080Y3549120D01*
X4920180Y3549120D01*
X4924080Y3559920D01*
X4939080Y3559920D01*
X4943180Y3549120D01*
X4948580Y3549120D01*
X4933980Y3584920D01*
G37*
G36*
X4952280Y3584920D02*
G01*
X4952280Y3549120D01*
X4956780Y3549120D01*
X4956780Y3579620D01*
X4967180Y3549120D01*
X4971480Y3549120D01*
X4981880Y3579120D01*
X4981880Y3549120D01*
X4986380Y3549120D01*
X4986380Y3584920D01*
X4979980Y3584920D01*
X4969580Y3554320D01*
X4959380Y3584920D01*
G37*
G36*
X4994180Y3584920D02*
G01*
X4994180Y3549120D01*
X5020880Y3549120D01*
X5020880Y3553320D01*
X4998880Y3553320D01*
X4998880Y3565520D01*
X5018680Y3565520D01*
X5018680Y3569720D01*
X4998880Y3569720D01*
X4998880Y3580720D01*
X5019980Y3580720D01*
X5019980Y3584920D01*
G37*
G36*
X5027480Y3584920D02*
G01*
X5027480Y3580920D01*
X5043480Y3580920D01*
X5045340Y3580820D01*
X5046940Y3580520D01*
X5048280Y3580020D01*
X5049380Y3579320D01*
X5050160Y3578460D01*
X5050720Y3577460D01*
X5051060Y3576360D01*
X5051180Y3575120D01*
X5051120Y3574280D01*
X5050940Y3573460D01*
X5050280Y3571920D01*
X5049720Y3571220D01*
X5049080Y3570640D01*
X5048320Y3570179D01*
X5047480Y3569820D01*
X5046440Y3569500D01*
X5045240Y3569280D01*
X5042380Y3569120D01*
X5032180Y3569120D01*
X5032180Y3580920D01*
X5027480Y3580920D01*
X5027480Y3549120D01*
X5032180Y3549120D01*
X5032180Y3565020D01*
X5038500Y3565000D01*
X5039800Y3564900D01*
X5040820Y3564680D01*
X5041920Y3564240D01*
X5043040Y3563500D01*
X5044240Y3562300D01*
X5045600Y3560560D01*
X5047300Y3558060D01*
X5053080Y3549120D01*
X5058980Y3549120D01*
X5052780Y3558820D01*
X5050840Y3561460D01*
X5048880Y3563620D01*
X5047640Y3564520D01*
X5045980Y3565419D01*
X5048400Y3565880D01*
X5050480Y3566580D01*
X5052200Y3567540D01*
X5053580Y3568720D01*
X5054660Y3570080D01*
X5055440Y3571620D01*
X5055920Y3573279D01*
X5056080Y3575120D01*
X5055980Y3576580D01*
X5055700Y3577960D01*
X5055220Y3579280D01*
X5054580Y3580520D01*
X5053760Y3581660D01*
X5052820Y3582620D01*
X5051760Y3583360D01*
X5050580Y3583920D01*
X5049180Y3584360D01*
X5047500Y3584660D01*
X5045520Y3584860D01*
X5043280Y3584920D01*
G37*
G36*
X5073280Y3584920D02*
G01*
X5065205Y3563820D01*
X5069880Y3563820D01*
X5074380Y3576019D01*
X5075380Y3579420D01*
X5075780Y3581120D01*
X5076800Y3577820D01*
X5081980Y3563820D01*
X5065205Y3563820D01*
X5059580Y3549120D01*
X5064580Y3549120D01*
X5068480Y3559920D01*
X5083480Y3559920D01*
X5087680Y3549120D01*
X5093080Y3549120D01*
X5078380Y3584920D01*
G37*
G36*
X5104780Y3575020D02*
G01*
X5114580Y3549120D01*
X5118680Y3549120D01*
X5128579Y3575020D01*
X5123980Y3575020D01*
X5116900Y3555380D01*
X5116580Y3554320D01*
X5114980Y3559520D01*
X5109380Y3575020D01*
G37*
G36*
X4863980Y3564320D02*
G01*
X4863980Y3559820D01*
X4877480Y3559820D01*
X4877480Y3564320D01*
G37*
G36*
X5161480Y3554120D02*
G01*
X5161480Y3549120D01*
X5166480Y3549120D01*
X5166480Y3554120D01*
G37*
G36*
X7153300Y3333700D02*
G01*
X7147840Y3333060D01*
X7142900Y3331100D01*
X7138680Y3327900D01*
X7135599Y3323500D01*
X7133660Y3318080D01*
X7133000Y3311800D01*
X7133579Y3305820D01*
X7135300Y3300299D01*
X7138040Y3295539D01*
X7141900Y3292100D01*
X7146920Y3290000D01*
X7153200Y3289300D01*
X7159380Y3290200D01*
X7164500Y3292900D01*
X7168480Y3297420D01*
X7171000Y3303600D01*
X7165300Y3305100D01*
X7164560Y3302520D01*
X7163579Y3300299D01*
X7162320Y3298420D01*
X7160800Y3296900D01*
X7159059Y3295680D01*
X7157120Y3294800D01*
X7155000Y3294280D01*
X7152700Y3294100D01*
X7150780Y3294240D01*
X7148920Y3294620D01*
X7147140Y3295280D01*
X7145400Y3296200D01*
X7143860Y3297340D01*
X7142519Y3298720D01*
X7141400Y3300380D01*
X7140500Y3302300D01*
X7139800Y3304400D01*
X7139299Y3306680D01*
X7139000Y3309140D01*
X7138900Y3311800D01*
X7138980Y3313940D01*
X7139220Y3316019D01*
X7139640Y3318080D01*
X7140200Y3320100D01*
X7141020Y3322000D01*
X7142080Y3323680D01*
X7143360Y3325140D01*
X7144900Y3326400D01*
X7146660Y3327440D01*
X7148620Y3328200D01*
X7150800Y3328639D01*
X7153200Y3328800D01*
X7155260Y3328660D01*
X7157120Y3328279D01*
X7158800Y3327620D01*
X7160300Y3326700D01*
X7161660Y3325440D01*
X7162820Y3323900D01*
X7163800Y3322040D01*
X7164600Y3319900D01*
X7170200Y3321200D01*
X7167820Y3326440D01*
X7164100Y3330400D01*
X7159200Y3332880D01*
G37*
G36*
X7094700Y3332900D02*
G01*
X7094700Y3290000D01*
X7126799Y3290000D01*
X7126799Y3295100D01*
X7100400Y3295100D01*
X7100400Y3309700D01*
X7124200Y3309700D01*
X7124200Y3314700D01*
X7100400Y3314700D01*
X7100400Y3327900D01*
X7125800Y3327900D01*
X7125800Y3332900D01*
G37*
G36*
X7189800Y3332900D02*
G01*
X7180069Y3307600D01*
X7185700Y3307600D01*
X7191100Y3322240D01*
X7192260Y3326340D01*
X7192700Y3328399D01*
X7193960Y3324480D01*
X7195700Y3319500D01*
X7200200Y3307600D01*
X7180069Y3307600D01*
X7173300Y3290000D01*
X7179299Y3290000D01*
X7184000Y3303000D01*
X7202000Y3303000D01*
X7207000Y3290000D01*
X7213500Y3290000D01*
X7195900Y3332900D01*
G37*
G36*
X3116200Y2329500D02*
G01*
X3110000Y2328940D01*
X3105600Y2327300D01*
X3104060Y2325980D01*
X3102980Y2324340D01*
X3102320Y2322380D01*
X3102100Y2320100D01*
X3106400Y2320100D01*
X3106460Y2320820D01*
X3106620Y2321440D01*
X3106900Y2322020D01*
X3107300Y2322500D01*
X3107820Y2322880D01*
X3109320Y2323480D01*
X3110299Y2323700D01*
X3112820Y2323920D01*
X3116200Y2324000D01*
X3119500Y2323900D01*
X3122980Y2323420D01*
X3123820Y2323160D01*
X3124540Y2322820D01*
X3125100Y2322400D01*
X3125539Y2321940D01*
X3125840Y2321400D01*
X3126040Y2320740D01*
X3126100Y2320000D01*
X3126040Y2319260D01*
X3125880Y2318600D01*
X3125600Y2318060D01*
X3125200Y2317600D01*
X3124640Y2317220D01*
X3123080Y2316620D01*
X3120940Y2316220D01*
X3118000Y2316020D01*
X3114400Y2316020D01*
X3111460Y2316220D01*
X3109320Y2316580D01*
X3108500Y2316840D01*
X3107820Y2317180D01*
X3107300Y2317600D01*
X3106900Y2318060D01*
X3106620Y2318620D01*
X3106460Y2319300D01*
X3106400Y2320100D01*
X3102100Y2320100D01*
X3102200Y2318480D01*
X3102480Y2317020D01*
X3102940Y2315740D01*
X3103600Y2314600D01*
X3104420Y2313660D01*
X3105460Y2312820D01*
X3106720Y2312100D01*
X3108200Y2311500D01*
X3109860Y2311060D01*
X3111760Y2310760D01*
X3113860Y2310560D01*
X3116200Y2310500D01*
X3122420Y2311100D01*
X3126840Y2312880D01*
X3129520Y2315840D01*
X3130400Y2320000D01*
X3130179Y2322200D01*
X3129500Y2324120D01*
X3128380Y2325760D01*
X3126800Y2327100D01*
X3122340Y2328900D01*
G37*
G36*
X3124000Y2306200D02*
G01*
X3124000Y2300500D01*
X3130000Y2300500D01*
X3130000Y2306200D01*
G37*
G36*
X3125899Y2296700D02*
G01*
X3125899Y2290400D01*
X3102500Y2290400D01*
X3102500Y2285200D01*
X3107000Y2278300D01*
X3111300Y2278300D01*
X3107100Y2284900D01*
X3125899Y2284900D01*
X3125899Y2278100D01*
X3130000Y2278100D01*
X3130000Y2296700D01*
G37*
G36*
X3108900Y2275400D02*
G01*
X3108900Y2269600D01*
X3125600Y2264400D01*
X3120700Y2263000D01*
X3108900Y2259300D01*
X3108900Y2253500D01*
X3130000Y2261000D01*
X3130000Y2267600D01*
G37*
G36*
X3102500Y2239500D02*
G01*
X3102500Y2231900D01*
X3118600Y2226800D01*
X3123000Y2225600D01*
X3117900Y2224200D01*
X3102500Y2219300D01*
X3102500Y2211600D01*
X3130000Y2211600D01*
X3130000Y2216700D01*
X3112400Y2216680D01*
X3107300Y2216400D01*
X3114600Y2218500D01*
X3130000Y2223500D01*
X3130000Y2227600D01*
X3113399Y2232960D01*
X3107300Y2234600D01*
X3112200Y2234400D01*
X3130000Y2234400D01*
X3130000Y2239500D01*
G37*
G36*
X3130000Y2207800D02*
G01*
X3102500Y2197800D01*
X3102500Y2194400D01*
X3106700Y2194400D01*
X3108100Y2194800D01*
X3118600Y2198400D01*
X3118600Y2190500D01*
X3107500Y2194200D01*
X3106700Y2194400D01*
X3102500Y2194400D01*
X3102500Y2191000D01*
X3130000Y2181000D01*
X3130000Y2186800D01*
X3123000Y2189200D01*
X3123000Y2199700D01*
X3130000Y2202100D01*
G37*
G36*
X3122500Y2178900D02*
G01*
X3120600Y2173900D01*
X3124580Y2171080D01*
X3125899Y2166600D01*
X3125740Y2164760D01*
X3125280Y2163160D01*
X3124500Y2161760D01*
X3123399Y2160600D01*
X3122000Y2159720D01*
X3120320Y2159100D01*
X3118360Y2158720D01*
X3116100Y2158600D01*
X3113900Y2158720D01*
X3111980Y2159100D01*
X3110340Y2159720D01*
X3109000Y2160600D01*
X3107960Y2161720D01*
X3107200Y2163080D01*
X3106760Y2164660D01*
X3106600Y2166500D01*
X3106680Y2167760D01*
X3106900Y2168900D01*
X3107280Y2169960D01*
X3107799Y2170900D01*
X3108460Y2171780D01*
X3109220Y2172500D01*
X3110100Y2173080D01*
X3111100Y2173500D01*
X3109700Y2178600D01*
X3107960Y2177840D01*
X3106420Y2176880D01*
X3105100Y2175700D01*
X3104000Y2174300D01*
X3103159Y2172640D01*
X3102580Y2170780D01*
X3102220Y2168700D01*
X3102100Y2166400D01*
X3103000Y2160500D01*
X3105700Y2156200D01*
X3110100Y2153640D01*
X3116100Y2152800D01*
X3122120Y2153700D01*
X3126600Y2156400D01*
X3129440Y2160740D01*
X3130400Y2166600D01*
X3130280Y2168720D01*
X3129900Y2170700D01*
X3129280Y2172520D01*
X3128399Y2174200D01*
X3127320Y2175660D01*
X3125980Y2176920D01*
X3124360Y2178000D01*
G37*
G36*
X3116100Y2138300D02*
G01*
X3110280Y2137380D01*
X3105800Y2134600D01*
X3103020Y2130240D01*
X3102100Y2124400D01*
X3106600Y2124400D01*
X3106760Y2126200D01*
X3107220Y2127780D01*
X3108000Y2129140D01*
X3109100Y2130300D01*
X3110520Y2131220D01*
X3112160Y2131880D01*
X3114020Y2132260D01*
X3116100Y2132400D01*
X3118320Y2132260D01*
X3120240Y2131880D01*
X3121920Y2131220D01*
X3123300Y2130300D01*
X3124440Y2129140D01*
X3125240Y2127780D01*
X3125740Y2126200D01*
X3125899Y2124400D01*
X3125740Y2122600D01*
X3125240Y2121020D01*
X3124440Y2119660D01*
X3123300Y2118500D01*
X3121840Y2117540D01*
X3120140Y2116840D01*
X3118240Y2116440D01*
X3116100Y2116300D01*
X3113980Y2116440D01*
X3112100Y2116820D01*
X3110480Y2117480D01*
X3109100Y2118400D01*
X3108000Y2119560D01*
X3107220Y2120960D01*
X3106760Y2122560D01*
X3106600Y2124400D01*
X3102100Y2124400D01*
X3103020Y2118600D01*
X3105800Y2114200D01*
X3110220Y2111420D01*
X3116100Y2110500D01*
X3122080Y2111420D01*
X3126600Y2114200D01*
X3129440Y2118600D01*
X3130400Y2124400D01*
X3130299Y2126440D01*
X3129980Y2128360D01*
X3129440Y2130140D01*
X3128700Y2131800D01*
X3127720Y2133260D01*
X3126540Y2134540D01*
X3125220Y2135660D01*
X3123700Y2136600D01*
X3121980Y2137340D01*
X3120140Y2137880D01*
X3118180Y2138200D01*
G37*
G36*
X3099600Y2131600D02*
G01*
X3094200Y2126700D01*
X3094200Y2122200D01*
X3099600Y2117200D01*
X3100100Y2117200D01*
X3100100Y2120300D01*
X3097200Y2124500D01*
X3100100Y2128500D01*
X3100100Y2131600D01*
G37*
G36*
X3122100Y2107100D02*
G01*
X3120760Y2106980D01*
X3119580Y2106640D01*
X3118519Y2106080D01*
X3117600Y2105300D01*
X3116840Y2104340D01*
X3116220Y2103180D01*
X3115779Y2101800D01*
X3115500Y2100200D01*
X3115179Y2101460D01*
X3114700Y2102560D01*
X3114080Y2103460D01*
X3113300Y2104200D01*
X3112460Y2104760D01*
X3111520Y2105180D01*
X3110500Y2105420D01*
X3109400Y2105500D01*
X3107799Y2105340D01*
X3106400Y2104840D01*
X3105200Y2104040D01*
X3104200Y2102900D01*
X3103460Y2101440D01*
X3102919Y2099700D01*
X3102600Y2097640D01*
X3102500Y2095300D01*
X3102500Y2088400D01*
X3106800Y2088400D01*
X3106840Y2096080D01*
X3106980Y2097020D01*
X3107200Y2097840D01*
X3107500Y2098500D01*
X3107960Y2099020D01*
X3108580Y2099400D01*
X3109320Y2099620D01*
X3110200Y2099700D01*
X3111000Y2099640D01*
X3111680Y2099420D01*
X3112240Y2099080D01*
X3112700Y2098600D01*
X3113100Y2097960D01*
X3113380Y2097160D01*
X3113540Y2096160D01*
X3113600Y2095000D01*
X3113600Y2088400D01*
X3117799Y2088400D01*
X3117799Y2095700D01*
X3118039Y2098160D01*
X3118780Y2099900D01*
X3120000Y2100940D01*
X3121700Y2101300D01*
X3122640Y2101220D01*
X3123440Y2100980D01*
X3124140Y2100560D01*
X3124700Y2100000D01*
X3125140Y2099260D01*
X3125460Y2098360D01*
X3125640Y2097260D01*
X3125700Y2096000D01*
X3125700Y2088400D01*
X3102500Y2088400D01*
X3102500Y2082700D01*
X3130000Y2082700D01*
X3130000Y2096399D01*
X3129860Y2098760D01*
X3129480Y2100880D01*
X3128820Y2102720D01*
X3127900Y2104300D01*
X3126780Y2105520D01*
X3125460Y2106400D01*
X3123880Y2106920D01*
G37*
G36*
X3116100Y2078300D02*
G01*
X3110280Y2077380D01*
X3105800Y2074600D01*
X3103020Y2070240D01*
X3102100Y2064400D01*
X3106600Y2064400D01*
X3106760Y2066200D01*
X3107220Y2067780D01*
X3108000Y2069139D01*
X3109100Y2070300D01*
X3110520Y2071220D01*
X3112160Y2071879D01*
X3114020Y2072260D01*
X3116100Y2072400D01*
X3118320Y2072260D01*
X3120240Y2071879D01*
X3121920Y2071220D01*
X3123300Y2070300D01*
X3124440Y2069139D01*
X3125240Y2067780D01*
X3125740Y2066200D01*
X3125899Y2064400D01*
X3125740Y2062600D01*
X3125240Y2061020D01*
X3124440Y2059660D01*
X3123300Y2058500D01*
X3121840Y2057540D01*
X3120140Y2056840D01*
X3118240Y2056440D01*
X3116100Y2056300D01*
X3113980Y2056440D01*
X3112100Y2056819D01*
X3110480Y2057480D01*
X3109100Y2058400D01*
X3108000Y2059560D01*
X3107220Y2060960D01*
X3106760Y2062560D01*
X3106600Y2064400D01*
X3102100Y2064400D01*
X3103020Y2058600D01*
X3105800Y2054199D01*
X3110220Y2051420D01*
X3116100Y2050500D01*
X3122080Y2051420D01*
X3126600Y2054199D01*
X3129440Y2058600D01*
X3130400Y2064400D01*
X3130299Y2066440D01*
X3129980Y2068360D01*
X3129440Y2070140D01*
X3128700Y2071800D01*
X3127720Y2073260D01*
X3126540Y2074540D01*
X3125220Y2075660D01*
X3123700Y2076600D01*
X3121980Y2077340D01*
X3120140Y2077880D01*
X3118180Y2078200D01*
G37*
G36*
X3130000Y2048100D02*
G01*
X3118399Y2040600D01*
X3118000Y2041940D01*
X3117420Y2043120D01*
X3116660Y2044180D01*
X3115700Y2045100D01*
X3114600Y2045800D01*
X3113399Y2046300D01*
X3112100Y2046600D01*
X3110700Y2046699D01*
X3108820Y2046540D01*
X3107180Y2046020D01*
X3105760Y2045180D01*
X3104600Y2044000D01*
X3103680Y2042520D01*
X3103020Y2040740D01*
X3102640Y2038720D01*
X3102500Y2036399D01*
X3102500Y2028400D01*
X3107000Y2028400D01*
X3107000Y2035800D01*
X3107240Y2038040D01*
X3107980Y2039620D01*
X3109200Y2040580D01*
X3110899Y2040900D01*
X3111840Y2040820D01*
X3112679Y2040580D01*
X3113399Y2040160D01*
X3114000Y2039600D01*
X3114480Y2038920D01*
X3114820Y2038100D01*
X3115040Y2037120D01*
X3115100Y2036000D01*
X3115100Y2028400D01*
X3102500Y2028400D01*
X3102500Y2022700D01*
X3130000Y2022700D01*
X3130000Y2028400D01*
X3119600Y2028400D01*
X3119600Y2035200D01*
X3130000Y2041600D01*
G37*
D10*
G01*
X580000Y1085000D03*
G01*
X2325000Y290000D03*
G01*
X2095000Y2000000D03*
G01*
X1470000Y1215000D03*
G01*
X1890000Y1140000D03*
G01*
X2405000Y2035000D03*
G01*
X1290000Y415000D03*
G01*
X1975000Y295000D03*
G01*
X1245000Y585000D03*
G01*
X575000Y1305000D03*
G01*
X1175000Y635000D03*
G01*
X790000Y1290000D03*
G01*
X635000Y1335000D03*
G01*
X1955000Y1725000D03*
G01*
X1870000Y1715000D03*
G01*
X1720000Y2310000D03*
G01*
X1000000Y2240000D03*
G01*
X1535000Y2235000D03*
G01*
X625000Y365000D03*
G01*
X595000Y420000D03*
G01*
X855000Y740000D03*
G01*
X855000Y900000D03*
G01*
X2030000Y305000D03*
G01*
X1285000Y65000D03*
G01*
X2085000Y290000D03*
G01*
X675000Y1590000D03*
G01*
X1415000Y255000D03*
G01*
X2140000Y2225000D03*
G01*
X1330000Y1145000D03*
G01*
X2115000Y480000D03*
G01*
X2390000Y1055000D03*
G01*
X1270000Y675000D03*
G01*
X1945000Y1465000D03*
G01*
X1945000Y1255000D03*
G01*
X2630000Y1645000D03*
G01*
X2570000Y1610000D03*
G01*
X2560000Y1525000D03*
G01*
X2395000Y1600000D03*
G01*
X1915000Y1615000D03*
G01*
X2020000Y1740000D03*
G01*
X2950000Y705000D03*
G01*
X2960000Y585000D03*
G01*
X2955000Y440000D03*
G01*
X3105000Y320000D03*
G01*
X1545000Y2185000D03*
G01*
X2230000Y1295000D03*
G01*
X2765000Y1605000D03*
G01*
X2855000Y1600000D03*
G01*
X2960000Y1605000D03*
G36*
X2277399Y1390900D02*
G01*
X2276400Y1391100D01*
X2275500Y1391399D01*
X2274700Y1391799D01*
X2273800Y1392300D01*
X2273100Y1392899D01*
X2272399Y1393600D01*
X2271800Y1394299D01*
X2271300Y1395100D01*
X2270900Y1395999D01*
X2270600Y1396900D01*
X2270500Y1397899D01*
X2270399Y1398699D01*
X2270399Y1422600D01*
X2270500Y1423400D01*
X2270600Y1424299D01*
X2270900Y1425300D01*
X2271300Y1426100D01*
X2271800Y1426999D01*
X2272399Y1427699D01*
X2273100Y1428400D01*
X2273800Y1429000D01*
X2274700Y1429499D01*
X2275500Y1429899D01*
X2276400Y1430100D01*
X2277399Y1430300D01*
X2278199Y1430399D01*
X2321800Y1430399D01*
X2322600Y1430300D01*
X2323599Y1430100D01*
X2324499Y1429899D01*
X2325299Y1429499D01*
X2326199Y1429000D01*
X2326899Y1428400D01*
X2327600Y1427699D01*
X2328199Y1426999D01*
X2328699Y1426100D01*
X2329099Y1425300D01*
X2329399Y1424299D01*
X2329499Y1423400D01*
X2329600Y1422600D01*
X2329600Y1398699D01*
X2329499Y1397899D01*
X2329399Y1396900D01*
X2329099Y1395999D01*
X2328699Y1395100D01*
X2328199Y1394299D01*
X2327600Y1393600D01*
X2326899Y1392899D01*
X2326199Y1392300D01*
X2325299Y1391799D01*
X2324499Y1391399D01*
X2323599Y1391100D01*
X2322600Y1390900D01*
G37*
G36*
X2278199Y1469600D02*
G01*
X2277399Y1469699D01*
X2276400Y1469899D01*
X2275500Y1470100D01*
X2274700Y1470500D01*
X2273800Y1470999D01*
X2273100Y1471599D01*
X2272399Y1472300D01*
X2271800Y1473000D01*
X2271300Y1473899D01*
X2270900Y1474699D01*
X2270600Y1475700D01*
X2270500Y1476599D01*
X2270399Y1477399D01*
X2270399Y1501300D01*
X2270500Y1502100D01*
X2270600Y1503099D01*
X2270900Y1504000D01*
X2271300Y1504899D01*
X2271800Y1505700D01*
X2272399Y1506399D01*
X2273100Y1507100D01*
X2273800Y1507699D01*
X2274700Y1508200D01*
X2275500Y1508600D01*
X2276400Y1508899D01*
X2277399Y1509099D01*
X2322600Y1509099D01*
X2323599Y1508899D01*
X2324499Y1508600D01*
X2325299Y1508200D01*
X2326199Y1507699D01*
X2326899Y1507100D01*
X2327600Y1506399D01*
X2328199Y1505700D01*
X2328699Y1504899D01*
X2329099Y1504000D01*
X2329399Y1503099D01*
X2329499Y1502100D01*
X2329600Y1501300D01*
X2329600Y1477399D01*
X2329499Y1476599D01*
X2329399Y1475700D01*
X2329099Y1474699D01*
X2328699Y1473899D01*
X2328199Y1473000D01*
X2327600Y1472300D01*
X2326899Y1471599D01*
X2326199Y1470999D01*
X2325299Y1470500D01*
X2324499Y1470100D01*
X2323599Y1469899D01*
X2322600Y1469699D01*
X2321800Y1469600D01*
G37*
G36*
X1197399Y1115900D02*
G01*
X1196400Y1116100D01*
X1195500Y1116399D01*
X1194700Y1116799D01*
X1193800Y1117300D01*
X1193100Y1117899D01*
X1192399Y1118600D01*
X1191800Y1119299D01*
X1191300Y1120100D01*
X1190900Y1120999D01*
X1190600Y1121900D01*
X1190500Y1122899D01*
X1190399Y1123699D01*
X1190399Y1147600D01*
X1190500Y1148400D01*
X1190600Y1149299D01*
X1190900Y1150300D01*
X1191300Y1151100D01*
X1191800Y1151999D01*
X1192399Y1152699D01*
X1193100Y1153400D01*
X1193800Y1154000D01*
X1194700Y1154499D01*
X1195500Y1154899D01*
X1196400Y1155100D01*
X1197399Y1155300D01*
X1198199Y1155399D01*
X1241800Y1155399D01*
X1242600Y1155300D01*
X1243599Y1155100D01*
X1244499Y1154899D01*
X1245299Y1154499D01*
X1246199Y1154000D01*
X1246899Y1153400D01*
X1247600Y1152699D01*
X1248199Y1151999D01*
X1248699Y1151100D01*
X1249099Y1150300D01*
X1249399Y1149299D01*
X1249499Y1148400D01*
X1249600Y1147600D01*
X1249600Y1123699D01*
X1249499Y1122899D01*
X1249399Y1121900D01*
X1249099Y1120999D01*
X1248699Y1120100D01*
X1248199Y1119299D01*
X1247600Y1118600D01*
X1246899Y1117899D01*
X1246199Y1117300D01*
X1245299Y1116799D01*
X1244499Y1116399D01*
X1243599Y1116100D01*
X1242600Y1115900D01*
G37*
G36*
X1198199Y1194600D02*
G01*
X1197399Y1194699D01*
X1196400Y1194899D01*
X1195500Y1195100D01*
X1194700Y1195500D01*
X1193800Y1195999D01*
X1193100Y1196599D01*
X1192399Y1197300D01*
X1191800Y1198000D01*
X1191300Y1198899D01*
X1190900Y1199699D01*
X1190600Y1200700D01*
X1190500Y1201599D01*
X1190399Y1202399D01*
X1190399Y1226300D01*
X1190500Y1227100D01*
X1190600Y1228099D01*
X1190900Y1229000D01*
X1191300Y1229899D01*
X1191800Y1230700D01*
X1192399Y1231399D01*
X1193100Y1232100D01*
X1193800Y1232699D01*
X1194700Y1233200D01*
X1195500Y1233600D01*
X1196400Y1233899D01*
X1197399Y1234099D01*
X1242600Y1234099D01*
X1243599Y1233899D01*
X1244499Y1233600D01*
X1245299Y1233200D01*
X1246199Y1232699D01*
X1246899Y1232100D01*
X1247600Y1231399D01*
X1248199Y1230700D01*
X1248699Y1229899D01*
X1249099Y1229000D01*
X1249399Y1228099D01*
X1249499Y1227100D01*
X1249600Y1226300D01*
X1249600Y1202399D01*
X1249499Y1201599D01*
X1249399Y1200700D01*
X1249099Y1199699D01*
X1248699Y1198899D01*
X1248199Y1198000D01*
X1247600Y1197300D01*
X1246899Y1196599D01*
X1246199Y1195999D01*
X1245299Y1195500D01*
X1244499Y1195100D01*
X1243599Y1194899D01*
X1242600Y1194699D01*
X1241800Y1194600D01*
G37*
G36*
X1068699Y1105399D02*
G01*
X1067899Y1105500D01*
X1066899Y1105599D01*
X1066000Y1105900D01*
X1065100Y1106300D01*
X1064300Y1106799D01*
X1063599Y1107399D01*
X1062899Y1108099D01*
X1062299Y1108800D01*
X1061800Y1109699D01*
X1061400Y1110500D01*
X1061099Y1111399D01*
X1060900Y1112399D01*
X1060900Y1157600D01*
X1061099Y1158600D01*
X1061400Y1159499D01*
X1061800Y1160300D01*
X1062299Y1161199D01*
X1062899Y1161900D01*
X1063599Y1162600D01*
X1064300Y1163200D01*
X1065100Y1163699D01*
X1066000Y1164099D01*
X1066899Y1164400D01*
X1067899Y1164499D01*
X1068699Y1164600D01*
X1092600Y1164600D01*
X1093400Y1164499D01*
X1094300Y1164400D01*
X1095299Y1164099D01*
X1096099Y1163699D01*
X1096999Y1163200D01*
X1097700Y1162600D01*
X1098400Y1161900D01*
X1098999Y1161199D01*
X1099499Y1160300D01*
X1099899Y1159499D01*
X1100100Y1158600D01*
X1100299Y1157600D01*
X1100399Y1156799D01*
X1100399Y1113200D01*
X1100299Y1112399D01*
X1100100Y1111399D01*
X1099899Y1110500D01*
X1099499Y1109699D01*
X1098999Y1108800D01*
X1098400Y1108099D01*
X1097700Y1107399D01*
X1096999Y1106799D01*
X1096099Y1106300D01*
X1095299Y1105900D01*
X1094300Y1105599D01*
X1093400Y1105500D01*
X1092600Y1105399D01*
G37*
G36*
X1147399Y1105399D02*
G01*
X1146599Y1105500D01*
X1145699Y1105599D01*
X1144700Y1105900D01*
X1143900Y1106300D01*
X1143000Y1106799D01*
X1142299Y1107399D01*
X1141599Y1108099D01*
X1141000Y1108800D01*
X1140500Y1109699D01*
X1140100Y1110500D01*
X1139899Y1111399D01*
X1139700Y1112399D01*
X1139600Y1113200D01*
X1139600Y1156799D01*
X1139700Y1157600D01*
X1139899Y1158600D01*
X1140100Y1159499D01*
X1140500Y1160300D01*
X1141000Y1161199D01*
X1141599Y1161900D01*
X1142299Y1162600D01*
X1143000Y1163200D01*
X1143900Y1163699D01*
X1144700Y1164099D01*
X1145699Y1164400D01*
X1146599Y1164499D01*
X1147399Y1164600D01*
X1171300Y1164600D01*
X1172100Y1164499D01*
X1173100Y1164400D01*
X1173999Y1164099D01*
X1174899Y1163699D01*
X1175699Y1163200D01*
X1176400Y1162600D01*
X1177100Y1161900D01*
X1177700Y1161199D01*
X1178199Y1160300D01*
X1178599Y1159499D01*
X1178900Y1158600D01*
X1179099Y1157600D01*
X1179099Y1112399D01*
X1178900Y1111399D01*
X1178599Y1110500D01*
X1178199Y1109699D01*
X1177700Y1108800D01*
X1177100Y1108099D01*
X1176400Y1107399D01*
X1175699Y1106799D01*
X1174899Y1106300D01*
X1173999Y1105900D01*
X1173100Y1105599D01*
X1172100Y1105500D01*
X1171300Y1105399D01*
G37*
G36*
X2417399Y1040900D02*
G01*
X2416400Y1041100D01*
X2415500Y1041399D01*
X2414700Y1041799D01*
X2413800Y1042300D01*
X2413100Y1042899D01*
X2412399Y1043600D01*
X2411800Y1044299D01*
X2411300Y1045100D01*
X2410900Y1045999D01*
X2410600Y1046900D01*
X2410500Y1047899D01*
X2410399Y1048699D01*
X2410399Y1072600D01*
X2410500Y1073400D01*
X2410600Y1074299D01*
X2410900Y1075300D01*
X2411300Y1076100D01*
X2411800Y1076999D01*
X2412399Y1077699D01*
X2413100Y1078400D01*
X2413800Y1079000D01*
X2414700Y1079499D01*
X2415500Y1079899D01*
X2416400Y1080100D01*
X2417399Y1080300D01*
X2418199Y1080399D01*
X2461800Y1080399D01*
X2462600Y1080300D01*
X2463599Y1080100D01*
X2464499Y1079899D01*
X2465299Y1079499D01*
X2466199Y1079000D01*
X2466899Y1078400D01*
X2467600Y1077699D01*
X2468199Y1076999D01*
X2468699Y1076100D01*
X2469099Y1075300D01*
X2469399Y1074299D01*
X2469499Y1073400D01*
X2469600Y1072600D01*
X2469600Y1048699D01*
X2469499Y1047899D01*
X2469399Y1046900D01*
X2469099Y1045999D01*
X2468699Y1045100D01*
X2468199Y1044299D01*
X2467600Y1043600D01*
X2466899Y1042899D01*
X2466199Y1042300D01*
X2465299Y1041799D01*
X2464499Y1041399D01*
X2463599Y1041100D01*
X2462600Y1040900D01*
G37*
G36*
X2418199Y1119600D02*
G01*
X2417399Y1119699D01*
X2416400Y1119899D01*
X2415500Y1120100D01*
X2414700Y1120500D01*
X2413800Y1120999D01*
X2413100Y1121599D01*
X2412399Y1122300D01*
X2411800Y1123000D01*
X2411300Y1123899D01*
X2410900Y1124699D01*
X2410600Y1125700D01*
X2410500Y1126599D01*
X2410399Y1127399D01*
X2410399Y1151300D01*
X2410500Y1152100D01*
X2410600Y1153099D01*
X2410900Y1154000D01*
X2411300Y1154899D01*
X2411800Y1155700D01*
X2412399Y1156399D01*
X2413100Y1157100D01*
X2413800Y1157699D01*
X2414700Y1158200D01*
X2415500Y1158600D01*
X2416400Y1158899D01*
X2417399Y1159099D01*
X2462600Y1159099D01*
X2463599Y1158899D01*
X2464499Y1158600D01*
X2465299Y1158200D01*
X2466199Y1157699D01*
X2466899Y1157100D01*
X2467600Y1156399D01*
X2468199Y1155700D01*
X2468699Y1154899D01*
X2469099Y1154000D01*
X2469399Y1153099D01*
X2469499Y1152100D01*
X2469600Y1151300D01*
X2469600Y1127399D01*
X2469499Y1126599D01*
X2469399Y1125700D01*
X2469099Y1124699D01*
X2468699Y1123899D01*
X2468199Y1123000D01*
X2467600Y1122300D01*
X2466899Y1121599D01*
X2466199Y1120999D01*
X2465299Y1120500D01*
X2464499Y1120100D01*
X2463599Y1119899D01*
X2462600Y1119699D01*
X2461800Y1119600D01*
G37*
G36*
X2417399Y915900D02*
G01*
X2416400Y916100D01*
X2415500Y916399D01*
X2414700Y916799D01*
X2413800Y917300D01*
X2413100Y917899D01*
X2412399Y918600D01*
X2411800Y919299D01*
X2411300Y920100D01*
X2410900Y920999D01*
X2410600Y921900D01*
X2410500Y922899D01*
X2410399Y923699D01*
X2410399Y947600D01*
X2410500Y948400D01*
X2410600Y949299D01*
X2410900Y950300D01*
X2411300Y951100D01*
X2411800Y951999D01*
X2412399Y952699D01*
X2413100Y953400D01*
X2413800Y954000D01*
X2414700Y954499D01*
X2415500Y954899D01*
X2416400Y955100D01*
X2417399Y955300D01*
X2418199Y955399D01*
X2461800Y955399D01*
X2462600Y955300D01*
X2463599Y955100D01*
X2464499Y954899D01*
X2465299Y954499D01*
X2466199Y954000D01*
X2466899Y953400D01*
X2467600Y952699D01*
X2468199Y951999D01*
X2468699Y951100D01*
X2469099Y950300D01*
X2469399Y949299D01*
X2469499Y948400D01*
X2469600Y947600D01*
X2469600Y923699D01*
X2469499Y922899D01*
X2469399Y921900D01*
X2469099Y920999D01*
X2468699Y920100D01*
X2468199Y919299D01*
X2467600Y918600D01*
X2466899Y917899D01*
X2466199Y917300D01*
X2465299Y916799D01*
X2464499Y916399D01*
X2463599Y916100D01*
X2462600Y915900D01*
G37*
G36*
X2418199Y994600D02*
G01*
X2417399Y994699D01*
X2416400Y994899D01*
X2415500Y995100D01*
X2414700Y995500D01*
X2413800Y995999D01*
X2413100Y996599D01*
X2412399Y997300D01*
X2411800Y998000D01*
X2411300Y998899D01*
X2410900Y999699D01*
X2410600Y1000700D01*
X2410500Y1001599D01*
X2410399Y1002399D01*
X2410399Y1026300D01*
X2410500Y1027100D01*
X2410600Y1028099D01*
X2410900Y1029000D01*
X2411300Y1029899D01*
X2411800Y1030700D01*
X2412399Y1031399D01*
X2413100Y1032100D01*
X2413800Y1032699D01*
X2414700Y1033200D01*
X2415500Y1033600D01*
X2416400Y1033899D01*
X2417399Y1034099D01*
X2462600Y1034099D01*
X2463599Y1033899D01*
X2464499Y1033600D01*
X2465299Y1033200D01*
X2466199Y1032699D01*
X2466899Y1032100D01*
X2467600Y1031399D01*
X2468199Y1030700D01*
X2468699Y1029899D01*
X2469099Y1029000D01*
X2469399Y1028099D01*
X2469499Y1027100D01*
X2469600Y1026300D01*
X2469600Y1002399D01*
X2469499Y1001599D01*
X2469399Y1000700D01*
X2469099Y999699D01*
X2468699Y998899D01*
X2468199Y998000D01*
X2467600Y997300D01*
X2466899Y996599D01*
X2466199Y995999D01*
X2465299Y995500D01*
X2464499Y995100D01*
X2463599Y994899D01*
X2462600Y994699D01*
X2461800Y994600D01*
G37*
G36*
X2232399Y520399D02*
G01*
X2231599Y520500D01*
X2230699Y520599D01*
X2229700Y520900D01*
X2228900Y521300D01*
X2228000Y521799D01*
X2227299Y522399D01*
X2226599Y523099D01*
X2226000Y523800D01*
X2225500Y524699D01*
X2225100Y525500D01*
X2224899Y526399D01*
X2224700Y527399D01*
X2224600Y528200D01*
X2224600Y571799D01*
X2224700Y572600D01*
X2224899Y573600D01*
X2225100Y574499D01*
X2225500Y575300D01*
X2226000Y576199D01*
X2226599Y576900D01*
X2227299Y577600D01*
X2228000Y578200D01*
X2228900Y578699D01*
X2229700Y579099D01*
X2230699Y579400D01*
X2231599Y579499D01*
X2232399Y579600D01*
X2256300Y579600D01*
X2257100Y579499D01*
X2258100Y579400D01*
X2258999Y579099D01*
X2259899Y578699D01*
X2260699Y578200D01*
X2261400Y577600D01*
X2262100Y576900D01*
X2262700Y576199D01*
X2263199Y575300D01*
X2263599Y574499D01*
X2263900Y573600D01*
X2264099Y572600D01*
X2264099Y527399D01*
X2263900Y526399D01*
X2263599Y525500D01*
X2263199Y524699D01*
X2262700Y523800D01*
X2262100Y523099D01*
X2261400Y522399D01*
X2260699Y521799D01*
X2259899Y521300D01*
X2258999Y520900D01*
X2258100Y520599D01*
X2257100Y520500D01*
X2256300Y520399D01*
G37*
G36*
X2153699Y520399D02*
G01*
X2152899Y520500D01*
X2151899Y520599D01*
X2151000Y520900D01*
X2150100Y521300D01*
X2149300Y521799D01*
X2148599Y522399D01*
X2147899Y523099D01*
X2147299Y523800D01*
X2146800Y524699D01*
X2146400Y525500D01*
X2146099Y526399D01*
X2145900Y527399D01*
X2145900Y572600D01*
X2146099Y573600D01*
X2146400Y574499D01*
X2146800Y575300D01*
X2147299Y576199D01*
X2147899Y576900D01*
X2148599Y577600D01*
X2149300Y578200D01*
X2150100Y578699D01*
X2151000Y579099D01*
X2151899Y579400D01*
X2152899Y579499D01*
X2153699Y579600D01*
X2177600Y579600D01*
X2178400Y579499D01*
X2179300Y579400D01*
X2180299Y579099D01*
X2181099Y578699D01*
X2181999Y578200D01*
X2182700Y577600D01*
X2183400Y576900D01*
X2183999Y576199D01*
X2184499Y575300D01*
X2184899Y574499D01*
X2185100Y573600D01*
X2185299Y572600D01*
X2185399Y571799D01*
X2185399Y528200D01*
X2185299Y527399D01*
X2185100Y526399D01*
X2184899Y525500D01*
X2184499Y524699D01*
X2183999Y523800D01*
X2183400Y523099D01*
X2182700Y522399D01*
X2181999Y521799D01*
X2181099Y521300D01*
X2180299Y520900D01*
X2179300Y520599D01*
X2178400Y520500D01*
X2177600Y520399D01*
G37*
G36*
X2093199Y394600D02*
G01*
X2092399Y394699D01*
X2091400Y394899D01*
X2090500Y395100D01*
X2089700Y395500D01*
X2088800Y395999D01*
X2088100Y396599D01*
X2087399Y397300D01*
X2086800Y398000D01*
X2086300Y398899D01*
X2085900Y399699D01*
X2085600Y400700D01*
X2085500Y401599D01*
X2085399Y402399D01*
X2085399Y426300D01*
X2085500Y427100D01*
X2085600Y428099D01*
X2085900Y429000D01*
X2086300Y429899D01*
X2086800Y430700D01*
X2087399Y431399D01*
X2088100Y432100D01*
X2088800Y432699D01*
X2089700Y433200D01*
X2090500Y433600D01*
X2091400Y433899D01*
X2092399Y434099D01*
X2137600Y434099D01*
X2138599Y433899D01*
X2139499Y433600D01*
X2140299Y433200D01*
X2141199Y432699D01*
X2141899Y432100D01*
X2142600Y431399D01*
X2143199Y430700D01*
X2143699Y429899D01*
X2144099Y429000D01*
X2144399Y428099D01*
X2144499Y427100D01*
X2144600Y426300D01*
X2144600Y402399D01*
X2144499Y401599D01*
X2144399Y400700D01*
X2144099Y399699D01*
X2143699Y398899D01*
X2143199Y398000D01*
X2142600Y397300D01*
X2141899Y396599D01*
X2141199Y395999D01*
X2140299Y395500D01*
X2139499Y395100D01*
X2138599Y394899D01*
X2137600Y394699D01*
X2136800Y394600D01*
G37*
G36*
X2092399Y315900D02*
G01*
X2091400Y316100D01*
X2090500Y316399D01*
X2089700Y316799D01*
X2088800Y317300D01*
X2088100Y317899D01*
X2087399Y318600D01*
X2086800Y319299D01*
X2086300Y320100D01*
X2085900Y320999D01*
X2085600Y321900D01*
X2085500Y322899D01*
X2085399Y323699D01*
X2085399Y347600D01*
X2085500Y348400D01*
X2085600Y349299D01*
X2085900Y350300D01*
X2086300Y351100D01*
X2086800Y351999D01*
X2087399Y352699D01*
X2088100Y353400D01*
X2088800Y354000D01*
X2089700Y354499D01*
X2090500Y354899D01*
X2091400Y355100D01*
X2092399Y355300D01*
X2093199Y355399D01*
X2136800Y355399D01*
X2137600Y355300D01*
X2138599Y355100D01*
X2139499Y354899D01*
X2140299Y354499D01*
X2141199Y354000D01*
X2141899Y353400D01*
X2142600Y352699D01*
X2143199Y351999D01*
X2143699Y351100D01*
X2144099Y350300D01*
X2144399Y349299D01*
X2144499Y348400D01*
X2144600Y347600D01*
X2144600Y323699D01*
X2144499Y322899D01*
X2144399Y321900D01*
X2144099Y320999D01*
X2143699Y320100D01*
X2143199Y319299D01*
X2142600Y318600D01*
X2141899Y317899D01*
X2141199Y317300D01*
X2140299Y316799D01*
X2139499Y316399D01*
X2138599Y316100D01*
X2137600Y315900D01*
G37*
G36*
X823699Y1220399D02*
G01*
X822899Y1220500D01*
X821899Y1220599D01*
X821000Y1220900D01*
X820100Y1221300D01*
X819300Y1221799D01*
X818599Y1222399D01*
X817899Y1223099D01*
X817299Y1223800D01*
X816800Y1224699D01*
X816400Y1225500D01*
X816099Y1226399D01*
X815900Y1227399D01*
X815900Y1272600D01*
X816099Y1273600D01*
X816400Y1274499D01*
X816800Y1275300D01*
X817299Y1276199D01*
X817899Y1276900D01*
X818599Y1277600D01*
X819300Y1278200D01*
X820100Y1278699D01*
X821000Y1279099D01*
X821899Y1279400D01*
X822899Y1279499D01*
X823699Y1279600D01*
X847600Y1279600D01*
X848400Y1279499D01*
X849300Y1279400D01*
X850299Y1279099D01*
X851099Y1278699D01*
X851999Y1278200D01*
X852700Y1277600D01*
X853400Y1276900D01*
X853999Y1276199D01*
X854499Y1275300D01*
X854899Y1274499D01*
X855100Y1273600D01*
X855299Y1272600D01*
X855399Y1271799D01*
X855399Y1228200D01*
X855299Y1227399D01*
X855100Y1226399D01*
X854899Y1225500D01*
X854499Y1224699D01*
X853999Y1223800D01*
X853400Y1223099D01*
X852700Y1222399D01*
X851999Y1221799D01*
X851099Y1221300D01*
X850299Y1220900D01*
X849300Y1220599D01*
X848400Y1220500D01*
X847600Y1220399D01*
G37*
G36*
X902399Y1220399D02*
G01*
X901599Y1220500D01*
X900699Y1220599D01*
X899700Y1220900D01*
X898900Y1221300D01*
X898000Y1221799D01*
X897299Y1222399D01*
X896599Y1223099D01*
X896000Y1223800D01*
X895500Y1224699D01*
X895100Y1225500D01*
X894899Y1226399D01*
X894700Y1227399D01*
X894600Y1228200D01*
X894600Y1271799D01*
X894700Y1272600D01*
X894899Y1273600D01*
X895100Y1274499D01*
X895500Y1275300D01*
X896000Y1276199D01*
X896599Y1276900D01*
X897299Y1277600D01*
X898000Y1278200D01*
X898900Y1278699D01*
X899700Y1279099D01*
X900699Y1279400D01*
X901599Y1279499D01*
X902399Y1279600D01*
X926300Y1279600D01*
X927100Y1279499D01*
X928100Y1279400D01*
X928999Y1279099D01*
X929899Y1278699D01*
X930699Y1278200D01*
X931400Y1277600D01*
X932100Y1276900D01*
X932700Y1276199D01*
X933199Y1275300D01*
X933599Y1274499D01*
X933900Y1273600D01*
X934099Y1272600D01*
X934099Y1227399D01*
X933900Y1226399D01*
X933599Y1225500D01*
X933199Y1224699D01*
X932700Y1223800D01*
X932100Y1223099D01*
X931400Y1222399D01*
X930699Y1221799D01*
X929899Y1221300D01*
X928999Y1220900D01*
X928100Y1220599D01*
X927100Y1220500D01*
X926300Y1220399D01*
G37*
G36*
X633699Y1225399D02*
G01*
X632899Y1225500D01*
X631900Y1225599D01*
X630999Y1225900D01*
X630100Y1226300D01*
X629299Y1226799D01*
X628600Y1227399D01*
X627899Y1228099D01*
X627300Y1228800D01*
X626799Y1229699D01*
X626399Y1230500D01*
X626100Y1231399D01*
X625900Y1232399D01*
X625900Y1277600D01*
X626100Y1278600D01*
X626399Y1279499D01*
X626799Y1280300D01*
X627300Y1281199D01*
X627899Y1281900D01*
X628600Y1282600D01*
X629299Y1283200D01*
X630100Y1283699D01*
X630999Y1284099D01*
X631900Y1284400D01*
X632899Y1284499D01*
X633699Y1284600D01*
X657600Y1284600D01*
X658400Y1284499D01*
X659299Y1284400D01*
X660300Y1284099D01*
X661100Y1283699D01*
X661999Y1283200D01*
X662699Y1282600D01*
X663400Y1281900D01*
X664000Y1281199D01*
X664499Y1280300D01*
X664899Y1279499D01*
X665100Y1278600D01*
X665300Y1277600D01*
X665399Y1276799D01*
X665399Y1233200D01*
X665300Y1232399D01*
X665100Y1231399D01*
X664899Y1230500D01*
X664499Y1229699D01*
X664000Y1228800D01*
X663400Y1228099D01*
X662699Y1227399D01*
X661999Y1226799D01*
X661100Y1226300D01*
X660300Y1225900D01*
X659299Y1225599D01*
X658400Y1225500D01*
X657600Y1225399D01*
G37*
G36*
X712399Y1225399D02*
G01*
X711599Y1225500D01*
X710700Y1225599D01*
X709699Y1225900D01*
X708899Y1226300D01*
X708000Y1226799D01*
X707300Y1227399D01*
X706599Y1228099D01*
X705999Y1228800D01*
X705500Y1229699D01*
X705100Y1230500D01*
X704899Y1231399D01*
X704699Y1232399D01*
X704600Y1233200D01*
X704600Y1276799D01*
X704699Y1277600D01*
X704899Y1278600D01*
X705100Y1279499D01*
X705500Y1280300D01*
X705999Y1281199D01*
X706599Y1281900D01*
X707300Y1282600D01*
X708000Y1283200D01*
X708899Y1283699D01*
X709699Y1284099D01*
X710700Y1284400D01*
X711599Y1284499D01*
X712399Y1284600D01*
X736300Y1284600D01*
X737100Y1284499D01*
X738099Y1284400D01*
X739000Y1284099D01*
X739899Y1283699D01*
X740700Y1283200D01*
X741399Y1282600D01*
X742100Y1281900D01*
X742699Y1281199D01*
X743200Y1280300D01*
X743600Y1279499D01*
X743899Y1278600D01*
X744099Y1277600D01*
X744099Y1232399D01*
X743899Y1231399D01*
X743600Y1230500D01*
X743200Y1229699D01*
X742699Y1228800D01*
X742100Y1228099D01*
X741399Y1227399D01*
X740700Y1226799D01*
X739899Y1226300D01*
X739000Y1225900D01*
X738099Y1225599D01*
X737100Y1225500D01*
X736300Y1225399D01*
G37*
D11*
G01*
X647599Y1091377D03*
G01*
X722400Y1091377D03*
G01*
X685000Y1188622D03*
G01*
X837600Y1086377D03*
G01*
X912399Y1086377D03*
G01*
X875000Y1183622D03*
G36*
X712399Y995399D02*
G01*
X711599Y995500D01*
X710700Y995599D01*
X709699Y995900D01*
X708899Y996300D01*
X708000Y996799D01*
X707300Y997399D01*
X706599Y998099D01*
X705999Y998800D01*
X705500Y999699D01*
X705100Y1000500D01*
X704899Y1001399D01*
X704699Y1002399D01*
X704600Y1003200D01*
X704600Y1046799D01*
X704699Y1047600D01*
X704899Y1048600D01*
X705100Y1049499D01*
X705500Y1050300D01*
X705999Y1051199D01*
X706599Y1051900D01*
X707300Y1052600D01*
X708000Y1053200D01*
X708899Y1053699D01*
X709699Y1054099D01*
X710700Y1054400D01*
X711599Y1054499D01*
X712399Y1054600D01*
X736300Y1054600D01*
X737100Y1054499D01*
X738099Y1054400D01*
X739000Y1054099D01*
X739899Y1053699D01*
X740700Y1053200D01*
X741399Y1052600D01*
X742100Y1051900D01*
X742699Y1051199D01*
X743200Y1050300D01*
X743600Y1049499D01*
X743899Y1048600D01*
X744099Y1047600D01*
X744099Y1002399D01*
X743899Y1001399D01*
X743600Y1000500D01*
X743200Y999699D01*
X742699Y998800D01*
X742100Y998099D01*
X741399Y997399D01*
X740700Y996799D01*
X739899Y996300D01*
X739000Y995900D01*
X738099Y995599D01*
X737100Y995500D01*
X736300Y995399D01*
G37*
G36*
X633699Y995399D02*
G01*
X632899Y995500D01*
X631900Y995599D01*
X630999Y995900D01*
X630100Y996300D01*
X629299Y996799D01*
X628600Y997399D01*
X627899Y998099D01*
X627300Y998800D01*
X626799Y999699D01*
X626399Y1000500D01*
X626100Y1001399D01*
X625900Y1002399D01*
X625900Y1047600D01*
X626100Y1048600D01*
X626399Y1049499D01*
X626799Y1050300D01*
X627300Y1051199D01*
X627899Y1051900D01*
X628600Y1052600D01*
X629299Y1053200D01*
X630100Y1053699D01*
X630999Y1054099D01*
X631900Y1054400D01*
X632899Y1054499D01*
X633699Y1054600D01*
X657600Y1054600D01*
X658400Y1054499D01*
X659299Y1054400D01*
X660300Y1054099D01*
X661100Y1053699D01*
X661999Y1053200D01*
X662699Y1052600D01*
X663400Y1051900D01*
X664000Y1051199D01*
X664499Y1050300D01*
X664899Y1049499D01*
X665100Y1048600D01*
X665300Y1047600D01*
X665399Y1046799D01*
X665399Y1003200D01*
X665300Y1002399D01*
X665100Y1001399D01*
X664899Y1000500D01*
X664499Y999699D01*
X664000Y998800D01*
X663400Y998099D01*
X662699Y997399D01*
X661999Y996799D01*
X661100Y996300D01*
X660300Y995900D01*
X659299Y995599D01*
X658400Y995500D01*
X657600Y995399D01*
G37*
G36*
X902399Y995399D02*
G01*
X901599Y995500D01*
X900699Y995599D01*
X899700Y995900D01*
X898900Y996300D01*
X898000Y996799D01*
X897299Y997399D01*
X896599Y998099D01*
X896000Y998800D01*
X895500Y999699D01*
X895100Y1000500D01*
X894899Y1001399D01*
X894700Y1002399D01*
X894600Y1003200D01*
X894600Y1046799D01*
X894700Y1047600D01*
X894899Y1048600D01*
X895100Y1049499D01*
X895500Y1050300D01*
X896000Y1051199D01*
X896599Y1051900D01*
X897299Y1052600D01*
X898000Y1053200D01*
X898900Y1053699D01*
X899700Y1054099D01*
X900699Y1054400D01*
X901599Y1054499D01*
X902399Y1054600D01*
X926300Y1054600D01*
X927100Y1054499D01*
X928100Y1054400D01*
X928999Y1054099D01*
X929899Y1053699D01*
X930699Y1053200D01*
X931400Y1052600D01*
X932100Y1051900D01*
X932700Y1051199D01*
X933199Y1050300D01*
X933599Y1049499D01*
X933900Y1048600D01*
X934099Y1047600D01*
X934099Y1002399D01*
X933900Y1001399D01*
X933599Y1000500D01*
X933199Y999699D01*
X932700Y998800D01*
X932100Y998099D01*
X931400Y997399D01*
X930699Y996799D01*
X929899Y996300D01*
X928999Y995900D01*
X928100Y995599D01*
X927100Y995500D01*
X926300Y995399D01*
G37*
G36*
X823699Y995399D02*
G01*
X822899Y995500D01*
X821899Y995599D01*
X821000Y995900D01*
X820100Y996300D01*
X819300Y996799D01*
X818599Y997399D01*
X817899Y998099D01*
X817299Y998800D01*
X816800Y999699D01*
X816400Y1000500D01*
X816099Y1001399D01*
X815900Y1002399D01*
X815900Y1047600D01*
X816099Y1048600D01*
X816400Y1049499D01*
X816800Y1050300D01*
X817299Y1051199D01*
X817899Y1051900D01*
X818599Y1052600D01*
X819300Y1053200D01*
X820100Y1053699D01*
X821000Y1054099D01*
X821899Y1054400D01*
X822899Y1054499D01*
X823699Y1054600D01*
X847600Y1054600D01*
X848400Y1054499D01*
X849300Y1054400D01*
X850299Y1054099D01*
X851099Y1053699D01*
X851999Y1053200D01*
X852700Y1052600D01*
X853400Y1051900D01*
X853999Y1051199D01*
X854499Y1050300D01*
X854899Y1049499D01*
X855100Y1048600D01*
X855299Y1047600D01*
X855399Y1046799D01*
X855399Y1003200D01*
X855299Y1002399D01*
X855100Y1001399D01*
X854899Y1000500D01*
X854499Y999699D01*
X853999Y998800D01*
X853400Y998099D01*
X852700Y997399D01*
X851999Y996799D01*
X851099Y996300D01*
X850299Y995900D01*
X849300Y995599D01*
X848400Y995500D01*
X847600Y995399D01*
G37*
D12*
G01*
X363307Y1250003D03*
G01*
X276687Y1250003D03*
G01*
X363307Y1096668D03*
G01*
X276687Y1096668D03*
D13*
G01*
X1360353Y1044689D03*
G01*
X1360353Y994689D03*
G01*
X1360353Y944689D03*
G01*
X1360353Y894689D03*
G01*
X1360353Y844689D03*
G01*
X1360353Y794689D03*
G01*
X1360353Y744689D03*
G01*
X1360353Y694689D03*
G01*
X1360353Y644689D03*
G01*
X1360353Y594689D03*
G01*
X1360353Y544689D03*
G01*
X1360353Y494689D03*
G01*
X1360353Y444689D03*
G01*
X1360353Y394689D03*
D14*
G01*
X1470000Y355315D03*
G01*
X1520000Y355315D03*
G01*
X1570000Y355315D03*
G01*
X1620000Y355315D03*
G01*
X1670000Y355315D03*
G01*
X1720000Y355315D03*
G01*
X1770000Y355315D03*
G01*
X1820000Y355315D03*
G01*
X1870000Y355315D03*
G01*
X1920000Y355315D03*
D15*
G01*
X2029646Y394689D03*
G01*
X2029646Y444689D03*
G01*
X2029646Y494689D03*
G01*
X2029646Y544689D03*
G01*
X2029646Y594689D03*
G01*
X2029646Y644689D03*
G01*
X2029646Y694689D03*
G01*
X2029646Y744689D03*
G01*
X2029646Y794689D03*
G01*
X2029646Y844689D03*
G01*
X2029646Y894689D03*
G01*
X2029646Y944689D03*
G01*
X2029646Y994689D03*
G01*
X2029646Y1044689D03*
D16*
G01*
X1655630Y749413D03*
D17*
G01*
X1583389Y749409D03*
D16*
G01*
X1727873Y749413D03*
G01*
X1727873Y821657D03*
G01*
X1655630Y821657D03*
G01*
X1583386Y821657D03*
G01*
X1583386Y677169D03*
G01*
X1655630Y677169D03*
G01*
X1727873Y677169D03*
G36*
X517399Y465399D02*
G01*
X516599Y465500D01*
X515700Y465599D01*
X514699Y465900D01*
X513899Y466300D01*
X513000Y466799D01*
X512300Y467399D01*
X511599Y468099D01*
X510999Y468800D01*
X510500Y469699D01*
X510100Y470500D01*
X509899Y471399D01*
X509699Y472399D01*
X509600Y473200D01*
X509600Y516799D01*
X509699Y517600D01*
X509899Y518600D01*
X510100Y519499D01*
X510500Y520300D01*
X510999Y521199D01*
X511599Y521900D01*
X512300Y522600D01*
X513000Y523200D01*
X513899Y523699D01*
X514699Y524099D01*
X515700Y524400D01*
X516599Y524499D01*
X517399Y524600D01*
X541300Y524600D01*
X542100Y524499D01*
X543099Y524400D01*
X544000Y524099D01*
X544899Y523699D01*
X545700Y523200D01*
X546399Y522600D01*
X547100Y521900D01*
X547699Y521199D01*
X548200Y520300D01*
X548600Y519499D01*
X548899Y518600D01*
X549099Y517600D01*
X549099Y472399D01*
X548899Y471399D01*
X548600Y470500D01*
X548200Y469699D01*
X547699Y468800D01*
X547100Y468099D01*
X546399Y467399D01*
X545700Y466799D01*
X544899Y466300D01*
X544000Y465900D01*
X543099Y465599D01*
X542100Y465500D01*
X541300Y465399D01*
G37*
G36*
X438699Y465399D02*
G01*
X437899Y465500D01*
X436900Y465599D01*
X435999Y465900D01*
X435100Y466300D01*
X434299Y466799D01*
X433600Y467399D01*
X432899Y468099D01*
X432300Y468800D01*
X431799Y469699D01*
X431399Y470500D01*
X431100Y471399D01*
X430900Y472399D01*
X430900Y517600D01*
X431100Y518600D01*
X431399Y519499D01*
X431799Y520300D01*
X432300Y521199D01*
X432899Y521900D01*
X433600Y522600D01*
X434299Y523200D01*
X435100Y523699D01*
X435999Y524099D01*
X436900Y524400D01*
X437899Y524499D01*
X438699Y524600D01*
X462600Y524600D01*
X463400Y524499D01*
X464299Y524400D01*
X465300Y524099D01*
X466100Y523699D01*
X466999Y523200D01*
X467699Y522600D01*
X468400Y521900D01*
X469000Y521199D01*
X469499Y520300D01*
X469899Y519499D01*
X470100Y518600D01*
X470300Y517600D01*
X470399Y516799D01*
X470399Y473200D01*
X470300Y472399D01*
X470100Y471399D01*
X469899Y470500D01*
X469499Y469699D01*
X469000Y468800D01*
X468400Y468099D01*
X467699Y467399D01*
X466999Y466799D01*
X466100Y466300D01*
X465300Y465900D01*
X464299Y465599D01*
X463400Y465500D01*
X462600Y465399D01*
G37*
G36*
X438699Y315399D02*
G01*
X437899Y315500D01*
X436900Y315599D01*
X435999Y315900D01*
X435100Y316300D01*
X434299Y316799D01*
X433600Y317399D01*
X432899Y318099D01*
X432300Y318800D01*
X431799Y319699D01*
X431399Y320500D01*
X431100Y321399D01*
X430900Y322399D01*
X430900Y367600D01*
X431100Y368600D01*
X431399Y369499D01*
X431799Y370300D01*
X432300Y371199D01*
X432899Y371900D01*
X433600Y372600D01*
X434299Y373200D01*
X435100Y373699D01*
X435999Y374099D01*
X436900Y374400D01*
X437899Y374499D01*
X438699Y374600D01*
X462600Y374600D01*
X463400Y374499D01*
X464299Y374400D01*
X465300Y374099D01*
X466100Y373699D01*
X466999Y373200D01*
X467699Y372600D01*
X468400Y371900D01*
X469000Y371199D01*
X469499Y370300D01*
X469899Y369499D01*
X470100Y368600D01*
X470300Y367600D01*
X470399Y366799D01*
X470399Y323200D01*
X470300Y322399D01*
X470100Y321399D01*
X469899Y320500D01*
X469499Y319699D01*
X469000Y318800D01*
X468400Y318099D01*
X467699Y317399D01*
X466999Y316799D01*
X466100Y316300D01*
X465300Y315900D01*
X464299Y315599D01*
X463400Y315500D01*
X462600Y315399D01*
G37*
G36*
X517399Y315399D02*
G01*
X516599Y315500D01*
X515700Y315599D01*
X514699Y315900D01*
X513899Y316300D01*
X513000Y316799D01*
X512300Y317399D01*
X511599Y318099D01*
X510999Y318800D01*
X510500Y319699D01*
X510100Y320500D01*
X509899Y321399D01*
X509699Y322399D01*
X509600Y323200D01*
X509600Y366799D01*
X509699Y367600D01*
X509899Y368600D01*
X510100Y369499D01*
X510500Y370300D01*
X510999Y371199D01*
X511599Y371900D01*
X512300Y372600D01*
X513000Y373200D01*
X513899Y373699D01*
X514699Y374099D01*
X515700Y374400D01*
X516599Y374499D01*
X517399Y374600D01*
X541300Y374600D01*
X542100Y374499D01*
X543099Y374400D01*
X544000Y374099D01*
X544899Y373699D01*
X545700Y373200D01*
X546399Y372600D01*
X547100Y371900D01*
X547699Y371199D01*
X548200Y370300D01*
X548600Y369499D01*
X548899Y368600D01*
X549099Y367600D01*
X549099Y322399D01*
X548899Y321399D01*
X548600Y320500D01*
X548200Y319699D01*
X547699Y318800D01*
X547100Y318099D01*
X546399Y317399D01*
X545700Y316799D01*
X544899Y316300D01*
X544000Y315900D01*
X543099Y315599D01*
X542100Y315500D01*
X541300Y315399D01*
G37*
D12*
G01*
X363307Y330003D03*
G01*
X276687Y330003D03*
G01*
X363307Y480003D03*
G01*
X276687Y480003D03*
G36*
X1706099Y1820999D02*
G01*
X1705200Y1821100D01*
X1704099Y1821300D01*
X1703100Y1821599D01*
X1702100Y1821999D01*
X1701099Y1822600D01*
X1700299Y1823200D01*
X1699499Y1824000D01*
X1698800Y1824899D01*
X1698299Y1825799D01*
X1697799Y1826799D01*
X1697500Y1827899D01*
X1697299Y1828899D01*
X1697299Y1861100D01*
X1697500Y1862100D01*
X1697799Y1863200D01*
X1698299Y1864200D01*
X1698800Y1865100D01*
X1699499Y1865999D01*
X1700299Y1866799D01*
X1701099Y1867399D01*
X1701999Y1868000D01*
X1703100Y1868400D01*
X1704099Y1868699D01*
X1705200Y1868899D01*
X1706099Y1869000D01*
X1751400Y1869000D01*
X1752299Y1868899D01*
X1753400Y1868699D01*
X1754399Y1868400D01*
X1755500Y1868000D01*
X1756400Y1867399D01*
X1757200Y1866799D01*
X1758000Y1865999D01*
X1758699Y1865100D01*
X1759200Y1864200D01*
X1759700Y1863200D01*
X1760000Y1862100D01*
X1760200Y1861100D01*
X1760299Y1860100D01*
X1760299Y1829899D01*
X1760200Y1828899D01*
X1760000Y1827899D01*
X1759700Y1826799D01*
X1759200Y1825799D01*
X1758699Y1824899D01*
X1758000Y1824000D01*
X1757200Y1823200D01*
X1756400Y1822600D01*
X1755399Y1821999D01*
X1754399Y1821599D01*
X1753400Y1821300D01*
X1752299Y1821100D01*
X1751400Y1820999D01*
G37*
G36*
X1706099Y1890999D02*
G01*
X1705200Y1891100D01*
X1704099Y1891300D01*
X1703100Y1891599D01*
X1701999Y1891999D01*
X1701099Y1892600D01*
X1700299Y1893200D01*
X1699499Y1894000D01*
X1698800Y1894899D01*
X1698299Y1895799D01*
X1697799Y1896799D01*
X1697500Y1897899D01*
X1697299Y1898899D01*
X1697299Y1931100D01*
X1697500Y1932100D01*
X1697799Y1933200D01*
X1698299Y1934200D01*
X1698800Y1935100D01*
X1699499Y1935999D01*
X1700299Y1936799D01*
X1701099Y1937399D01*
X1702100Y1938000D01*
X1703100Y1938400D01*
X1704099Y1938699D01*
X1705200Y1938899D01*
X1706099Y1939000D01*
X1751400Y1939000D01*
X1752299Y1938899D01*
X1753400Y1938699D01*
X1754399Y1938400D01*
X1755399Y1938000D01*
X1756400Y1937399D01*
X1757200Y1936799D01*
X1758000Y1935999D01*
X1758699Y1935100D01*
X1759200Y1934200D01*
X1759700Y1933200D01*
X1760000Y1932100D01*
X1760200Y1931100D01*
X1760299Y1930100D01*
X1760299Y1899899D01*
X1760200Y1898899D01*
X1760000Y1897899D01*
X1759700Y1896799D01*
X1759200Y1895799D01*
X1758699Y1894899D01*
X1758000Y1894000D01*
X1757200Y1893200D01*
X1756400Y1892600D01*
X1755500Y1891999D01*
X1754399Y1891599D01*
X1753400Y1891300D01*
X1752299Y1891100D01*
X1751400Y1890999D01*
G37*
G36*
X1620500Y1820999D02*
G01*
X1619499Y1821100D01*
X1618500Y1821300D01*
X1617399Y1821599D01*
X1616400Y1821999D01*
X1615500Y1822600D01*
X1614700Y1823200D01*
X1613900Y1824000D01*
X1613199Y1824899D01*
X1612700Y1825799D01*
X1612200Y1826799D01*
X1611899Y1827899D01*
X1611700Y1828899D01*
X1611599Y1829899D01*
X1611599Y1860100D01*
X1611700Y1861100D01*
X1611899Y1862100D01*
X1612200Y1863200D01*
X1612700Y1864200D01*
X1613199Y1865100D01*
X1613900Y1865999D01*
X1614700Y1866799D01*
X1615500Y1867399D01*
X1616400Y1868000D01*
X1617399Y1868400D01*
X1618500Y1868699D01*
X1619499Y1868899D01*
X1620500Y1869000D01*
X1665799Y1869000D01*
X1666700Y1868899D01*
X1667799Y1868699D01*
X1668800Y1868400D01*
X1669799Y1868000D01*
X1671599Y1866799D01*
X1672399Y1865999D01*
X1673599Y1864200D01*
X1674099Y1863200D01*
X1674399Y1862100D01*
X1674600Y1861100D01*
X1674600Y1828899D01*
X1674399Y1827899D01*
X1674099Y1826799D01*
X1673599Y1825799D01*
X1672399Y1824000D01*
X1671599Y1823200D01*
X1669799Y1821999D01*
X1668800Y1821599D01*
X1667799Y1821300D01*
X1666700Y1821100D01*
X1665799Y1820999D01*
G37*
G36*
X1620500Y1890999D02*
G01*
X1619499Y1891100D01*
X1618500Y1891300D01*
X1617399Y1891599D01*
X1616400Y1891999D01*
X1615500Y1892600D01*
X1614700Y1893200D01*
X1613900Y1894000D01*
X1613199Y1894899D01*
X1612700Y1895799D01*
X1612200Y1896799D01*
X1611899Y1897899D01*
X1611700Y1898899D01*
X1611599Y1899899D01*
X1611599Y1930100D01*
X1611700Y1931100D01*
X1611899Y1932100D01*
X1612200Y1933200D01*
X1612700Y1934200D01*
X1613199Y1935100D01*
X1613900Y1935999D01*
X1614700Y1936799D01*
X1615500Y1937399D01*
X1616400Y1938000D01*
X1617399Y1938400D01*
X1618500Y1938699D01*
X1619499Y1938899D01*
X1620500Y1939000D01*
X1665799Y1939000D01*
X1666700Y1938899D01*
X1667799Y1938699D01*
X1668800Y1938400D01*
X1669799Y1938000D01*
X1671599Y1936799D01*
X1672399Y1935999D01*
X1673599Y1934200D01*
X1674099Y1933200D01*
X1674399Y1932100D01*
X1674600Y1931100D01*
X1674600Y1898899D01*
X1674399Y1897899D01*
X1674099Y1896799D01*
X1673599Y1895799D01*
X1672399Y1894000D01*
X1671599Y1893200D01*
X1669799Y1891999D01*
X1668800Y1891599D01*
X1667799Y1891300D01*
X1666700Y1891100D01*
X1665799Y1890999D01*
G37*
D18*
G01*
X995000Y1270000D03*
D19*
G01*
X995000Y1200000D03*
G01*
X1900000Y1845000D03*
D18*
G01*
X1900000Y1915000D03*
G36*
X1791700Y1820999D02*
G01*
X1790799Y1821100D01*
X1789700Y1821300D01*
X1788699Y1821599D01*
X1787700Y1821999D01*
X1785900Y1823200D01*
X1785100Y1824000D01*
X1783900Y1825799D01*
X1783400Y1826799D01*
X1783100Y1827899D01*
X1782899Y1828899D01*
X1782899Y1861100D01*
X1783100Y1862100D01*
X1783400Y1863200D01*
X1783900Y1864200D01*
X1785100Y1865999D01*
X1785900Y1866799D01*
X1787700Y1868000D01*
X1788699Y1868400D01*
X1789700Y1868699D01*
X1790799Y1868899D01*
X1791700Y1869000D01*
X1836999Y1869000D01*
X1838000Y1868899D01*
X1838999Y1868699D01*
X1840100Y1868400D01*
X1841099Y1868000D01*
X1841999Y1867399D01*
X1842799Y1866799D01*
X1843599Y1865999D01*
X1844300Y1865100D01*
X1844799Y1864200D01*
X1845299Y1863200D01*
X1845600Y1862100D01*
X1845799Y1861100D01*
X1845900Y1860100D01*
X1845900Y1829899D01*
X1845799Y1828899D01*
X1845600Y1827899D01*
X1845299Y1826799D01*
X1844799Y1825799D01*
X1844300Y1824899D01*
X1843599Y1824000D01*
X1842799Y1823200D01*
X1841999Y1822600D01*
X1841099Y1821999D01*
X1840100Y1821599D01*
X1838999Y1821300D01*
X1838000Y1821100D01*
X1836999Y1820999D01*
G37*
G36*
X1791700Y1890999D02*
G01*
X1790799Y1891100D01*
X1789700Y1891300D01*
X1788699Y1891599D01*
X1787700Y1891999D01*
X1785900Y1893200D01*
X1785100Y1894000D01*
X1783900Y1895799D01*
X1783400Y1896799D01*
X1783100Y1897899D01*
X1782899Y1898899D01*
X1782899Y1931100D01*
X1783100Y1932100D01*
X1783400Y1933200D01*
X1783900Y1934200D01*
X1785100Y1935999D01*
X1785900Y1936799D01*
X1787700Y1938000D01*
X1788699Y1938400D01*
X1789700Y1938699D01*
X1790799Y1938899D01*
X1791700Y1939000D01*
X1836999Y1939000D01*
X1838000Y1938899D01*
X1838999Y1938699D01*
X1840100Y1938400D01*
X1841099Y1938000D01*
X1841999Y1937399D01*
X1842799Y1936799D01*
X1843599Y1935999D01*
X1844300Y1935100D01*
X1844799Y1934200D01*
X1845299Y1933200D01*
X1845600Y1932100D01*
X1845799Y1931100D01*
X1845900Y1930100D01*
X1845900Y1899899D01*
X1845799Y1898899D01*
X1845600Y1897899D01*
X1845299Y1896799D01*
X1844799Y1895799D01*
X1844300Y1894899D01*
X1843599Y1894000D01*
X1842799Y1893200D01*
X1841999Y1892600D01*
X1841099Y1891999D01*
X1840100Y1891599D01*
X1838999Y1891300D01*
X1838000Y1891100D01*
X1836999Y1890999D01*
G37*
D19*
G01*
X1557500Y1845000D03*
D18*
G01*
X1557500Y1915000D03*
D20*
G01*
X840000Y1645000D03*
D21*
G01*
X769999Y1645000D03*
D22*
G01*
X1835000Y1632697D03*
D23*
G01*
X1835000Y1507302D03*
D22*
G01*
X1710000Y1747697D03*
D23*
G01*
X1710000Y1622302D03*
D21*
G01*
X1680000Y1540000D03*
D20*
G01*
X1750000Y1540000D03*
D21*
G01*
X1680000Y1375000D03*
D20*
G01*
X1750000Y1375000D03*
D21*
G01*
X1680000Y1300000D03*
D20*
G01*
X1750000Y1300000D03*
D21*
G01*
X1680000Y1455000D03*
D20*
G01*
X1750000Y1455000D03*
D19*
G01*
X1380000Y1430000D03*
D18*
G01*
X1380000Y1500000D03*
G01*
X2440000Y875000D03*
D19*
G01*
X2440000Y805000D03*
D24*
G01*
X2315511Y1315000D03*
D25*
G01*
X2454488Y1315000D03*
D26*
G01*
X2740000Y1325000D03*
G01*
X2740000Y1125000D03*
G01*
X2740000Y1025000D03*
G01*
X2740000Y925000D03*
G01*
X2540000Y925000D03*
G01*
X2540000Y1025000D03*
G01*
X2540000Y1125000D03*
D27*
G01*
X2540000Y1325000D03*
D26*
G01*
X3065000Y1325000D03*
G01*
X3065000Y1125000D03*
G01*
X3065000Y1025000D03*
G01*
X3065000Y925000D03*
G01*
X2865000Y925000D03*
G01*
X2865000Y1025000D03*
G01*
X2865000Y1125000D03*
D27*
G01*
X2865000Y1325000D03*
D28*
G01*
X1535000Y1300000D03*
G01*
X1535000Y1425979D03*
D29*
G01*
X3015959Y593389D03*
G01*
X3015959Y693389D03*
G01*
X2480950Y593389D03*
G01*
X2480950Y693389D03*
G01*
X2748450Y593389D03*
G01*
X2748450Y693389D03*
G01*
X2480959Y333389D03*
G01*
X2480959Y433389D03*
G01*
X2748450Y335889D03*
G01*
X2748450Y435889D03*
G01*
X3015950Y335889D03*
G01*
X3015950Y435889D03*
G01*
X2480959Y90889D03*
G01*
X2480959Y190889D03*
G01*
X2748450Y90889D03*
G01*
X2748450Y190889D03*
G01*
X3015950Y90889D03*
G01*
X3015950Y190889D03*
G01*
X2376610Y2195000D03*
G01*
X2276610Y2195000D03*
D30*
G01*
X1667400Y2059369D03*
G01*
X1592600Y2059369D03*
G01*
X1630000Y1980630D03*
G36*
X1228199Y379600D02*
G01*
X1227399Y379699D01*
X1226400Y379899D01*
X1225500Y380100D01*
X1224700Y380500D01*
X1223800Y380999D01*
X1223100Y381599D01*
X1222399Y382300D01*
X1221800Y383000D01*
X1221300Y383899D01*
X1220900Y384699D01*
X1220600Y385700D01*
X1220500Y386599D01*
X1220399Y387399D01*
X1220399Y411300D01*
X1220500Y412100D01*
X1220600Y413099D01*
X1220900Y414000D01*
X1221300Y414899D01*
X1221800Y415700D01*
X1222399Y416399D01*
X1223100Y417100D01*
X1223800Y417699D01*
X1224700Y418200D01*
X1225500Y418600D01*
X1226400Y418899D01*
X1227399Y419099D01*
X1272600Y419099D01*
X1273599Y418899D01*
X1274499Y418600D01*
X1275299Y418200D01*
X1276199Y417699D01*
X1276899Y417100D01*
X1277600Y416399D01*
X1278199Y415700D01*
X1278699Y414899D01*
X1279099Y414000D01*
X1279399Y413099D01*
X1279499Y412100D01*
X1279600Y411300D01*
X1279600Y387399D01*
X1279499Y386599D01*
X1279399Y385700D01*
X1279099Y384699D01*
X1278699Y383899D01*
X1278199Y383000D01*
X1277600Y382300D01*
X1276899Y381599D01*
X1276199Y380999D01*
X1275299Y380500D01*
X1274499Y380100D01*
X1273599Y379899D01*
X1272600Y379699D01*
X1271800Y379600D01*
G37*
G36*
X1227399Y300900D02*
G01*
X1226400Y301100D01*
X1225500Y301399D01*
X1224700Y301799D01*
X1223800Y302300D01*
X1223100Y302899D01*
X1222399Y303600D01*
X1221800Y304299D01*
X1221300Y305100D01*
X1220900Y305999D01*
X1220600Y306900D01*
X1220500Y307899D01*
X1220399Y308699D01*
X1220399Y332600D01*
X1220500Y333400D01*
X1220600Y334299D01*
X1220900Y335300D01*
X1221300Y336100D01*
X1221800Y336999D01*
X1222399Y337699D01*
X1223100Y338400D01*
X1223800Y339000D01*
X1224700Y339499D01*
X1225500Y339899D01*
X1226400Y340100D01*
X1227399Y340300D01*
X1228199Y340399D01*
X1271800Y340399D01*
X1272600Y340300D01*
X1273599Y340100D01*
X1274499Y339899D01*
X1275299Y339499D01*
X1276199Y339000D01*
X1276899Y338400D01*
X1277600Y337699D01*
X1278199Y336999D01*
X1278699Y336100D01*
X1279099Y335300D01*
X1279399Y334299D01*
X1279499Y333400D01*
X1279600Y332600D01*
X1279600Y308699D01*
X1279499Y307899D01*
X1279399Y306900D01*
X1279099Y305999D01*
X1278699Y305100D01*
X1278199Y304299D01*
X1277600Y303600D01*
X1276899Y302899D01*
X1276199Y302300D01*
X1275299Y301799D01*
X1274499Y301399D01*
X1273599Y301100D01*
X1272600Y300900D01*
G37*
G36*
X1823699Y30399D02*
G01*
X1822899Y30500D01*
X1821899Y30599D01*
X1821000Y30900D01*
X1820100Y31300D01*
X1819300Y31799D01*
X1818599Y32399D01*
X1817899Y33099D01*
X1817299Y33800D01*
X1816800Y34699D01*
X1816400Y35500D01*
X1816099Y36399D01*
X1815900Y37399D01*
X1815900Y82600D01*
X1816099Y83600D01*
X1816400Y84499D01*
X1816800Y85300D01*
X1817299Y86199D01*
X1817899Y86900D01*
X1818599Y87600D01*
X1819300Y88200D01*
X1820100Y88699D01*
X1821000Y89099D01*
X1821899Y89400D01*
X1822899Y89499D01*
X1823699Y89600D01*
X1847600Y89600D01*
X1848400Y89499D01*
X1849300Y89400D01*
X1850299Y89099D01*
X1851099Y88699D01*
X1851999Y88200D01*
X1852700Y87600D01*
X1853400Y86900D01*
X1853999Y86199D01*
X1854499Y85300D01*
X1854899Y84499D01*
X1855100Y83600D01*
X1855299Y82600D01*
X1855399Y81799D01*
X1855399Y38200D01*
X1855299Y37399D01*
X1855100Y36399D01*
X1854899Y35500D01*
X1854499Y34699D01*
X1853999Y33800D01*
X1853400Y33099D01*
X1852700Y32399D01*
X1851999Y31799D01*
X1851099Y31300D01*
X1850299Y30900D01*
X1849300Y30599D01*
X1848400Y30500D01*
X1847600Y30399D01*
G37*
G36*
X1902399Y30399D02*
G01*
X1901599Y30500D01*
X1900699Y30599D01*
X1899700Y30900D01*
X1898900Y31300D01*
X1898000Y31799D01*
X1897299Y32399D01*
X1896599Y33099D01*
X1896000Y33800D01*
X1895500Y34699D01*
X1895100Y35500D01*
X1894899Y36399D01*
X1894700Y37399D01*
X1894600Y38200D01*
X1894600Y81799D01*
X1894700Y82600D01*
X1894899Y83600D01*
X1895100Y84499D01*
X1895500Y85300D01*
X1896000Y86199D01*
X1896599Y86900D01*
X1897299Y87600D01*
X1898000Y88200D01*
X1898900Y88699D01*
X1899700Y89099D01*
X1900699Y89400D01*
X1901599Y89499D01*
X1902399Y89600D01*
X1926300Y89600D01*
X1927100Y89499D01*
X1928100Y89400D01*
X1928999Y89099D01*
X1929899Y88699D01*
X1930699Y88200D01*
X1931400Y87600D01*
X1932100Y86900D01*
X1932700Y86199D01*
X1933199Y85300D01*
X1933599Y84499D01*
X1933900Y83600D01*
X1934099Y82600D01*
X1934099Y37399D01*
X1933900Y36399D01*
X1933599Y35500D01*
X1933199Y34699D01*
X1932700Y33800D01*
X1932100Y33099D01*
X1931400Y32399D01*
X1930699Y31799D01*
X1929899Y31300D01*
X1928999Y30900D01*
X1928100Y30599D01*
X1927100Y30500D01*
X1926300Y30399D01*
G37*
G36*
X2163199Y2204600D02*
G01*
X2162399Y2204699D01*
X2161400Y2204899D01*
X2160500Y2205100D01*
X2159700Y2205500D01*
X2158800Y2205999D01*
X2158100Y2206599D01*
X2157399Y2207300D01*
X2156800Y2208000D01*
X2156300Y2208899D01*
X2155900Y2209699D01*
X2155600Y2210700D01*
X2155500Y2211599D01*
X2155399Y2212399D01*
X2155399Y2236300D01*
X2155500Y2237100D01*
X2155600Y2238099D01*
X2155900Y2239000D01*
X2156300Y2239899D01*
X2156800Y2240700D01*
X2157399Y2241399D01*
X2158100Y2242100D01*
X2158800Y2242700D01*
X2159700Y2243200D01*
X2160500Y2243600D01*
X2161400Y2243899D01*
X2162399Y2244099D01*
X2207600Y2244099D01*
X2208599Y2243899D01*
X2209499Y2243600D01*
X2210299Y2243200D01*
X2211199Y2242700D01*
X2211899Y2242100D01*
X2212600Y2241399D01*
X2213199Y2240700D01*
X2213699Y2239899D01*
X2214099Y2239000D01*
X2214399Y2238099D01*
X2214499Y2237100D01*
X2214600Y2236300D01*
X2214600Y2212399D01*
X2214499Y2211599D01*
X2214399Y2210700D01*
X2214099Y2209699D01*
X2213699Y2208899D01*
X2213199Y2208000D01*
X2212600Y2207300D01*
X2211899Y2206599D01*
X2211199Y2205999D01*
X2210299Y2205500D01*
X2209499Y2205100D01*
X2208599Y2204899D01*
X2207600Y2204699D01*
X2206800Y2204600D01*
G37*
G36*
X2162399Y2125900D02*
G01*
X2161400Y2126100D01*
X2160500Y2126399D01*
X2159700Y2126799D01*
X2158800Y2127300D01*
X2158100Y2127899D01*
X2157399Y2128600D01*
X2156800Y2129299D01*
X2156300Y2130100D01*
X2155900Y2130999D01*
X2155600Y2131900D01*
X2155500Y2132899D01*
X2155399Y2133699D01*
X2155399Y2157600D01*
X2155500Y2158400D01*
X2155600Y2159299D01*
X2155900Y2160300D01*
X2156300Y2161100D01*
X2156800Y2161999D01*
X2157399Y2162700D01*
X2158100Y2163400D01*
X2158800Y2164000D01*
X2159700Y2164499D01*
X2160500Y2164899D01*
X2161400Y2165100D01*
X2162399Y2165300D01*
X2163199Y2165399D01*
X2206800Y2165399D01*
X2207600Y2165300D01*
X2208599Y2165100D01*
X2209499Y2164899D01*
X2210299Y2164499D01*
X2211199Y2164000D01*
X2211899Y2163400D01*
X2212600Y2162700D01*
X2213199Y2161999D01*
X2213699Y2161100D01*
X2214099Y2160300D01*
X2214399Y2159299D01*
X2214499Y2158400D01*
X2214600Y2157600D01*
X2214600Y2133699D01*
X2214499Y2132899D01*
X2214399Y2131900D01*
X2214099Y2130999D01*
X2213699Y2130100D01*
X2213199Y2129299D01*
X2212600Y2128600D01*
X2211899Y2127899D01*
X2211199Y2127300D01*
X2210299Y2126799D01*
X2209499Y2126399D01*
X2208599Y2126100D01*
X2207600Y2125900D01*
G37*
G36*
X2068199Y2284600D02*
G01*
X2067399Y2284699D01*
X2066400Y2284899D01*
X2065500Y2285100D01*
X2064700Y2285500D01*
X2063800Y2285999D01*
X2063100Y2286599D01*
X2062399Y2287300D01*
X2061800Y2288000D01*
X2061300Y2288899D01*
X2060900Y2289699D01*
X2060600Y2290700D01*
X2060500Y2291599D01*
X2060399Y2292399D01*
X2060399Y2316300D01*
X2060500Y2317100D01*
X2060600Y2318099D01*
X2060900Y2319000D01*
X2061300Y2319899D01*
X2061800Y2320700D01*
X2062399Y2321399D01*
X2063100Y2322100D01*
X2063800Y2322700D01*
X2064700Y2323200D01*
X2065500Y2323600D01*
X2066400Y2323899D01*
X2067399Y2324099D01*
X2112600Y2324099D01*
X2113599Y2323899D01*
X2114499Y2323600D01*
X2115299Y2323200D01*
X2116199Y2322700D01*
X2116899Y2322100D01*
X2117600Y2321399D01*
X2118199Y2320700D01*
X2118699Y2319899D01*
X2119099Y2319000D01*
X2119399Y2318099D01*
X2119499Y2317100D01*
X2119600Y2316300D01*
X2119600Y2292399D01*
X2119499Y2291599D01*
X2119399Y2290700D01*
X2119099Y2289699D01*
X2118699Y2288899D01*
X2118199Y2288000D01*
X2117600Y2287300D01*
X2116899Y2286599D01*
X2116199Y2285999D01*
X2115299Y2285500D01*
X2114499Y2285100D01*
X2113599Y2284899D01*
X2112600Y2284699D01*
X2111800Y2284600D01*
G37*
G36*
X2067399Y2205900D02*
G01*
X2066400Y2206100D01*
X2065500Y2206399D01*
X2064700Y2206799D01*
X2063800Y2207300D01*
X2063100Y2207899D01*
X2062399Y2208600D01*
X2061800Y2209299D01*
X2061300Y2210100D01*
X2060900Y2210999D01*
X2060600Y2211900D01*
X2060500Y2212899D01*
X2060399Y2213699D01*
X2060399Y2237600D01*
X2060500Y2238400D01*
X2060600Y2239299D01*
X2060900Y2240300D01*
X2061300Y2241100D01*
X2061800Y2241999D01*
X2062399Y2242700D01*
X2063100Y2243400D01*
X2063800Y2244000D01*
X2064700Y2244499D01*
X2065500Y2244899D01*
X2066400Y2245100D01*
X2067399Y2245300D01*
X2068199Y2245399D01*
X2111800Y2245399D01*
X2112600Y2245300D01*
X2113599Y2245100D01*
X2114499Y2244899D01*
X2115299Y2244499D01*
X2116199Y2244000D01*
X2116899Y2243400D01*
X2117600Y2242700D01*
X2118199Y2241999D01*
X2118699Y2241100D01*
X2119099Y2240300D01*
X2119399Y2239299D01*
X2119499Y2238400D01*
X2119600Y2237600D01*
X2119600Y2213699D01*
X2119499Y2212899D01*
X2119399Y2211900D01*
X2119099Y2210999D01*
X2118699Y2210100D01*
X2118199Y2209299D01*
X2117600Y2208600D01*
X2116899Y2207899D01*
X2116199Y2207300D01*
X2115299Y2206799D01*
X2114499Y2206399D01*
X2113599Y2206100D01*
X2112600Y2205900D01*
G37*
G36*
X1903199Y244600D02*
G01*
X1902399Y244699D01*
X1901400Y244899D01*
X1900500Y245100D01*
X1899700Y245500D01*
X1898800Y245999D01*
X1898100Y246599D01*
X1897399Y247300D01*
X1896800Y248000D01*
X1896300Y248899D01*
X1895900Y249699D01*
X1895600Y250700D01*
X1895500Y251599D01*
X1895399Y252399D01*
X1895399Y276300D01*
X1895500Y277100D01*
X1895600Y278099D01*
X1895900Y279000D01*
X1896300Y279899D01*
X1896800Y280700D01*
X1897399Y281399D01*
X1898100Y282100D01*
X1898800Y282699D01*
X1899700Y283200D01*
X1900500Y283600D01*
X1901400Y283899D01*
X1902399Y284099D01*
X1947600Y284099D01*
X1948599Y283899D01*
X1949499Y283600D01*
X1950299Y283200D01*
X1951199Y282699D01*
X1951899Y282100D01*
X1952600Y281399D01*
X1953199Y280700D01*
X1953699Y279899D01*
X1954099Y279000D01*
X1954399Y278099D01*
X1954499Y277100D01*
X1954600Y276300D01*
X1954600Y252399D01*
X1954499Y251599D01*
X1954399Y250700D01*
X1954099Y249699D01*
X1953699Y248899D01*
X1953199Y248000D01*
X1952600Y247300D01*
X1951899Y246599D01*
X1951199Y245999D01*
X1950299Y245500D01*
X1949499Y245100D01*
X1948599Y244899D01*
X1947600Y244699D01*
X1946800Y244600D01*
G37*
G36*
X1902399Y165900D02*
G01*
X1901400Y166100D01*
X1900500Y166399D01*
X1899700Y166799D01*
X1898800Y167300D01*
X1898100Y167899D01*
X1897399Y168600D01*
X1896800Y169299D01*
X1896300Y170100D01*
X1895900Y170999D01*
X1895600Y171900D01*
X1895500Y172899D01*
X1895399Y173699D01*
X1895399Y197600D01*
X1895500Y198400D01*
X1895600Y199299D01*
X1895900Y200300D01*
X1896300Y201100D01*
X1896800Y201999D01*
X1897399Y202699D01*
X1898100Y203400D01*
X1898800Y204000D01*
X1899700Y204499D01*
X1900500Y204899D01*
X1901400Y205100D01*
X1902399Y205300D01*
X1903199Y205399D01*
X1946800Y205399D01*
X1947600Y205300D01*
X1948599Y205100D01*
X1949499Y204899D01*
X1950299Y204499D01*
X1951199Y204000D01*
X1951899Y203400D01*
X1952600Y202699D01*
X1953199Y201999D01*
X1953699Y201100D01*
X1954099Y200300D01*
X1954399Y199299D01*
X1954499Y198400D01*
X1954600Y197600D01*
X1954600Y173699D01*
X1954499Y172899D01*
X1954399Y171900D01*
X1954099Y170999D01*
X1953699Y170100D01*
X1953199Y169299D01*
X1952600Y168600D01*
X1951899Y167899D01*
X1951199Y167300D01*
X1950299Y166799D01*
X1949499Y166399D01*
X1948599Y166100D01*
X1947600Y165900D01*
G37*
G36*
X2132399Y605900D02*
G01*
X2131400Y606100D01*
X2130500Y606399D01*
X2129700Y606799D01*
X2128800Y607300D01*
X2128100Y607899D01*
X2127399Y608600D01*
X2126800Y609299D01*
X2126300Y610100D01*
X2125900Y610999D01*
X2125600Y611900D01*
X2125500Y612899D01*
X2125399Y613699D01*
X2125399Y637600D01*
X2125500Y638400D01*
X2125600Y639299D01*
X2125900Y640300D01*
X2126300Y641100D01*
X2126800Y641999D01*
X2127399Y642699D01*
X2128100Y643400D01*
X2128800Y644000D01*
X2129700Y644499D01*
X2130500Y644899D01*
X2131400Y645100D01*
X2132399Y645300D01*
X2133199Y645399D01*
X2176800Y645399D01*
X2177600Y645300D01*
X2178599Y645100D01*
X2179499Y644899D01*
X2180299Y644499D01*
X2181199Y644000D01*
X2181899Y643400D01*
X2182600Y642699D01*
X2183199Y641999D01*
X2183699Y641100D01*
X2184099Y640300D01*
X2184399Y639299D01*
X2184499Y638400D01*
X2184600Y637600D01*
X2184600Y613699D01*
X2184499Y612899D01*
X2184399Y611900D01*
X2184099Y610999D01*
X2183699Y610100D01*
X2183199Y609299D01*
X2182600Y608600D01*
X2181899Y607899D01*
X2181199Y607300D01*
X2180299Y606799D01*
X2179499Y606399D01*
X2178599Y606100D01*
X2177600Y605900D01*
G37*
G36*
X2133199Y684600D02*
G01*
X2132399Y684699D01*
X2131400Y684899D01*
X2130500Y685100D01*
X2129700Y685500D01*
X2128800Y685999D01*
X2128100Y686599D01*
X2127399Y687300D01*
X2126800Y688000D01*
X2126300Y688899D01*
X2125900Y689699D01*
X2125600Y690700D01*
X2125500Y691599D01*
X2125399Y692399D01*
X2125399Y716300D01*
X2125500Y717100D01*
X2125600Y718099D01*
X2125900Y719000D01*
X2126300Y719899D01*
X2126800Y720700D01*
X2127399Y721399D01*
X2128100Y722100D01*
X2128800Y722699D01*
X2129700Y723200D01*
X2130500Y723600D01*
X2131400Y723899D01*
X2132399Y724099D01*
X2177600Y724099D01*
X2178599Y723899D01*
X2179499Y723600D01*
X2180299Y723200D01*
X2181199Y722699D01*
X2181899Y722100D01*
X2182600Y721399D01*
X2183199Y720700D01*
X2183699Y719899D01*
X2184099Y719000D01*
X2184399Y718099D01*
X2184499Y717100D01*
X2184600Y716300D01*
X2184600Y692399D01*
X2184499Y691599D01*
X2184399Y690700D01*
X2184099Y689699D01*
X2183699Y688899D01*
X2183199Y688000D01*
X2182600Y687300D01*
X2181899Y686599D01*
X2181199Y685999D01*
X2180299Y685500D01*
X2179499Y685100D01*
X2178599Y684899D01*
X2177600Y684699D01*
X2176800Y684600D01*
G37*
G36*
X1828199Y244600D02*
G01*
X1827399Y244699D01*
X1826400Y244899D01*
X1825500Y245100D01*
X1824700Y245500D01*
X1823800Y245999D01*
X1823100Y246599D01*
X1822399Y247300D01*
X1821800Y248000D01*
X1821300Y248899D01*
X1820900Y249699D01*
X1820600Y250700D01*
X1820500Y251599D01*
X1820399Y252399D01*
X1820399Y276300D01*
X1820500Y277100D01*
X1820600Y278099D01*
X1820900Y279000D01*
X1821300Y279899D01*
X1821800Y280700D01*
X1822399Y281399D01*
X1823100Y282100D01*
X1823800Y282699D01*
X1824700Y283200D01*
X1825500Y283600D01*
X1826400Y283899D01*
X1827399Y284099D01*
X1872600Y284099D01*
X1873599Y283899D01*
X1874499Y283600D01*
X1875299Y283200D01*
X1876199Y282699D01*
X1876899Y282100D01*
X1877600Y281399D01*
X1878199Y280700D01*
X1878699Y279899D01*
X1879099Y279000D01*
X1879399Y278099D01*
X1879499Y277100D01*
X1879600Y276300D01*
X1879600Y252399D01*
X1879499Y251599D01*
X1879399Y250700D01*
X1879099Y249699D01*
X1878699Y248899D01*
X1878199Y248000D01*
X1877600Y247300D01*
X1876899Y246599D01*
X1876199Y245999D01*
X1875299Y245500D01*
X1874499Y245100D01*
X1873599Y244899D01*
X1872600Y244699D01*
X1871800Y244600D01*
G37*
G36*
X1827399Y165900D02*
G01*
X1826400Y166100D01*
X1825500Y166399D01*
X1824700Y166799D01*
X1823800Y167300D01*
X1823100Y167899D01*
X1822399Y168600D01*
X1821800Y169299D01*
X1821300Y170100D01*
X1820900Y170999D01*
X1820600Y171900D01*
X1820500Y172899D01*
X1820399Y173699D01*
X1820399Y197600D01*
X1820500Y198400D01*
X1820600Y199299D01*
X1820900Y200300D01*
X1821300Y201100D01*
X1821800Y201999D01*
X1822399Y202699D01*
X1823100Y203400D01*
X1823800Y204000D01*
X1824700Y204499D01*
X1825500Y204899D01*
X1826400Y205100D01*
X1827399Y205300D01*
X1828199Y205399D01*
X1871800Y205399D01*
X1872600Y205300D01*
X1873599Y205100D01*
X1874499Y204899D01*
X1875299Y204499D01*
X1876199Y204000D01*
X1876899Y203400D01*
X1877600Y202699D01*
X1878199Y201999D01*
X1878699Y201100D01*
X1879099Y200300D01*
X1879399Y199299D01*
X1879499Y198400D01*
X1879600Y197600D01*
X1879600Y173699D01*
X1879499Y172899D01*
X1879399Y171900D01*
X1879099Y170999D01*
X1878699Y170100D01*
X1878199Y169299D01*
X1877600Y168600D01*
X1876899Y167899D01*
X1876199Y167300D01*
X1875299Y166799D01*
X1874499Y166399D01*
X1873599Y166100D01*
X1872600Y165900D01*
G37*
G36*
X1963699Y1440399D02*
G01*
X1962899Y1440500D01*
X1961899Y1440599D01*
X1961000Y1440900D01*
X1960100Y1441300D01*
X1959300Y1441799D01*
X1958599Y1442399D01*
X1957899Y1443099D01*
X1957299Y1443800D01*
X1956800Y1444699D01*
X1956400Y1445500D01*
X1956099Y1446399D01*
X1955900Y1447399D01*
X1955900Y1492600D01*
X1956099Y1493600D01*
X1956400Y1494499D01*
X1956800Y1495300D01*
X1957299Y1496199D01*
X1957899Y1496900D01*
X1958599Y1497600D01*
X1959300Y1498200D01*
X1960100Y1498699D01*
X1961000Y1499099D01*
X1961899Y1499400D01*
X1962899Y1499499D01*
X1963699Y1499600D01*
X1987600Y1499600D01*
X1988400Y1499499D01*
X1989300Y1499400D01*
X1990299Y1499099D01*
X1991099Y1498699D01*
X1991999Y1498200D01*
X1992700Y1497600D01*
X1993400Y1496900D01*
X1993999Y1496199D01*
X1994499Y1495300D01*
X1994899Y1494499D01*
X1995100Y1493600D01*
X1995299Y1492600D01*
X1995399Y1491799D01*
X1995399Y1448200D01*
X1995299Y1447399D01*
X1995100Y1446399D01*
X1994899Y1445500D01*
X1994499Y1444699D01*
X1993999Y1443800D01*
X1993400Y1443099D01*
X1992700Y1442399D01*
X1991999Y1441799D01*
X1991099Y1441300D01*
X1990299Y1440900D01*
X1989300Y1440599D01*
X1988400Y1440500D01*
X1987600Y1440399D01*
G37*
G36*
X2042399Y1440399D02*
G01*
X2041599Y1440500D01*
X2040699Y1440599D01*
X2039700Y1440900D01*
X2038900Y1441300D01*
X2038000Y1441799D01*
X2037299Y1442399D01*
X2036599Y1443099D01*
X2036000Y1443800D01*
X2035500Y1444699D01*
X2035100Y1445500D01*
X2034899Y1446399D01*
X2034700Y1447399D01*
X2034600Y1448200D01*
X2034600Y1491799D01*
X2034700Y1492600D01*
X2034899Y1493600D01*
X2035100Y1494499D01*
X2035500Y1495300D01*
X2036000Y1496199D01*
X2036599Y1496900D01*
X2037299Y1497600D01*
X2038000Y1498200D01*
X2038900Y1498699D01*
X2039700Y1499099D01*
X2040699Y1499400D01*
X2041599Y1499499D01*
X2042399Y1499600D01*
X2066300Y1499600D01*
X2067100Y1499499D01*
X2068100Y1499400D01*
X2068999Y1499099D01*
X2069899Y1498699D01*
X2070699Y1498200D01*
X2071400Y1497600D01*
X2072100Y1496900D01*
X2072700Y1496199D01*
X2073199Y1495300D01*
X2073599Y1494499D01*
X2073900Y1493600D01*
X2074099Y1492600D01*
X2074099Y1447399D01*
X2073900Y1446399D01*
X2073599Y1445500D01*
X2073199Y1444699D01*
X2072700Y1443800D01*
X2072100Y1443099D01*
X2071400Y1442399D01*
X2070699Y1441799D01*
X2069899Y1441300D01*
X2068999Y1440900D01*
X2068100Y1440599D01*
X2067100Y1440500D01*
X2066300Y1440399D01*
G37*
G36*
X1963699Y1365399D02*
G01*
X1962899Y1365500D01*
X1961899Y1365599D01*
X1961000Y1365900D01*
X1960100Y1366300D01*
X1959300Y1366799D01*
X1958599Y1367399D01*
X1957899Y1368099D01*
X1957299Y1368800D01*
X1956800Y1369699D01*
X1956400Y1370500D01*
X1956099Y1371399D01*
X1955900Y1372399D01*
X1955900Y1417600D01*
X1956099Y1418600D01*
X1956400Y1419499D01*
X1956800Y1420300D01*
X1957299Y1421199D01*
X1957899Y1421900D01*
X1958599Y1422600D01*
X1959300Y1423200D01*
X1960100Y1423699D01*
X1961000Y1424099D01*
X1961899Y1424400D01*
X1962899Y1424499D01*
X1963699Y1424600D01*
X1987600Y1424600D01*
X1988400Y1424499D01*
X1989300Y1424400D01*
X1990299Y1424099D01*
X1991099Y1423699D01*
X1991999Y1423200D01*
X1992700Y1422600D01*
X1993400Y1421900D01*
X1993999Y1421199D01*
X1994499Y1420300D01*
X1994899Y1419499D01*
X1995100Y1418600D01*
X1995299Y1417600D01*
X1995399Y1416799D01*
X1995399Y1373200D01*
X1995299Y1372399D01*
X1995100Y1371399D01*
X1994899Y1370500D01*
X1994499Y1369699D01*
X1993999Y1368800D01*
X1993400Y1368099D01*
X1992700Y1367399D01*
X1991999Y1366799D01*
X1991099Y1366300D01*
X1990299Y1365900D01*
X1989300Y1365599D01*
X1988400Y1365500D01*
X1987600Y1365399D01*
G37*
G36*
X2042399Y1365399D02*
G01*
X2041599Y1365500D01*
X2040699Y1365599D01*
X2039700Y1365900D01*
X2038900Y1366300D01*
X2038000Y1366799D01*
X2037299Y1367399D01*
X2036599Y1368099D01*
X2036000Y1368800D01*
X2035500Y1369699D01*
X2035100Y1370500D01*
X2034899Y1371399D01*
X2034700Y1372399D01*
X2034600Y1373200D01*
X2034600Y1416799D01*
X2034700Y1417600D01*
X2034899Y1418600D01*
X2035100Y1419499D01*
X2035500Y1420300D01*
X2036000Y1421199D01*
X2036599Y1421900D01*
X2037299Y1422600D01*
X2038000Y1423200D01*
X2038900Y1423699D01*
X2039700Y1424099D01*
X2040699Y1424400D01*
X2041599Y1424499D01*
X2042399Y1424600D01*
X2066300Y1424600D01*
X2067100Y1424499D01*
X2068100Y1424400D01*
X2068999Y1424099D01*
X2069899Y1423699D01*
X2070699Y1423200D01*
X2071400Y1422600D01*
X2072100Y1421900D01*
X2072700Y1421199D01*
X2073199Y1420300D01*
X2073599Y1419499D01*
X2073900Y1418600D01*
X2074099Y1417600D01*
X2074099Y1372399D01*
X2073900Y1371399D01*
X2073599Y1370500D01*
X2073199Y1369699D01*
X2072700Y1368800D01*
X2072100Y1368099D01*
X2071400Y1367399D01*
X2070699Y1366799D01*
X2069899Y1366300D01*
X2068999Y1365900D01*
X2068100Y1365599D01*
X2067100Y1365500D01*
X2066300Y1365399D01*
G37*
G36*
X1777399Y1685900D02*
G01*
X1776400Y1686100D01*
X1775500Y1686399D01*
X1774700Y1686799D01*
X1773800Y1687300D01*
X1773100Y1687899D01*
X1772399Y1688600D01*
X1771800Y1689299D01*
X1771300Y1690100D01*
X1770900Y1690999D01*
X1770600Y1691900D01*
X1770500Y1692899D01*
X1770399Y1693699D01*
X1770399Y1717600D01*
X1770500Y1718400D01*
X1770600Y1719299D01*
X1770900Y1720300D01*
X1771300Y1721100D01*
X1771800Y1721999D01*
X1772399Y1722699D01*
X1773100Y1723400D01*
X1773800Y1724000D01*
X1774700Y1724499D01*
X1775500Y1724899D01*
X1776400Y1725100D01*
X1777399Y1725300D01*
X1778199Y1725399D01*
X1821800Y1725399D01*
X1822600Y1725300D01*
X1823599Y1725100D01*
X1824499Y1724899D01*
X1825299Y1724499D01*
X1826199Y1724000D01*
X1826899Y1723400D01*
X1827600Y1722699D01*
X1828199Y1721999D01*
X1828699Y1721100D01*
X1829099Y1720300D01*
X1829399Y1719299D01*
X1829499Y1718400D01*
X1829600Y1717600D01*
X1829600Y1693699D01*
X1829499Y1692899D01*
X1829399Y1691900D01*
X1829099Y1690999D01*
X1828699Y1690100D01*
X1828199Y1689299D01*
X1827600Y1688600D01*
X1826899Y1687899D01*
X1826199Y1687300D01*
X1825299Y1686799D01*
X1824499Y1686399D01*
X1823599Y1686100D01*
X1822600Y1685900D01*
G37*
G36*
X1778199Y1764600D02*
G01*
X1777399Y1764699D01*
X1776400Y1764899D01*
X1775500Y1765100D01*
X1774700Y1765500D01*
X1773800Y1765999D01*
X1773100Y1766599D01*
X1772399Y1767300D01*
X1771800Y1768000D01*
X1771300Y1768899D01*
X1770900Y1769699D01*
X1770600Y1770700D01*
X1770500Y1771599D01*
X1770399Y1772399D01*
X1770399Y1796300D01*
X1770500Y1797100D01*
X1770600Y1798099D01*
X1770900Y1799000D01*
X1771300Y1799899D01*
X1771800Y1800700D01*
X1772399Y1801399D01*
X1773100Y1802100D01*
X1773800Y1802699D01*
X1774700Y1803200D01*
X1775500Y1803600D01*
X1776400Y1803899D01*
X1777399Y1804099D01*
X1822600Y1804099D01*
X1823599Y1803899D01*
X1824499Y1803600D01*
X1825299Y1803200D01*
X1826199Y1802699D01*
X1826899Y1802100D01*
X1827600Y1801399D01*
X1828199Y1800700D01*
X1828699Y1799899D01*
X1829099Y1799000D01*
X1829399Y1798099D01*
X1829499Y1797100D01*
X1829600Y1796300D01*
X1829600Y1772399D01*
X1829499Y1771599D01*
X1829399Y1770700D01*
X1829099Y1769699D01*
X1828699Y1768899D01*
X1828199Y1768000D01*
X1827600Y1767300D01*
X1826899Y1766599D01*
X1826199Y1765999D01*
X1825299Y1765500D01*
X1824499Y1765100D01*
X1823599Y1764899D01*
X1822600Y1764699D01*
X1821800Y1764600D01*
G37*
G36*
X1358199Y1354600D02*
G01*
X1357399Y1354699D01*
X1356400Y1354899D01*
X1355500Y1355100D01*
X1354700Y1355500D01*
X1353800Y1355999D01*
X1353100Y1356599D01*
X1352399Y1357300D01*
X1351800Y1358000D01*
X1351300Y1358899D01*
X1350900Y1359699D01*
X1350600Y1360700D01*
X1350500Y1361599D01*
X1350399Y1362399D01*
X1350399Y1386300D01*
X1350500Y1387100D01*
X1350600Y1388099D01*
X1350900Y1389000D01*
X1351300Y1389899D01*
X1351800Y1390700D01*
X1352399Y1391399D01*
X1353100Y1392100D01*
X1353800Y1392699D01*
X1354700Y1393200D01*
X1355500Y1393600D01*
X1356400Y1393899D01*
X1357399Y1394099D01*
X1402600Y1394099D01*
X1403599Y1393899D01*
X1404499Y1393600D01*
X1405299Y1393200D01*
X1406199Y1392699D01*
X1406899Y1392100D01*
X1407600Y1391399D01*
X1408199Y1390700D01*
X1408699Y1389899D01*
X1409099Y1389000D01*
X1409399Y1388099D01*
X1409499Y1387100D01*
X1409600Y1386300D01*
X1409600Y1362399D01*
X1409499Y1361599D01*
X1409399Y1360700D01*
X1409099Y1359699D01*
X1408699Y1358899D01*
X1408199Y1358000D01*
X1407600Y1357300D01*
X1406899Y1356599D01*
X1406199Y1355999D01*
X1405299Y1355500D01*
X1404499Y1355100D01*
X1403599Y1354899D01*
X1402600Y1354699D01*
X1401800Y1354600D01*
G37*
G36*
X1357399Y1275900D02*
G01*
X1356400Y1276100D01*
X1355500Y1276399D01*
X1354700Y1276799D01*
X1353800Y1277300D01*
X1353100Y1277899D01*
X1352399Y1278600D01*
X1351800Y1279299D01*
X1351300Y1280100D01*
X1350900Y1280999D01*
X1350600Y1281900D01*
X1350500Y1282899D01*
X1350399Y1283699D01*
X1350399Y1307600D01*
X1350500Y1308400D01*
X1350600Y1309299D01*
X1350900Y1310300D01*
X1351300Y1311100D01*
X1351800Y1311999D01*
X1352399Y1312699D01*
X1353100Y1313400D01*
X1353800Y1314000D01*
X1354700Y1314499D01*
X1355500Y1314899D01*
X1356400Y1315100D01*
X1357399Y1315300D01*
X1358199Y1315399D01*
X1401800Y1315399D01*
X1402600Y1315300D01*
X1403599Y1315100D01*
X1404499Y1314899D01*
X1405299Y1314499D01*
X1406199Y1314000D01*
X1406899Y1313400D01*
X1407600Y1312699D01*
X1408199Y1311999D01*
X1408699Y1311100D01*
X1409099Y1310300D01*
X1409399Y1309299D01*
X1409499Y1308400D01*
X1409600Y1307600D01*
X1409600Y1283699D01*
X1409499Y1282899D01*
X1409399Y1281900D01*
X1409099Y1280999D01*
X1408699Y1280100D01*
X1408199Y1279299D01*
X1407600Y1278600D01*
X1406899Y1277899D01*
X1406199Y1277300D01*
X1405299Y1276799D01*
X1404499Y1276399D01*
X1403599Y1276100D01*
X1402600Y1275900D01*
G37*
G36*
X1512399Y1990399D02*
G01*
X1511599Y1990500D01*
X1510699Y1990599D01*
X1509700Y1990900D01*
X1508900Y1991300D01*
X1508000Y1991799D01*
X1507299Y1992399D01*
X1506599Y1993099D01*
X1506000Y1993800D01*
X1505500Y1994699D01*
X1505100Y1995500D01*
X1504899Y1996399D01*
X1504700Y1997399D01*
X1504600Y1998200D01*
X1504600Y2041799D01*
X1504700Y2042600D01*
X1504899Y2043600D01*
X1505100Y2044499D01*
X1505500Y2045300D01*
X1506000Y2046199D01*
X1506599Y2046900D01*
X1507299Y2047600D01*
X1508000Y2048200D01*
X1508900Y2048699D01*
X1509700Y2049099D01*
X1510699Y2049400D01*
X1511599Y2049499D01*
X1512399Y2049600D01*
X1536300Y2049600D01*
X1537100Y2049499D01*
X1538100Y2049400D01*
X1538999Y2049099D01*
X1539899Y2048699D01*
X1540699Y2048200D01*
X1541400Y2047600D01*
X1542100Y2046900D01*
X1542700Y2046199D01*
X1543199Y2045300D01*
X1543599Y2044499D01*
X1543900Y2043600D01*
X1544099Y2042600D01*
X1544099Y1997399D01*
X1543900Y1996399D01*
X1543599Y1995500D01*
X1543199Y1994699D01*
X1542700Y1993800D01*
X1542100Y1993099D01*
X1541400Y1992399D01*
X1540699Y1991799D01*
X1539899Y1991300D01*
X1538999Y1990900D01*
X1538100Y1990599D01*
X1537100Y1990500D01*
X1536300Y1990399D01*
G37*
G36*
X1433699Y1990399D02*
G01*
X1432899Y1990500D01*
X1431899Y1990599D01*
X1431000Y1990900D01*
X1430100Y1991300D01*
X1429300Y1991799D01*
X1428599Y1992399D01*
X1427899Y1993099D01*
X1427299Y1993800D01*
X1426800Y1994699D01*
X1426400Y1995500D01*
X1426099Y1996399D01*
X1425900Y1997399D01*
X1425900Y2042600D01*
X1426099Y2043600D01*
X1426400Y2044499D01*
X1426800Y2045300D01*
X1427299Y2046199D01*
X1427899Y2046900D01*
X1428599Y2047600D01*
X1429300Y2048200D01*
X1430100Y2048699D01*
X1431000Y2049099D01*
X1431899Y2049400D01*
X1432899Y2049499D01*
X1433699Y2049600D01*
X1457600Y2049600D01*
X1458400Y2049499D01*
X1459300Y2049400D01*
X1460299Y2049099D01*
X1461099Y2048699D01*
X1461999Y2048200D01*
X1462700Y2047600D01*
X1463400Y2046900D01*
X1463999Y2046199D01*
X1464499Y2045300D01*
X1464899Y2044499D01*
X1465100Y2043600D01*
X1465299Y2042600D01*
X1465399Y2041799D01*
X1465399Y1998200D01*
X1465299Y1997399D01*
X1465100Y1996399D01*
X1464899Y1995500D01*
X1464499Y1994699D01*
X1463999Y1993800D01*
X1463400Y1993099D01*
X1462700Y1992399D01*
X1461999Y1991799D01*
X1461099Y1991300D01*
X1460299Y1990900D01*
X1459300Y1990599D01*
X1458400Y1990500D01*
X1457600Y1990399D01*
G37*
G36*
X1578699Y2105399D02*
G01*
X1577899Y2105500D01*
X1576899Y2105599D01*
X1576000Y2105900D01*
X1575100Y2106300D01*
X1574300Y2106799D01*
X1573599Y2107399D01*
X1572899Y2108099D01*
X1572299Y2108800D01*
X1571800Y2109699D01*
X1571400Y2110500D01*
X1571099Y2111399D01*
X1570900Y2112399D01*
X1570900Y2157600D01*
X1571099Y2158600D01*
X1571400Y2159499D01*
X1571800Y2160300D01*
X1572299Y2161199D01*
X1572899Y2161900D01*
X1573599Y2162600D01*
X1574300Y2163200D01*
X1575100Y2163699D01*
X1576000Y2164099D01*
X1576899Y2164400D01*
X1577899Y2164499D01*
X1578699Y2164600D01*
X1602600Y2164600D01*
X1603400Y2164499D01*
X1604300Y2164400D01*
X1605299Y2164099D01*
X1606099Y2163699D01*
X1606999Y2163200D01*
X1607700Y2162600D01*
X1608400Y2161900D01*
X1608999Y2161199D01*
X1609499Y2160300D01*
X1609899Y2159499D01*
X1610100Y2158600D01*
X1610299Y2157600D01*
X1610399Y2156799D01*
X1610399Y2113200D01*
X1610299Y2112399D01*
X1610100Y2111399D01*
X1609899Y2110500D01*
X1609499Y2109699D01*
X1608999Y2108800D01*
X1608400Y2108099D01*
X1607700Y2107399D01*
X1606999Y2106799D01*
X1606099Y2106300D01*
X1605299Y2105900D01*
X1604300Y2105599D01*
X1603400Y2105500D01*
X1602600Y2105399D01*
G37*
G36*
X1657399Y2105399D02*
G01*
X1656599Y2105500D01*
X1655699Y2105599D01*
X1654700Y2105900D01*
X1653900Y2106300D01*
X1653000Y2106799D01*
X1652299Y2107399D01*
X1651599Y2108099D01*
X1651000Y2108800D01*
X1650500Y2109699D01*
X1650100Y2110500D01*
X1649899Y2111399D01*
X1649700Y2112399D01*
X1649600Y2113200D01*
X1649600Y2156799D01*
X1649700Y2157600D01*
X1649899Y2158600D01*
X1650100Y2159499D01*
X1650500Y2160300D01*
X1651000Y2161199D01*
X1651599Y2161900D01*
X1652299Y2162600D01*
X1653000Y2163200D01*
X1653900Y2163699D01*
X1654700Y2164099D01*
X1655699Y2164400D01*
X1656599Y2164499D01*
X1657399Y2164600D01*
X1681300Y2164600D01*
X1682100Y2164499D01*
X1683100Y2164400D01*
X1683999Y2164099D01*
X1684899Y2163699D01*
X1685699Y2163200D01*
X1686400Y2162600D01*
X1687100Y2161900D01*
X1687700Y2161199D01*
X1688199Y2160300D01*
X1688599Y2159499D01*
X1688900Y2158600D01*
X1689099Y2157600D01*
X1689099Y2112399D01*
X1688900Y2111399D01*
X1688599Y2110500D01*
X1688199Y2109699D01*
X1687700Y2108800D01*
X1687100Y2108099D01*
X1686400Y2107399D01*
X1685699Y2106799D01*
X1684899Y2106300D01*
X1683999Y2105900D01*
X1683100Y2105599D01*
X1682100Y2105500D01*
X1681300Y2105399D01*
G37*
G36*
X1657399Y2195399D02*
G01*
X1656599Y2195500D01*
X1655699Y2195599D01*
X1654700Y2195900D01*
X1653900Y2196300D01*
X1653000Y2196799D01*
X1652299Y2197399D01*
X1651599Y2198099D01*
X1651000Y2198800D01*
X1650500Y2199699D01*
X1650100Y2200500D01*
X1649899Y2201399D01*
X1649700Y2202399D01*
X1649600Y2203200D01*
X1649600Y2246799D01*
X1649700Y2247600D01*
X1649899Y2248600D01*
X1650100Y2249499D01*
X1650500Y2250300D01*
X1651000Y2251199D01*
X1651599Y2251900D01*
X1652299Y2252600D01*
X1653000Y2253200D01*
X1653900Y2253699D01*
X1654700Y2254099D01*
X1655699Y2254400D01*
X1656599Y2254499D01*
X1657399Y2254600D01*
X1681300Y2254600D01*
X1682100Y2254499D01*
X1683100Y2254400D01*
X1683999Y2254099D01*
X1684899Y2253699D01*
X1685699Y2253200D01*
X1686400Y2252600D01*
X1687100Y2251900D01*
X1687700Y2251199D01*
X1688199Y2250300D01*
X1688599Y2249499D01*
X1688900Y2248600D01*
X1689099Y2247600D01*
X1689099Y2202399D01*
X1688900Y2201399D01*
X1688599Y2200500D01*
X1688199Y2199699D01*
X1687700Y2198800D01*
X1687100Y2198099D01*
X1686400Y2197399D01*
X1685699Y2196799D01*
X1684899Y2196300D01*
X1683999Y2195900D01*
X1683100Y2195599D01*
X1682100Y2195500D01*
X1681300Y2195399D01*
G37*
G36*
X1578699Y2195399D02*
G01*
X1577899Y2195500D01*
X1576899Y2195599D01*
X1576000Y2195900D01*
X1575100Y2196300D01*
X1574300Y2196799D01*
X1573599Y2197399D01*
X1572899Y2198099D01*
X1572299Y2198800D01*
X1571800Y2199699D01*
X1571400Y2200500D01*
X1571099Y2201399D01*
X1570900Y2202399D01*
X1570900Y2247600D01*
X1571099Y2248600D01*
X1571400Y2249499D01*
X1571800Y2250300D01*
X1572299Y2251199D01*
X1572899Y2251900D01*
X1573599Y2252600D01*
X1574300Y2253200D01*
X1575100Y2253699D01*
X1576000Y2254099D01*
X1576899Y2254400D01*
X1577899Y2254499D01*
X1578699Y2254600D01*
X1602600Y2254600D01*
X1603400Y2254499D01*
X1604300Y2254400D01*
X1605299Y2254099D01*
X1606099Y2253699D01*
X1606999Y2253200D01*
X1607700Y2252600D01*
X1608400Y2251900D01*
X1608999Y2251199D01*
X1609499Y2250300D01*
X1609899Y2249499D01*
X1610100Y2248600D01*
X1610299Y2247600D01*
X1610399Y2246799D01*
X1610399Y2203200D01*
X1610299Y2202399D01*
X1610100Y2201399D01*
X1609899Y2200500D01*
X1609499Y2199699D01*
X1608999Y2198800D01*
X1608400Y2198099D01*
X1607700Y2197399D01*
X1606999Y2196799D01*
X1606099Y2196300D01*
X1605299Y2195900D01*
X1604300Y2195599D01*
X1603400Y2195500D01*
X1602600Y2195399D01*
G37*
D31*
G01*
X1492500Y225000D03*
G01*
X1492500Y65000D03*
G01*
X1732500Y225000D03*
G01*
X1732500Y65000D03*
G01*
X2250000Y65000D03*
G01*
X2250000Y225000D03*
G01*
X2010000Y65000D03*
G01*
X2010000Y225000D03*
G01*
X975000Y225000D03*
G01*
X975000Y65000D03*
G01*
X1215000Y225000D03*
G01*
X1215000Y65000D03*
D12*
G01*
X363307Y790002D03*
G01*
X276687Y790002D03*
D32*
G01*
X1590000Y1749499D03*
G01*
X1540000Y1749499D03*
G01*
X1490000Y1749499D03*
G01*
X1440000Y1749499D03*
G01*
X1440000Y1520500D03*
G01*
X1490000Y1520500D03*
G01*
X1540000Y1520500D03*
G01*
X1590000Y1520500D03*
D33*
G01*
X1515000Y1635000D03*
D34*
G01*
X1196965Y1349996D03*
G01*
X1283585Y1349996D03*
D12*
G01*
X1288307Y1496407D03*
G01*
X1201688Y1496407D03*
D34*
G01*
X1196692Y1649996D03*
G01*
X1283311Y1649996D03*
D12*
G01*
X1288307Y1790003D03*
G01*
X1201688Y1790003D03*
G01*
X363307Y636669D03*
G01*
X276687Y636669D03*
G01*
X363307Y943334D03*
G01*
X276687Y943334D03*
D35*
G01*
X370000Y1835000D03*
G01*
X370000Y1735000D03*
G01*
X370000Y1935000D03*
G01*
X370000Y2145000D03*
G01*
X370000Y2045000D03*
G01*
X370000Y2245000D03*
D36*
G01*
X800000Y2195000D03*
G01*
X700000Y2195000D03*
G01*
X900000Y2195000D03*
G01*
X1900000Y2195000D03*
G01*
X1800000Y2195000D03*
G01*
X2000000Y2195000D03*
G01*
X1350000Y2195000D03*
G01*
X1250000Y2195000D03*
G01*
X1450000Y2195000D03*
D29*
G01*
X2905000Y2160000D03*
G01*
X2605000Y2160000D03*
G01*
X2705000Y2160000D03*
G01*
X2805000Y2160000D03*
G01*
X388110Y1541610D03*
G01*
X388110Y1441610D03*
D37*
G01*
X534369Y180000D03*
G01*
X613110Y180000D03*
G01*
X691849Y180000D03*
G01*
X455630Y180000D03*
G01*
X376889Y180000D03*
G01*
X298150Y180000D03*
D38*
G01*
X2405000Y1455000D03*
G01*
X2505000Y1455000D03*
G01*
X2705000Y1455000D03*
G01*
X2805000Y1455000D03*
G01*
X2905000Y1455000D03*
G01*
X3005000Y1455000D03*
G01*
X3105000Y1455000D03*
G01*
X3105000Y1955000D03*
G01*
X3005000Y1955000D03*
G01*
X2905000Y1955000D03*
G01*
X2805000Y1955000D03*
G01*
X2705000Y1955000D03*
G01*
X2605000Y1955000D03*
G01*
X2505000Y1955000D03*
G01*
X2405000Y1955000D03*
G01*
X2605000Y1455000D03*
D18*
G01*
X1225000Y925000D03*
D19*
G01*
X1225000Y855000D03*
G36*
X792399Y565900D02*
G01*
X791400Y566100D01*
X790500Y566399D01*
X789700Y566799D01*
X788800Y567300D01*
X788100Y567899D01*
X787399Y568600D01*
X786800Y569299D01*
X786300Y570100D01*
X785900Y570999D01*
X785600Y571900D01*
X785500Y572899D01*
X785399Y573699D01*
X785399Y597600D01*
X785500Y598400D01*
X785600Y599299D01*
X785900Y600300D01*
X786300Y601100D01*
X786800Y601999D01*
X787399Y602699D01*
X788100Y603400D01*
X788800Y604000D01*
X789700Y604499D01*
X790500Y604899D01*
X791400Y605100D01*
X792399Y605300D01*
X793199Y605399D01*
X836800Y605399D01*
X837600Y605300D01*
X838599Y605100D01*
X839499Y604899D01*
X840299Y604499D01*
X841199Y604000D01*
X841899Y603400D01*
X842600Y602699D01*
X843199Y601999D01*
X843699Y601100D01*
X844099Y600300D01*
X844399Y599299D01*
X844499Y598400D01*
X844600Y597600D01*
X844600Y573699D01*
X844499Y572899D01*
X844399Y571900D01*
X844099Y570999D01*
X843699Y570100D01*
X843199Y569299D01*
X842600Y568600D01*
X841899Y567899D01*
X841199Y567300D01*
X840299Y566799D01*
X839499Y566399D01*
X838599Y566100D01*
X837600Y565900D01*
G37*
G36*
X793199Y644600D02*
G01*
X792399Y644699D01*
X791400Y644899D01*
X790500Y645100D01*
X789700Y645500D01*
X788800Y645999D01*
X788100Y646599D01*
X787399Y647300D01*
X786800Y648000D01*
X786300Y648899D01*
X785900Y649699D01*
X785600Y650700D01*
X785500Y651599D01*
X785399Y652399D01*
X785399Y676300D01*
X785500Y677100D01*
X785600Y678099D01*
X785900Y679000D01*
X786300Y679899D01*
X786800Y680700D01*
X787399Y681399D01*
X788100Y682100D01*
X788800Y682699D01*
X789700Y683200D01*
X790500Y683600D01*
X791400Y683899D01*
X792399Y684099D01*
X837600Y684099D01*
X838599Y683899D01*
X839499Y683600D01*
X840299Y683200D01*
X841199Y682699D01*
X841899Y682100D01*
X842600Y681399D01*
X843199Y680700D01*
X843699Y679899D01*
X844099Y679000D01*
X844399Y678099D01*
X844499Y677100D01*
X844600Y676300D01*
X844600Y652399D01*
X844499Y651599D01*
X844399Y650700D01*
X844099Y649699D01*
X843699Y648899D01*
X843199Y648000D01*
X842600Y647300D01*
X841899Y646599D01*
X841199Y645999D01*
X840299Y645500D01*
X839499Y645100D01*
X838599Y644899D01*
X837600Y644699D01*
X836800Y644600D01*
G37*
G36*
X877399Y565900D02*
G01*
X876400Y566100D01*
X875500Y566399D01*
X874700Y566799D01*
X873800Y567300D01*
X873100Y567899D01*
X872399Y568600D01*
X871800Y569299D01*
X871300Y570100D01*
X870900Y570999D01*
X870600Y571900D01*
X870500Y572899D01*
X870399Y573699D01*
X870399Y597600D01*
X870500Y598400D01*
X870600Y599299D01*
X870900Y600300D01*
X871300Y601100D01*
X871800Y601999D01*
X872399Y602699D01*
X873100Y603400D01*
X873800Y604000D01*
X874700Y604499D01*
X875500Y604899D01*
X876400Y605100D01*
X877399Y605300D01*
X878199Y605399D01*
X921800Y605399D01*
X922600Y605300D01*
X923599Y605100D01*
X924499Y604899D01*
X925299Y604499D01*
X926199Y604000D01*
X926899Y603400D01*
X927600Y602699D01*
X928199Y601999D01*
X928699Y601100D01*
X929099Y600300D01*
X929399Y599299D01*
X929499Y598400D01*
X929600Y597600D01*
X929600Y573699D01*
X929499Y572899D01*
X929399Y571900D01*
X929099Y570999D01*
X928699Y570100D01*
X928199Y569299D01*
X927600Y568600D01*
X926899Y567899D01*
X926199Y567300D01*
X925299Y566799D01*
X924499Y566399D01*
X923599Y566100D01*
X922600Y565900D01*
G37*
G36*
X878199Y644600D02*
G01*
X877399Y644699D01*
X876400Y644899D01*
X875500Y645100D01*
X874700Y645500D01*
X873800Y645999D01*
X873100Y646599D01*
X872399Y647300D01*
X871800Y648000D01*
X871300Y648899D01*
X870900Y649699D01*
X870600Y650700D01*
X870500Y651599D01*
X870399Y652399D01*
X870399Y676300D01*
X870500Y677100D01*
X870600Y678099D01*
X870900Y679000D01*
X871300Y679899D01*
X871800Y680700D01*
X872399Y681399D01*
X873100Y682100D01*
X873800Y682699D01*
X874700Y683200D01*
X875500Y683600D01*
X876400Y683899D01*
X877399Y684099D01*
X922600Y684099D01*
X923599Y683899D01*
X924499Y683600D01*
X925299Y683200D01*
X926199Y682699D01*
X926899Y682100D01*
X927600Y681399D01*
X928199Y680700D01*
X928699Y679899D01*
X929099Y679000D01*
X929399Y678099D01*
X929499Y677100D01*
X929600Y676300D01*
X929600Y652399D01*
X929499Y651599D01*
X929399Y650700D01*
X929099Y649699D01*
X928699Y648899D01*
X928199Y648000D01*
X927600Y647300D01*
X926899Y646599D01*
X926199Y645999D01*
X925299Y645500D01*
X924499Y645100D01*
X923599Y644899D01*
X922600Y644699D01*
X921800Y644600D01*
G37*
G36*
X617399Y565900D02*
G01*
X616399Y566100D01*
X615500Y566399D01*
X614699Y566799D01*
X613800Y567300D01*
X613099Y567899D01*
X612399Y568600D01*
X611799Y569299D01*
X611300Y570100D01*
X610900Y570999D01*
X610599Y571900D01*
X610500Y572899D01*
X610399Y573699D01*
X610399Y597600D01*
X610500Y598400D01*
X610599Y599299D01*
X610900Y600300D01*
X611300Y601100D01*
X611799Y601999D01*
X612399Y602699D01*
X613099Y603400D01*
X613800Y604000D01*
X614699Y604499D01*
X615500Y604899D01*
X616399Y605100D01*
X617399Y605300D01*
X618200Y605399D01*
X661799Y605399D01*
X662600Y605300D01*
X663600Y605100D01*
X664499Y604899D01*
X665300Y604499D01*
X666199Y604000D01*
X666900Y603400D01*
X667600Y602699D01*
X668200Y601999D01*
X668699Y601100D01*
X669099Y600300D01*
X669400Y599299D01*
X669499Y598400D01*
X669600Y597600D01*
X669600Y573699D01*
X669499Y572899D01*
X669400Y571900D01*
X669099Y570999D01*
X668699Y570100D01*
X668200Y569299D01*
X667600Y568600D01*
X666900Y567899D01*
X666199Y567300D01*
X665300Y566799D01*
X664499Y566399D01*
X663600Y566100D01*
X662600Y565900D01*
G37*
G36*
X618200Y644600D02*
G01*
X617399Y644699D01*
X616399Y644899D01*
X615500Y645100D01*
X614699Y645500D01*
X613800Y645999D01*
X613099Y646599D01*
X612399Y647300D01*
X611799Y648000D01*
X611300Y648899D01*
X610900Y649699D01*
X610599Y650700D01*
X610500Y651599D01*
X610399Y652399D01*
X610399Y676300D01*
X610500Y677100D01*
X610599Y678099D01*
X610900Y679000D01*
X611300Y679899D01*
X611799Y680700D01*
X612399Y681399D01*
X613099Y682100D01*
X613800Y682699D01*
X614699Y683200D01*
X615500Y683600D01*
X616399Y683899D01*
X617399Y684099D01*
X662600Y684099D01*
X663600Y683899D01*
X664499Y683600D01*
X665300Y683200D01*
X666199Y682699D01*
X666900Y682100D01*
X667600Y681399D01*
X668200Y680700D01*
X668699Y679899D01*
X669099Y679000D01*
X669400Y678099D01*
X669499Y677100D01*
X669600Y676300D01*
X669600Y652399D01*
X669499Y651599D01*
X669400Y650700D01*
X669099Y649699D01*
X668699Y648899D01*
X668200Y648000D01*
X667600Y647300D01*
X666900Y646599D01*
X666199Y645999D01*
X665300Y645500D01*
X664499Y645100D01*
X663600Y644899D01*
X662600Y644699D01*
X661799Y644600D01*
G37*
G36*
X702399Y565900D02*
G01*
X701399Y566100D01*
X700500Y566399D01*
X699699Y566799D01*
X698800Y567300D01*
X698099Y567899D01*
X697399Y568600D01*
X696799Y569299D01*
X696300Y570100D01*
X695900Y570999D01*
X695599Y571900D01*
X695500Y572899D01*
X695399Y573699D01*
X695399Y597600D01*
X695500Y598400D01*
X695599Y599299D01*
X695900Y600300D01*
X696300Y601100D01*
X696799Y601999D01*
X697399Y602699D01*
X698099Y603400D01*
X698800Y604000D01*
X699699Y604499D01*
X700500Y604899D01*
X701399Y605100D01*
X702399Y605300D01*
X703200Y605399D01*
X746799Y605399D01*
X747600Y605300D01*
X748600Y605100D01*
X749499Y604899D01*
X750300Y604499D01*
X751199Y604000D01*
X751900Y603400D01*
X752600Y602699D01*
X753200Y601999D01*
X753699Y601100D01*
X754099Y600300D01*
X754400Y599299D01*
X754499Y598400D01*
X754600Y597600D01*
X754600Y573699D01*
X754499Y572899D01*
X754400Y571900D01*
X754099Y570999D01*
X753699Y570100D01*
X753200Y569299D01*
X752600Y568600D01*
X751900Y567899D01*
X751199Y567300D01*
X750300Y566799D01*
X749499Y566399D01*
X748600Y566100D01*
X747600Y565900D01*
G37*
G36*
X703200Y644600D02*
G01*
X702399Y644699D01*
X701399Y644899D01*
X700500Y645100D01*
X699699Y645500D01*
X698800Y645999D01*
X698099Y646599D01*
X697399Y647300D01*
X696799Y648000D01*
X696300Y648899D01*
X695900Y649699D01*
X695599Y650700D01*
X695500Y651599D01*
X695399Y652399D01*
X695399Y676300D01*
X695500Y677100D01*
X695599Y678099D01*
X695900Y679000D01*
X696300Y679899D01*
X696799Y680700D01*
X697399Y681399D01*
X698099Y682100D01*
X698800Y682699D01*
X699699Y683200D01*
X700500Y683600D01*
X701399Y683899D01*
X702399Y684099D01*
X747600Y684099D01*
X748600Y683899D01*
X749499Y683600D01*
X750300Y683200D01*
X751199Y682699D01*
X751900Y682100D01*
X752600Y681399D01*
X753200Y680700D01*
X753699Y679899D01*
X754099Y679000D01*
X754400Y678099D01*
X754499Y677100D01*
X754600Y676300D01*
X754600Y652399D01*
X754499Y651599D01*
X754400Y650700D01*
X754099Y649699D01*
X753699Y648899D01*
X753200Y648000D01*
X752600Y647300D01*
X751900Y646599D01*
X751199Y645999D01*
X750300Y645500D01*
X749499Y645100D01*
X748600Y644899D01*
X747600Y644699D01*
X746799Y644600D01*
G37*
D12*
G01*
X813307Y340003D03*
G01*
X726687Y340003D03*
G01*
X813307Y489168D03*
G01*
X726687Y489168D03*
D21*
G01*
X1800000Y2030000D03*
D20*
G01*
X1870000Y2030000D03*
D21*
G01*
X1250000Y2030000D03*
D20*
G01*
X1320000Y2030000D03*
D21*
G01*
X700000Y2030000D03*
D20*
G01*
X769999Y2030000D03*
G36*
X438699Y1060399D02*
G01*
X437899Y1060500D01*
X436900Y1060599D01*
X435999Y1060900D01*
X435100Y1061300D01*
X434299Y1061799D01*
X433600Y1062399D01*
X432899Y1063099D01*
X432300Y1063800D01*
X431799Y1064699D01*
X431399Y1065500D01*
X431100Y1066399D01*
X430900Y1067399D01*
X430900Y1112600D01*
X431100Y1113600D01*
X431399Y1114499D01*
X431799Y1115300D01*
X432300Y1116199D01*
X432899Y1116900D01*
X433600Y1117600D01*
X434299Y1118200D01*
X435100Y1118699D01*
X435999Y1119099D01*
X436900Y1119400D01*
X437899Y1119499D01*
X438699Y1119600D01*
X462600Y1119600D01*
X463400Y1119499D01*
X464299Y1119400D01*
X465300Y1119099D01*
X466100Y1118699D01*
X466999Y1118200D01*
X467699Y1117600D01*
X468400Y1116900D01*
X469000Y1116199D01*
X469499Y1115300D01*
X469899Y1114499D01*
X470100Y1113600D01*
X470300Y1112600D01*
X470399Y1111799D01*
X470399Y1068200D01*
X470300Y1067399D01*
X470100Y1066399D01*
X469899Y1065500D01*
X469499Y1064699D01*
X469000Y1063800D01*
X468400Y1063099D01*
X467699Y1062399D01*
X466999Y1061799D01*
X466100Y1061300D01*
X465300Y1060900D01*
X464299Y1060599D01*
X463400Y1060500D01*
X462600Y1060399D01*
G37*
G36*
X517399Y1060399D02*
G01*
X516599Y1060500D01*
X515700Y1060599D01*
X514699Y1060900D01*
X513899Y1061300D01*
X513000Y1061799D01*
X512300Y1062399D01*
X511599Y1063099D01*
X510999Y1063800D01*
X510500Y1064699D01*
X510100Y1065500D01*
X509899Y1066399D01*
X509699Y1067399D01*
X509600Y1068200D01*
X509600Y1111799D01*
X509699Y1112600D01*
X509899Y1113600D01*
X510100Y1114499D01*
X510500Y1115300D01*
X510999Y1116199D01*
X511599Y1116900D01*
X512300Y1117600D01*
X513000Y1118200D01*
X513899Y1118699D01*
X514699Y1119099D01*
X515700Y1119400D01*
X516599Y1119499D01*
X517399Y1119600D01*
X541300Y1119600D01*
X542100Y1119499D01*
X543099Y1119400D01*
X544000Y1119099D01*
X544899Y1118699D01*
X545700Y1118200D01*
X546399Y1117600D01*
X547100Y1116900D01*
X547699Y1116199D01*
X548200Y1115300D01*
X548600Y1114499D01*
X548899Y1113600D01*
X549099Y1112600D01*
X549099Y1067399D01*
X548899Y1066399D01*
X548600Y1065500D01*
X548200Y1064699D01*
X547699Y1063800D01*
X547100Y1063099D01*
X546399Y1062399D01*
X545700Y1061799D01*
X544899Y1061300D01*
X544000Y1060900D01*
X543099Y1060599D01*
X542100Y1060500D01*
X541300Y1060399D01*
G37*
G36*
X438699Y1210399D02*
G01*
X437899Y1210500D01*
X436900Y1210599D01*
X435999Y1210900D01*
X435100Y1211300D01*
X434299Y1211799D01*
X433600Y1212399D01*
X432899Y1213099D01*
X432300Y1213800D01*
X431799Y1214699D01*
X431399Y1215500D01*
X431100Y1216399D01*
X430900Y1217399D01*
X430900Y1262600D01*
X431100Y1263600D01*
X431399Y1264499D01*
X431799Y1265300D01*
X432300Y1266199D01*
X432899Y1266900D01*
X433600Y1267600D01*
X434299Y1268200D01*
X435100Y1268699D01*
X435999Y1269099D01*
X436900Y1269400D01*
X437899Y1269499D01*
X438699Y1269600D01*
X462600Y1269600D01*
X463400Y1269499D01*
X464299Y1269400D01*
X465300Y1269099D01*
X466100Y1268699D01*
X466999Y1268200D01*
X467699Y1267600D01*
X468400Y1266900D01*
X469000Y1266199D01*
X469499Y1265300D01*
X469899Y1264499D01*
X470100Y1263600D01*
X470300Y1262600D01*
X470399Y1261799D01*
X470399Y1218200D01*
X470300Y1217399D01*
X470100Y1216399D01*
X469899Y1215500D01*
X469499Y1214699D01*
X469000Y1213800D01*
X468400Y1213099D01*
X467699Y1212399D01*
X466999Y1211799D01*
X466100Y1211300D01*
X465300Y1210900D01*
X464299Y1210599D01*
X463400Y1210500D01*
X462600Y1210399D01*
G37*
G36*
X517399Y1210399D02*
G01*
X516599Y1210500D01*
X515700Y1210599D01*
X514699Y1210900D01*
X513899Y1211300D01*
X513000Y1211799D01*
X512300Y1212399D01*
X511599Y1213099D01*
X510999Y1213800D01*
X510500Y1214699D01*
X510100Y1215500D01*
X509899Y1216399D01*
X509699Y1217399D01*
X509600Y1218200D01*
X509600Y1261799D01*
X509699Y1262600D01*
X509899Y1263600D01*
X510100Y1264499D01*
X510500Y1265300D01*
X510999Y1266199D01*
X511599Y1266900D01*
X512300Y1267600D01*
X513000Y1268200D01*
X513899Y1268699D01*
X514699Y1269099D01*
X515700Y1269400D01*
X516599Y1269499D01*
X517399Y1269600D01*
X541300Y1269600D01*
X542100Y1269499D01*
X543099Y1269400D01*
X544000Y1269099D01*
X544899Y1268699D01*
X545700Y1268200D01*
X546399Y1267600D01*
X547100Y1266900D01*
X547699Y1266199D01*
X548200Y1265300D01*
X548600Y1264499D01*
X548899Y1263600D01*
X549099Y1262600D01*
X549099Y1217399D01*
X548899Y1216399D01*
X548600Y1215500D01*
X548200Y1214699D01*
X547699Y1213800D01*
X547100Y1213099D01*
X546399Y1212399D01*
X545700Y1211799D01*
X544899Y1211300D01*
X544000Y1210900D01*
X543099Y1210599D01*
X542100Y1210500D01*
X541300Y1210399D01*
G37*
G36*
X438699Y910399D02*
G01*
X437899Y910500D01*
X436900Y910599D01*
X435999Y910900D01*
X435100Y911300D01*
X434299Y911799D01*
X433600Y912399D01*
X432899Y913099D01*
X432300Y913800D01*
X431799Y914699D01*
X431399Y915500D01*
X431100Y916399D01*
X430900Y917399D01*
X430900Y962600D01*
X431100Y963600D01*
X431399Y964499D01*
X431799Y965300D01*
X432300Y966199D01*
X432899Y966900D01*
X433600Y967600D01*
X434299Y968200D01*
X435100Y968699D01*
X435999Y969099D01*
X436900Y969400D01*
X437899Y969499D01*
X438699Y969600D01*
X462600Y969600D01*
X463400Y969499D01*
X464299Y969400D01*
X465300Y969099D01*
X466100Y968699D01*
X466999Y968200D01*
X467699Y967600D01*
X468400Y966900D01*
X469000Y966199D01*
X469499Y965300D01*
X469899Y964499D01*
X470100Y963600D01*
X470300Y962600D01*
X470399Y961799D01*
X470399Y918200D01*
X470300Y917399D01*
X470100Y916399D01*
X469899Y915500D01*
X469499Y914699D01*
X469000Y913800D01*
X468400Y913099D01*
X467699Y912399D01*
X466999Y911799D01*
X466100Y911300D01*
X465300Y910900D01*
X464299Y910599D01*
X463400Y910500D01*
X462600Y910399D01*
G37*
G36*
X517399Y910399D02*
G01*
X516599Y910500D01*
X515700Y910599D01*
X514699Y910900D01*
X513899Y911300D01*
X513000Y911799D01*
X512300Y912399D01*
X511599Y913099D01*
X510999Y913800D01*
X510500Y914699D01*
X510100Y915500D01*
X509899Y916399D01*
X509699Y917399D01*
X509600Y918200D01*
X509600Y961799D01*
X509699Y962600D01*
X509899Y963600D01*
X510100Y964499D01*
X510500Y965300D01*
X510999Y966199D01*
X511599Y966900D01*
X512300Y967600D01*
X513000Y968200D01*
X513899Y968699D01*
X514699Y969099D01*
X515700Y969400D01*
X516599Y969499D01*
X517399Y969600D01*
X541300Y969600D01*
X542100Y969499D01*
X543099Y969400D01*
X544000Y969099D01*
X544899Y968699D01*
X545700Y968200D01*
X546399Y967600D01*
X547100Y966900D01*
X547699Y966199D01*
X548200Y965300D01*
X548600Y964499D01*
X548899Y963600D01*
X549099Y962600D01*
X549099Y917399D01*
X548899Y916399D01*
X548600Y915500D01*
X548200Y914699D01*
X547699Y913800D01*
X547100Y913099D01*
X546399Y912399D01*
X545700Y911799D01*
X544899Y911300D01*
X544000Y910900D01*
X543099Y910599D01*
X542100Y910500D01*
X541300Y910399D01*
G37*
G36*
X438699Y765399D02*
G01*
X437899Y765500D01*
X436900Y765599D01*
X435999Y765900D01*
X435100Y766300D01*
X434299Y766799D01*
X433600Y767399D01*
X432899Y768099D01*
X432300Y768800D01*
X431799Y769699D01*
X431399Y770500D01*
X431100Y771399D01*
X430900Y772399D01*
X430900Y817600D01*
X431100Y818600D01*
X431399Y819499D01*
X431799Y820300D01*
X432300Y821199D01*
X432899Y821900D01*
X433600Y822600D01*
X434299Y823200D01*
X435100Y823699D01*
X435999Y824099D01*
X436900Y824400D01*
X437899Y824499D01*
X438699Y824600D01*
X462600Y824600D01*
X463400Y824499D01*
X464299Y824400D01*
X465300Y824099D01*
X466100Y823699D01*
X466999Y823200D01*
X467699Y822600D01*
X468400Y821900D01*
X469000Y821199D01*
X469499Y820300D01*
X469899Y819499D01*
X470100Y818600D01*
X470300Y817600D01*
X470399Y816799D01*
X470399Y773200D01*
X470300Y772399D01*
X470100Y771399D01*
X469899Y770500D01*
X469499Y769699D01*
X469000Y768800D01*
X468400Y768099D01*
X467699Y767399D01*
X466999Y766799D01*
X466100Y766300D01*
X465300Y765900D01*
X464299Y765599D01*
X463400Y765500D01*
X462600Y765399D01*
G37*
G36*
X517399Y765399D02*
G01*
X516599Y765500D01*
X515700Y765599D01*
X514699Y765900D01*
X513899Y766300D01*
X513000Y766799D01*
X512300Y767399D01*
X511599Y768099D01*
X510999Y768800D01*
X510500Y769699D01*
X510100Y770500D01*
X509899Y771399D01*
X509699Y772399D01*
X509600Y773200D01*
X509600Y816799D01*
X509699Y817600D01*
X509899Y818600D01*
X510100Y819499D01*
X510500Y820300D01*
X510999Y821199D01*
X511599Y821900D01*
X512300Y822600D01*
X513000Y823200D01*
X513899Y823699D01*
X514699Y824099D01*
X515700Y824400D01*
X516599Y824499D01*
X517399Y824600D01*
X541300Y824600D01*
X542100Y824499D01*
X543099Y824400D01*
X544000Y824099D01*
X544899Y823699D01*
X545700Y823200D01*
X546399Y822600D01*
X547100Y821900D01*
X547699Y821199D01*
X548200Y820300D01*
X548600Y819499D01*
X548899Y818600D01*
X549099Y817600D01*
X549099Y772399D01*
X548899Y771399D01*
X548600Y770500D01*
X548200Y769699D01*
X547699Y768800D01*
X547100Y768099D01*
X546399Y767399D01*
X545700Y766799D01*
X544899Y766300D01*
X544000Y765900D01*
X543099Y765599D01*
X542100Y765500D01*
X541300Y765399D01*
G37*
G36*
X438699Y615399D02*
G01*
X437899Y615500D01*
X436900Y615599D01*
X435999Y615900D01*
X435100Y616300D01*
X434299Y616799D01*
X433600Y617399D01*
X432899Y618099D01*
X432300Y618800D01*
X431799Y619699D01*
X431399Y620500D01*
X431100Y621399D01*
X430900Y622399D01*
X430900Y667600D01*
X431100Y668600D01*
X431399Y669499D01*
X431799Y670300D01*
X432300Y671199D01*
X432899Y671900D01*
X433600Y672600D01*
X434299Y673200D01*
X435100Y673699D01*
X435999Y674099D01*
X436900Y674400D01*
X437899Y674499D01*
X438699Y674600D01*
X462600Y674600D01*
X463400Y674499D01*
X464299Y674400D01*
X465300Y674099D01*
X466100Y673699D01*
X466999Y673200D01*
X467699Y672600D01*
X468400Y671900D01*
X469000Y671199D01*
X469499Y670300D01*
X469899Y669499D01*
X470100Y668600D01*
X470300Y667600D01*
X470399Y666799D01*
X470399Y623200D01*
X470300Y622399D01*
X470100Y621399D01*
X469899Y620500D01*
X469499Y619699D01*
X469000Y618800D01*
X468400Y618099D01*
X467699Y617399D01*
X466999Y616799D01*
X466100Y616300D01*
X465300Y615900D01*
X464299Y615599D01*
X463400Y615500D01*
X462600Y615399D01*
G37*
G36*
X517399Y615399D02*
G01*
X516599Y615500D01*
X515700Y615599D01*
X514699Y615900D01*
X513899Y616300D01*
X513000Y616799D01*
X512300Y617399D01*
X511599Y618099D01*
X510999Y618800D01*
X510500Y619699D01*
X510100Y620500D01*
X509899Y621399D01*
X509699Y622399D01*
X509600Y623200D01*
X509600Y666799D01*
X509699Y667600D01*
X509899Y668600D01*
X510100Y669499D01*
X510500Y670300D01*
X510999Y671199D01*
X511599Y671900D01*
X512300Y672600D01*
X513000Y673200D01*
X513899Y673699D01*
X514699Y674099D01*
X515700Y674400D01*
X516599Y674499D01*
X517399Y674600D01*
X541300Y674600D01*
X542100Y674499D01*
X543099Y674400D01*
X544000Y674099D01*
X544899Y673699D01*
X545700Y673200D01*
X546399Y672600D01*
X547100Y671900D01*
X547699Y671199D01*
X548200Y670300D01*
X548600Y669499D01*
X548899Y668600D01*
X549099Y667600D01*
X549099Y622399D01*
X548899Y621399D01*
X548600Y620500D01*
X548200Y619699D01*
X547699Y618800D01*
X547100Y618099D01*
X546399Y617399D01*
X545700Y616799D01*
X544899Y616300D01*
X544000Y615900D01*
X543099Y615599D01*
X542100Y615500D01*
X541300Y615399D01*
G37*
G36*
X1068699Y895399D02*
G01*
X1067899Y895500D01*
X1066899Y895599D01*
X1066000Y895900D01*
X1065100Y896300D01*
X1064300Y896799D01*
X1063599Y897399D01*
X1062899Y898099D01*
X1062299Y898800D01*
X1061800Y899699D01*
X1061400Y900500D01*
X1061099Y901399D01*
X1060900Y902399D01*
X1060900Y947600D01*
X1061099Y948600D01*
X1061400Y949499D01*
X1061800Y950300D01*
X1062299Y951199D01*
X1062899Y951900D01*
X1063599Y952600D01*
X1064300Y953200D01*
X1065100Y953699D01*
X1066000Y954099D01*
X1066899Y954400D01*
X1067899Y954499D01*
X1068699Y954600D01*
X1092600Y954600D01*
X1093400Y954499D01*
X1094300Y954400D01*
X1095299Y954099D01*
X1096099Y953699D01*
X1096999Y953200D01*
X1097700Y952600D01*
X1098400Y951900D01*
X1098999Y951199D01*
X1099499Y950300D01*
X1099899Y949499D01*
X1100100Y948600D01*
X1100299Y947600D01*
X1100399Y946799D01*
X1100399Y903200D01*
X1100299Y902399D01*
X1100100Y901399D01*
X1099899Y900500D01*
X1099499Y899699D01*
X1098999Y898800D01*
X1098400Y898099D01*
X1097700Y897399D01*
X1096999Y896799D01*
X1096099Y896300D01*
X1095299Y895900D01*
X1094300Y895599D01*
X1093400Y895500D01*
X1092600Y895399D01*
G37*
G36*
X1147399Y895399D02*
G01*
X1146599Y895500D01*
X1145699Y895599D01*
X1144700Y895900D01*
X1143900Y896300D01*
X1143000Y896799D01*
X1142299Y897399D01*
X1141599Y898099D01*
X1141000Y898800D01*
X1140500Y899699D01*
X1140100Y900500D01*
X1139899Y901399D01*
X1139700Y902399D01*
X1139600Y903200D01*
X1139600Y946799D01*
X1139700Y947600D01*
X1139899Y948600D01*
X1140100Y949499D01*
X1140500Y950300D01*
X1141000Y951199D01*
X1141599Y951900D01*
X1142299Y952600D01*
X1143000Y953200D01*
X1143900Y953699D01*
X1144700Y954099D01*
X1145699Y954400D01*
X1146599Y954499D01*
X1147399Y954600D01*
X1171300Y954600D01*
X1172100Y954499D01*
X1173100Y954400D01*
X1173999Y954099D01*
X1174899Y953699D01*
X1175699Y953200D01*
X1176400Y952600D01*
X1177100Y951900D01*
X1177700Y951199D01*
X1178199Y950300D01*
X1178599Y949499D01*
X1178900Y948600D01*
X1179099Y947600D01*
X1179099Y902399D01*
X1178900Y901399D01*
X1178599Y900500D01*
X1178199Y899699D01*
X1177700Y898800D01*
X1177100Y898099D01*
X1176400Y897399D01*
X1175699Y896799D01*
X1174899Y896300D01*
X1173999Y895900D01*
X1173100Y895599D01*
X1172100Y895500D01*
X1171300Y895399D01*
G37*
D39*
G01*
X2268110Y1540499D03*
G01*
X2268110Y1566499D03*
G01*
X2268110Y1591499D03*
G01*
X2268110Y1617500D03*
G01*
X2268110Y1643500D03*
G01*
X2268110Y1668500D03*
G01*
X2268110Y1694500D03*
G01*
X2268110Y1719500D03*
G01*
X2031889Y1719500D03*
G01*
X2031889Y1694500D03*
G01*
X2031889Y1668500D03*
G01*
X2031889Y1643500D03*
G01*
X2031889Y1617500D03*
G01*
X2031889Y1591499D03*
G01*
X2031889Y1566499D03*
G01*
X2031889Y1540499D03*
D21*
G01*
X2115000Y1395000D03*
D20*
G01*
X2185000Y1395000D03*
D40*
G01*
X842579Y1720000D03*
G01*
X842579Y1770000D03*
G01*
X842579Y1820000D03*
G01*
X842579Y1870000D03*
D41*
G01*
X627419Y1870000D03*
G01*
X627419Y1820000D03*
G01*
X627419Y1770000D03*
G01*
X627419Y1720000D03*
D42*
G01*
X710299Y1795000D03*
D43*
G01*
X1343622Y1877600D03*
G01*
X1343622Y1952400D03*
G01*
X1246377Y1915000D03*
G01*
X1088622Y1747600D03*
G01*
X1088622Y1822400D03*
G01*
X991377Y1785000D03*
G36*
X1348699Y1110399D02*
G01*
X1347899Y1110500D01*
X1346899Y1110599D01*
X1346000Y1110900D01*
X1345100Y1111300D01*
X1344300Y1111799D01*
X1343599Y1112399D01*
X1342899Y1113099D01*
X1342299Y1113800D01*
X1341800Y1114699D01*
X1341400Y1115500D01*
X1341099Y1116399D01*
X1340900Y1117399D01*
X1340900Y1162600D01*
X1341099Y1163600D01*
X1341400Y1164499D01*
X1341800Y1165300D01*
X1342299Y1166199D01*
X1342899Y1166900D01*
X1343599Y1167600D01*
X1344300Y1168200D01*
X1345100Y1168699D01*
X1346000Y1169099D01*
X1346899Y1169400D01*
X1347899Y1169499D01*
X1348699Y1169600D01*
X1372600Y1169600D01*
X1373400Y1169499D01*
X1374300Y1169400D01*
X1375299Y1169099D01*
X1376099Y1168699D01*
X1376999Y1168200D01*
X1377700Y1167600D01*
X1378400Y1166900D01*
X1378999Y1166199D01*
X1379499Y1165300D01*
X1379899Y1164499D01*
X1380100Y1163600D01*
X1380299Y1162600D01*
X1380399Y1161799D01*
X1380399Y1118200D01*
X1380299Y1117399D01*
X1380100Y1116399D01*
X1379899Y1115500D01*
X1379499Y1114699D01*
X1378999Y1113800D01*
X1378400Y1113099D01*
X1377700Y1112399D01*
X1376999Y1111799D01*
X1376099Y1111300D01*
X1375299Y1110900D01*
X1374300Y1110599D01*
X1373400Y1110500D01*
X1372600Y1110399D01*
G37*
G36*
X1427399Y1110399D02*
G01*
X1426599Y1110500D01*
X1425699Y1110599D01*
X1424700Y1110900D01*
X1423900Y1111300D01*
X1423000Y1111799D01*
X1422299Y1112399D01*
X1421599Y1113099D01*
X1421000Y1113800D01*
X1420500Y1114699D01*
X1420100Y1115500D01*
X1419899Y1116399D01*
X1419700Y1117399D01*
X1419600Y1118200D01*
X1419600Y1161799D01*
X1419700Y1162600D01*
X1419899Y1163600D01*
X1420100Y1164499D01*
X1420500Y1165300D01*
X1421000Y1166199D01*
X1421599Y1166900D01*
X1422299Y1167600D01*
X1423000Y1168200D01*
X1423900Y1168699D01*
X1424700Y1169099D01*
X1425699Y1169400D01*
X1426599Y1169499D01*
X1427399Y1169600D01*
X1451300Y1169600D01*
X1452100Y1169499D01*
X1453100Y1169400D01*
X1453999Y1169099D01*
X1454899Y1168699D01*
X1455699Y1168200D01*
X1456400Y1167600D01*
X1457100Y1166900D01*
X1457700Y1166199D01*
X1458199Y1165300D01*
X1458599Y1164499D01*
X1458900Y1163600D01*
X1459099Y1162600D01*
X1459099Y1117399D01*
X1458900Y1116399D01*
X1458599Y1115500D01*
X1458199Y1114699D01*
X1457700Y1113800D01*
X1457100Y1113099D01*
X1456400Y1112399D01*
X1455699Y1111799D01*
X1454899Y1111300D01*
X1453999Y1110900D01*
X1453100Y1110599D01*
X1452100Y1110500D01*
X1451300Y1110399D01*
G37*
G36*
X962399Y1040900D02*
G01*
X961400Y1041100D01*
X960500Y1041399D01*
X959700Y1041799D01*
X958800Y1042300D01*
X958100Y1042899D01*
X957399Y1043600D01*
X956800Y1044299D01*
X956300Y1045100D01*
X955900Y1045999D01*
X955600Y1046900D01*
X955500Y1047899D01*
X955399Y1048699D01*
X955399Y1072600D01*
X955500Y1073400D01*
X955600Y1074299D01*
X955900Y1075300D01*
X956300Y1076100D01*
X956800Y1076999D01*
X957399Y1077699D01*
X958100Y1078400D01*
X958800Y1079000D01*
X959700Y1079499D01*
X960500Y1079899D01*
X961400Y1080100D01*
X962399Y1080300D01*
X963199Y1080399D01*
X1006800Y1080399D01*
X1007600Y1080300D01*
X1008599Y1080100D01*
X1009499Y1079899D01*
X1010299Y1079499D01*
X1011199Y1079000D01*
X1011899Y1078400D01*
X1012600Y1077699D01*
X1013199Y1076999D01*
X1013699Y1076100D01*
X1014099Y1075300D01*
X1014399Y1074299D01*
X1014499Y1073400D01*
X1014600Y1072600D01*
X1014600Y1048699D01*
X1014499Y1047899D01*
X1014399Y1046900D01*
X1014099Y1045999D01*
X1013699Y1045100D01*
X1013199Y1044299D01*
X1012600Y1043600D01*
X1011899Y1042899D01*
X1011199Y1042300D01*
X1010299Y1041799D01*
X1009499Y1041399D01*
X1008599Y1041100D01*
X1007600Y1040900D01*
G37*
G36*
X963199Y1119600D02*
G01*
X962399Y1119699D01*
X961400Y1119899D01*
X960500Y1120100D01*
X959700Y1120500D01*
X958800Y1120999D01*
X958100Y1121599D01*
X957399Y1122300D01*
X956800Y1123000D01*
X956300Y1123899D01*
X955900Y1124699D01*
X955600Y1125700D01*
X955500Y1126599D01*
X955399Y1127399D01*
X955399Y1151300D01*
X955500Y1152100D01*
X955600Y1153099D01*
X955900Y1154000D01*
X956300Y1154899D01*
X956800Y1155700D01*
X957399Y1156399D01*
X958100Y1157100D01*
X958800Y1157699D01*
X959700Y1158200D01*
X960500Y1158600D01*
X961400Y1158899D01*
X962399Y1159099D01*
X1007600Y1159099D01*
X1008599Y1158899D01*
X1009499Y1158600D01*
X1010299Y1158200D01*
X1011199Y1157699D01*
X1011899Y1157100D01*
X1012600Y1156399D01*
X1013199Y1155700D01*
X1013699Y1154899D01*
X1014099Y1154000D01*
X1014399Y1153099D01*
X1014499Y1152100D01*
X1014600Y1151300D01*
X1014600Y1127399D01*
X1014499Y1126599D01*
X1014399Y1125700D01*
X1014099Y1124699D01*
X1013699Y1123899D01*
X1013199Y1123000D01*
X1012600Y1122300D01*
X1011899Y1121599D01*
X1011199Y1120999D01*
X1010299Y1120500D01*
X1009499Y1120100D01*
X1008599Y1119899D01*
X1007600Y1119699D01*
X1006800Y1119600D01*
G37*
G36*
X898199Y1849600D02*
G01*
X897399Y1849699D01*
X896400Y1849899D01*
X895500Y1850100D01*
X894700Y1850500D01*
X893800Y1850999D01*
X893100Y1851599D01*
X892399Y1852300D01*
X891800Y1853000D01*
X891300Y1853899D01*
X890900Y1854699D01*
X890600Y1855700D01*
X890500Y1856599D01*
X890399Y1857399D01*
X890399Y1881300D01*
X890500Y1882100D01*
X890600Y1883099D01*
X890900Y1884000D01*
X891300Y1884899D01*
X891800Y1885700D01*
X892399Y1886399D01*
X893100Y1887100D01*
X893800Y1887699D01*
X894700Y1888200D01*
X895500Y1888600D01*
X896400Y1888899D01*
X897399Y1889099D01*
X942600Y1889099D01*
X943599Y1888899D01*
X944499Y1888600D01*
X945299Y1888200D01*
X946199Y1887699D01*
X946899Y1887100D01*
X947600Y1886399D01*
X948199Y1885700D01*
X948699Y1884899D01*
X949099Y1884000D01*
X949399Y1883099D01*
X949499Y1882100D01*
X949600Y1881300D01*
X949600Y1857399D01*
X949499Y1856599D01*
X949399Y1855700D01*
X949099Y1854699D01*
X948699Y1853899D01*
X948199Y1853000D01*
X947600Y1852300D01*
X946899Y1851599D01*
X946199Y1850999D01*
X945299Y1850500D01*
X944499Y1850100D01*
X943599Y1849899D01*
X942600Y1849699D01*
X941800Y1849600D01*
G37*
G36*
X897399Y1770900D02*
G01*
X896400Y1771100D01*
X895500Y1771399D01*
X894700Y1771799D01*
X893800Y1772300D01*
X893100Y1772899D01*
X892399Y1773600D01*
X891800Y1774299D01*
X891300Y1775100D01*
X890900Y1775999D01*
X890600Y1776900D01*
X890500Y1777899D01*
X890399Y1778699D01*
X890399Y1802600D01*
X890500Y1803400D01*
X890600Y1804299D01*
X890900Y1805300D01*
X891300Y1806100D01*
X891800Y1806999D01*
X892399Y1807699D01*
X893100Y1808400D01*
X893800Y1809000D01*
X894700Y1809499D01*
X895500Y1809899D01*
X896400Y1810100D01*
X897399Y1810300D01*
X898199Y1810399D01*
X941800Y1810399D01*
X942600Y1810300D01*
X943599Y1810100D01*
X944499Y1809899D01*
X945299Y1809499D01*
X946199Y1809000D01*
X946899Y1808400D01*
X947600Y1807699D01*
X948199Y1806999D01*
X948699Y1806100D01*
X949099Y1805300D01*
X949399Y1804299D01*
X949499Y1803400D01*
X949600Y1802600D01*
X949600Y1778699D01*
X949499Y1777899D01*
X949399Y1776900D01*
X949099Y1775999D01*
X948699Y1775100D01*
X948199Y1774299D01*
X947600Y1773600D01*
X946899Y1772899D01*
X946199Y1772300D01*
X945299Y1771799D01*
X944499Y1771399D01*
X943599Y1771100D01*
X942600Y1770900D01*
G37*
G36*
X998699Y1645399D02*
G01*
X997899Y1645500D01*
X996899Y1645599D01*
X996000Y1645900D01*
X995100Y1646300D01*
X994300Y1646799D01*
X993599Y1647399D01*
X992899Y1648099D01*
X992299Y1648800D01*
X991800Y1649699D01*
X991400Y1650500D01*
X991099Y1651399D01*
X990900Y1652399D01*
X990900Y1697600D01*
X991099Y1698600D01*
X991400Y1699499D01*
X991800Y1700300D01*
X992299Y1701199D01*
X992899Y1701900D01*
X993599Y1702600D01*
X994300Y1703200D01*
X995100Y1703699D01*
X996000Y1704099D01*
X996899Y1704400D01*
X997899Y1704499D01*
X998699Y1704600D01*
X1022600Y1704600D01*
X1023400Y1704499D01*
X1024300Y1704400D01*
X1025299Y1704099D01*
X1026099Y1703699D01*
X1026999Y1703200D01*
X1027700Y1702600D01*
X1028400Y1701900D01*
X1028999Y1701199D01*
X1029499Y1700300D01*
X1029899Y1699499D01*
X1030100Y1698600D01*
X1030299Y1697600D01*
X1030399Y1696799D01*
X1030399Y1653200D01*
X1030299Y1652399D01*
X1030100Y1651399D01*
X1029899Y1650500D01*
X1029499Y1649699D01*
X1028999Y1648800D01*
X1028400Y1648099D01*
X1027700Y1647399D01*
X1026999Y1646799D01*
X1026099Y1646300D01*
X1025299Y1645900D01*
X1024300Y1645599D01*
X1023400Y1645500D01*
X1022600Y1645399D01*
G37*
G36*
X1077399Y1645399D02*
G01*
X1076599Y1645500D01*
X1075699Y1645599D01*
X1074700Y1645900D01*
X1073900Y1646300D01*
X1073000Y1646799D01*
X1072299Y1647399D01*
X1071599Y1648099D01*
X1071000Y1648800D01*
X1070500Y1649699D01*
X1070100Y1650500D01*
X1069899Y1651399D01*
X1069700Y1652399D01*
X1069600Y1653200D01*
X1069600Y1696799D01*
X1069700Y1697600D01*
X1069899Y1698600D01*
X1070100Y1699499D01*
X1070500Y1700300D01*
X1071000Y1701199D01*
X1071599Y1701900D01*
X1072299Y1702600D01*
X1073000Y1703200D01*
X1073900Y1703699D01*
X1074700Y1704099D01*
X1075699Y1704400D01*
X1076599Y1704499D01*
X1077399Y1704600D01*
X1101300Y1704600D01*
X1102100Y1704499D01*
X1103100Y1704400D01*
X1103999Y1704099D01*
X1104899Y1703699D01*
X1105699Y1703200D01*
X1106400Y1702600D01*
X1107100Y1701900D01*
X1107700Y1701199D01*
X1108199Y1700300D01*
X1108599Y1699499D01*
X1108900Y1698600D01*
X1109099Y1697600D01*
X1109099Y1652399D01*
X1108900Y1651399D01*
X1108599Y1650500D01*
X1108199Y1649699D01*
X1107700Y1648800D01*
X1107100Y1648099D01*
X1106400Y1647399D01*
X1105699Y1646799D01*
X1104899Y1646300D01*
X1103999Y1645900D01*
X1103100Y1645599D01*
X1102100Y1645500D01*
X1101300Y1645399D01*
G37*
G36*
X1392399Y1855900D02*
G01*
X1391400Y1856100D01*
X1390500Y1856399D01*
X1389700Y1856799D01*
X1388800Y1857300D01*
X1388100Y1857899D01*
X1387399Y1858600D01*
X1386800Y1859299D01*
X1386300Y1860100D01*
X1385900Y1860999D01*
X1385600Y1861900D01*
X1385500Y1862899D01*
X1385399Y1863699D01*
X1385399Y1887600D01*
X1385500Y1888400D01*
X1385600Y1889299D01*
X1385900Y1890300D01*
X1386300Y1891100D01*
X1386800Y1891999D01*
X1387399Y1892699D01*
X1388100Y1893400D01*
X1388800Y1894000D01*
X1389700Y1894499D01*
X1390500Y1894899D01*
X1391400Y1895100D01*
X1392399Y1895300D01*
X1393199Y1895399D01*
X1436800Y1895399D01*
X1437600Y1895300D01*
X1438599Y1895100D01*
X1439499Y1894899D01*
X1440299Y1894499D01*
X1441199Y1894000D01*
X1441899Y1893400D01*
X1442600Y1892699D01*
X1443199Y1891999D01*
X1443699Y1891100D01*
X1444099Y1890300D01*
X1444399Y1889299D01*
X1444499Y1888400D01*
X1444600Y1887600D01*
X1444600Y1863699D01*
X1444499Y1862899D01*
X1444399Y1861900D01*
X1444099Y1860999D01*
X1443699Y1860100D01*
X1443199Y1859299D01*
X1442600Y1858600D01*
X1441899Y1857899D01*
X1441199Y1857300D01*
X1440299Y1856799D01*
X1439499Y1856399D01*
X1438599Y1856100D01*
X1437600Y1855900D01*
G37*
G36*
X1393199Y1934600D02*
G01*
X1392399Y1934699D01*
X1391400Y1934899D01*
X1390500Y1935100D01*
X1389700Y1935500D01*
X1388800Y1935999D01*
X1388100Y1936599D01*
X1387399Y1937300D01*
X1386800Y1938000D01*
X1386300Y1938899D01*
X1385900Y1939699D01*
X1385600Y1940700D01*
X1385500Y1941599D01*
X1385399Y1942399D01*
X1385399Y1966300D01*
X1385500Y1967100D01*
X1385600Y1968099D01*
X1385900Y1969000D01*
X1386300Y1969899D01*
X1386800Y1970700D01*
X1387399Y1971399D01*
X1388100Y1972100D01*
X1388800Y1972699D01*
X1389700Y1973200D01*
X1390500Y1973600D01*
X1391400Y1973899D01*
X1392399Y1974099D01*
X1437600Y1974099D01*
X1438599Y1973899D01*
X1439499Y1973600D01*
X1440299Y1973200D01*
X1441199Y1972699D01*
X1441899Y1972100D01*
X1442600Y1971399D01*
X1443199Y1970700D01*
X1443699Y1969899D01*
X1444099Y1969000D01*
X1444399Y1968099D01*
X1444499Y1967100D01*
X1444600Y1966300D01*
X1444600Y1942399D01*
X1444499Y1941599D01*
X1444399Y1940700D01*
X1444099Y1939699D01*
X1443699Y1938899D01*
X1443199Y1938000D01*
X1442600Y1937300D01*
X1441899Y1936599D01*
X1441199Y1935999D01*
X1440299Y1935500D01*
X1439499Y1935100D01*
X1438599Y1934899D01*
X1437600Y1934699D01*
X1436800Y1934600D01*
G37*
D44*
G01*
X921643Y807401D03*
G01*
X921643Y732598D03*
G01*
X1008356Y770000D03*
G01*
X921643Y937401D03*
G01*
X921643Y862598D03*
G01*
X1008356Y900000D03*
G36*
X837399Y770900D02*
G01*
X836400Y771100D01*
X835500Y771399D01*
X834700Y771799D01*
X833800Y772300D01*
X833100Y772899D01*
X832399Y773600D01*
X831800Y774299D01*
X831300Y775100D01*
X830900Y775999D01*
X830600Y776900D01*
X830500Y777899D01*
X830399Y778699D01*
X830399Y802600D01*
X830500Y803400D01*
X830600Y804299D01*
X830900Y805300D01*
X831300Y806100D01*
X831800Y806999D01*
X832399Y807699D01*
X833100Y808400D01*
X833800Y809000D01*
X834700Y809499D01*
X835500Y809899D01*
X836400Y810100D01*
X837399Y810300D01*
X838199Y810399D01*
X881800Y810399D01*
X882600Y810300D01*
X883599Y810100D01*
X884499Y809899D01*
X885299Y809499D01*
X886199Y809000D01*
X886899Y808400D01*
X887600Y807699D01*
X888199Y806999D01*
X888699Y806100D01*
X889099Y805300D01*
X889399Y804299D01*
X889499Y803400D01*
X889600Y802600D01*
X889600Y778699D01*
X889499Y777899D01*
X889399Y776900D01*
X889099Y775999D01*
X888699Y775100D01*
X888199Y774299D01*
X887600Y773600D01*
X886899Y772899D01*
X886199Y772300D01*
X885299Y771799D01*
X884499Y771399D01*
X883599Y771100D01*
X882600Y770900D01*
G37*
G36*
X838199Y849600D02*
G01*
X837399Y849699D01*
X836400Y849899D01*
X835500Y850100D01*
X834700Y850500D01*
X833800Y850999D01*
X833100Y851599D01*
X832399Y852300D01*
X831800Y853000D01*
X831300Y853899D01*
X830900Y854699D01*
X830600Y855700D01*
X830500Y856599D01*
X830399Y857399D01*
X830399Y881300D01*
X830500Y882100D01*
X830600Y883099D01*
X830900Y884000D01*
X831300Y884899D01*
X831800Y885700D01*
X832399Y886399D01*
X833100Y887100D01*
X833800Y887699D01*
X834700Y888200D01*
X835500Y888600D01*
X836400Y888899D01*
X837399Y889099D01*
X882600Y889099D01*
X883599Y888899D01*
X884499Y888600D01*
X885299Y888200D01*
X886199Y887699D01*
X886899Y887100D01*
X887600Y886399D01*
X888199Y885700D01*
X888699Y884899D01*
X889099Y884000D01*
X889399Y883099D01*
X889499Y882100D01*
X889600Y881300D01*
X889600Y857399D01*
X889499Y856599D01*
X889399Y855700D01*
X889099Y854699D01*
X888699Y853899D01*
X888199Y853000D01*
X887600Y852300D01*
X886899Y851599D01*
X886199Y850999D01*
X885299Y850500D01*
X884499Y850100D01*
X883599Y849899D01*
X882600Y849699D01*
X881800Y849600D01*
G37*
G36*
X768199Y849600D02*
G01*
X767399Y849699D01*
X766400Y849899D01*
X765500Y850100D01*
X764700Y850500D01*
X763800Y850999D01*
X763100Y851599D01*
X762399Y852300D01*
X761800Y853000D01*
X761300Y853899D01*
X760900Y854699D01*
X760600Y855700D01*
X760500Y856599D01*
X760399Y857399D01*
X760399Y881300D01*
X760500Y882100D01*
X760600Y883099D01*
X760900Y884000D01*
X761300Y884899D01*
X761800Y885700D01*
X762399Y886399D01*
X763100Y887100D01*
X763800Y887699D01*
X764700Y888200D01*
X765500Y888600D01*
X766400Y888899D01*
X767399Y889099D01*
X812600Y889099D01*
X813599Y888899D01*
X814499Y888600D01*
X815299Y888200D01*
X816199Y887699D01*
X816899Y887100D01*
X817600Y886399D01*
X818199Y885700D01*
X818699Y884899D01*
X819099Y884000D01*
X819399Y883099D01*
X819499Y882100D01*
X819600Y881300D01*
X819600Y857399D01*
X819499Y856599D01*
X819399Y855700D01*
X819099Y854699D01*
X818699Y853899D01*
X818199Y853000D01*
X817600Y852300D01*
X816899Y851599D01*
X816199Y850999D01*
X815299Y850500D01*
X814499Y850100D01*
X813599Y849899D01*
X812600Y849699D01*
X811800Y849600D01*
G37*
G36*
X767399Y770900D02*
G01*
X766400Y771100D01*
X765500Y771399D01*
X764700Y771799D01*
X763800Y772300D01*
X763100Y772899D01*
X762399Y773600D01*
X761800Y774299D01*
X761300Y775100D01*
X760900Y775999D01*
X760600Y776900D01*
X760500Y777899D01*
X760399Y778699D01*
X760399Y802600D01*
X760500Y803400D01*
X760600Y804299D01*
X760900Y805300D01*
X761300Y806100D01*
X761800Y806999D01*
X762399Y807699D01*
X763100Y808400D01*
X763800Y809000D01*
X764700Y809499D01*
X765500Y809899D01*
X766400Y810100D01*
X767399Y810300D01*
X768199Y810399D01*
X811800Y810399D01*
X812600Y810300D01*
X813599Y810100D01*
X814499Y809899D01*
X815299Y809499D01*
X816199Y809000D01*
X816899Y808400D01*
X817600Y807699D01*
X818199Y806999D01*
X818699Y806100D01*
X819099Y805300D01*
X819399Y804299D01*
X819499Y803400D01*
X819600Y802600D01*
X819600Y778699D01*
X819499Y777899D01*
X819399Y776900D01*
X819099Y775999D01*
X818699Y775100D01*
X818199Y774299D01*
X817600Y773600D01*
X816899Y772899D01*
X816199Y772300D01*
X815299Y771799D01*
X814499Y771399D01*
X813599Y771100D01*
X812600Y770900D01*
G37*
G36*
X2132399Y925900D02*
G01*
X2131400Y926100D01*
X2130500Y926399D01*
X2129700Y926799D01*
X2128800Y927300D01*
X2128100Y927899D01*
X2127399Y928600D01*
X2126800Y929299D01*
X2126300Y930100D01*
X2125900Y930999D01*
X2125600Y931900D01*
X2125500Y932899D01*
X2125399Y933699D01*
X2125399Y957600D01*
X2125500Y958400D01*
X2125600Y959299D01*
X2125900Y960300D01*
X2126300Y961100D01*
X2126800Y961999D01*
X2127399Y962699D01*
X2128100Y963400D01*
X2128800Y964000D01*
X2129700Y964499D01*
X2130500Y964899D01*
X2131400Y965100D01*
X2132399Y965300D01*
X2133199Y965399D01*
X2176800Y965399D01*
X2177600Y965300D01*
X2178599Y965100D01*
X2179499Y964899D01*
X2180299Y964499D01*
X2181199Y964000D01*
X2181899Y963400D01*
X2182600Y962699D01*
X2183199Y961999D01*
X2183699Y961100D01*
X2184099Y960300D01*
X2184399Y959299D01*
X2184499Y958400D01*
X2184600Y957600D01*
X2184600Y933699D01*
X2184499Y932899D01*
X2184399Y931900D01*
X2184099Y930999D01*
X2183699Y930100D01*
X2183199Y929299D01*
X2182600Y928600D01*
X2181899Y927899D01*
X2181199Y927300D01*
X2180299Y926799D01*
X2179499Y926399D01*
X2178599Y926100D01*
X2177600Y925900D01*
G37*
G36*
X2133199Y1004600D02*
G01*
X2132399Y1004699D01*
X2131400Y1004899D01*
X2130500Y1005100D01*
X2129700Y1005500D01*
X2128800Y1005999D01*
X2128100Y1006599D01*
X2127399Y1007300D01*
X2126800Y1008000D01*
X2126300Y1008899D01*
X2125900Y1009699D01*
X2125600Y1010700D01*
X2125500Y1011599D01*
X2125399Y1012399D01*
X2125399Y1036300D01*
X2125500Y1037100D01*
X2125600Y1038099D01*
X2125900Y1039000D01*
X2126300Y1039899D01*
X2126800Y1040700D01*
X2127399Y1041399D01*
X2128100Y1042100D01*
X2128800Y1042699D01*
X2129700Y1043200D01*
X2130500Y1043600D01*
X2131400Y1043899D01*
X2132399Y1044099D01*
X2177600Y1044099D01*
X2178599Y1043899D01*
X2179499Y1043600D01*
X2180299Y1043200D01*
X2181199Y1042699D01*
X2181899Y1042100D01*
X2182600Y1041399D01*
X2183199Y1040700D01*
X2183699Y1039899D01*
X2184099Y1039000D01*
X2184399Y1038099D01*
X2184499Y1037100D01*
X2184600Y1036300D01*
X2184600Y1012399D01*
X2184499Y1011599D01*
X2184399Y1010700D01*
X2184099Y1009699D01*
X2183699Y1008899D01*
X2183199Y1008000D01*
X2182600Y1007300D01*
X2181899Y1006599D01*
X2181199Y1005999D01*
X2180299Y1005500D01*
X2179499Y1005100D01*
X2178599Y1004899D01*
X2177600Y1004699D01*
X2176800Y1004600D01*
G37*
D45*
G01*
X2302400Y945419D03*
G01*
X2265000Y945419D03*
G01*
X2227599Y945419D03*
D46*
G01*
X2227599Y854580D03*
G01*
X2302400Y854580D03*
D40*
G01*
X937579Y1410000D03*
G01*
X937579Y1460000D03*
G01*
X937579Y1510000D03*
G01*
X937579Y1560000D03*
D41*
G01*
X722419Y1560000D03*
G01*
X722419Y1510000D03*
G01*
X722419Y1460000D03*
G01*
X722419Y1410000D03*
D42*
G01*
X805299Y1485000D03*
D43*
G01*
X1118622Y1522600D03*
G01*
X1118622Y1597400D03*
G01*
X1021377Y1560000D03*
G36*
X1097399Y1365900D02*
G01*
X1096400Y1366100D01*
X1095500Y1366399D01*
X1094700Y1366799D01*
X1093800Y1367300D01*
X1093100Y1367899D01*
X1092399Y1368600D01*
X1091800Y1369299D01*
X1091300Y1370100D01*
X1090900Y1370999D01*
X1090600Y1371900D01*
X1090500Y1372899D01*
X1090399Y1373699D01*
X1090399Y1397600D01*
X1090500Y1398400D01*
X1090600Y1399299D01*
X1090900Y1400300D01*
X1091300Y1401100D01*
X1091800Y1401999D01*
X1092399Y1402699D01*
X1093100Y1403400D01*
X1093800Y1404000D01*
X1094700Y1404499D01*
X1095500Y1404899D01*
X1096400Y1405100D01*
X1097399Y1405300D01*
X1098199Y1405399D01*
X1141800Y1405399D01*
X1142600Y1405300D01*
X1143599Y1405100D01*
X1144499Y1404899D01*
X1145299Y1404499D01*
X1146199Y1404000D01*
X1146899Y1403400D01*
X1147600Y1402699D01*
X1148199Y1401999D01*
X1148699Y1401100D01*
X1149099Y1400300D01*
X1149399Y1399299D01*
X1149499Y1398400D01*
X1149600Y1397600D01*
X1149600Y1373699D01*
X1149499Y1372899D01*
X1149399Y1371900D01*
X1149099Y1370999D01*
X1148699Y1370100D01*
X1148199Y1369299D01*
X1147600Y1368600D01*
X1146899Y1367899D01*
X1146199Y1367300D01*
X1145299Y1366799D01*
X1144499Y1366399D01*
X1143599Y1366100D01*
X1142600Y1365900D01*
G37*
G36*
X1098199Y1444600D02*
G01*
X1097399Y1444699D01*
X1096400Y1444899D01*
X1095500Y1445100D01*
X1094700Y1445500D01*
X1093800Y1445999D01*
X1093100Y1446599D01*
X1092399Y1447300D01*
X1091800Y1448000D01*
X1091300Y1448899D01*
X1090900Y1449699D01*
X1090600Y1450700D01*
X1090500Y1451599D01*
X1090399Y1452399D01*
X1090399Y1476300D01*
X1090500Y1477100D01*
X1090600Y1478099D01*
X1090900Y1479000D01*
X1091300Y1479899D01*
X1091800Y1480700D01*
X1092399Y1481399D01*
X1093100Y1482100D01*
X1093800Y1482699D01*
X1094700Y1483200D01*
X1095500Y1483600D01*
X1096400Y1483899D01*
X1097399Y1484099D01*
X1142600Y1484099D01*
X1143599Y1483899D01*
X1144499Y1483600D01*
X1145299Y1483200D01*
X1146199Y1482699D01*
X1146899Y1482100D01*
X1147600Y1481399D01*
X1148199Y1480700D01*
X1148699Y1479899D01*
X1149099Y1479000D01*
X1149399Y1478099D01*
X1149499Y1477100D01*
X1149600Y1476300D01*
X1149600Y1452399D01*
X1149499Y1451599D01*
X1149399Y1450700D01*
X1149099Y1449699D01*
X1148699Y1448899D01*
X1148199Y1448000D01*
X1147600Y1447300D01*
X1146899Y1446599D01*
X1146199Y1445999D01*
X1145299Y1445500D01*
X1144499Y1445100D01*
X1143599Y1444899D01*
X1142600Y1444699D01*
X1141800Y1444600D01*
G37*
G36*
X988199Y1449600D02*
G01*
X987399Y1449699D01*
X986400Y1449899D01*
X985500Y1450100D01*
X984700Y1450500D01*
X983800Y1450999D01*
X983100Y1451599D01*
X982399Y1452300D01*
X981800Y1453000D01*
X981300Y1453899D01*
X980900Y1454699D01*
X980600Y1455700D01*
X980500Y1456599D01*
X980399Y1457399D01*
X980399Y1481300D01*
X980500Y1482100D01*
X980600Y1483099D01*
X980900Y1484000D01*
X981300Y1484899D01*
X981800Y1485700D01*
X982399Y1486399D01*
X983100Y1487100D01*
X983800Y1487699D01*
X984700Y1488200D01*
X985500Y1488600D01*
X986400Y1488899D01*
X987399Y1489099D01*
X1032600Y1489099D01*
X1033599Y1488899D01*
X1034499Y1488600D01*
X1035299Y1488200D01*
X1036199Y1487699D01*
X1036899Y1487100D01*
X1037600Y1486399D01*
X1038199Y1485700D01*
X1038699Y1484899D01*
X1039099Y1484000D01*
X1039399Y1483099D01*
X1039499Y1482100D01*
X1039600Y1481300D01*
X1039600Y1457399D01*
X1039499Y1456599D01*
X1039399Y1455700D01*
X1039099Y1454699D01*
X1038699Y1453899D01*
X1038199Y1453000D01*
X1037600Y1452300D01*
X1036899Y1451599D01*
X1036199Y1450999D01*
X1035299Y1450500D01*
X1034499Y1450100D01*
X1033599Y1449899D01*
X1032600Y1449699D01*
X1031800Y1449600D01*
G37*
G36*
X987399Y1370900D02*
G01*
X986400Y1371100D01*
X985500Y1371399D01*
X984700Y1371799D01*
X983800Y1372300D01*
X983100Y1372899D01*
X982399Y1373600D01*
X981800Y1374299D01*
X981300Y1375100D01*
X980900Y1375999D01*
X980600Y1376900D01*
X980500Y1377899D01*
X980399Y1378699D01*
X980399Y1402600D01*
X980500Y1403400D01*
X980600Y1404299D01*
X980900Y1405300D01*
X981300Y1406100D01*
X981800Y1406999D01*
X982399Y1407699D01*
X983100Y1408400D01*
X983800Y1409000D01*
X984700Y1409499D01*
X985500Y1409899D01*
X986400Y1410100D01*
X987399Y1410300D01*
X988199Y1410399D01*
X1031800Y1410399D01*
X1032600Y1410300D01*
X1033599Y1410100D01*
X1034499Y1409899D01*
X1035299Y1409499D01*
X1036199Y1409000D01*
X1036899Y1408400D01*
X1037600Y1407699D01*
X1038199Y1406999D01*
X1038699Y1406100D01*
X1039099Y1405300D01*
X1039399Y1404299D01*
X1039499Y1403400D01*
X1039600Y1402600D01*
X1039600Y1378699D01*
X1039499Y1377899D01*
X1039399Y1376900D01*
X1039099Y1375999D01*
X1038699Y1375100D01*
X1038199Y1374299D01*
X1037600Y1373600D01*
X1036899Y1372899D01*
X1036199Y1372300D01*
X1035299Y1371799D01*
X1034499Y1371399D01*
X1033599Y1371100D01*
X1032600Y1370900D01*
G37*
D20*
G01*
X2300000Y770000D03*
D21*
G01*
X2230000Y770000D03*
D20*
G01*
X2305000Y1110000D03*
D21*
G01*
X2235000Y1110000D03*
D20*
G01*
X2300000Y685000D03*
D21*
G01*
X2230000Y685000D03*
D20*
G01*
X2305000Y1025000D03*
D21*
G01*
X2235000Y1025000D03*
G01*
X2115000Y1475000D03*
D20*
G01*
X2185000Y1475000D03*
D19*
G01*
X1160000Y995000D03*
D18*
G01*
X1160000Y1065000D03*
D19*
G01*
X1080000Y995000D03*
D18*
G01*
X1080000Y1065000D03*
D19*
G01*
X1240000Y995000D03*
D18*
G01*
X1240000Y1065000D03*
G01*
X2155000Y855000D03*
D19*
G01*
X2155000Y785000D03*
D18*
G01*
X565000Y1545000D03*
D19*
G01*
X565000Y1475000D03*
D18*
G01*
X650000Y1545000D03*
D19*
G01*
X650000Y1475000D03*
D18*
G01*
X1090000Y1270000D03*
D19*
G01*
X1090000Y1200000D03*
G01*
X540000Y1835000D03*
D18*
G01*
X540000Y1905000D03*
D19*
G01*
X540000Y2145000D03*
D18*
G01*
X540000Y2215000D03*
D47*
G01*
X1070000Y1966350D03*
G01*
X2250000Y1966350D03*
G01*
X1070000Y391550D03*
G01*
X2251099Y391550D03*
M02*
