G04 Layer: TopPasteMaskLayer*
G04 EasyEDA v6.5.22, 2023-01-05 17:43:04*
G04 408631a24da54ebd81f1ad95a11f4f05,373fc183506b451e961249744e80b011,10*
G04 Gerber Generator version 0.2*
G04 Scale: 100 percent, Rotated: No, Reflected: No *
G04 Dimensions in inches *
G04 leading zeros omitted , absolute positions ,3 integer and 6 decimal *
%FSLAX36Y36*%
%MOIN*%

%AMMACRO1*21,1,$1,$2,0,0,$3*%
%ADD10C,0.0394*%
%ADD11R,0.0236X0.0421*%
%ADD12R,0.0394X0.0492*%
%ADD13R,0.0787X0.0354*%
%ADD14R,0.0354X0.0787*%
%ADD15R,0.0524X0.0524*%
%ADD16MACRO1,0.0638X0.0567X-90.0000*%
%ADD17R,0.1653X0.0630*%
%ADD18R,0.0276X0.0492*%
%ADD19R,0.0236X0.0472*%
%ADD20R,0.1378X0.0984*%
%ADD21R,0.0710X0.0160*%
%ADD22R,0.0500X0.0240*%
%ADD23R,0.0402X0.0240*%
%ADD24R,0.1539X0.1500*%
%ADD25R,0.0421X0.0236*%
%ADD26MACRO1,0.0209X0.0408X-90.0000*%
%ADD27R,0.0193X0.0456*%
%ADD28R,0.0193X0.0463*%
%ADD29R,0.0123X0.0463*%

%LPD*%
G36*
X1804920Y1661920D02*
G01*
X1800980Y1658000D01*
X1800980Y1607400D01*
X1804920Y1603460D01*
X1819500Y1603460D01*
X1823440Y1607400D01*
X1823440Y1619400D01*
X1827380Y1623340D01*
X1842620Y1623340D01*
X1846560Y1619400D01*
X1846560Y1607400D01*
X1850500Y1603460D01*
X1865080Y1603460D01*
X1869019Y1607400D01*
X1869019Y1658000D01*
X1865080Y1661920D01*
G37*
G36*
X1804920Y1536540D02*
G01*
X1800980Y1532600D01*
X1800980Y1482000D01*
X1804920Y1478080D01*
X1865080Y1478080D01*
X1869019Y1482000D01*
X1869019Y1532600D01*
X1865080Y1536540D01*
X1850500Y1536540D01*
X1846560Y1532600D01*
X1846560Y1520600D01*
X1842620Y1516660D01*
X1827380Y1516660D01*
X1823440Y1520600D01*
X1823440Y1532600D01*
X1819500Y1536540D01*
G37*
G36*
X1679920Y1776920D02*
G01*
X1675980Y1773000D01*
X1675980Y1722400D01*
X1679920Y1718460D01*
X1694500Y1718460D01*
X1698440Y1722400D01*
X1698440Y1734400D01*
X1702380Y1738340D01*
X1717620Y1738340D01*
X1721560Y1734400D01*
X1721560Y1722400D01*
X1725500Y1718460D01*
X1740080Y1718460D01*
X1744019Y1722400D01*
X1744019Y1773000D01*
X1740080Y1776920D01*
G37*
G36*
X1679920Y1651540D02*
G01*
X1675980Y1647600D01*
X1675980Y1597000D01*
X1679920Y1593080D01*
X1740080Y1593080D01*
X1744019Y1597000D01*
X1744019Y1647600D01*
X1740080Y1651540D01*
X1725500Y1651540D01*
X1721560Y1647600D01*
X1721560Y1635600D01*
X1717620Y1631660D01*
X1702380Y1631660D01*
X1698440Y1635600D01*
X1698440Y1647600D01*
X1694500Y1651540D01*
G37*
D10*
G01*
X580000Y1085000D03*
G01*
X2325000Y290000D03*
G01*
X2095000Y2000000D03*
G01*
X1470000Y1215000D03*
G01*
X1890000Y1140000D03*
G01*
X2405000Y2035000D03*
G01*
X1290000Y415000D03*
G01*
X1975000Y295000D03*
G01*
X1245000Y585000D03*
G01*
X575000Y1305000D03*
G01*
X1175000Y635000D03*
G01*
X790000Y1290000D03*
G01*
X635000Y1335000D03*
G01*
X1955000Y1725000D03*
G01*
X1870000Y1715000D03*
G01*
X1720000Y2310000D03*
G01*
X1000000Y2240000D03*
G01*
X1535000Y2235000D03*
G01*
X625000Y365000D03*
G01*
X595000Y420000D03*
G01*
X855000Y740000D03*
G01*
X855000Y900000D03*
G01*
X2030000Y305000D03*
G01*
X1285000Y65000D03*
G01*
X2085000Y290000D03*
G01*
X675000Y1590000D03*
G01*
X1415000Y255000D03*
G01*
X2140000Y2225000D03*
G01*
X1330000Y1145000D03*
G01*
X2115000Y480000D03*
G01*
X2390000Y1055000D03*
G01*
X1270000Y675000D03*
G01*
X1945000Y1465000D03*
G01*
X1945000Y1255000D03*
G01*
X2630000Y1645000D03*
G01*
X2570000Y1610000D03*
G01*
X2560000Y1525000D03*
G01*
X2395000Y1600000D03*
G01*
X1915000Y1615000D03*
G01*
X2020000Y1740000D03*
G01*
X2950000Y705000D03*
G01*
X2960000Y585000D03*
G01*
X2955000Y440000D03*
G01*
X3105000Y320000D03*
G01*
X1545000Y2185000D03*
G01*
X2230000Y1295000D03*
G01*
X2765000Y1605000D03*
G01*
X2855000Y1600000D03*
G01*
X2960000Y1605000D03*
G36*
X2278350Y1394879D02*
G01*
X2277870Y1394909D01*
X2277399Y1395000D01*
X2276949Y1395140D01*
X2276520Y1395329D01*
X2276109Y1395580D01*
X2275739Y1395870D01*
X2275399Y1396210D01*
X2275110Y1396579D01*
X2274859Y1396990D01*
X2274669Y1397420D01*
X2274520Y1397880D01*
X2274440Y1398339D01*
X2274409Y1398820D01*
X2274409Y1422440D01*
X2274440Y1422919D01*
X2274520Y1423380D01*
X2274669Y1423840D01*
X2274859Y1424270D01*
X2275110Y1424679D01*
X2275399Y1425050D01*
X2275739Y1425390D01*
X2276109Y1425680D01*
X2276520Y1425929D01*
X2276949Y1426120D01*
X2277399Y1426260D01*
X2277870Y1426350D01*
X2278350Y1426379D01*
X2321649Y1426379D01*
X2322129Y1426350D01*
X2322600Y1426260D01*
X2323050Y1426120D01*
X2323479Y1425929D01*
X2323890Y1425680D01*
X2324260Y1425390D01*
X2324600Y1425050D01*
X2324889Y1424679D01*
X2325140Y1424270D01*
X2325330Y1423840D01*
X2325479Y1423380D01*
X2325559Y1422919D01*
X2325590Y1422440D01*
X2325590Y1398820D01*
X2325559Y1398339D01*
X2325479Y1397880D01*
X2325330Y1397420D01*
X2325140Y1396990D01*
X2324889Y1396579D01*
X2324600Y1396210D01*
X2324260Y1395870D01*
X2323890Y1395580D01*
X2323479Y1395329D01*
X2323050Y1395140D01*
X2322600Y1395000D01*
X2322129Y1394909D01*
X2321649Y1394879D01*
G37*
G36*
X2278350Y1473620D02*
G01*
X2277870Y1473649D01*
X2277399Y1473739D01*
X2276949Y1473879D01*
X2276520Y1474070D01*
X2276109Y1474319D01*
X2275739Y1474609D01*
X2275399Y1474949D01*
X2275110Y1475320D01*
X2274859Y1475729D01*
X2274669Y1476159D01*
X2274520Y1476619D01*
X2274440Y1477080D01*
X2274409Y1477559D01*
X2274409Y1501179D01*
X2274440Y1501660D01*
X2274520Y1502120D01*
X2274669Y1502579D01*
X2274859Y1503009D01*
X2275110Y1503420D01*
X2275399Y1503789D01*
X2275739Y1504130D01*
X2276109Y1504420D01*
X2276520Y1504670D01*
X2276949Y1504859D01*
X2277399Y1505000D01*
X2277870Y1505090D01*
X2278350Y1505120D01*
X2321649Y1505120D01*
X2322129Y1505090D01*
X2322600Y1505000D01*
X2323050Y1504859D01*
X2323479Y1504670D01*
X2323890Y1504420D01*
X2324260Y1504130D01*
X2324600Y1503789D01*
X2324889Y1503420D01*
X2325140Y1503009D01*
X2325330Y1502579D01*
X2325479Y1502120D01*
X2325559Y1501660D01*
X2325590Y1501179D01*
X2325590Y1477559D01*
X2325559Y1477080D01*
X2325479Y1476619D01*
X2325330Y1476159D01*
X2325140Y1475729D01*
X2324889Y1475320D01*
X2324600Y1474949D01*
X2324260Y1474609D01*
X2323890Y1474319D01*
X2323479Y1474070D01*
X2323050Y1473879D01*
X2322600Y1473739D01*
X2322129Y1473649D01*
X2321649Y1473620D01*
G37*
G36*
X1198350Y1119879D02*
G01*
X1197870Y1119909D01*
X1197399Y1120000D01*
X1196949Y1120140D01*
X1196520Y1120329D01*
X1196109Y1120580D01*
X1195739Y1120870D01*
X1195399Y1121210D01*
X1195110Y1121579D01*
X1194859Y1121990D01*
X1194669Y1122420D01*
X1194520Y1122880D01*
X1194440Y1123339D01*
X1194409Y1123820D01*
X1194409Y1147440D01*
X1194440Y1147919D01*
X1194520Y1148380D01*
X1194669Y1148840D01*
X1194859Y1149270D01*
X1195110Y1149679D01*
X1195399Y1150050D01*
X1195739Y1150390D01*
X1196109Y1150680D01*
X1196520Y1150929D01*
X1196949Y1151120D01*
X1197399Y1151260D01*
X1197870Y1151350D01*
X1198350Y1151379D01*
X1241649Y1151379D01*
X1242129Y1151350D01*
X1242600Y1151260D01*
X1243050Y1151120D01*
X1243479Y1150929D01*
X1243890Y1150680D01*
X1244260Y1150390D01*
X1244600Y1150050D01*
X1244889Y1149679D01*
X1245140Y1149270D01*
X1245330Y1148840D01*
X1245479Y1148380D01*
X1245559Y1147919D01*
X1245590Y1147440D01*
X1245590Y1123820D01*
X1245559Y1123339D01*
X1245479Y1122880D01*
X1245330Y1122420D01*
X1245140Y1121990D01*
X1244889Y1121579D01*
X1244600Y1121210D01*
X1244260Y1120870D01*
X1243890Y1120580D01*
X1243479Y1120329D01*
X1243050Y1120140D01*
X1242600Y1120000D01*
X1242129Y1119909D01*
X1241649Y1119879D01*
G37*
G36*
X1198350Y1198620D02*
G01*
X1197870Y1198649D01*
X1197399Y1198739D01*
X1196949Y1198879D01*
X1196520Y1199070D01*
X1196109Y1199319D01*
X1195739Y1199609D01*
X1195399Y1199949D01*
X1195110Y1200320D01*
X1194859Y1200729D01*
X1194669Y1201159D01*
X1194520Y1201619D01*
X1194440Y1202080D01*
X1194409Y1202559D01*
X1194409Y1226179D01*
X1194440Y1226660D01*
X1194520Y1227120D01*
X1194669Y1227579D01*
X1194859Y1228009D01*
X1195110Y1228420D01*
X1195399Y1228789D01*
X1195739Y1229130D01*
X1196109Y1229420D01*
X1196520Y1229670D01*
X1196949Y1229859D01*
X1197399Y1230000D01*
X1197870Y1230090D01*
X1198350Y1230120D01*
X1241649Y1230120D01*
X1242129Y1230090D01*
X1242600Y1230000D01*
X1243050Y1229859D01*
X1243479Y1229670D01*
X1243890Y1229420D01*
X1244260Y1229130D01*
X1244600Y1228789D01*
X1244889Y1228420D01*
X1245140Y1228009D01*
X1245330Y1227579D01*
X1245479Y1227120D01*
X1245559Y1226660D01*
X1245590Y1226179D01*
X1245590Y1202559D01*
X1245559Y1202080D01*
X1245479Y1201619D01*
X1245330Y1201159D01*
X1245140Y1200729D01*
X1244889Y1200320D01*
X1244600Y1199949D01*
X1244260Y1199609D01*
X1243890Y1199319D01*
X1243479Y1199070D01*
X1243050Y1198879D01*
X1242600Y1198739D01*
X1242129Y1198649D01*
X1241649Y1198620D01*
G37*
G36*
X1064880Y1156649D02*
G01*
X1064909Y1157130D01*
X1065000Y1157600D01*
X1065140Y1158049D01*
X1065330Y1158479D01*
X1065580Y1158890D01*
X1065870Y1159259D01*
X1066210Y1159600D01*
X1066580Y1159890D01*
X1066989Y1160140D01*
X1067420Y1160329D01*
X1067879Y1160479D01*
X1068339Y1160559D01*
X1068819Y1160590D01*
X1092439Y1160590D01*
X1092920Y1160559D01*
X1093379Y1160479D01*
X1093840Y1160329D01*
X1094269Y1160140D01*
X1094679Y1159890D01*
X1095050Y1159600D01*
X1095389Y1159259D01*
X1095680Y1158890D01*
X1095929Y1158479D01*
X1096120Y1158049D01*
X1096260Y1157600D01*
X1096350Y1157130D01*
X1096379Y1156649D01*
X1096379Y1113350D01*
X1096350Y1112869D01*
X1096260Y1112399D01*
X1096120Y1111950D01*
X1095929Y1111520D01*
X1095680Y1111109D01*
X1095389Y1110740D01*
X1095050Y1110399D01*
X1094679Y1110109D01*
X1094269Y1109859D01*
X1093840Y1109670D01*
X1093379Y1109520D01*
X1092920Y1109440D01*
X1092439Y1109409D01*
X1068819Y1109409D01*
X1068339Y1109440D01*
X1067879Y1109520D01*
X1067420Y1109670D01*
X1066989Y1109859D01*
X1066580Y1110109D01*
X1066210Y1110399D01*
X1065870Y1110740D01*
X1065580Y1111109D01*
X1065330Y1111520D01*
X1065140Y1111950D01*
X1065000Y1112399D01*
X1064909Y1112869D01*
X1064880Y1113350D01*
G37*
G36*
X1143620Y1156649D02*
G01*
X1143649Y1157130D01*
X1143739Y1157600D01*
X1143879Y1158049D01*
X1144070Y1158479D01*
X1144319Y1158890D01*
X1144610Y1159259D01*
X1144949Y1159600D01*
X1145320Y1159890D01*
X1145730Y1160140D01*
X1146159Y1160329D01*
X1146620Y1160479D01*
X1147079Y1160559D01*
X1147560Y1160590D01*
X1171180Y1160590D01*
X1171660Y1160559D01*
X1172120Y1160479D01*
X1172579Y1160329D01*
X1173010Y1160140D01*
X1173419Y1159890D01*
X1173789Y1159600D01*
X1174129Y1159259D01*
X1174420Y1158890D01*
X1174669Y1158479D01*
X1174859Y1158049D01*
X1175000Y1157600D01*
X1175090Y1157130D01*
X1175119Y1156649D01*
X1175119Y1113350D01*
X1175090Y1112869D01*
X1175000Y1112399D01*
X1174859Y1111950D01*
X1174669Y1111520D01*
X1174420Y1111109D01*
X1174129Y1110740D01*
X1173789Y1110399D01*
X1173419Y1110109D01*
X1173010Y1109859D01*
X1172579Y1109670D01*
X1172120Y1109520D01*
X1171660Y1109440D01*
X1171180Y1109409D01*
X1147560Y1109409D01*
X1147079Y1109440D01*
X1146620Y1109520D01*
X1146159Y1109670D01*
X1145730Y1109859D01*
X1145320Y1110109D01*
X1144949Y1110399D01*
X1144610Y1110740D01*
X1144319Y1111109D01*
X1144070Y1111520D01*
X1143879Y1111950D01*
X1143739Y1112399D01*
X1143649Y1112869D01*
X1143620Y1113350D01*
G37*
G36*
X2418350Y1044879D02*
G01*
X2417870Y1044909D01*
X2417399Y1045000D01*
X2416949Y1045140D01*
X2416520Y1045329D01*
X2416109Y1045579D01*
X2415739Y1045869D01*
X2415399Y1046210D01*
X2415110Y1046579D01*
X2414859Y1046990D01*
X2414669Y1047420D01*
X2414520Y1047880D01*
X2414440Y1048339D01*
X2414409Y1048820D01*
X2414409Y1072440D01*
X2414440Y1072919D01*
X2414520Y1073380D01*
X2414669Y1073840D01*
X2414859Y1074270D01*
X2415110Y1074679D01*
X2415399Y1075050D01*
X2415739Y1075390D01*
X2416109Y1075680D01*
X2416520Y1075929D01*
X2416949Y1076120D01*
X2417399Y1076260D01*
X2417870Y1076350D01*
X2418350Y1076379D01*
X2461649Y1076379D01*
X2462129Y1076350D01*
X2462600Y1076260D01*
X2463050Y1076120D01*
X2463479Y1075929D01*
X2463890Y1075680D01*
X2464260Y1075390D01*
X2464600Y1075050D01*
X2464889Y1074679D01*
X2465140Y1074270D01*
X2465330Y1073840D01*
X2465479Y1073380D01*
X2465559Y1072919D01*
X2465590Y1072440D01*
X2465590Y1048820D01*
X2465559Y1048339D01*
X2465479Y1047880D01*
X2465330Y1047420D01*
X2465140Y1046990D01*
X2464889Y1046579D01*
X2464600Y1046210D01*
X2464260Y1045869D01*
X2463890Y1045579D01*
X2463479Y1045329D01*
X2463050Y1045140D01*
X2462600Y1045000D01*
X2462129Y1044909D01*
X2461649Y1044879D01*
G37*
G36*
X2418350Y1123620D02*
G01*
X2417870Y1123649D01*
X2417399Y1123739D01*
X2416949Y1123879D01*
X2416520Y1124070D01*
X2416109Y1124319D01*
X2415739Y1124609D01*
X2415399Y1124949D01*
X2415110Y1125320D01*
X2414859Y1125729D01*
X2414669Y1126159D01*
X2414520Y1126619D01*
X2414440Y1127080D01*
X2414409Y1127559D01*
X2414409Y1151179D01*
X2414440Y1151660D01*
X2414520Y1152120D01*
X2414669Y1152579D01*
X2414859Y1153009D01*
X2415110Y1153420D01*
X2415399Y1153789D01*
X2415739Y1154130D01*
X2416109Y1154420D01*
X2416520Y1154670D01*
X2416949Y1154859D01*
X2417399Y1155000D01*
X2417870Y1155090D01*
X2418350Y1155120D01*
X2461649Y1155120D01*
X2462129Y1155090D01*
X2462600Y1155000D01*
X2463050Y1154859D01*
X2463479Y1154670D01*
X2463890Y1154420D01*
X2464260Y1154130D01*
X2464600Y1153789D01*
X2464889Y1153420D01*
X2465140Y1153009D01*
X2465330Y1152579D01*
X2465479Y1152120D01*
X2465559Y1151660D01*
X2465590Y1151179D01*
X2465590Y1127559D01*
X2465559Y1127080D01*
X2465479Y1126619D01*
X2465330Y1126159D01*
X2465140Y1125729D01*
X2464889Y1125320D01*
X2464600Y1124949D01*
X2464260Y1124609D01*
X2463890Y1124319D01*
X2463479Y1124070D01*
X2463050Y1123879D01*
X2462600Y1123739D01*
X2462129Y1123649D01*
X2461649Y1123620D01*
G37*
G36*
X2418350Y919879D02*
G01*
X2417870Y919909D01*
X2417399Y920000D01*
X2416949Y920140D01*
X2416520Y920329D01*
X2416109Y920579D01*
X2415739Y920869D01*
X2415399Y921210D01*
X2415110Y921579D01*
X2414859Y921990D01*
X2414669Y922420D01*
X2414520Y922880D01*
X2414440Y923339D01*
X2414409Y923820D01*
X2414409Y947440D01*
X2414440Y947919D01*
X2414520Y948380D01*
X2414669Y948840D01*
X2414859Y949270D01*
X2415110Y949679D01*
X2415399Y950050D01*
X2415739Y950390D01*
X2416109Y950680D01*
X2416520Y950929D01*
X2416949Y951120D01*
X2417399Y951260D01*
X2417870Y951350D01*
X2418350Y951379D01*
X2461649Y951379D01*
X2462129Y951350D01*
X2462600Y951260D01*
X2463050Y951120D01*
X2463479Y950929D01*
X2463890Y950680D01*
X2464260Y950390D01*
X2464600Y950050D01*
X2464889Y949679D01*
X2465140Y949270D01*
X2465330Y948840D01*
X2465479Y948380D01*
X2465559Y947919D01*
X2465590Y947440D01*
X2465590Y923820D01*
X2465559Y923339D01*
X2465479Y922880D01*
X2465330Y922420D01*
X2465140Y921990D01*
X2464889Y921579D01*
X2464600Y921210D01*
X2464260Y920869D01*
X2463890Y920579D01*
X2463479Y920329D01*
X2463050Y920140D01*
X2462600Y920000D01*
X2462129Y919909D01*
X2461649Y919879D01*
G37*
G36*
X2418350Y998620D02*
G01*
X2417870Y998649D01*
X2417399Y998739D01*
X2416949Y998879D01*
X2416520Y999070D01*
X2416109Y999319D01*
X2415739Y999609D01*
X2415399Y999949D01*
X2415110Y1000320D01*
X2414859Y1000729D01*
X2414669Y1001159D01*
X2414520Y1001619D01*
X2414440Y1002080D01*
X2414409Y1002559D01*
X2414409Y1026179D01*
X2414440Y1026660D01*
X2414520Y1027119D01*
X2414669Y1027579D01*
X2414859Y1028009D01*
X2415110Y1028420D01*
X2415399Y1028789D01*
X2415739Y1029130D01*
X2416109Y1029420D01*
X2416520Y1029670D01*
X2416949Y1029859D01*
X2417399Y1030000D01*
X2417870Y1030090D01*
X2418350Y1030120D01*
X2461649Y1030120D01*
X2462129Y1030090D01*
X2462600Y1030000D01*
X2463050Y1029859D01*
X2463479Y1029670D01*
X2463890Y1029420D01*
X2464260Y1029130D01*
X2464600Y1028789D01*
X2464889Y1028420D01*
X2465140Y1028009D01*
X2465330Y1027579D01*
X2465479Y1027119D01*
X2465559Y1026660D01*
X2465590Y1026179D01*
X2465590Y1002559D01*
X2465559Y1002080D01*
X2465479Y1001619D01*
X2465330Y1001159D01*
X2465140Y1000729D01*
X2464889Y1000320D01*
X2464600Y999949D01*
X2464260Y999609D01*
X2463890Y999319D01*
X2463479Y999070D01*
X2463050Y998879D01*
X2462600Y998739D01*
X2462129Y998649D01*
X2461649Y998620D01*
G37*
G36*
X2260119Y528350D02*
G01*
X2260090Y527869D01*
X2260000Y527399D01*
X2259859Y526950D01*
X2259669Y526520D01*
X2259420Y526109D01*
X2259129Y525740D01*
X2258789Y525399D01*
X2258419Y525109D01*
X2258010Y524859D01*
X2257579Y524670D01*
X2257120Y524520D01*
X2256660Y524440D01*
X2256180Y524409D01*
X2232560Y524409D01*
X2232079Y524440D01*
X2231620Y524520D01*
X2231160Y524670D01*
X2230730Y524859D01*
X2230320Y525109D01*
X2229949Y525399D01*
X2229610Y525740D01*
X2229319Y526109D01*
X2229070Y526520D01*
X2228879Y526950D01*
X2228739Y527399D01*
X2228649Y527869D01*
X2228620Y528350D01*
X2228620Y571649D01*
X2228649Y572130D01*
X2228739Y572600D01*
X2228879Y573049D01*
X2229070Y573479D01*
X2229319Y573890D01*
X2229610Y574259D01*
X2229949Y574600D01*
X2230320Y574890D01*
X2230730Y575140D01*
X2231160Y575329D01*
X2231620Y575479D01*
X2232079Y575559D01*
X2232560Y575590D01*
X2256180Y575590D01*
X2256660Y575559D01*
X2257120Y575479D01*
X2257579Y575329D01*
X2258010Y575140D01*
X2258419Y574890D01*
X2258789Y574600D01*
X2259129Y574259D01*
X2259420Y573890D01*
X2259669Y573479D01*
X2259859Y573049D01*
X2260000Y572600D01*
X2260090Y572130D01*
X2260119Y571649D01*
G37*
G36*
X2181379Y528350D02*
G01*
X2181350Y527869D01*
X2181260Y527399D01*
X2181120Y526950D01*
X2180929Y526520D01*
X2180680Y526109D01*
X2180389Y525740D01*
X2180050Y525399D01*
X2179679Y525109D01*
X2179269Y524859D01*
X2178840Y524670D01*
X2178379Y524520D01*
X2177920Y524440D01*
X2177439Y524409D01*
X2153819Y524409D01*
X2153339Y524440D01*
X2152879Y524520D01*
X2152420Y524670D01*
X2151989Y524859D01*
X2151580Y525109D01*
X2151210Y525399D01*
X2150870Y525740D01*
X2150580Y526109D01*
X2150330Y526520D01*
X2150140Y526950D01*
X2150000Y527399D01*
X2149910Y527869D01*
X2149880Y528350D01*
X2149880Y571649D01*
X2149910Y572130D01*
X2150000Y572600D01*
X2150140Y573049D01*
X2150330Y573479D01*
X2150580Y573890D01*
X2150870Y574259D01*
X2151210Y574600D01*
X2151580Y574890D01*
X2151989Y575140D01*
X2152420Y575329D01*
X2152879Y575479D01*
X2153339Y575559D01*
X2153819Y575590D01*
X2177439Y575590D01*
X2177920Y575559D01*
X2178379Y575479D01*
X2178840Y575329D01*
X2179269Y575140D01*
X2179679Y574890D01*
X2180050Y574600D01*
X2180389Y574259D01*
X2180680Y573890D01*
X2180929Y573479D01*
X2181120Y573049D01*
X2181260Y572600D01*
X2181350Y572130D01*
X2181379Y571649D01*
G37*
G36*
X2136649Y430120D02*
G01*
X2137129Y430090D01*
X2137600Y430000D01*
X2138050Y429859D01*
X2138479Y429670D01*
X2138890Y429420D01*
X2139260Y429130D01*
X2139600Y428789D01*
X2139889Y428420D01*
X2140140Y428009D01*
X2140330Y427579D01*
X2140479Y427119D01*
X2140559Y426660D01*
X2140590Y426179D01*
X2140590Y402559D01*
X2140559Y402080D01*
X2140479Y401619D01*
X2140330Y401159D01*
X2140140Y400729D01*
X2139889Y400320D01*
X2139600Y399949D01*
X2139260Y399609D01*
X2138890Y399319D01*
X2138479Y399070D01*
X2138050Y398879D01*
X2137600Y398739D01*
X2137129Y398649D01*
X2136649Y398620D01*
X2093350Y398620D01*
X2092870Y398649D01*
X2092399Y398739D01*
X2091949Y398879D01*
X2091520Y399070D01*
X2091109Y399319D01*
X2090739Y399609D01*
X2090399Y399949D01*
X2090110Y400320D01*
X2089859Y400729D01*
X2089669Y401159D01*
X2089520Y401619D01*
X2089440Y402080D01*
X2089409Y402559D01*
X2089409Y426179D01*
X2089440Y426660D01*
X2089520Y427119D01*
X2089669Y427579D01*
X2089859Y428009D01*
X2090110Y428420D01*
X2090399Y428789D01*
X2090739Y429130D01*
X2091109Y429420D01*
X2091520Y429670D01*
X2091949Y429859D01*
X2092399Y430000D01*
X2092870Y430090D01*
X2093350Y430120D01*
G37*
G36*
X2136649Y351379D02*
G01*
X2137129Y351350D01*
X2137600Y351260D01*
X2138050Y351120D01*
X2138479Y350929D01*
X2138890Y350680D01*
X2139260Y350390D01*
X2139600Y350050D01*
X2139889Y349679D01*
X2140140Y349270D01*
X2140330Y348840D01*
X2140479Y348380D01*
X2140559Y347919D01*
X2140590Y347440D01*
X2140590Y323820D01*
X2140559Y323339D01*
X2140479Y322880D01*
X2140330Y322420D01*
X2140140Y321990D01*
X2139889Y321579D01*
X2139600Y321210D01*
X2139260Y320869D01*
X2138890Y320579D01*
X2138479Y320329D01*
X2138050Y320140D01*
X2137600Y320000D01*
X2137129Y319909D01*
X2136649Y319879D01*
X2093350Y319879D01*
X2092870Y319909D01*
X2092399Y320000D01*
X2091949Y320140D01*
X2091520Y320329D01*
X2091109Y320579D01*
X2090739Y320869D01*
X2090399Y321210D01*
X2090110Y321579D01*
X2089859Y321990D01*
X2089669Y322420D01*
X2089520Y322880D01*
X2089440Y323339D01*
X2089409Y323820D01*
X2089409Y347440D01*
X2089440Y347919D01*
X2089520Y348380D01*
X2089669Y348840D01*
X2089859Y349270D01*
X2090110Y349679D01*
X2090399Y350050D01*
X2090739Y350390D01*
X2091109Y350680D01*
X2091520Y350929D01*
X2091949Y351120D01*
X2092399Y351260D01*
X2092870Y351350D01*
X2093350Y351379D01*
G37*
G36*
X819880Y1271649D02*
G01*
X819909Y1272130D01*
X820000Y1272600D01*
X820140Y1273049D01*
X820330Y1273479D01*
X820579Y1273890D01*
X820870Y1274259D01*
X821210Y1274600D01*
X821580Y1274890D01*
X821989Y1275140D01*
X822420Y1275329D01*
X822879Y1275479D01*
X823339Y1275559D01*
X823819Y1275590D01*
X847439Y1275590D01*
X847920Y1275559D01*
X848379Y1275479D01*
X848840Y1275329D01*
X849269Y1275140D01*
X849679Y1274890D01*
X850050Y1274600D01*
X850389Y1274259D01*
X850680Y1273890D01*
X850929Y1273479D01*
X851120Y1273049D01*
X851260Y1272600D01*
X851350Y1272130D01*
X851379Y1271649D01*
X851379Y1228350D01*
X851350Y1227869D01*
X851260Y1227399D01*
X851120Y1226950D01*
X850929Y1226520D01*
X850680Y1226109D01*
X850389Y1225740D01*
X850050Y1225399D01*
X849679Y1225109D01*
X849269Y1224859D01*
X848840Y1224670D01*
X848379Y1224520D01*
X847920Y1224440D01*
X847439Y1224409D01*
X823819Y1224409D01*
X823339Y1224440D01*
X822879Y1224520D01*
X822420Y1224670D01*
X821989Y1224859D01*
X821580Y1225109D01*
X821210Y1225399D01*
X820870Y1225740D01*
X820579Y1226109D01*
X820330Y1226520D01*
X820140Y1226950D01*
X820000Y1227399D01*
X819909Y1227869D01*
X819880Y1228350D01*
G37*
G36*
X898620Y1271649D02*
G01*
X898649Y1272130D01*
X898739Y1272600D01*
X898879Y1273049D01*
X899070Y1273479D01*
X899319Y1273890D01*
X899610Y1274259D01*
X899949Y1274600D01*
X900320Y1274890D01*
X900730Y1275140D01*
X901159Y1275329D01*
X901620Y1275479D01*
X902079Y1275559D01*
X902560Y1275590D01*
X926180Y1275590D01*
X926660Y1275559D01*
X927120Y1275479D01*
X927579Y1275329D01*
X928010Y1275140D01*
X928419Y1274890D01*
X928789Y1274600D01*
X929129Y1274259D01*
X929420Y1273890D01*
X929669Y1273479D01*
X929859Y1273049D01*
X930000Y1272600D01*
X930090Y1272130D01*
X930119Y1271649D01*
X930119Y1228350D01*
X930090Y1227869D01*
X930000Y1227399D01*
X929859Y1226950D01*
X929669Y1226520D01*
X929420Y1226109D01*
X929129Y1225740D01*
X928789Y1225399D01*
X928419Y1225109D01*
X928010Y1224859D01*
X927579Y1224670D01*
X927120Y1224520D01*
X926660Y1224440D01*
X926180Y1224409D01*
X902560Y1224409D01*
X902079Y1224440D01*
X901620Y1224520D01*
X901159Y1224670D01*
X900730Y1224859D01*
X900320Y1225109D01*
X899949Y1225399D01*
X899610Y1225740D01*
X899319Y1226109D01*
X899070Y1226520D01*
X898879Y1226950D01*
X898739Y1227399D01*
X898649Y1227869D01*
X898620Y1228350D01*
G37*
G36*
X629879Y1276649D02*
G01*
X629909Y1277130D01*
X630000Y1277600D01*
X630140Y1278049D01*
X630329Y1278479D01*
X630579Y1278890D01*
X630869Y1279259D01*
X631210Y1279600D01*
X631579Y1279890D01*
X631990Y1280140D01*
X632420Y1280329D01*
X632880Y1280479D01*
X633339Y1280559D01*
X633820Y1280590D01*
X657440Y1280590D01*
X657919Y1280559D01*
X658380Y1280479D01*
X658840Y1280329D01*
X659270Y1280140D01*
X659679Y1279890D01*
X660050Y1279600D01*
X660390Y1279259D01*
X660680Y1278890D01*
X660929Y1278479D01*
X661120Y1278049D01*
X661260Y1277600D01*
X661350Y1277130D01*
X661379Y1276649D01*
X661379Y1233350D01*
X661350Y1232869D01*
X661260Y1232399D01*
X661120Y1231950D01*
X660929Y1231520D01*
X660680Y1231109D01*
X660390Y1230740D01*
X660050Y1230399D01*
X659679Y1230109D01*
X659270Y1229859D01*
X658840Y1229670D01*
X658380Y1229520D01*
X657919Y1229440D01*
X657440Y1229409D01*
X633820Y1229409D01*
X633339Y1229440D01*
X632880Y1229520D01*
X632420Y1229670D01*
X631990Y1229859D01*
X631579Y1230109D01*
X631210Y1230399D01*
X630869Y1230740D01*
X630579Y1231109D01*
X630329Y1231520D01*
X630140Y1231950D01*
X630000Y1232399D01*
X629909Y1232869D01*
X629879Y1233350D01*
G37*
G36*
X708620Y1276649D02*
G01*
X708649Y1277130D01*
X708739Y1277600D01*
X708879Y1278049D01*
X709070Y1278479D01*
X709319Y1278890D01*
X709609Y1279259D01*
X709949Y1279600D01*
X710320Y1279890D01*
X710729Y1280140D01*
X711159Y1280329D01*
X711619Y1280479D01*
X712080Y1280559D01*
X712559Y1280590D01*
X736179Y1280590D01*
X736660Y1280559D01*
X737119Y1280479D01*
X737579Y1280329D01*
X738009Y1280140D01*
X738420Y1279890D01*
X738789Y1279600D01*
X739130Y1279259D01*
X739420Y1278890D01*
X739670Y1278479D01*
X739859Y1278049D01*
X740000Y1277600D01*
X740090Y1277130D01*
X740120Y1276649D01*
X740120Y1233350D01*
X740090Y1232869D01*
X740000Y1232399D01*
X739859Y1231950D01*
X739670Y1231520D01*
X739420Y1231109D01*
X739130Y1230740D01*
X738789Y1230399D01*
X738420Y1230109D01*
X738009Y1229859D01*
X737579Y1229670D01*
X737119Y1229520D01*
X736660Y1229440D01*
X736179Y1229409D01*
X712559Y1229409D01*
X712080Y1229440D01*
X711619Y1229520D01*
X711159Y1229670D01*
X710729Y1229859D01*
X710320Y1230109D01*
X709949Y1230399D01*
X709609Y1230740D01*
X709319Y1231109D01*
X709070Y1231520D01*
X708879Y1231950D01*
X708739Y1232399D01*
X708649Y1232869D01*
X708620Y1233350D01*
G37*
D11*
G01*
X647600Y1091379D03*
G01*
X722399Y1091379D03*
G01*
X685000Y1188620D03*
G01*
X837600Y1086379D03*
G01*
X912399Y1086379D03*
G01*
X875000Y1183620D03*
G36*
X740120Y1003350D02*
G01*
X740090Y1002869D01*
X740000Y1002399D01*
X739859Y1001950D01*
X739670Y1001520D01*
X739420Y1001109D01*
X739130Y1000740D01*
X738789Y1000399D01*
X738420Y1000109D01*
X738009Y999859D01*
X737579Y999670D01*
X737119Y999520D01*
X736660Y999440D01*
X736179Y999409D01*
X712559Y999409D01*
X712080Y999440D01*
X711619Y999520D01*
X711159Y999670D01*
X710729Y999859D01*
X710320Y1000109D01*
X709949Y1000399D01*
X709609Y1000740D01*
X709319Y1001109D01*
X709070Y1001520D01*
X708879Y1001950D01*
X708739Y1002399D01*
X708649Y1002869D01*
X708620Y1003350D01*
X708620Y1046649D01*
X708649Y1047130D01*
X708739Y1047600D01*
X708879Y1048049D01*
X709070Y1048479D01*
X709319Y1048890D01*
X709609Y1049259D01*
X709949Y1049600D01*
X710320Y1049890D01*
X710729Y1050140D01*
X711159Y1050329D01*
X711619Y1050479D01*
X712080Y1050559D01*
X712559Y1050590D01*
X736179Y1050590D01*
X736660Y1050559D01*
X737119Y1050479D01*
X737579Y1050329D01*
X738009Y1050140D01*
X738420Y1049890D01*
X738789Y1049600D01*
X739130Y1049259D01*
X739420Y1048890D01*
X739670Y1048479D01*
X739859Y1048049D01*
X740000Y1047600D01*
X740090Y1047130D01*
X740120Y1046649D01*
G37*
G36*
X661379Y1003350D02*
G01*
X661350Y1002869D01*
X661260Y1002399D01*
X661120Y1001950D01*
X660929Y1001520D01*
X660680Y1001109D01*
X660390Y1000740D01*
X660050Y1000399D01*
X659679Y1000109D01*
X659270Y999859D01*
X658840Y999670D01*
X658380Y999520D01*
X657919Y999440D01*
X657440Y999409D01*
X633820Y999409D01*
X633339Y999440D01*
X632880Y999520D01*
X632420Y999670D01*
X631990Y999859D01*
X631579Y1000109D01*
X631210Y1000399D01*
X630869Y1000740D01*
X630579Y1001109D01*
X630329Y1001520D01*
X630140Y1001950D01*
X630000Y1002399D01*
X629909Y1002869D01*
X629879Y1003350D01*
X629879Y1046649D01*
X629909Y1047130D01*
X630000Y1047600D01*
X630140Y1048049D01*
X630329Y1048479D01*
X630579Y1048890D01*
X630869Y1049259D01*
X631210Y1049600D01*
X631579Y1049890D01*
X631990Y1050140D01*
X632420Y1050329D01*
X632880Y1050479D01*
X633339Y1050559D01*
X633820Y1050590D01*
X657440Y1050590D01*
X657919Y1050559D01*
X658380Y1050479D01*
X658840Y1050329D01*
X659270Y1050140D01*
X659679Y1049890D01*
X660050Y1049600D01*
X660390Y1049259D01*
X660680Y1048890D01*
X660929Y1048479D01*
X661120Y1048049D01*
X661260Y1047600D01*
X661350Y1047130D01*
X661379Y1046649D01*
G37*
G36*
X930119Y1003350D02*
G01*
X930090Y1002869D01*
X930000Y1002399D01*
X929859Y1001950D01*
X929669Y1001520D01*
X929420Y1001109D01*
X929129Y1000740D01*
X928789Y1000399D01*
X928419Y1000109D01*
X928010Y999859D01*
X927579Y999670D01*
X927120Y999520D01*
X926660Y999440D01*
X926180Y999409D01*
X902560Y999409D01*
X902079Y999440D01*
X901620Y999520D01*
X901159Y999670D01*
X900730Y999859D01*
X900320Y1000109D01*
X899949Y1000399D01*
X899610Y1000740D01*
X899319Y1001109D01*
X899070Y1001520D01*
X898879Y1001950D01*
X898739Y1002399D01*
X898649Y1002869D01*
X898620Y1003350D01*
X898620Y1046649D01*
X898649Y1047130D01*
X898739Y1047600D01*
X898879Y1048049D01*
X899070Y1048479D01*
X899319Y1048890D01*
X899610Y1049259D01*
X899949Y1049600D01*
X900320Y1049890D01*
X900730Y1050140D01*
X901159Y1050329D01*
X901620Y1050479D01*
X902079Y1050559D01*
X902560Y1050590D01*
X926180Y1050590D01*
X926660Y1050559D01*
X927120Y1050479D01*
X927579Y1050329D01*
X928010Y1050140D01*
X928419Y1049890D01*
X928789Y1049600D01*
X929129Y1049259D01*
X929420Y1048890D01*
X929669Y1048479D01*
X929859Y1048049D01*
X930000Y1047600D01*
X930090Y1047130D01*
X930119Y1046649D01*
G37*
G36*
X851379Y1003350D02*
G01*
X851350Y1002869D01*
X851260Y1002399D01*
X851120Y1001950D01*
X850929Y1001520D01*
X850680Y1001109D01*
X850389Y1000740D01*
X850050Y1000399D01*
X849679Y1000109D01*
X849269Y999859D01*
X848840Y999670D01*
X848379Y999520D01*
X847920Y999440D01*
X847439Y999409D01*
X823819Y999409D01*
X823339Y999440D01*
X822879Y999520D01*
X822420Y999670D01*
X821989Y999859D01*
X821580Y1000109D01*
X821210Y1000399D01*
X820870Y1000740D01*
X820579Y1001109D01*
X820330Y1001520D01*
X820140Y1001950D01*
X820000Y1002399D01*
X819909Y1002869D01*
X819880Y1003350D01*
X819880Y1046649D01*
X819909Y1047130D01*
X820000Y1047600D01*
X820140Y1048049D01*
X820330Y1048479D01*
X820579Y1048890D01*
X820870Y1049259D01*
X821210Y1049600D01*
X821580Y1049890D01*
X821989Y1050140D01*
X822420Y1050329D01*
X822879Y1050479D01*
X823339Y1050559D01*
X823819Y1050590D01*
X847439Y1050590D01*
X847920Y1050559D01*
X848379Y1050479D01*
X848840Y1050329D01*
X849269Y1050140D01*
X849679Y1049890D01*
X850050Y1049600D01*
X850389Y1049259D01*
X850680Y1048890D01*
X850929Y1048479D01*
X851120Y1048049D01*
X851260Y1047600D01*
X851350Y1047130D01*
X851379Y1046649D01*
G37*
D12*
G01*
X363310Y1250000D03*
G01*
X276689Y1250000D03*
G01*
X363310Y1096669D03*
G01*
X276689Y1096669D03*
D13*
G01*
X1360349Y1044690D03*
G01*
X1360349Y994690D03*
G01*
X1360349Y944690D03*
G01*
X1360349Y894690D03*
G01*
X1360349Y844690D03*
G01*
X1360349Y794690D03*
G01*
X1360349Y744690D03*
G01*
X1360349Y694690D03*
G01*
X1360349Y644690D03*
G01*
X1360349Y594690D03*
G01*
X1360349Y544690D03*
G01*
X1360349Y494690D03*
G01*
X1360349Y444690D03*
G01*
X1360349Y394690D03*
D14*
G01*
X1470000Y355309D03*
G01*
X1520000Y355309D03*
G01*
X1570000Y355309D03*
G01*
X1620000Y355309D03*
G01*
X1670000Y355309D03*
G01*
X1720000Y355309D03*
G01*
X1770000Y355309D03*
G01*
X1820000Y355309D03*
G01*
X1870000Y355309D03*
G01*
X1920000Y355309D03*
D13*
G01*
X2029650Y394690D03*
G01*
X2029650Y444690D03*
G01*
X2029650Y494690D03*
G01*
X2029650Y544690D03*
G01*
X2029650Y594690D03*
G01*
X2029650Y644690D03*
G01*
X2029650Y694690D03*
G01*
X2029650Y744690D03*
G01*
X2029650Y794690D03*
G01*
X2029650Y844690D03*
G01*
X2029650Y894690D03*
G01*
X2029650Y944690D03*
G01*
X2029650Y994690D03*
G01*
X2029650Y1044690D03*
D15*
G01*
X1655630Y749409D03*
G01*
X1583389Y749409D03*
G01*
X1727870Y749409D03*
G01*
X1727870Y821660D03*
G01*
X1655630Y821660D03*
G01*
X1583389Y821660D03*
G01*
X1583389Y677170D03*
G01*
X1655630Y677170D03*
G01*
X1727870Y677170D03*
G36*
X545120Y473350D02*
G01*
X545090Y472869D01*
X545000Y472399D01*
X544859Y471950D01*
X544670Y471520D01*
X544420Y471109D01*
X544130Y470740D01*
X543789Y470399D01*
X543420Y470109D01*
X543009Y469859D01*
X542579Y469670D01*
X542119Y469520D01*
X541660Y469440D01*
X541179Y469409D01*
X517559Y469409D01*
X517080Y469440D01*
X516619Y469520D01*
X516159Y469670D01*
X515729Y469859D01*
X515320Y470109D01*
X514949Y470399D01*
X514609Y470740D01*
X514319Y471109D01*
X514070Y471520D01*
X513879Y471950D01*
X513739Y472399D01*
X513649Y472869D01*
X513620Y473350D01*
X513620Y516649D01*
X513649Y517130D01*
X513739Y517600D01*
X513879Y518049D01*
X514070Y518479D01*
X514319Y518890D01*
X514609Y519259D01*
X514949Y519600D01*
X515320Y519890D01*
X515729Y520140D01*
X516159Y520329D01*
X516619Y520479D01*
X517080Y520559D01*
X517559Y520590D01*
X541179Y520590D01*
X541660Y520559D01*
X542119Y520479D01*
X542579Y520329D01*
X543009Y520140D01*
X543420Y519890D01*
X543789Y519600D01*
X544130Y519259D01*
X544420Y518890D01*
X544670Y518479D01*
X544859Y518049D01*
X545000Y517600D01*
X545090Y517130D01*
X545120Y516649D01*
G37*
G36*
X466379Y473350D02*
G01*
X466350Y472869D01*
X466260Y472399D01*
X466120Y471950D01*
X465929Y471520D01*
X465680Y471109D01*
X465390Y470740D01*
X465050Y470399D01*
X464679Y470109D01*
X464270Y469859D01*
X463840Y469670D01*
X463380Y469520D01*
X462919Y469440D01*
X462440Y469409D01*
X438820Y469409D01*
X438339Y469440D01*
X437880Y469520D01*
X437420Y469670D01*
X436990Y469859D01*
X436579Y470109D01*
X436210Y470399D01*
X435869Y470740D01*
X435579Y471109D01*
X435329Y471520D01*
X435140Y471950D01*
X435000Y472399D01*
X434909Y472869D01*
X434879Y473350D01*
X434879Y516649D01*
X434909Y517130D01*
X435000Y517600D01*
X435140Y518049D01*
X435329Y518479D01*
X435579Y518890D01*
X435869Y519259D01*
X436210Y519600D01*
X436579Y519890D01*
X436990Y520140D01*
X437420Y520329D01*
X437880Y520479D01*
X438339Y520559D01*
X438820Y520590D01*
X462440Y520590D01*
X462919Y520559D01*
X463380Y520479D01*
X463840Y520329D01*
X464270Y520140D01*
X464679Y519890D01*
X465050Y519600D01*
X465390Y519259D01*
X465680Y518890D01*
X465929Y518479D01*
X466120Y518049D01*
X466260Y517600D01*
X466350Y517130D01*
X466379Y516649D01*
G37*
G36*
X434879Y366649D02*
G01*
X434909Y367130D01*
X435000Y367600D01*
X435140Y368049D01*
X435329Y368479D01*
X435579Y368890D01*
X435869Y369259D01*
X436210Y369600D01*
X436579Y369890D01*
X436990Y370140D01*
X437420Y370329D01*
X437880Y370479D01*
X438339Y370559D01*
X438820Y370590D01*
X462440Y370590D01*
X462919Y370559D01*
X463380Y370479D01*
X463840Y370329D01*
X464270Y370140D01*
X464679Y369890D01*
X465050Y369600D01*
X465390Y369259D01*
X465680Y368890D01*
X465929Y368479D01*
X466120Y368049D01*
X466260Y367600D01*
X466350Y367130D01*
X466379Y366649D01*
X466379Y323350D01*
X466350Y322869D01*
X466260Y322399D01*
X466120Y321950D01*
X465929Y321520D01*
X465680Y321109D01*
X465390Y320740D01*
X465050Y320399D01*
X464679Y320109D01*
X464270Y319859D01*
X463840Y319670D01*
X463380Y319520D01*
X462919Y319440D01*
X462440Y319409D01*
X438820Y319409D01*
X438339Y319440D01*
X437880Y319520D01*
X437420Y319670D01*
X436990Y319859D01*
X436579Y320109D01*
X436210Y320399D01*
X435869Y320740D01*
X435579Y321109D01*
X435329Y321520D01*
X435140Y321950D01*
X435000Y322399D01*
X434909Y322869D01*
X434879Y323350D01*
G37*
G36*
X513620Y366649D02*
G01*
X513649Y367130D01*
X513739Y367600D01*
X513879Y368049D01*
X514070Y368479D01*
X514319Y368890D01*
X514609Y369259D01*
X514949Y369600D01*
X515320Y369890D01*
X515729Y370140D01*
X516159Y370329D01*
X516619Y370479D01*
X517080Y370559D01*
X517559Y370590D01*
X541179Y370590D01*
X541660Y370559D01*
X542119Y370479D01*
X542579Y370329D01*
X543009Y370140D01*
X543420Y369890D01*
X543789Y369600D01*
X544130Y369259D01*
X544420Y368890D01*
X544670Y368479D01*
X544859Y368049D01*
X545000Y367600D01*
X545090Y367130D01*
X545120Y366649D01*
X545120Y323350D01*
X545090Y322869D01*
X545000Y322399D01*
X544859Y321950D01*
X544670Y321520D01*
X544420Y321109D01*
X544130Y320740D01*
X543789Y320399D01*
X543420Y320109D01*
X543009Y319859D01*
X542579Y319670D01*
X542119Y319520D01*
X541660Y319440D01*
X541179Y319409D01*
X517559Y319409D01*
X517080Y319440D01*
X516619Y319520D01*
X516159Y319670D01*
X515729Y319859D01*
X515320Y320109D01*
X514949Y320399D01*
X514609Y320740D01*
X514319Y321109D01*
X514070Y321520D01*
X513879Y321950D01*
X513739Y322399D01*
X513649Y322869D01*
X513620Y323350D01*
G37*
D12*
G01*
X363310Y330000D03*
G01*
X276689Y330000D03*
G01*
X363310Y480000D03*
G01*
X276689Y480000D03*
G36*
X1706250Y1825000D02*
G01*
X1705649Y1825039D01*
X1705050Y1825149D01*
X1704480Y1825329D01*
X1703930Y1825569D01*
X1703410Y1825890D01*
X1702929Y1826260D01*
X1702510Y1826679D01*
X1702139Y1827159D01*
X1701819Y1827680D01*
X1701570Y1828229D01*
X1701400Y1828800D01*
X1701289Y1829400D01*
X1701250Y1830000D01*
X1701250Y1860000D01*
X1701289Y1860599D01*
X1701400Y1861199D01*
X1701570Y1861770D01*
X1701819Y1862319D01*
X1702139Y1862840D01*
X1702510Y1863320D01*
X1702929Y1863739D01*
X1703410Y1864109D01*
X1703930Y1864430D01*
X1704480Y1864679D01*
X1705050Y1864850D01*
X1705649Y1864960D01*
X1706250Y1865000D01*
X1751250Y1865000D01*
X1751850Y1864960D01*
X1752449Y1864850D01*
X1753019Y1864679D01*
X1753569Y1864430D01*
X1754089Y1864109D01*
X1754570Y1863739D01*
X1754989Y1863320D01*
X1755360Y1862840D01*
X1755680Y1862319D01*
X1755929Y1861770D01*
X1756099Y1861199D01*
X1756210Y1860599D01*
X1756250Y1860000D01*
X1756250Y1830000D01*
X1756210Y1829400D01*
X1756099Y1828800D01*
X1755929Y1828229D01*
X1755680Y1827680D01*
X1755360Y1827159D01*
X1754989Y1826679D01*
X1754570Y1826260D01*
X1754089Y1825890D01*
X1753569Y1825569D01*
X1753019Y1825329D01*
X1752449Y1825149D01*
X1751850Y1825039D01*
X1751250Y1825000D01*
G37*
G36*
X1706250Y1895000D02*
G01*
X1705649Y1895039D01*
X1705050Y1895149D01*
X1704480Y1895320D01*
X1703930Y1895569D01*
X1703410Y1895890D01*
X1702929Y1896260D01*
X1702510Y1896679D01*
X1702139Y1897159D01*
X1701819Y1897680D01*
X1701570Y1898229D01*
X1701400Y1898800D01*
X1701289Y1899400D01*
X1701250Y1900000D01*
X1701250Y1930000D01*
X1701289Y1930599D01*
X1701400Y1931199D01*
X1701570Y1931770D01*
X1701819Y1932319D01*
X1702139Y1932840D01*
X1702510Y1933320D01*
X1702929Y1933739D01*
X1703410Y1934109D01*
X1703930Y1934430D01*
X1704480Y1934670D01*
X1705050Y1934850D01*
X1705649Y1934960D01*
X1706250Y1935000D01*
X1751250Y1935000D01*
X1751850Y1934960D01*
X1752449Y1934850D01*
X1753019Y1934670D01*
X1753569Y1934430D01*
X1754089Y1934109D01*
X1754570Y1933739D01*
X1754989Y1933320D01*
X1755360Y1932840D01*
X1755680Y1932319D01*
X1755929Y1931770D01*
X1756099Y1931199D01*
X1756210Y1930599D01*
X1756250Y1930000D01*
X1756250Y1900000D01*
X1756210Y1899400D01*
X1756099Y1898800D01*
X1755929Y1898229D01*
X1755680Y1897680D01*
X1755360Y1897159D01*
X1754989Y1896679D01*
X1754570Y1896260D01*
X1754089Y1895890D01*
X1753569Y1895569D01*
X1753019Y1895320D01*
X1752449Y1895149D01*
X1751850Y1895039D01*
X1751250Y1895000D01*
G37*
G36*
X1620625Y1825000D02*
G01*
X1620024Y1825039D01*
X1619425Y1825149D01*
X1618855Y1825329D01*
X1618305Y1825569D01*
X1617785Y1825890D01*
X1617304Y1826260D01*
X1616885Y1826679D01*
X1616514Y1827159D01*
X1616194Y1827680D01*
X1615945Y1828229D01*
X1615775Y1828800D01*
X1615664Y1829400D01*
X1615625Y1830000D01*
X1615625Y1860000D01*
X1615664Y1860599D01*
X1615775Y1861199D01*
X1615945Y1861770D01*
X1616194Y1862319D01*
X1616514Y1862840D01*
X1616885Y1863320D01*
X1617304Y1863739D01*
X1617785Y1864109D01*
X1618305Y1864430D01*
X1618855Y1864679D01*
X1619425Y1864850D01*
X1620024Y1864960D01*
X1620625Y1865000D01*
X1665625Y1865000D01*
X1666225Y1864960D01*
X1666824Y1864850D01*
X1667394Y1864679D01*
X1667944Y1864430D01*
X1668464Y1864109D01*
X1668945Y1863739D01*
X1669364Y1863320D01*
X1669735Y1862840D01*
X1670055Y1862319D01*
X1670304Y1861770D01*
X1670474Y1861199D01*
X1670585Y1860599D01*
X1670625Y1860000D01*
X1670625Y1830000D01*
X1670585Y1829400D01*
X1670474Y1828800D01*
X1670304Y1828229D01*
X1670055Y1827680D01*
X1669735Y1827159D01*
X1669364Y1826679D01*
X1668945Y1826260D01*
X1668464Y1825890D01*
X1667944Y1825569D01*
X1667394Y1825329D01*
X1666824Y1825149D01*
X1666225Y1825039D01*
X1665625Y1825000D01*
G37*
G36*
X1620625Y1895000D02*
G01*
X1620024Y1895039D01*
X1619425Y1895149D01*
X1618855Y1895320D01*
X1618305Y1895569D01*
X1617785Y1895890D01*
X1617304Y1896260D01*
X1616885Y1896679D01*
X1616514Y1897159D01*
X1616194Y1897680D01*
X1615945Y1898229D01*
X1615775Y1898800D01*
X1615664Y1899400D01*
X1615625Y1900000D01*
X1615625Y1930000D01*
X1615664Y1930599D01*
X1615775Y1931199D01*
X1615945Y1931770D01*
X1616194Y1932319D01*
X1616514Y1932840D01*
X1616885Y1933320D01*
X1617304Y1933739D01*
X1617785Y1934109D01*
X1618305Y1934430D01*
X1618855Y1934670D01*
X1619425Y1934850D01*
X1620024Y1934960D01*
X1620625Y1935000D01*
X1665625Y1935000D01*
X1666225Y1934960D01*
X1666824Y1934850D01*
X1667394Y1934670D01*
X1667944Y1934430D01*
X1668464Y1934109D01*
X1668945Y1933739D01*
X1669364Y1933320D01*
X1669735Y1932840D01*
X1670055Y1932319D01*
X1670304Y1931770D01*
X1670474Y1931199D01*
X1670585Y1930599D01*
X1670625Y1930000D01*
X1670625Y1900000D01*
X1670585Y1899400D01*
X1670474Y1898800D01*
X1670304Y1898229D01*
X1670055Y1897680D01*
X1669735Y1897159D01*
X1669364Y1896679D01*
X1668945Y1896260D01*
X1668464Y1895890D01*
X1667944Y1895569D01*
X1667394Y1895320D01*
X1666824Y1895149D01*
X1666225Y1895039D01*
X1665625Y1895000D01*
G37*
G36*
X1017500Y1290000D02*
G01*
X1018100Y1289960D01*
X1018699Y1289850D01*
X1019269Y1289670D01*
X1019819Y1289430D01*
X1020339Y1289109D01*
X1020820Y1288739D01*
X1021239Y1288320D01*
X1021610Y1287840D01*
X1021930Y1287319D01*
X1022179Y1286770D01*
X1022349Y1286199D01*
X1022460Y1285599D01*
X1022500Y1285000D01*
X1022500Y1255000D01*
X1022460Y1254400D01*
X1022349Y1253800D01*
X1022179Y1253229D01*
X1021930Y1252680D01*
X1021610Y1252159D01*
X1021239Y1251679D01*
X1020820Y1251260D01*
X1020339Y1250890D01*
X1019819Y1250569D01*
X1019269Y1250320D01*
X1018699Y1250149D01*
X1018100Y1250039D01*
X1017500Y1250000D01*
X972500Y1250000D01*
X971899Y1250039D01*
X971300Y1250149D01*
X970730Y1250320D01*
X970180Y1250569D01*
X969660Y1250890D01*
X969179Y1251260D01*
X968760Y1251679D01*
X968389Y1252159D01*
X968069Y1252680D01*
X967820Y1253229D01*
X967650Y1253800D01*
X967539Y1254400D01*
X967500Y1255000D01*
X967500Y1285000D01*
X967539Y1285599D01*
X967650Y1286199D01*
X967820Y1286770D01*
X968069Y1287319D01*
X968389Y1287840D01*
X968760Y1288320D01*
X969179Y1288739D01*
X969660Y1289109D01*
X970180Y1289430D01*
X970730Y1289670D01*
X971300Y1289850D01*
X971899Y1289960D01*
X972500Y1290000D01*
G37*
G36*
X1017500Y1220000D02*
G01*
X1018100Y1219960D01*
X1018699Y1219850D01*
X1019269Y1219679D01*
X1019819Y1219430D01*
X1020339Y1219109D01*
X1020820Y1218739D01*
X1021239Y1218320D01*
X1021610Y1217840D01*
X1021930Y1217319D01*
X1022179Y1216770D01*
X1022349Y1216199D01*
X1022460Y1215599D01*
X1022500Y1215000D01*
X1022500Y1185000D01*
X1022460Y1184400D01*
X1022349Y1183800D01*
X1022179Y1183229D01*
X1021930Y1182680D01*
X1021610Y1182159D01*
X1021239Y1181679D01*
X1020820Y1181260D01*
X1020339Y1180890D01*
X1019819Y1180569D01*
X1019269Y1180329D01*
X1018699Y1180149D01*
X1018100Y1180039D01*
X1017500Y1180000D01*
X972500Y1180000D01*
X971899Y1180039D01*
X971300Y1180149D01*
X970730Y1180329D01*
X970180Y1180569D01*
X969660Y1180890D01*
X969179Y1181260D01*
X968760Y1181679D01*
X968389Y1182159D01*
X968069Y1182680D01*
X967820Y1183229D01*
X967650Y1183800D01*
X967539Y1184400D01*
X967500Y1185000D01*
X967500Y1215000D01*
X967539Y1215599D01*
X967650Y1216199D01*
X967820Y1216770D01*
X968069Y1217319D01*
X968389Y1217840D01*
X968760Y1218320D01*
X969179Y1218739D01*
X969660Y1219109D01*
X970180Y1219430D01*
X970730Y1219679D01*
X971300Y1219850D01*
X971899Y1219960D01*
X972500Y1220000D01*
G37*
G36*
X1877500Y1825000D02*
G01*
X1876899Y1825039D01*
X1876300Y1825149D01*
X1875730Y1825329D01*
X1875180Y1825569D01*
X1874660Y1825890D01*
X1874179Y1826260D01*
X1873760Y1826679D01*
X1873389Y1827159D01*
X1873069Y1827680D01*
X1872820Y1828229D01*
X1872650Y1828800D01*
X1872539Y1829400D01*
X1872500Y1830000D01*
X1872500Y1860000D01*
X1872539Y1860599D01*
X1872650Y1861199D01*
X1872820Y1861770D01*
X1873069Y1862319D01*
X1873389Y1862840D01*
X1873760Y1863320D01*
X1874179Y1863739D01*
X1874660Y1864109D01*
X1875180Y1864430D01*
X1875730Y1864679D01*
X1876300Y1864850D01*
X1876899Y1864960D01*
X1877500Y1865000D01*
X1922500Y1865000D01*
X1923100Y1864960D01*
X1923699Y1864850D01*
X1924269Y1864679D01*
X1924819Y1864430D01*
X1925339Y1864109D01*
X1925820Y1863739D01*
X1926239Y1863320D01*
X1926610Y1862840D01*
X1926930Y1862319D01*
X1927179Y1861770D01*
X1927349Y1861199D01*
X1927460Y1860599D01*
X1927500Y1860000D01*
X1927500Y1830000D01*
X1927460Y1829400D01*
X1927349Y1828800D01*
X1927179Y1828229D01*
X1926930Y1827680D01*
X1926610Y1827159D01*
X1926239Y1826679D01*
X1925820Y1826260D01*
X1925339Y1825890D01*
X1924819Y1825569D01*
X1924269Y1825329D01*
X1923699Y1825149D01*
X1923100Y1825039D01*
X1922500Y1825000D01*
G37*
G36*
X1877500Y1895000D02*
G01*
X1876899Y1895039D01*
X1876300Y1895149D01*
X1875730Y1895320D01*
X1875180Y1895569D01*
X1874660Y1895890D01*
X1874179Y1896260D01*
X1873760Y1896679D01*
X1873389Y1897159D01*
X1873069Y1897680D01*
X1872820Y1898229D01*
X1872650Y1898800D01*
X1872539Y1899400D01*
X1872500Y1900000D01*
X1872500Y1930000D01*
X1872539Y1930599D01*
X1872650Y1931199D01*
X1872820Y1931770D01*
X1873069Y1932319D01*
X1873389Y1932840D01*
X1873760Y1933320D01*
X1874179Y1933739D01*
X1874660Y1934109D01*
X1875180Y1934430D01*
X1875730Y1934670D01*
X1876300Y1934850D01*
X1876899Y1934960D01*
X1877500Y1935000D01*
X1922500Y1935000D01*
X1923100Y1934960D01*
X1923699Y1934850D01*
X1924269Y1934670D01*
X1924819Y1934430D01*
X1925339Y1934109D01*
X1925820Y1933739D01*
X1926239Y1933320D01*
X1926610Y1932840D01*
X1926930Y1932319D01*
X1927179Y1931770D01*
X1927349Y1931199D01*
X1927460Y1930599D01*
X1927500Y1930000D01*
X1927500Y1900000D01*
X1927460Y1899400D01*
X1927349Y1898800D01*
X1927179Y1898229D01*
X1926930Y1897680D01*
X1926610Y1897159D01*
X1926239Y1896679D01*
X1925820Y1896260D01*
X1925339Y1895890D01*
X1924819Y1895569D01*
X1924269Y1895320D01*
X1923699Y1895149D01*
X1923100Y1895039D01*
X1922500Y1895000D01*
G37*
G36*
X1791875Y1825000D02*
G01*
X1791274Y1825039D01*
X1790675Y1825149D01*
X1790105Y1825329D01*
X1789555Y1825569D01*
X1789035Y1825890D01*
X1788554Y1826260D01*
X1788135Y1826679D01*
X1787764Y1827159D01*
X1787444Y1827680D01*
X1787195Y1828229D01*
X1787025Y1828800D01*
X1786914Y1829400D01*
X1786875Y1830000D01*
X1786875Y1860000D01*
X1786914Y1860599D01*
X1787025Y1861199D01*
X1787195Y1861770D01*
X1787444Y1862319D01*
X1787764Y1862840D01*
X1788135Y1863320D01*
X1788554Y1863739D01*
X1789035Y1864109D01*
X1789555Y1864430D01*
X1790105Y1864679D01*
X1790675Y1864850D01*
X1791274Y1864960D01*
X1791875Y1865000D01*
X1836875Y1865000D01*
X1837475Y1864960D01*
X1838074Y1864850D01*
X1838644Y1864679D01*
X1839194Y1864430D01*
X1839714Y1864109D01*
X1840195Y1863739D01*
X1840614Y1863320D01*
X1840985Y1862840D01*
X1841305Y1862319D01*
X1841554Y1861770D01*
X1841724Y1861199D01*
X1841835Y1860599D01*
X1841875Y1860000D01*
X1841875Y1830000D01*
X1841835Y1829400D01*
X1841724Y1828800D01*
X1841554Y1828229D01*
X1841305Y1827680D01*
X1840985Y1827159D01*
X1840614Y1826679D01*
X1840195Y1826260D01*
X1839714Y1825890D01*
X1839194Y1825569D01*
X1838644Y1825329D01*
X1838074Y1825149D01*
X1837475Y1825039D01*
X1836875Y1825000D01*
G37*
G36*
X1791875Y1895000D02*
G01*
X1791274Y1895039D01*
X1790675Y1895149D01*
X1790105Y1895320D01*
X1789555Y1895569D01*
X1789035Y1895890D01*
X1788554Y1896260D01*
X1788135Y1896679D01*
X1787764Y1897159D01*
X1787444Y1897680D01*
X1787195Y1898229D01*
X1787025Y1898800D01*
X1786914Y1899400D01*
X1786875Y1900000D01*
X1786875Y1930000D01*
X1786914Y1930599D01*
X1787025Y1931199D01*
X1787195Y1931770D01*
X1787444Y1932319D01*
X1787764Y1932840D01*
X1788135Y1933320D01*
X1788554Y1933739D01*
X1789035Y1934109D01*
X1789555Y1934430D01*
X1790105Y1934670D01*
X1790675Y1934850D01*
X1791274Y1934960D01*
X1791875Y1935000D01*
X1836875Y1935000D01*
X1837475Y1934960D01*
X1838074Y1934850D01*
X1838644Y1934670D01*
X1839194Y1934430D01*
X1839714Y1934109D01*
X1840195Y1933739D01*
X1840614Y1933320D01*
X1840985Y1932840D01*
X1841305Y1932319D01*
X1841554Y1931770D01*
X1841724Y1931199D01*
X1841835Y1930599D01*
X1841875Y1930000D01*
X1841875Y1900000D01*
X1841835Y1899400D01*
X1841724Y1898800D01*
X1841554Y1898229D01*
X1841305Y1897680D01*
X1840985Y1897159D01*
X1840614Y1896679D01*
X1840195Y1896260D01*
X1839714Y1895890D01*
X1839194Y1895569D01*
X1838644Y1895320D01*
X1838074Y1895149D01*
X1837475Y1895039D01*
X1836875Y1895000D01*
G37*
G36*
X1535000Y1825000D02*
G01*
X1534399Y1825039D01*
X1533800Y1825149D01*
X1533230Y1825329D01*
X1532680Y1825569D01*
X1532160Y1825890D01*
X1531679Y1826260D01*
X1531260Y1826679D01*
X1530889Y1827159D01*
X1530569Y1827680D01*
X1530320Y1828229D01*
X1530150Y1828800D01*
X1530039Y1829400D01*
X1530000Y1830000D01*
X1530000Y1860000D01*
X1530039Y1860599D01*
X1530150Y1861199D01*
X1530320Y1861770D01*
X1530569Y1862319D01*
X1530889Y1862840D01*
X1531260Y1863320D01*
X1531679Y1863739D01*
X1532160Y1864109D01*
X1532680Y1864430D01*
X1533230Y1864679D01*
X1533800Y1864850D01*
X1534399Y1864960D01*
X1535000Y1865000D01*
X1580000Y1865000D01*
X1580600Y1864960D01*
X1581199Y1864850D01*
X1581769Y1864679D01*
X1582319Y1864430D01*
X1582839Y1864109D01*
X1583320Y1863739D01*
X1583739Y1863320D01*
X1584110Y1862840D01*
X1584430Y1862319D01*
X1584679Y1861770D01*
X1584849Y1861199D01*
X1584960Y1860599D01*
X1585000Y1860000D01*
X1585000Y1830000D01*
X1584960Y1829400D01*
X1584849Y1828800D01*
X1584679Y1828229D01*
X1584430Y1827680D01*
X1584110Y1827159D01*
X1583739Y1826679D01*
X1583320Y1826260D01*
X1582839Y1825890D01*
X1582319Y1825569D01*
X1581769Y1825329D01*
X1581199Y1825149D01*
X1580600Y1825039D01*
X1580000Y1825000D01*
G37*
G36*
X1535000Y1895000D02*
G01*
X1534399Y1895039D01*
X1533800Y1895149D01*
X1533230Y1895320D01*
X1532680Y1895569D01*
X1532160Y1895890D01*
X1531679Y1896260D01*
X1531260Y1896679D01*
X1530889Y1897159D01*
X1530569Y1897680D01*
X1530320Y1898229D01*
X1530150Y1898800D01*
X1530039Y1899400D01*
X1530000Y1900000D01*
X1530000Y1930000D01*
X1530039Y1930599D01*
X1530150Y1931199D01*
X1530320Y1931770D01*
X1530569Y1932319D01*
X1530889Y1932840D01*
X1531260Y1933320D01*
X1531679Y1933739D01*
X1532160Y1934109D01*
X1532680Y1934430D01*
X1533230Y1934670D01*
X1533800Y1934850D01*
X1534399Y1934960D01*
X1535000Y1935000D01*
X1580000Y1935000D01*
X1580600Y1934960D01*
X1581199Y1934850D01*
X1581769Y1934670D01*
X1582319Y1934430D01*
X1582839Y1934109D01*
X1583320Y1933739D01*
X1583739Y1933320D01*
X1584110Y1932840D01*
X1584430Y1932319D01*
X1584679Y1931770D01*
X1584849Y1931199D01*
X1584960Y1930599D01*
X1585000Y1930000D01*
X1585000Y1900000D01*
X1584960Y1899400D01*
X1584849Y1898800D01*
X1584679Y1898229D01*
X1584430Y1897680D01*
X1584110Y1897159D01*
X1583739Y1896679D01*
X1583320Y1896260D01*
X1582839Y1895890D01*
X1582319Y1895569D01*
X1581769Y1895320D01*
X1581199Y1895149D01*
X1580600Y1895039D01*
X1580000Y1895000D01*
G37*
G36*
X860000Y1622500D02*
G01*
X859960Y1621900D01*
X859849Y1621300D01*
X859669Y1620729D01*
X859430Y1620180D01*
X859110Y1619659D01*
X858739Y1619179D01*
X858320Y1618760D01*
X857839Y1618390D01*
X857319Y1618069D01*
X856769Y1617820D01*
X856199Y1617649D01*
X855600Y1617539D01*
X855000Y1617500D01*
X825000Y1617500D01*
X824399Y1617539D01*
X823800Y1617649D01*
X823230Y1617820D01*
X822680Y1618069D01*
X822160Y1618390D01*
X821679Y1618760D01*
X821260Y1619179D01*
X820889Y1619659D01*
X820569Y1620180D01*
X820320Y1620729D01*
X820150Y1621300D01*
X820039Y1621900D01*
X820000Y1622500D01*
X820000Y1667500D01*
X820039Y1668099D01*
X820150Y1668699D01*
X820320Y1669270D01*
X820569Y1669819D01*
X820889Y1670340D01*
X821260Y1670820D01*
X821679Y1671239D01*
X822160Y1671609D01*
X822680Y1671930D01*
X823230Y1672179D01*
X823800Y1672350D01*
X824399Y1672460D01*
X825000Y1672500D01*
X855000Y1672500D01*
X855600Y1672460D01*
X856199Y1672350D01*
X856769Y1672179D01*
X857319Y1671930D01*
X857839Y1671609D01*
X858320Y1671239D01*
X858739Y1670820D01*
X859110Y1670340D01*
X859430Y1669819D01*
X859669Y1669270D01*
X859849Y1668699D01*
X859960Y1668099D01*
X860000Y1667500D01*
G37*
G36*
X790000Y1622500D02*
G01*
X789960Y1621900D01*
X789849Y1621300D01*
X789679Y1620729D01*
X789430Y1620180D01*
X789110Y1619659D01*
X788739Y1619179D01*
X788320Y1618760D01*
X787839Y1618390D01*
X787319Y1618069D01*
X786769Y1617820D01*
X786199Y1617649D01*
X785600Y1617539D01*
X785000Y1617500D01*
X755000Y1617500D01*
X754400Y1617539D01*
X753800Y1617649D01*
X753229Y1617820D01*
X752680Y1618069D01*
X752159Y1618390D01*
X751679Y1618760D01*
X751260Y1619179D01*
X750890Y1619659D01*
X750569Y1620180D01*
X750329Y1620729D01*
X750149Y1621300D01*
X750039Y1621900D01*
X750000Y1622500D01*
X750000Y1667500D01*
X750039Y1668099D01*
X750149Y1668699D01*
X750329Y1669270D01*
X750569Y1669819D01*
X750890Y1670340D01*
X751260Y1670820D01*
X751679Y1671239D01*
X752159Y1671609D01*
X752680Y1671930D01*
X753229Y1672179D01*
X753800Y1672350D01*
X754400Y1672460D01*
X755000Y1672500D01*
X785000Y1672500D01*
X785600Y1672460D01*
X786199Y1672350D01*
X786769Y1672179D01*
X787319Y1671930D01*
X787839Y1671609D01*
X788320Y1671239D01*
X788739Y1670820D01*
X789110Y1670340D01*
X789430Y1669819D01*
X789679Y1669270D01*
X789849Y1668699D01*
X789960Y1668099D01*
X790000Y1667500D01*
G37*
G36*
X1660000Y1562500D02*
G01*
X1660039Y1563099D01*
X1660150Y1563699D01*
X1660330Y1564270D01*
X1660569Y1564819D01*
X1660889Y1565340D01*
X1661260Y1565820D01*
X1661679Y1566239D01*
X1662160Y1566609D01*
X1662680Y1566930D01*
X1663230Y1567179D01*
X1663800Y1567350D01*
X1664399Y1567460D01*
X1665000Y1567500D01*
X1695000Y1567500D01*
X1695600Y1567460D01*
X1696199Y1567350D01*
X1696769Y1567179D01*
X1697319Y1566930D01*
X1697839Y1566609D01*
X1698320Y1566239D01*
X1698739Y1565820D01*
X1699110Y1565340D01*
X1699430Y1564819D01*
X1699679Y1564270D01*
X1699849Y1563699D01*
X1699960Y1563099D01*
X1700000Y1562500D01*
X1700000Y1517500D01*
X1699960Y1516900D01*
X1699849Y1516300D01*
X1699679Y1515729D01*
X1699430Y1515180D01*
X1699110Y1514659D01*
X1698739Y1514179D01*
X1698320Y1513760D01*
X1697839Y1513390D01*
X1697319Y1513069D01*
X1696769Y1512820D01*
X1696199Y1512649D01*
X1695600Y1512539D01*
X1695000Y1512500D01*
X1665000Y1512500D01*
X1664399Y1512539D01*
X1663800Y1512649D01*
X1663230Y1512820D01*
X1662680Y1513069D01*
X1662160Y1513390D01*
X1661679Y1513760D01*
X1661260Y1514179D01*
X1660889Y1514659D01*
X1660569Y1515180D01*
X1660330Y1515729D01*
X1660150Y1516300D01*
X1660039Y1516900D01*
X1660000Y1517500D01*
G37*
G36*
X1730000Y1562500D02*
G01*
X1730039Y1563099D01*
X1730150Y1563699D01*
X1730320Y1564270D01*
X1730569Y1564819D01*
X1730889Y1565340D01*
X1731260Y1565820D01*
X1731679Y1566239D01*
X1732160Y1566609D01*
X1732680Y1566930D01*
X1733230Y1567179D01*
X1733800Y1567350D01*
X1734399Y1567460D01*
X1735000Y1567500D01*
X1765000Y1567500D01*
X1765600Y1567460D01*
X1766199Y1567350D01*
X1766769Y1567179D01*
X1767319Y1566930D01*
X1767839Y1566609D01*
X1768320Y1566239D01*
X1768739Y1565820D01*
X1769110Y1565340D01*
X1769430Y1564819D01*
X1769669Y1564270D01*
X1769849Y1563699D01*
X1769960Y1563099D01*
X1770000Y1562500D01*
X1770000Y1517500D01*
X1769960Y1516900D01*
X1769849Y1516300D01*
X1769669Y1515729D01*
X1769430Y1515180D01*
X1769110Y1514659D01*
X1768739Y1514179D01*
X1768320Y1513760D01*
X1767839Y1513390D01*
X1767319Y1513069D01*
X1766769Y1512820D01*
X1766199Y1512649D01*
X1765600Y1512539D01*
X1765000Y1512500D01*
X1735000Y1512500D01*
X1734399Y1512539D01*
X1733800Y1512649D01*
X1733230Y1512820D01*
X1732680Y1513069D01*
X1732160Y1513390D01*
X1731679Y1513760D01*
X1731260Y1514179D01*
X1730889Y1514659D01*
X1730569Y1515180D01*
X1730320Y1515729D01*
X1730150Y1516300D01*
X1730039Y1516900D01*
X1730000Y1517500D01*
G37*
G36*
X1660000Y1397500D02*
G01*
X1660039Y1398099D01*
X1660150Y1398699D01*
X1660330Y1399270D01*
X1660569Y1399819D01*
X1660889Y1400340D01*
X1661260Y1400820D01*
X1661679Y1401239D01*
X1662160Y1401609D01*
X1662680Y1401930D01*
X1663230Y1402179D01*
X1663800Y1402350D01*
X1664399Y1402460D01*
X1665000Y1402500D01*
X1695000Y1402500D01*
X1695600Y1402460D01*
X1696199Y1402350D01*
X1696769Y1402179D01*
X1697319Y1401930D01*
X1697839Y1401609D01*
X1698320Y1401239D01*
X1698739Y1400820D01*
X1699110Y1400340D01*
X1699430Y1399819D01*
X1699679Y1399270D01*
X1699849Y1398699D01*
X1699960Y1398099D01*
X1700000Y1397500D01*
X1700000Y1352500D01*
X1699960Y1351900D01*
X1699849Y1351300D01*
X1699679Y1350729D01*
X1699430Y1350180D01*
X1699110Y1349659D01*
X1698739Y1349179D01*
X1698320Y1348760D01*
X1697839Y1348390D01*
X1697319Y1348069D01*
X1696769Y1347820D01*
X1696199Y1347649D01*
X1695600Y1347539D01*
X1695000Y1347500D01*
X1665000Y1347500D01*
X1664399Y1347539D01*
X1663800Y1347649D01*
X1663230Y1347820D01*
X1662680Y1348069D01*
X1662160Y1348390D01*
X1661679Y1348760D01*
X1661260Y1349179D01*
X1660889Y1349659D01*
X1660569Y1350180D01*
X1660330Y1350729D01*
X1660150Y1351300D01*
X1660039Y1351900D01*
X1660000Y1352500D01*
G37*
G36*
X1730000Y1397500D02*
G01*
X1730039Y1398099D01*
X1730150Y1398699D01*
X1730320Y1399270D01*
X1730569Y1399819D01*
X1730889Y1400340D01*
X1731260Y1400820D01*
X1731679Y1401239D01*
X1732160Y1401609D01*
X1732680Y1401930D01*
X1733230Y1402179D01*
X1733800Y1402350D01*
X1734399Y1402460D01*
X1735000Y1402500D01*
X1765000Y1402500D01*
X1765600Y1402460D01*
X1766199Y1402350D01*
X1766769Y1402179D01*
X1767319Y1401930D01*
X1767839Y1401609D01*
X1768320Y1401239D01*
X1768739Y1400820D01*
X1769110Y1400340D01*
X1769430Y1399819D01*
X1769669Y1399270D01*
X1769849Y1398699D01*
X1769960Y1398099D01*
X1770000Y1397500D01*
X1770000Y1352500D01*
X1769960Y1351900D01*
X1769849Y1351300D01*
X1769669Y1350729D01*
X1769430Y1350180D01*
X1769110Y1349659D01*
X1768739Y1349179D01*
X1768320Y1348760D01*
X1767839Y1348390D01*
X1767319Y1348069D01*
X1766769Y1347820D01*
X1766199Y1347649D01*
X1765600Y1347539D01*
X1765000Y1347500D01*
X1735000Y1347500D01*
X1734399Y1347539D01*
X1733800Y1347649D01*
X1733230Y1347820D01*
X1732680Y1348069D01*
X1732160Y1348390D01*
X1731679Y1348760D01*
X1731260Y1349179D01*
X1730889Y1349659D01*
X1730569Y1350180D01*
X1730320Y1350729D01*
X1730150Y1351300D01*
X1730039Y1351900D01*
X1730000Y1352500D01*
G37*
G36*
X1660000Y1322500D02*
G01*
X1660039Y1323099D01*
X1660150Y1323699D01*
X1660330Y1324270D01*
X1660569Y1324819D01*
X1660889Y1325340D01*
X1661260Y1325820D01*
X1661679Y1326239D01*
X1662160Y1326609D01*
X1662680Y1326930D01*
X1663230Y1327179D01*
X1663800Y1327350D01*
X1664399Y1327460D01*
X1665000Y1327500D01*
X1695000Y1327500D01*
X1695600Y1327460D01*
X1696199Y1327350D01*
X1696769Y1327179D01*
X1697319Y1326930D01*
X1697839Y1326609D01*
X1698320Y1326239D01*
X1698739Y1325820D01*
X1699110Y1325340D01*
X1699430Y1324819D01*
X1699679Y1324270D01*
X1699849Y1323699D01*
X1699960Y1323099D01*
X1700000Y1322500D01*
X1700000Y1277500D01*
X1699960Y1276900D01*
X1699849Y1276300D01*
X1699679Y1275729D01*
X1699430Y1275180D01*
X1699110Y1274659D01*
X1698739Y1274179D01*
X1698320Y1273760D01*
X1697839Y1273390D01*
X1697319Y1273069D01*
X1696769Y1272820D01*
X1696199Y1272649D01*
X1695600Y1272539D01*
X1695000Y1272500D01*
X1665000Y1272500D01*
X1664399Y1272539D01*
X1663800Y1272649D01*
X1663230Y1272820D01*
X1662680Y1273069D01*
X1662160Y1273390D01*
X1661679Y1273760D01*
X1661260Y1274179D01*
X1660889Y1274659D01*
X1660569Y1275180D01*
X1660330Y1275729D01*
X1660150Y1276300D01*
X1660039Y1276900D01*
X1660000Y1277500D01*
G37*
G36*
X1730000Y1322500D02*
G01*
X1730039Y1323099D01*
X1730150Y1323699D01*
X1730320Y1324270D01*
X1730569Y1324819D01*
X1730889Y1325340D01*
X1731260Y1325820D01*
X1731679Y1326239D01*
X1732160Y1326609D01*
X1732680Y1326930D01*
X1733230Y1327179D01*
X1733800Y1327350D01*
X1734399Y1327460D01*
X1735000Y1327500D01*
X1765000Y1327500D01*
X1765600Y1327460D01*
X1766199Y1327350D01*
X1766769Y1327179D01*
X1767319Y1326930D01*
X1767839Y1326609D01*
X1768320Y1326239D01*
X1768739Y1325820D01*
X1769110Y1325340D01*
X1769430Y1324819D01*
X1769669Y1324270D01*
X1769849Y1323699D01*
X1769960Y1323099D01*
X1770000Y1322500D01*
X1770000Y1277500D01*
X1769960Y1276900D01*
X1769849Y1276300D01*
X1769669Y1275729D01*
X1769430Y1275180D01*
X1769110Y1274659D01*
X1768739Y1274179D01*
X1768320Y1273760D01*
X1767839Y1273390D01*
X1767319Y1273069D01*
X1766769Y1272820D01*
X1766199Y1272649D01*
X1765600Y1272539D01*
X1765000Y1272500D01*
X1735000Y1272500D01*
X1734399Y1272539D01*
X1733800Y1272649D01*
X1733230Y1272820D01*
X1732680Y1273069D01*
X1732160Y1273390D01*
X1731679Y1273760D01*
X1731260Y1274179D01*
X1730889Y1274659D01*
X1730569Y1275180D01*
X1730320Y1275729D01*
X1730150Y1276300D01*
X1730039Y1276900D01*
X1730000Y1277500D01*
G37*
G36*
X1660000Y1477500D02*
G01*
X1660039Y1478099D01*
X1660150Y1478699D01*
X1660330Y1479270D01*
X1660569Y1479819D01*
X1660889Y1480340D01*
X1661260Y1480820D01*
X1661679Y1481239D01*
X1662160Y1481609D01*
X1662680Y1481930D01*
X1663230Y1482179D01*
X1663800Y1482350D01*
X1664399Y1482460D01*
X1665000Y1482500D01*
X1695000Y1482500D01*
X1695600Y1482460D01*
X1696199Y1482350D01*
X1696769Y1482179D01*
X1697319Y1481930D01*
X1697839Y1481609D01*
X1698320Y1481239D01*
X1698739Y1480820D01*
X1699110Y1480340D01*
X1699430Y1479819D01*
X1699679Y1479270D01*
X1699849Y1478699D01*
X1699960Y1478099D01*
X1700000Y1477500D01*
X1700000Y1432500D01*
X1699960Y1431900D01*
X1699849Y1431300D01*
X1699679Y1430729D01*
X1699430Y1430180D01*
X1699110Y1429659D01*
X1698739Y1429179D01*
X1698320Y1428760D01*
X1697839Y1428390D01*
X1697319Y1428069D01*
X1696769Y1427820D01*
X1696199Y1427649D01*
X1695600Y1427539D01*
X1695000Y1427500D01*
X1665000Y1427500D01*
X1664399Y1427539D01*
X1663800Y1427649D01*
X1663230Y1427820D01*
X1662680Y1428069D01*
X1662160Y1428390D01*
X1661679Y1428760D01*
X1661260Y1429179D01*
X1660889Y1429659D01*
X1660569Y1430180D01*
X1660330Y1430729D01*
X1660150Y1431300D01*
X1660039Y1431900D01*
X1660000Y1432500D01*
G37*
G36*
X1730000Y1477500D02*
G01*
X1730039Y1478099D01*
X1730150Y1478699D01*
X1730320Y1479270D01*
X1730569Y1479819D01*
X1730889Y1480340D01*
X1731260Y1480820D01*
X1731679Y1481239D01*
X1732160Y1481609D01*
X1732680Y1481930D01*
X1733230Y1482179D01*
X1733800Y1482350D01*
X1734399Y1482460D01*
X1735000Y1482500D01*
X1765000Y1482500D01*
X1765600Y1482460D01*
X1766199Y1482350D01*
X1766769Y1482179D01*
X1767319Y1481930D01*
X1767839Y1481609D01*
X1768320Y1481239D01*
X1768739Y1480820D01*
X1769110Y1480340D01*
X1769430Y1479819D01*
X1769669Y1479270D01*
X1769849Y1478699D01*
X1769960Y1478099D01*
X1770000Y1477500D01*
X1770000Y1432500D01*
X1769960Y1431900D01*
X1769849Y1431300D01*
X1769669Y1430729D01*
X1769430Y1430180D01*
X1769110Y1429659D01*
X1768739Y1429179D01*
X1768320Y1428760D01*
X1767839Y1428390D01*
X1767319Y1428069D01*
X1766769Y1427820D01*
X1766199Y1427649D01*
X1765600Y1427539D01*
X1765000Y1427500D01*
X1735000Y1427500D01*
X1734399Y1427539D01*
X1733800Y1427649D01*
X1733230Y1427820D01*
X1732680Y1428069D01*
X1732160Y1428390D01*
X1731679Y1428760D01*
X1731260Y1429179D01*
X1730889Y1429659D01*
X1730569Y1430180D01*
X1730320Y1430729D01*
X1730150Y1431300D01*
X1730039Y1431900D01*
X1730000Y1432500D01*
G37*
G36*
X1357500Y1410000D02*
G01*
X1356899Y1410039D01*
X1356300Y1410149D01*
X1355730Y1410329D01*
X1355180Y1410569D01*
X1354660Y1410890D01*
X1354179Y1411260D01*
X1353760Y1411679D01*
X1353389Y1412159D01*
X1353069Y1412680D01*
X1352820Y1413229D01*
X1352650Y1413800D01*
X1352539Y1414400D01*
X1352500Y1415000D01*
X1352500Y1445000D01*
X1352539Y1445599D01*
X1352650Y1446199D01*
X1352820Y1446770D01*
X1353069Y1447319D01*
X1353389Y1447840D01*
X1353760Y1448320D01*
X1354179Y1448739D01*
X1354660Y1449109D01*
X1355180Y1449430D01*
X1355730Y1449679D01*
X1356300Y1449850D01*
X1356899Y1449960D01*
X1357500Y1450000D01*
X1402500Y1450000D01*
X1403100Y1449960D01*
X1403699Y1449850D01*
X1404269Y1449679D01*
X1404819Y1449430D01*
X1405339Y1449109D01*
X1405820Y1448739D01*
X1406239Y1448320D01*
X1406610Y1447840D01*
X1406930Y1447319D01*
X1407179Y1446770D01*
X1407349Y1446199D01*
X1407460Y1445599D01*
X1407500Y1445000D01*
X1407500Y1415000D01*
X1407460Y1414400D01*
X1407349Y1413800D01*
X1407179Y1413229D01*
X1406930Y1412680D01*
X1406610Y1412159D01*
X1406239Y1411679D01*
X1405820Y1411260D01*
X1405339Y1410890D01*
X1404819Y1410569D01*
X1404269Y1410329D01*
X1403699Y1410149D01*
X1403100Y1410039D01*
X1402500Y1410000D01*
G37*
G36*
X1357500Y1480000D02*
G01*
X1356899Y1480039D01*
X1356300Y1480149D01*
X1355730Y1480320D01*
X1355180Y1480569D01*
X1354660Y1480890D01*
X1354179Y1481260D01*
X1353760Y1481679D01*
X1353389Y1482159D01*
X1353069Y1482680D01*
X1352820Y1483229D01*
X1352650Y1483800D01*
X1352539Y1484400D01*
X1352500Y1485000D01*
X1352500Y1515000D01*
X1352539Y1515599D01*
X1352650Y1516199D01*
X1352820Y1516770D01*
X1353069Y1517319D01*
X1353389Y1517840D01*
X1353760Y1518320D01*
X1354179Y1518739D01*
X1354660Y1519109D01*
X1355180Y1519430D01*
X1355730Y1519670D01*
X1356300Y1519850D01*
X1356899Y1519960D01*
X1357500Y1520000D01*
X1402500Y1520000D01*
X1403100Y1519960D01*
X1403699Y1519850D01*
X1404269Y1519670D01*
X1404819Y1519430D01*
X1405339Y1519109D01*
X1405820Y1518739D01*
X1406239Y1518320D01*
X1406610Y1517840D01*
X1406930Y1517319D01*
X1407179Y1516770D01*
X1407349Y1516199D01*
X1407460Y1515599D01*
X1407500Y1515000D01*
X1407500Y1485000D01*
X1407460Y1484400D01*
X1407349Y1483800D01*
X1407179Y1483229D01*
X1406930Y1482680D01*
X1406610Y1482159D01*
X1406239Y1481679D01*
X1405820Y1481260D01*
X1405339Y1480890D01*
X1404819Y1480569D01*
X1404269Y1480320D01*
X1403699Y1480149D01*
X1403100Y1480039D01*
X1402500Y1480000D01*
G37*
G36*
X2462500Y895000D02*
G01*
X2463100Y894960D01*
X2463699Y894850D01*
X2464269Y894670D01*
X2464819Y894430D01*
X2465339Y894109D01*
X2465820Y893739D01*
X2466239Y893320D01*
X2466610Y892840D01*
X2466930Y892319D01*
X2467179Y891770D01*
X2467349Y891199D01*
X2467460Y890599D01*
X2467500Y890000D01*
X2467500Y860000D01*
X2467460Y859400D01*
X2467349Y858800D01*
X2467179Y858229D01*
X2466930Y857680D01*
X2466610Y857159D01*
X2466239Y856679D01*
X2465820Y856260D01*
X2465339Y855890D01*
X2464819Y855569D01*
X2464269Y855320D01*
X2463699Y855149D01*
X2463100Y855039D01*
X2462500Y855000D01*
X2417500Y855000D01*
X2416899Y855039D01*
X2416300Y855149D01*
X2415730Y855320D01*
X2415180Y855569D01*
X2414660Y855890D01*
X2414179Y856260D01*
X2413760Y856679D01*
X2413389Y857159D01*
X2413069Y857680D01*
X2412820Y858229D01*
X2412650Y858800D01*
X2412539Y859400D01*
X2412500Y860000D01*
X2412500Y890000D01*
X2412539Y890599D01*
X2412650Y891199D01*
X2412820Y891770D01*
X2413069Y892319D01*
X2413389Y892840D01*
X2413760Y893320D01*
X2414179Y893739D01*
X2414660Y894109D01*
X2415180Y894430D01*
X2415730Y894670D01*
X2416300Y894850D01*
X2416899Y894960D01*
X2417500Y895000D01*
G37*
G36*
X2462500Y825000D02*
G01*
X2463100Y824960D01*
X2463699Y824850D01*
X2464269Y824679D01*
X2464819Y824430D01*
X2465339Y824109D01*
X2465820Y823739D01*
X2466239Y823320D01*
X2466610Y822840D01*
X2466930Y822319D01*
X2467179Y821770D01*
X2467349Y821199D01*
X2467460Y820599D01*
X2467500Y820000D01*
X2467500Y790000D01*
X2467460Y789400D01*
X2467349Y788800D01*
X2467179Y788229D01*
X2466930Y787680D01*
X2466610Y787159D01*
X2466239Y786679D01*
X2465820Y786260D01*
X2465339Y785890D01*
X2464819Y785569D01*
X2464269Y785329D01*
X2463699Y785149D01*
X2463100Y785039D01*
X2462500Y785000D01*
X2417500Y785000D01*
X2416899Y785039D01*
X2416300Y785149D01*
X2415730Y785329D01*
X2415180Y785569D01*
X2414660Y785890D01*
X2414179Y786260D01*
X2413760Y786679D01*
X2413389Y787159D01*
X2413069Y787680D01*
X2412820Y788229D01*
X2412650Y788800D01*
X2412539Y789400D01*
X2412500Y790000D01*
X2412500Y820000D01*
X2412539Y820599D01*
X2412650Y821199D01*
X2412820Y821770D01*
X2413069Y822319D01*
X2413389Y822840D01*
X2413760Y823320D01*
X2414179Y823739D01*
X2414660Y824109D01*
X2415180Y824430D01*
X2415730Y824679D01*
X2416300Y824850D01*
X2416899Y824960D01*
X2417500Y825000D01*
G37*
D16*
G01*
X2315511Y1315000D03*
G01*
X2454488Y1315000D03*
D17*
G01*
X1535000Y1300000D03*
G01*
X1535000Y1425979D03*
D18*
G01*
X1667399Y2059369D03*
G01*
X1592600Y2059369D03*
G01*
X1630000Y1980630D03*
G36*
X1271649Y415120D02*
G01*
X1272129Y415090D01*
X1272600Y415000D01*
X1273050Y414859D01*
X1273479Y414670D01*
X1273890Y414420D01*
X1274260Y414130D01*
X1274600Y413789D01*
X1274889Y413420D01*
X1275140Y413009D01*
X1275330Y412579D01*
X1275479Y412119D01*
X1275559Y411660D01*
X1275590Y411179D01*
X1275590Y387559D01*
X1275559Y387080D01*
X1275479Y386619D01*
X1275330Y386159D01*
X1275140Y385729D01*
X1274889Y385320D01*
X1274600Y384949D01*
X1274260Y384609D01*
X1273890Y384319D01*
X1273479Y384070D01*
X1273050Y383879D01*
X1272600Y383739D01*
X1272129Y383649D01*
X1271649Y383620D01*
X1228350Y383620D01*
X1227870Y383649D01*
X1227399Y383739D01*
X1226949Y383879D01*
X1226520Y384070D01*
X1226109Y384319D01*
X1225739Y384609D01*
X1225399Y384949D01*
X1225110Y385320D01*
X1224859Y385729D01*
X1224669Y386159D01*
X1224520Y386619D01*
X1224440Y387080D01*
X1224409Y387559D01*
X1224409Y411179D01*
X1224440Y411660D01*
X1224520Y412119D01*
X1224669Y412579D01*
X1224859Y413009D01*
X1225110Y413420D01*
X1225399Y413789D01*
X1225739Y414130D01*
X1226109Y414420D01*
X1226520Y414670D01*
X1226949Y414859D01*
X1227399Y415000D01*
X1227870Y415090D01*
X1228350Y415120D01*
G37*
G36*
X1271649Y336379D02*
G01*
X1272129Y336350D01*
X1272600Y336260D01*
X1273050Y336120D01*
X1273479Y335929D01*
X1273890Y335680D01*
X1274260Y335390D01*
X1274600Y335050D01*
X1274889Y334679D01*
X1275140Y334270D01*
X1275330Y333840D01*
X1275479Y333380D01*
X1275559Y332919D01*
X1275590Y332440D01*
X1275590Y308820D01*
X1275559Y308339D01*
X1275479Y307880D01*
X1275330Y307420D01*
X1275140Y306990D01*
X1274889Y306579D01*
X1274600Y306210D01*
X1274260Y305869D01*
X1273890Y305579D01*
X1273479Y305329D01*
X1273050Y305140D01*
X1272600Y305000D01*
X1272129Y304909D01*
X1271649Y304879D01*
X1228350Y304879D01*
X1227870Y304909D01*
X1227399Y305000D01*
X1226949Y305140D01*
X1226520Y305329D01*
X1226109Y305579D01*
X1225739Y305869D01*
X1225399Y306210D01*
X1225110Y306579D01*
X1224859Y306990D01*
X1224669Y307420D01*
X1224520Y307880D01*
X1224440Y308339D01*
X1224409Y308820D01*
X1224409Y332440D01*
X1224440Y332919D01*
X1224520Y333380D01*
X1224669Y333840D01*
X1224859Y334270D01*
X1225110Y334679D01*
X1225399Y335050D01*
X1225739Y335390D01*
X1226109Y335680D01*
X1226520Y335929D01*
X1226949Y336120D01*
X1227399Y336260D01*
X1227870Y336350D01*
X1228350Y336379D01*
G37*
G36*
X1819880Y81649D02*
G01*
X1819909Y82130D01*
X1820000Y82600D01*
X1820140Y83049D01*
X1820330Y83479D01*
X1820580Y83890D01*
X1820870Y84259D01*
X1821210Y84600D01*
X1821580Y84890D01*
X1821989Y85140D01*
X1822420Y85329D01*
X1822879Y85479D01*
X1823339Y85559D01*
X1823819Y85590D01*
X1847439Y85590D01*
X1847920Y85559D01*
X1848379Y85479D01*
X1848840Y85329D01*
X1849269Y85140D01*
X1849679Y84890D01*
X1850050Y84600D01*
X1850389Y84259D01*
X1850680Y83890D01*
X1850929Y83479D01*
X1851120Y83049D01*
X1851260Y82600D01*
X1851350Y82130D01*
X1851379Y81649D01*
X1851379Y38350D01*
X1851350Y37869D01*
X1851260Y37399D01*
X1851120Y36950D01*
X1850929Y36520D01*
X1850680Y36109D01*
X1850389Y35740D01*
X1850050Y35399D01*
X1849679Y35109D01*
X1849269Y34859D01*
X1848840Y34670D01*
X1848379Y34520D01*
X1847920Y34440D01*
X1847439Y34409D01*
X1823819Y34409D01*
X1823339Y34440D01*
X1822879Y34520D01*
X1822420Y34670D01*
X1821989Y34859D01*
X1821580Y35109D01*
X1821210Y35399D01*
X1820870Y35740D01*
X1820580Y36109D01*
X1820330Y36520D01*
X1820140Y36950D01*
X1820000Y37399D01*
X1819909Y37869D01*
X1819880Y38350D01*
G37*
G36*
X1898620Y81649D02*
G01*
X1898649Y82130D01*
X1898739Y82600D01*
X1898879Y83049D01*
X1899070Y83479D01*
X1899319Y83890D01*
X1899610Y84259D01*
X1899949Y84600D01*
X1900320Y84890D01*
X1900730Y85140D01*
X1901159Y85329D01*
X1901620Y85479D01*
X1902079Y85559D01*
X1902560Y85590D01*
X1926180Y85590D01*
X1926660Y85559D01*
X1927120Y85479D01*
X1927579Y85329D01*
X1928010Y85140D01*
X1928419Y84890D01*
X1928789Y84600D01*
X1929129Y84259D01*
X1929420Y83890D01*
X1929669Y83479D01*
X1929859Y83049D01*
X1930000Y82600D01*
X1930090Y82130D01*
X1930119Y81649D01*
X1930119Y38350D01*
X1930090Y37869D01*
X1930000Y37399D01*
X1929859Y36950D01*
X1929669Y36520D01*
X1929420Y36109D01*
X1929129Y35740D01*
X1928789Y35399D01*
X1928419Y35109D01*
X1928010Y34859D01*
X1927579Y34670D01*
X1927120Y34520D01*
X1926660Y34440D01*
X1926180Y34409D01*
X1902560Y34409D01*
X1902079Y34440D01*
X1901620Y34520D01*
X1901159Y34670D01*
X1900730Y34859D01*
X1900320Y35109D01*
X1899949Y35399D01*
X1899610Y35740D01*
X1899319Y36109D01*
X1899070Y36520D01*
X1898879Y36950D01*
X1898739Y37399D01*
X1898649Y37869D01*
X1898620Y38350D01*
G37*
G36*
X2206649Y2240120D02*
G01*
X2207129Y2240090D01*
X2207600Y2240000D01*
X2208050Y2239859D01*
X2208479Y2239670D01*
X2208890Y2239420D01*
X2209260Y2239130D01*
X2209600Y2238789D01*
X2209889Y2238420D01*
X2210140Y2238009D01*
X2210330Y2237579D01*
X2210479Y2237120D01*
X2210559Y2236660D01*
X2210590Y2236179D01*
X2210590Y2212559D01*
X2210559Y2212080D01*
X2210479Y2211619D01*
X2210330Y2211160D01*
X2210140Y2210729D01*
X2209889Y2210320D01*
X2209600Y2209949D01*
X2209260Y2209609D01*
X2208890Y2209319D01*
X2208479Y2209070D01*
X2208050Y2208879D01*
X2207600Y2208739D01*
X2207129Y2208649D01*
X2206649Y2208620D01*
X2163350Y2208620D01*
X2162870Y2208649D01*
X2162399Y2208739D01*
X2161949Y2208879D01*
X2161520Y2209070D01*
X2161109Y2209319D01*
X2160739Y2209609D01*
X2160399Y2209949D01*
X2160110Y2210320D01*
X2159859Y2210729D01*
X2159669Y2211160D01*
X2159520Y2211619D01*
X2159440Y2212080D01*
X2159409Y2212559D01*
X2159409Y2236179D01*
X2159440Y2236660D01*
X2159520Y2237120D01*
X2159669Y2237579D01*
X2159859Y2238009D01*
X2160110Y2238420D01*
X2160399Y2238789D01*
X2160739Y2239130D01*
X2161109Y2239420D01*
X2161520Y2239670D01*
X2161949Y2239859D01*
X2162399Y2240000D01*
X2162870Y2240090D01*
X2163350Y2240120D01*
G37*
G36*
X2206649Y2161379D02*
G01*
X2207129Y2161350D01*
X2207600Y2161260D01*
X2208050Y2161120D01*
X2208479Y2160929D01*
X2208890Y2160680D01*
X2209260Y2160390D01*
X2209600Y2160050D01*
X2209889Y2159679D01*
X2210140Y2159270D01*
X2210330Y2158840D01*
X2210479Y2158380D01*
X2210559Y2157919D01*
X2210590Y2157440D01*
X2210590Y2133820D01*
X2210559Y2133339D01*
X2210479Y2132880D01*
X2210330Y2132420D01*
X2210140Y2131990D01*
X2209889Y2131579D01*
X2209600Y2131210D01*
X2209260Y2130870D01*
X2208890Y2130580D01*
X2208479Y2130329D01*
X2208050Y2130140D01*
X2207600Y2130000D01*
X2207129Y2129910D01*
X2206649Y2129879D01*
X2163350Y2129879D01*
X2162870Y2129910D01*
X2162399Y2130000D01*
X2161949Y2130140D01*
X2161520Y2130329D01*
X2161109Y2130580D01*
X2160739Y2130870D01*
X2160399Y2131210D01*
X2160110Y2131579D01*
X2159859Y2131990D01*
X2159669Y2132420D01*
X2159520Y2132880D01*
X2159440Y2133339D01*
X2159409Y2133820D01*
X2159409Y2157440D01*
X2159440Y2157919D01*
X2159520Y2158380D01*
X2159669Y2158840D01*
X2159859Y2159270D01*
X2160110Y2159679D01*
X2160399Y2160050D01*
X2160739Y2160390D01*
X2161109Y2160680D01*
X2161520Y2160929D01*
X2161949Y2161120D01*
X2162399Y2161260D01*
X2162870Y2161350D01*
X2163350Y2161379D01*
G37*
G36*
X2111649Y2320120D02*
G01*
X2112129Y2320090D01*
X2112600Y2320000D01*
X2113050Y2319859D01*
X2113479Y2319670D01*
X2113890Y2319420D01*
X2114260Y2319130D01*
X2114600Y2318789D01*
X2114889Y2318420D01*
X2115140Y2318009D01*
X2115330Y2317579D01*
X2115479Y2317120D01*
X2115559Y2316660D01*
X2115590Y2316179D01*
X2115590Y2292559D01*
X2115559Y2292080D01*
X2115479Y2291619D01*
X2115330Y2291160D01*
X2115140Y2290729D01*
X2114889Y2290320D01*
X2114600Y2289949D01*
X2114260Y2289609D01*
X2113890Y2289319D01*
X2113479Y2289070D01*
X2113050Y2288879D01*
X2112600Y2288739D01*
X2112129Y2288649D01*
X2111649Y2288620D01*
X2068350Y2288620D01*
X2067870Y2288649D01*
X2067399Y2288739D01*
X2066949Y2288879D01*
X2066520Y2289070D01*
X2066109Y2289319D01*
X2065739Y2289609D01*
X2065399Y2289949D01*
X2065110Y2290320D01*
X2064859Y2290729D01*
X2064669Y2291160D01*
X2064520Y2291619D01*
X2064440Y2292080D01*
X2064409Y2292559D01*
X2064409Y2316179D01*
X2064440Y2316660D01*
X2064520Y2317120D01*
X2064669Y2317579D01*
X2064859Y2318009D01*
X2065110Y2318420D01*
X2065399Y2318789D01*
X2065739Y2319130D01*
X2066109Y2319420D01*
X2066520Y2319670D01*
X2066949Y2319859D01*
X2067399Y2320000D01*
X2067870Y2320090D01*
X2068350Y2320120D01*
G37*
G36*
X2111649Y2241379D02*
G01*
X2112129Y2241350D01*
X2112600Y2241260D01*
X2113050Y2241120D01*
X2113479Y2240929D01*
X2113890Y2240680D01*
X2114260Y2240390D01*
X2114600Y2240050D01*
X2114889Y2239679D01*
X2115140Y2239270D01*
X2115330Y2238840D01*
X2115479Y2238380D01*
X2115559Y2237919D01*
X2115590Y2237440D01*
X2115590Y2213820D01*
X2115559Y2213339D01*
X2115479Y2212880D01*
X2115330Y2212420D01*
X2115140Y2211990D01*
X2114889Y2211579D01*
X2114600Y2211210D01*
X2114260Y2210870D01*
X2113890Y2210580D01*
X2113479Y2210329D01*
X2113050Y2210140D01*
X2112600Y2210000D01*
X2112129Y2209910D01*
X2111649Y2209879D01*
X2068350Y2209879D01*
X2067870Y2209910D01*
X2067399Y2210000D01*
X2066949Y2210140D01*
X2066520Y2210329D01*
X2066109Y2210580D01*
X2065739Y2210870D01*
X2065399Y2211210D01*
X2065110Y2211579D01*
X2064859Y2211990D01*
X2064669Y2212420D01*
X2064520Y2212880D01*
X2064440Y2213339D01*
X2064409Y2213820D01*
X2064409Y2237440D01*
X2064440Y2237919D01*
X2064520Y2238380D01*
X2064669Y2238840D01*
X2064859Y2239270D01*
X2065110Y2239679D01*
X2065399Y2240050D01*
X2065739Y2240390D01*
X2066109Y2240680D01*
X2066520Y2240929D01*
X2066949Y2241120D01*
X2067399Y2241260D01*
X2067870Y2241350D01*
X2068350Y2241379D01*
G37*
G36*
X1946649Y280120D02*
G01*
X1947129Y280090D01*
X1947600Y280000D01*
X1948050Y279859D01*
X1948479Y279670D01*
X1948890Y279420D01*
X1949260Y279130D01*
X1949600Y278789D01*
X1949889Y278420D01*
X1950140Y278009D01*
X1950330Y277579D01*
X1950479Y277119D01*
X1950559Y276660D01*
X1950590Y276179D01*
X1950590Y252559D01*
X1950559Y252080D01*
X1950479Y251619D01*
X1950330Y251159D01*
X1950140Y250729D01*
X1949889Y250320D01*
X1949600Y249949D01*
X1949260Y249609D01*
X1948890Y249319D01*
X1948479Y249070D01*
X1948050Y248879D01*
X1947600Y248739D01*
X1947129Y248649D01*
X1946649Y248620D01*
X1903350Y248620D01*
X1902870Y248649D01*
X1902399Y248739D01*
X1901949Y248879D01*
X1901520Y249070D01*
X1901109Y249319D01*
X1900739Y249609D01*
X1900399Y249949D01*
X1900110Y250320D01*
X1899859Y250729D01*
X1899669Y251159D01*
X1899520Y251619D01*
X1899440Y252080D01*
X1899409Y252559D01*
X1899409Y276179D01*
X1899440Y276660D01*
X1899520Y277119D01*
X1899669Y277579D01*
X1899859Y278009D01*
X1900110Y278420D01*
X1900399Y278789D01*
X1900739Y279130D01*
X1901109Y279420D01*
X1901520Y279670D01*
X1901949Y279859D01*
X1902399Y280000D01*
X1902870Y280090D01*
X1903350Y280120D01*
G37*
G36*
X1946649Y201379D02*
G01*
X1947129Y201350D01*
X1947600Y201260D01*
X1948050Y201120D01*
X1948479Y200929D01*
X1948890Y200680D01*
X1949260Y200390D01*
X1949600Y200050D01*
X1949889Y199679D01*
X1950140Y199270D01*
X1950330Y198840D01*
X1950479Y198380D01*
X1950559Y197919D01*
X1950590Y197440D01*
X1950590Y173820D01*
X1950559Y173339D01*
X1950479Y172880D01*
X1950330Y172420D01*
X1950140Y171990D01*
X1949889Y171579D01*
X1949600Y171210D01*
X1949260Y170869D01*
X1948890Y170579D01*
X1948479Y170329D01*
X1948050Y170140D01*
X1947600Y170000D01*
X1947129Y169909D01*
X1946649Y169879D01*
X1903350Y169879D01*
X1902870Y169909D01*
X1902399Y170000D01*
X1901949Y170140D01*
X1901520Y170329D01*
X1901109Y170579D01*
X1900739Y170869D01*
X1900399Y171210D01*
X1900110Y171579D01*
X1899859Y171990D01*
X1899669Y172420D01*
X1899520Y172880D01*
X1899440Y173339D01*
X1899409Y173820D01*
X1899409Y197440D01*
X1899440Y197919D01*
X1899520Y198380D01*
X1899669Y198840D01*
X1899859Y199270D01*
X1900110Y199679D01*
X1900399Y200050D01*
X1900739Y200390D01*
X1901109Y200680D01*
X1901520Y200929D01*
X1901949Y201120D01*
X1902399Y201260D01*
X1902870Y201350D01*
X1903350Y201379D01*
G37*
G36*
X2133350Y609879D02*
G01*
X2132870Y609909D01*
X2132399Y610000D01*
X2131949Y610140D01*
X2131520Y610329D01*
X2131109Y610579D01*
X2130739Y610869D01*
X2130399Y611210D01*
X2130110Y611579D01*
X2129859Y611990D01*
X2129669Y612420D01*
X2129520Y612880D01*
X2129440Y613339D01*
X2129409Y613820D01*
X2129409Y637440D01*
X2129440Y637919D01*
X2129520Y638380D01*
X2129669Y638840D01*
X2129859Y639270D01*
X2130110Y639679D01*
X2130399Y640050D01*
X2130739Y640390D01*
X2131109Y640680D01*
X2131520Y640929D01*
X2131949Y641120D01*
X2132399Y641260D01*
X2132870Y641350D01*
X2133350Y641379D01*
X2176649Y641379D01*
X2177129Y641350D01*
X2177600Y641260D01*
X2178050Y641120D01*
X2178479Y640929D01*
X2178890Y640680D01*
X2179260Y640390D01*
X2179600Y640050D01*
X2179889Y639679D01*
X2180140Y639270D01*
X2180330Y638840D01*
X2180479Y638380D01*
X2180559Y637919D01*
X2180590Y637440D01*
X2180590Y613820D01*
X2180559Y613339D01*
X2180479Y612880D01*
X2180330Y612420D01*
X2180140Y611990D01*
X2179889Y611579D01*
X2179600Y611210D01*
X2179260Y610869D01*
X2178890Y610579D01*
X2178479Y610329D01*
X2178050Y610140D01*
X2177600Y610000D01*
X2177129Y609909D01*
X2176649Y609879D01*
G37*
G36*
X2133350Y688620D02*
G01*
X2132870Y688649D01*
X2132399Y688739D01*
X2131949Y688879D01*
X2131520Y689070D01*
X2131109Y689319D01*
X2130739Y689609D01*
X2130399Y689949D01*
X2130110Y690320D01*
X2129859Y690729D01*
X2129669Y691159D01*
X2129520Y691619D01*
X2129440Y692080D01*
X2129409Y692559D01*
X2129409Y716179D01*
X2129440Y716660D01*
X2129520Y717119D01*
X2129669Y717579D01*
X2129859Y718009D01*
X2130110Y718420D01*
X2130399Y718789D01*
X2130739Y719130D01*
X2131109Y719420D01*
X2131520Y719670D01*
X2131949Y719859D01*
X2132399Y720000D01*
X2132870Y720090D01*
X2133350Y720120D01*
X2176649Y720120D01*
X2177129Y720090D01*
X2177600Y720000D01*
X2178050Y719859D01*
X2178479Y719670D01*
X2178890Y719420D01*
X2179260Y719130D01*
X2179600Y718789D01*
X2179889Y718420D01*
X2180140Y718009D01*
X2180330Y717579D01*
X2180479Y717119D01*
X2180559Y716660D01*
X2180590Y716179D01*
X2180590Y692559D01*
X2180559Y692080D01*
X2180479Y691619D01*
X2180330Y691159D01*
X2180140Y690729D01*
X2179889Y690320D01*
X2179600Y689949D01*
X2179260Y689609D01*
X2178890Y689319D01*
X2178479Y689070D01*
X2178050Y688879D01*
X2177600Y688739D01*
X2177129Y688649D01*
X2176649Y688620D01*
G37*
G36*
X1871649Y280120D02*
G01*
X1872129Y280090D01*
X1872600Y280000D01*
X1873050Y279859D01*
X1873479Y279670D01*
X1873890Y279420D01*
X1874260Y279130D01*
X1874600Y278789D01*
X1874889Y278420D01*
X1875140Y278009D01*
X1875330Y277579D01*
X1875479Y277119D01*
X1875559Y276660D01*
X1875590Y276179D01*
X1875590Y252559D01*
X1875559Y252080D01*
X1875479Y251619D01*
X1875330Y251159D01*
X1875140Y250729D01*
X1874889Y250320D01*
X1874600Y249949D01*
X1874260Y249609D01*
X1873890Y249319D01*
X1873479Y249070D01*
X1873050Y248879D01*
X1872600Y248739D01*
X1872129Y248649D01*
X1871649Y248620D01*
X1828350Y248620D01*
X1827870Y248649D01*
X1827399Y248739D01*
X1826949Y248879D01*
X1826520Y249070D01*
X1826109Y249319D01*
X1825739Y249609D01*
X1825399Y249949D01*
X1825110Y250320D01*
X1824859Y250729D01*
X1824669Y251159D01*
X1824520Y251619D01*
X1824440Y252080D01*
X1824409Y252559D01*
X1824409Y276179D01*
X1824440Y276660D01*
X1824520Y277119D01*
X1824669Y277579D01*
X1824859Y278009D01*
X1825110Y278420D01*
X1825399Y278789D01*
X1825739Y279130D01*
X1826109Y279420D01*
X1826520Y279670D01*
X1826949Y279859D01*
X1827399Y280000D01*
X1827870Y280090D01*
X1828350Y280120D01*
G37*
G36*
X1871649Y201379D02*
G01*
X1872129Y201350D01*
X1872600Y201260D01*
X1873050Y201120D01*
X1873479Y200929D01*
X1873890Y200680D01*
X1874260Y200390D01*
X1874600Y200050D01*
X1874889Y199679D01*
X1875140Y199270D01*
X1875330Y198840D01*
X1875479Y198380D01*
X1875559Y197919D01*
X1875590Y197440D01*
X1875590Y173820D01*
X1875559Y173339D01*
X1875479Y172880D01*
X1875330Y172420D01*
X1875140Y171990D01*
X1874889Y171579D01*
X1874600Y171210D01*
X1874260Y170869D01*
X1873890Y170579D01*
X1873479Y170329D01*
X1873050Y170140D01*
X1872600Y170000D01*
X1872129Y169909D01*
X1871649Y169879D01*
X1828350Y169879D01*
X1827870Y169909D01*
X1827399Y170000D01*
X1826949Y170140D01*
X1826520Y170329D01*
X1826109Y170579D01*
X1825739Y170869D01*
X1825399Y171210D01*
X1825110Y171579D01*
X1824859Y171990D01*
X1824669Y172420D01*
X1824520Y172880D01*
X1824440Y173339D01*
X1824409Y173820D01*
X1824409Y197440D01*
X1824440Y197919D01*
X1824520Y198380D01*
X1824669Y198840D01*
X1824859Y199270D01*
X1825110Y199679D01*
X1825399Y200050D01*
X1825739Y200390D01*
X1826109Y200680D01*
X1826520Y200929D01*
X1826949Y201120D01*
X1827399Y201260D01*
X1827870Y201350D01*
X1828350Y201379D01*
G37*
G36*
X1959880Y1491649D02*
G01*
X1959909Y1492130D01*
X1960000Y1492600D01*
X1960140Y1493049D01*
X1960330Y1493479D01*
X1960580Y1493890D01*
X1960870Y1494259D01*
X1961210Y1494600D01*
X1961580Y1494890D01*
X1961989Y1495140D01*
X1962420Y1495329D01*
X1962879Y1495479D01*
X1963339Y1495559D01*
X1963819Y1495590D01*
X1987439Y1495590D01*
X1987920Y1495559D01*
X1988379Y1495479D01*
X1988840Y1495329D01*
X1989269Y1495140D01*
X1989679Y1494890D01*
X1990050Y1494600D01*
X1990389Y1494259D01*
X1990680Y1493890D01*
X1990929Y1493479D01*
X1991120Y1493049D01*
X1991260Y1492600D01*
X1991350Y1492130D01*
X1991379Y1491649D01*
X1991379Y1448350D01*
X1991350Y1447869D01*
X1991260Y1447399D01*
X1991120Y1446950D01*
X1990929Y1446520D01*
X1990680Y1446109D01*
X1990389Y1445740D01*
X1990050Y1445399D01*
X1989679Y1445109D01*
X1989269Y1444859D01*
X1988840Y1444670D01*
X1988379Y1444520D01*
X1987920Y1444440D01*
X1987439Y1444409D01*
X1963819Y1444409D01*
X1963339Y1444440D01*
X1962879Y1444520D01*
X1962420Y1444670D01*
X1961989Y1444859D01*
X1961580Y1445109D01*
X1961210Y1445399D01*
X1960870Y1445740D01*
X1960580Y1446109D01*
X1960330Y1446520D01*
X1960140Y1446950D01*
X1960000Y1447399D01*
X1959909Y1447869D01*
X1959880Y1448350D01*
G37*
G36*
X2038620Y1491649D02*
G01*
X2038649Y1492130D01*
X2038739Y1492600D01*
X2038879Y1493049D01*
X2039070Y1493479D01*
X2039319Y1493890D01*
X2039610Y1494259D01*
X2039949Y1494600D01*
X2040320Y1494890D01*
X2040730Y1495140D01*
X2041159Y1495329D01*
X2041620Y1495479D01*
X2042079Y1495559D01*
X2042560Y1495590D01*
X2066180Y1495590D01*
X2066660Y1495559D01*
X2067120Y1495479D01*
X2067579Y1495329D01*
X2068010Y1495140D01*
X2068419Y1494890D01*
X2068789Y1494600D01*
X2069129Y1494259D01*
X2069420Y1493890D01*
X2069669Y1493479D01*
X2069859Y1493049D01*
X2070000Y1492600D01*
X2070090Y1492130D01*
X2070119Y1491649D01*
X2070119Y1448350D01*
X2070090Y1447869D01*
X2070000Y1447399D01*
X2069859Y1446950D01*
X2069669Y1446520D01*
X2069420Y1446109D01*
X2069129Y1445740D01*
X2068789Y1445399D01*
X2068419Y1445109D01*
X2068010Y1444859D01*
X2067579Y1444670D01*
X2067120Y1444520D01*
X2066660Y1444440D01*
X2066180Y1444409D01*
X2042560Y1444409D01*
X2042079Y1444440D01*
X2041620Y1444520D01*
X2041159Y1444670D01*
X2040730Y1444859D01*
X2040320Y1445109D01*
X2039949Y1445399D01*
X2039610Y1445740D01*
X2039319Y1446109D01*
X2039070Y1446520D01*
X2038879Y1446950D01*
X2038739Y1447399D01*
X2038649Y1447869D01*
X2038620Y1448350D01*
G37*
G36*
X1959880Y1416649D02*
G01*
X1959909Y1417130D01*
X1960000Y1417600D01*
X1960140Y1418049D01*
X1960330Y1418479D01*
X1960580Y1418890D01*
X1960870Y1419259D01*
X1961210Y1419600D01*
X1961580Y1419890D01*
X1961989Y1420140D01*
X1962420Y1420329D01*
X1962879Y1420479D01*
X1963339Y1420559D01*
X1963819Y1420590D01*
X1987439Y1420590D01*
X1987920Y1420559D01*
X1988379Y1420479D01*
X1988840Y1420329D01*
X1989269Y1420140D01*
X1989679Y1419890D01*
X1990050Y1419600D01*
X1990389Y1419259D01*
X1990680Y1418890D01*
X1990929Y1418479D01*
X1991120Y1418049D01*
X1991260Y1417600D01*
X1991350Y1417130D01*
X1991379Y1416649D01*
X1991379Y1373350D01*
X1991350Y1372869D01*
X1991260Y1372399D01*
X1991120Y1371950D01*
X1990929Y1371520D01*
X1990680Y1371109D01*
X1990389Y1370740D01*
X1990050Y1370399D01*
X1989679Y1370109D01*
X1989269Y1369859D01*
X1988840Y1369670D01*
X1988379Y1369520D01*
X1987920Y1369440D01*
X1987439Y1369409D01*
X1963819Y1369409D01*
X1963339Y1369440D01*
X1962879Y1369520D01*
X1962420Y1369670D01*
X1961989Y1369859D01*
X1961580Y1370109D01*
X1961210Y1370399D01*
X1960870Y1370740D01*
X1960580Y1371109D01*
X1960330Y1371520D01*
X1960140Y1371950D01*
X1960000Y1372399D01*
X1959909Y1372869D01*
X1959880Y1373350D01*
G37*
G36*
X2038620Y1416649D02*
G01*
X2038649Y1417130D01*
X2038739Y1417600D01*
X2038879Y1418049D01*
X2039070Y1418479D01*
X2039319Y1418890D01*
X2039610Y1419259D01*
X2039949Y1419600D01*
X2040320Y1419890D01*
X2040730Y1420140D01*
X2041159Y1420329D01*
X2041620Y1420479D01*
X2042079Y1420559D01*
X2042560Y1420590D01*
X2066180Y1420590D01*
X2066660Y1420559D01*
X2067120Y1420479D01*
X2067579Y1420329D01*
X2068010Y1420140D01*
X2068419Y1419890D01*
X2068789Y1419600D01*
X2069129Y1419259D01*
X2069420Y1418890D01*
X2069669Y1418479D01*
X2069859Y1418049D01*
X2070000Y1417600D01*
X2070090Y1417130D01*
X2070119Y1416649D01*
X2070119Y1373350D01*
X2070090Y1372869D01*
X2070000Y1372399D01*
X2069859Y1371950D01*
X2069669Y1371520D01*
X2069420Y1371109D01*
X2069129Y1370740D01*
X2068789Y1370399D01*
X2068419Y1370109D01*
X2068010Y1369859D01*
X2067579Y1369670D01*
X2067120Y1369520D01*
X2066660Y1369440D01*
X2066180Y1369409D01*
X2042560Y1369409D01*
X2042079Y1369440D01*
X2041620Y1369520D01*
X2041159Y1369670D01*
X2040730Y1369859D01*
X2040320Y1370109D01*
X2039949Y1370399D01*
X2039610Y1370740D01*
X2039319Y1371109D01*
X2039070Y1371520D01*
X2038879Y1371950D01*
X2038739Y1372399D01*
X2038649Y1372869D01*
X2038620Y1373350D01*
G37*
G36*
X1778350Y1689879D02*
G01*
X1777870Y1689909D01*
X1777399Y1690000D01*
X1776949Y1690140D01*
X1776520Y1690329D01*
X1776109Y1690580D01*
X1775739Y1690870D01*
X1775399Y1691210D01*
X1775110Y1691579D01*
X1774859Y1691990D01*
X1774669Y1692420D01*
X1774520Y1692880D01*
X1774440Y1693339D01*
X1774409Y1693820D01*
X1774409Y1717440D01*
X1774440Y1717919D01*
X1774520Y1718380D01*
X1774669Y1718840D01*
X1774859Y1719270D01*
X1775110Y1719679D01*
X1775399Y1720050D01*
X1775739Y1720390D01*
X1776109Y1720680D01*
X1776520Y1720929D01*
X1776949Y1721120D01*
X1777399Y1721260D01*
X1777870Y1721350D01*
X1778350Y1721379D01*
X1821649Y1721379D01*
X1822129Y1721350D01*
X1822600Y1721260D01*
X1823050Y1721120D01*
X1823479Y1720929D01*
X1823890Y1720680D01*
X1824260Y1720390D01*
X1824600Y1720050D01*
X1824889Y1719679D01*
X1825140Y1719270D01*
X1825330Y1718840D01*
X1825479Y1718380D01*
X1825559Y1717919D01*
X1825590Y1717440D01*
X1825590Y1693820D01*
X1825559Y1693339D01*
X1825479Y1692880D01*
X1825330Y1692420D01*
X1825140Y1691990D01*
X1824889Y1691579D01*
X1824600Y1691210D01*
X1824260Y1690870D01*
X1823890Y1690580D01*
X1823479Y1690329D01*
X1823050Y1690140D01*
X1822600Y1690000D01*
X1822129Y1689909D01*
X1821649Y1689879D01*
G37*
G36*
X1778350Y1768620D02*
G01*
X1777870Y1768649D01*
X1777399Y1768739D01*
X1776949Y1768879D01*
X1776520Y1769070D01*
X1776109Y1769319D01*
X1775739Y1769609D01*
X1775399Y1769949D01*
X1775110Y1770320D01*
X1774859Y1770729D01*
X1774669Y1771159D01*
X1774520Y1771619D01*
X1774440Y1772080D01*
X1774409Y1772559D01*
X1774409Y1796179D01*
X1774440Y1796660D01*
X1774520Y1797120D01*
X1774669Y1797579D01*
X1774859Y1798009D01*
X1775110Y1798420D01*
X1775399Y1798789D01*
X1775739Y1799130D01*
X1776109Y1799420D01*
X1776520Y1799670D01*
X1776949Y1799859D01*
X1777399Y1800000D01*
X1777870Y1800090D01*
X1778350Y1800120D01*
X1821649Y1800120D01*
X1822129Y1800090D01*
X1822600Y1800000D01*
X1823050Y1799859D01*
X1823479Y1799670D01*
X1823890Y1799420D01*
X1824260Y1799130D01*
X1824600Y1798789D01*
X1824889Y1798420D01*
X1825140Y1798009D01*
X1825330Y1797579D01*
X1825479Y1797120D01*
X1825559Y1796660D01*
X1825590Y1796179D01*
X1825590Y1772559D01*
X1825559Y1772080D01*
X1825479Y1771619D01*
X1825330Y1771159D01*
X1825140Y1770729D01*
X1824889Y1770320D01*
X1824600Y1769949D01*
X1824260Y1769609D01*
X1823890Y1769319D01*
X1823479Y1769070D01*
X1823050Y1768879D01*
X1822600Y1768739D01*
X1822129Y1768649D01*
X1821649Y1768620D01*
G37*
G36*
X1401649Y1390120D02*
G01*
X1402129Y1390090D01*
X1402600Y1390000D01*
X1403050Y1389859D01*
X1403479Y1389670D01*
X1403890Y1389420D01*
X1404260Y1389130D01*
X1404600Y1388789D01*
X1404889Y1388420D01*
X1405140Y1388009D01*
X1405330Y1387579D01*
X1405479Y1387120D01*
X1405559Y1386660D01*
X1405590Y1386179D01*
X1405590Y1362559D01*
X1405559Y1362080D01*
X1405479Y1361619D01*
X1405330Y1361159D01*
X1405140Y1360729D01*
X1404889Y1360320D01*
X1404600Y1359949D01*
X1404260Y1359609D01*
X1403890Y1359319D01*
X1403479Y1359070D01*
X1403050Y1358879D01*
X1402600Y1358739D01*
X1402129Y1358649D01*
X1401649Y1358620D01*
X1358350Y1358620D01*
X1357870Y1358649D01*
X1357399Y1358739D01*
X1356949Y1358879D01*
X1356520Y1359070D01*
X1356109Y1359319D01*
X1355739Y1359609D01*
X1355399Y1359949D01*
X1355110Y1360320D01*
X1354859Y1360729D01*
X1354669Y1361159D01*
X1354520Y1361619D01*
X1354440Y1362080D01*
X1354409Y1362559D01*
X1354409Y1386179D01*
X1354440Y1386660D01*
X1354520Y1387120D01*
X1354669Y1387579D01*
X1354859Y1388009D01*
X1355110Y1388420D01*
X1355399Y1388789D01*
X1355739Y1389130D01*
X1356109Y1389420D01*
X1356520Y1389670D01*
X1356949Y1389859D01*
X1357399Y1390000D01*
X1357870Y1390090D01*
X1358350Y1390120D01*
G37*
G36*
X1401649Y1311379D02*
G01*
X1402129Y1311350D01*
X1402600Y1311260D01*
X1403050Y1311120D01*
X1403479Y1310929D01*
X1403890Y1310680D01*
X1404260Y1310390D01*
X1404600Y1310050D01*
X1404889Y1309679D01*
X1405140Y1309270D01*
X1405330Y1308840D01*
X1405479Y1308380D01*
X1405559Y1307919D01*
X1405590Y1307440D01*
X1405590Y1283820D01*
X1405559Y1283339D01*
X1405479Y1282880D01*
X1405330Y1282420D01*
X1405140Y1281990D01*
X1404889Y1281579D01*
X1404600Y1281210D01*
X1404260Y1280870D01*
X1403890Y1280580D01*
X1403479Y1280329D01*
X1403050Y1280140D01*
X1402600Y1280000D01*
X1402129Y1279909D01*
X1401649Y1279879D01*
X1358350Y1279879D01*
X1357870Y1279909D01*
X1357399Y1280000D01*
X1356949Y1280140D01*
X1356520Y1280329D01*
X1356109Y1280580D01*
X1355739Y1280870D01*
X1355399Y1281210D01*
X1355110Y1281579D01*
X1354859Y1281990D01*
X1354669Y1282420D01*
X1354520Y1282880D01*
X1354440Y1283339D01*
X1354409Y1283820D01*
X1354409Y1307440D01*
X1354440Y1307919D01*
X1354520Y1308380D01*
X1354669Y1308840D01*
X1354859Y1309270D01*
X1355110Y1309679D01*
X1355399Y1310050D01*
X1355739Y1310390D01*
X1356109Y1310680D01*
X1356520Y1310929D01*
X1356949Y1311120D01*
X1357399Y1311260D01*
X1357870Y1311350D01*
X1358350Y1311379D01*
G37*
G36*
X1540119Y1998350D02*
G01*
X1540090Y1997869D01*
X1540000Y1997399D01*
X1539859Y1996950D01*
X1539669Y1996520D01*
X1539420Y1996109D01*
X1539129Y1995740D01*
X1538789Y1995399D01*
X1538419Y1995109D01*
X1538010Y1994859D01*
X1537579Y1994670D01*
X1537120Y1994520D01*
X1536660Y1994440D01*
X1536180Y1994409D01*
X1512560Y1994409D01*
X1512079Y1994440D01*
X1511620Y1994520D01*
X1511159Y1994670D01*
X1510730Y1994859D01*
X1510320Y1995109D01*
X1509949Y1995399D01*
X1509610Y1995740D01*
X1509319Y1996109D01*
X1509070Y1996520D01*
X1508879Y1996950D01*
X1508739Y1997399D01*
X1508649Y1997869D01*
X1508620Y1998350D01*
X1508620Y2041649D01*
X1508649Y2042130D01*
X1508739Y2042600D01*
X1508879Y2043049D01*
X1509070Y2043479D01*
X1509319Y2043890D01*
X1509610Y2044259D01*
X1509949Y2044600D01*
X1510320Y2044890D01*
X1510730Y2045140D01*
X1511159Y2045329D01*
X1511620Y2045479D01*
X1512079Y2045559D01*
X1512560Y2045590D01*
X1536180Y2045590D01*
X1536660Y2045559D01*
X1537120Y2045479D01*
X1537579Y2045329D01*
X1538010Y2045140D01*
X1538419Y2044890D01*
X1538789Y2044600D01*
X1539129Y2044259D01*
X1539420Y2043890D01*
X1539669Y2043479D01*
X1539859Y2043049D01*
X1540000Y2042600D01*
X1540090Y2042130D01*
X1540119Y2041649D01*
G37*
G36*
X1461379Y1998350D02*
G01*
X1461350Y1997869D01*
X1461260Y1997399D01*
X1461120Y1996950D01*
X1460929Y1996520D01*
X1460680Y1996109D01*
X1460389Y1995740D01*
X1460050Y1995399D01*
X1459679Y1995109D01*
X1459269Y1994859D01*
X1458840Y1994670D01*
X1458379Y1994520D01*
X1457920Y1994440D01*
X1457439Y1994409D01*
X1433819Y1994409D01*
X1433339Y1994440D01*
X1432879Y1994520D01*
X1432420Y1994670D01*
X1431989Y1994859D01*
X1431580Y1995109D01*
X1431210Y1995399D01*
X1430870Y1995740D01*
X1430580Y1996109D01*
X1430330Y1996520D01*
X1430140Y1996950D01*
X1430000Y1997399D01*
X1429909Y1997869D01*
X1429880Y1998350D01*
X1429880Y2041649D01*
X1429909Y2042130D01*
X1430000Y2042600D01*
X1430140Y2043049D01*
X1430330Y2043479D01*
X1430580Y2043890D01*
X1430870Y2044259D01*
X1431210Y2044600D01*
X1431580Y2044890D01*
X1431989Y2045140D01*
X1432420Y2045329D01*
X1432879Y2045479D01*
X1433339Y2045559D01*
X1433819Y2045590D01*
X1457439Y2045590D01*
X1457920Y2045559D01*
X1458379Y2045479D01*
X1458840Y2045329D01*
X1459269Y2045140D01*
X1459679Y2044890D01*
X1460050Y2044600D01*
X1460389Y2044259D01*
X1460680Y2043890D01*
X1460929Y2043479D01*
X1461120Y2043049D01*
X1461260Y2042600D01*
X1461350Y2042130D01*
X1461379Y2041649D01*
G37*
G36*
X1574880Y2156649D02*
G01*
X1574909Y2157130D01*
X1575000Y2157600D01*
X1575140Y2158049D01*
X1575330Y2158479D01*
X1575580Y2158890D01*
X1575870Y2159259D01*
X1576210Y2159600D01*
X1576580Y2159890D01*
X1576989Y2160140D01*
X1577420Y2160329D01*
X1577879Y2160479D01*
X1578339Y2160559D01*
X1578819Y2160590D01*
X1602439Y2160590D01*
X1602920Y2160559D01*
X1603379Y2160479D01*
X1603840Y2160329D01*
X1604269Y2160140D01*
X1604679Y2159890D01*
X1605050Y2159600D01*
X1605389Y2159259D01*
X1605680Y2158890D01*
X1605929Y2158479D01*
X1606120Y2158049D01*
X1606260Y2157600D01*
X1606350Y2157130D01*
X1606379Y2156649D01*
X1606379Y2113350D01*
X1606350Y2112869D01*
X1606260Y2112399D01*
X1606120Y2111950D01*
X1605929Y2111520D01*
X1605680Y2111109D01*
X1605389Y2110740D01*
X1605050Y2110399D01*
X1604679Y2110109D01*
X1604269Y2109859D01*
X1603840Y2109670D01*
X1603379Y2109520D01*
X1602920Y2109440D01*
X1602439Y2109409D01*
X1578819Y2109409D01*
X1578339Y2109440D01*
X1577879Y2109520D01*
X1577420Y2109670D01*
X1576989Y2109859D01*
X1576580Y2110109D01*
X1576210Y2110399D01*
X1575870Y2110740D01*
X1575580Y2111109D01*
X1575330Y2111520D01*
X1575140Y2111950D01*
X1575000Y2112399D01*
X1574909Y2112869D01*
X1574880Y2113350D01*
G37*
G36*
X1653620Y2156649D02*
G01*
X1653649Y2157130D01*
X1653739Y2157600D01*
X1653879Y2158049D01*
X1654070Y2158479D01*
X1654319Y2158890D01*
X1654610Y2159259D01*
X1654949Y2159600D01*
X1655320Y2159890D01*
X1655730Y2160140D01*
X1656159Y2160329D01*
X1656620Y2160479D01*
X1657079Y2160559D01*
X1657560Y2160590D01*
X1681180Y2160590D01*
X1681660Y2160559D01*
X1682120Y2160479D01*
X1682579Y2160329D01*
X1683010Y2160140D01*
X1683419Y2159890D01*
X1683789Y2159600D01*
X1684129Y2159259D01*
X1684420Y2158890D01*
X1684669Y2158479D01*
X1684859Y2158049D01*
X1685000Y2157600D01*
X1685090Y2157130D01*
X1685119Y2156649D01*
X1685119Y2113350D01*
X1685090Y2112869D01*
X1685000Y2112399D01*
X1684859Y2111950D01*
X1684669Y2111520D01*
X1684420Y2111109D01*
X1684129Y2110740D01*
X1683789Y2110399D01*
X1683419Y2110109D01*
X1683010Y2109859D01*
X1682579Y2109670D01*
X1682120Y2109520D01*
X1681660Y2109440D01*
X1681180Y2109409D01*
X1657560Y2109409D01*
X1657079Y2109440D01*
X1656620Y2109520D01*
X1656159Y2109670D01*
X1655730Y2109859D01*
X1655320Y2110109D01*
X1654949Y2110399D01*
X1654610Y2110740D01*
X1654319Y2111109D01*
X1654070Y2111520D01*
X1653879Y2111950D01*
X1653739Y2112399D01*
X1653649Y2112869D01*
X1653620Y2113350D01*
G37*
G36*
X1685119Y2203350D02*
G01*
X1685090Y2202869D01*
X1685000Y2202399D01*
X1684859Y2201950D01*
X1684669Y2201520D01*
X1684420Y2201109D01*
X1684129Y2200740D01*
X1683789Y2200399D01*
X1683419Y2200109D01*
X1683010Y2199859D01*
X1682579Y2199670D01*
X1682120Y2199520D01*
X1681660Y2199440D01*
X1681180Y2199409D01*
X1657560Y2199409D01*
X1657079Y2199440D01*
X1656620Y2199520D01*
X1656159Y2199670D01*
X1655730Y2199859D01*
X1655320Y2200109D01*
X1654949Y2200399D01*
X1654610Y2200740D01*
X1654319Y2201109D01*
X1654070Y2201520D01*
X1653879Y2201950D01*
X1653739Y2202399D01*
X1653649Y2202869D01*
X1653620Y2203350D01*
X1653620Y2246649D01*
X1653649Y2247130D01*
X1653739Y2247600D01*
X1653879Y2248049D01*
X1654070Y2248479D01*
X1654319Y2248890D01*
X1654610Y2249259D01*
X1654949Y2249600D01*
X1655320Y2249890D01*
X1655730Y2250140D01*
X1656159Y2250329D01*
X1656620Y2250479D01*
X1657079Y2250559D01*
X1657560Y2250590D01*
X1681180Y2250590D01*
X1681660Y2250559D01*
X1682120Y2250479D01*
X1682579Y2250329D01*
X1683010Y2250140D01*
X1683419Y2249890D01*
X1683789Y2249600D01*
X1684129Y2249259D01*
X1684420Y2248890D01*
X1684669Y2248479D01*
X1684859Y2248049D01*
X1685000Y2247600D01*
X1685090Y2247130D01*
X1685119Y2246649D01*
G37*
G36*
X1606379Y2203350D02*
G01*
X1606350Y2202869D01*
X1606260Y2202399D01*
X1606120Y2201950D01*
X1605929Y2201520D01*
X1605680Y2201109D01*
X1605389Y2200740D01*
X1605050Y2200399D01*
X1604679Y2200109D01*
X1604269Y2199859D01*
X1603840Y2199670D01*
X1603379Y2199520D01*
X1602920Y2199440D01*
X1602439Y2199409D01*
X1578819Y2199409D01*
X1578339Y2199440D01*
X1577879Y2199520D01*
X1577420Y2199670D01*
X1576989Y2199859D01*
X1576580Y2200109D01*
X1576210Y2200399D01*
X1575870Y2200740D01*
X1575580Y2201109D01*
X1575330Y2201520D01*
X1575140Y2201950D01*
X1575000Y2202399D01*
X1574909Y2202869D01*
X1574880Y2203350D01*
X1574880Y2246649D01*
X1574909Y2247130D01*
X1575000Y2247600D01*
X1575140Y2248049D01*
X1575330Y2248479D01*
X1575580Y2248890D01*
X1575870Y2249259D01*
X1576210Y2249600D01*
X1576580Y2249890D01*
X1576989Y2250140D01*
X1577420Y2250329D01*
X1577879Y2250479D01*
X1578339Y2250559D01*
X1578819Y2250590D01*
X1602439Y2250590D01*
X1602920Y2250559D01*
X1603379Y2250479D01*
X1603840Y2250329D01*
X1604269Y2250140D01*
X1604679Y2249890D01*
X1605050Y2249600D01*
X1605389Y2249259D01*
X1605680Y2248890D01*
X1605929Y2248479D01*
X1606120Y2248049D01*
X1606260Y2247600D01*
X1606350Y2247130D01*
X1606379Y2246649D01*
G37*
D12*
G01*
X363310Y790000D03*
G01*
X276689Y790000D03*
D19*
G01*
X1590000Y1749499D03*
G01*
X1540000Y1749499D03*
G01*
X1490000Y1749499D03*
G01*
X1440000Y1749499D03*
G01*
X1440000Y1520500D03*
G01*
X1490000Y1520500D03*
G01*
X1540000Y1520500D03*
G01*
X1590000Y1520500D03*
D20*
G01*
X1515000Y1635000D03*
D12*
G01*
X1196970Y1350000D03*
G01*
X1283590Y1350000D03*
G01*
X1288310Y1496410D03*
G01*
X1201689Y1496410D03*
G01*
X1196689Y1650000D03*
G01*
X1283310Y1650000D03*
G01*
X1288310Y1790000D03*
G01*
X1201689Y1790000D03*
G01*
X363310Y636669D03*
G01*
X276689Y636669D03*
G01*
X363310Y943330D03*
G01*
X276689Y943330D03*
G36*
X1247500Y945000D02*
G01*
X1248100Y944960D01*
X1248699Y944850D01*
X1249269Y944670D01*
X1249819Y944430D01*
X1250339Y944109D01*
X1250820Y943739D01*
X1251239Y943320D01*
X1251610Y942840D01*
X1251930Y942319D01*
X1252179Y941770D01*
X1252349Y941199D01*
X1252460Y940599D01*
X1252500Y940000D01*
X1252500Y910000D01*
X1252460Y909400D01*
X1252349Y908800D01*
X1252179Y908229D01*
X1251930Y907680D01*
X1251610Y907159D01*
X1251239Y906679D01*
X1250820Y906260D01*
X1250339Y905890D01*
X1249819Y905569D01*
X1249269Y905320D01*
X1248699Y905149D01*
X1248100Y905039D01*
X1247500Y905000D01*
X1202500Y905000D01*
X1201899Y905039D01*
X1201300Y905149D01*
X1200730Y905320D01*
X1200180Y905569D01*
X1199660Y905890D01*
X1199179Y906260D01*
X1198760Y906679D01*
X1198389Y907159D01*
X1198069Y907680D01*
X1197820Y908229D01*
X1197650Y908800D01*
X1197539Y909400D01*
X1197500Y910000D01*
X1197500Y940000D01*
X1197539Y940599D01*
X1197650Y941199D01*
X1197820Y941770D01*
X1198069Y942319D01*
X1198389Y942840D01*
X1198760Y943320D01*
X1199179Y943739D01*
X1199660Y944109D01*
X1200180Y944430D01*
X1200730Y944670D01*
X1201300Y944850D01*
X1201899Y944960D01*
X1202500Y945000D01*
G37*
G36*
X1247500Y875000D02*
G01*
X1248100Y874960D01*
X1248699Y874850D01*
X1249269Y874679D01*
X1249819Y874430D01*
X1250339Y874109D01*
X1250820Y873739D01*
X1251239Y873320D01*
X1251610Y872840D01*
X1251930Y872319D01*
X1252179Y871770D01*
X1252349Y871199D01*
X1252460Y870599D01*
X1252500Y870000D01*
X1252500Y840000D01*
X1252460Y839400D01*
X1252349Y838800D01*
X1252179Y838229D01*
X1251930Y837680D01*
X1251610Y837159D01*
X1251239Y836679D01*
X1250820Y836260D01*
X1250339Y835890D01*
X1249819Y835569D01*
X1249269Y835329D01*
X1248699Y835149D01*
X1248100Y835039D01*
X1247500Y835000D01*
X1202500Y835000D01*
X1201899Y835039D01*
X1201300Y835149D01*
X1200730Y835329D01*
X1200180Y835569D01*
X1199660Y835890D01*
X1199179Y836260D01*
X1198760Y836679D01*
X1198389Y837159D01*
X1198069Y837680D01*
X1197820Y838229D01*
X1197650Y838800D01*
X1197539Y839400D01*
X1197500Y840000D01*
X1197500Y870000D01*
X1197539Y870599D01*
X1197650Y871199D01*
X1197820Y871770D01*
X1198069Y872319D01*
X1198389Y872840D01*
X1198760Y873320D01*
X1199179Y873739D01*
X1199660Y874109D01*
X1200180Y874430D01*
X1200730Y874679D01*
X1201300Y874850D01*
X1201899Y874960D01*
X1202500Y875000D01*
G37*
G36*
X793350Y569879D02*
G01*
X792870Y569909D01*
X792399Y570000D01*
X791949Y570140D01*
X791520Y570329D01*
X791109Y570579D01*
X790739Y570869D01*
X790399Y571210D01*
X790110Y571579D01*
X789859Y571990D01*
X789669Y572420D01*
X789520Y572880D01*
X789440Y573339D01*
X789409Y573820D01*
X789409Y597440D01*
X789440Y597919D01*
X789520Y598380D01*
X789669Y598840D01*
X789859Y599270D01*
X790110Y599679D01*
X790399Y600050D01*
X790739Y600390D01*
X791109Y600680D01*
X791520Y600929D01*
X791949Y601120D01*
X792399Y601260D01*
X792870Y601350D01*
X793350Y601379D01*
X836649Y601379D01*
X837129Y601350D01*
X837600Y601260D01*
X838050Y601120D01*
X838479Y600929D01*
X838890Y600680D01*
X839260Y600390D01*
X839600Y600050D01*
X839889Y599679D01*
X840140Y599270D01*
X840330Y598840D01*
X840479Y598380D01*
X840559Y597919D01*
X840590Y597440D01*
X840590Y573820D01*
X840559Y573339D01*
X840479Y572880D01*
X840330Y572420D01*
X840140Y571990D01*
X839889Y571579D01*
X839600Y571210D01*
X839260Y570869D01*
X838890Y570579D01*
X838479Y570329D01*
X838050Y570140D01*
X837600Y570000D01*
X837129Y569909D01*
X836649Y569879D01*
G37*
G36*
X793350Y648620D02*
G01*
X792870Y648649D01*
X792399Y648739D01*
X791949Y648879D01*
X791520Y649070D01*
X791109Y649319D01*
X790739Y649609D01*
X790399Y649949D01*
X790110Y650320D01*
X789859Y650729D01*
X789669Y651159D01*
X789520Y651619D01*
X789440Y652080D01*
X789409Y652559D01*
X789409Y676179D01*
X789440Y676660D01*
X789520Y677119D01*
X789669Y677579D01*
X789859Y678009D01*
X790110Y678420D01*
X790399Y678789D01*
X790739Y679130D01*
X791109Y679420D01*
X791520Y679670D01*
X791949Y679859D01*
X792399Y680000D01*
X792870Y680090D01*
X793350Y680120D01*
X836649Y680120D01*
X837129Y680090D01*
X837600Y680000D01*
X838050Y679859D01*
X838479Y679670D01*
X838890Y679420D01*
X839260Y679130D01*
X839600Y678789D01*
X839889Y678420D01*
X840140Y678009D01*
X840330Y677579D01*
X840479Y677119D01*
X840559Y676660D01*
X840590Y676179D01*
X840590Y652559D01*
X840559Y652080D01*
X840479Y651619D01*
X840330Y651159D01*
X840140Y650729D01*
X839889Y650320D01*
X839600Y649949D01*
X839260Y649609D01*
X838890Y649319D01*
X838479Y649070D01*
X838050Y648879D01*
X837600Y648739D01*
X837129Y648649D01*
X836649Y648620D01*
G37*
G36*
X878350Y569879D02*
G01*
X877870Y569909D01*
X877399Y570000D01*
X876949Y570140D01*
X876520Y570329D01*
X876109Y570579D01*
X875739Y570869D01*
X875399Y571210D01*
X875110Y571579D01*
X874859Y571990D01*
X874669Y572420D01*
X874520Y572880D01*
X874440Y573339D01*
X874409Y573820D01*
X874409Y597440D01*
X874440Y597919D01*
X874520Y598380D01*
X874669Y598840D01*
X874859Y599270D01*
X875110Y599679D01*
X875399Y600050D01*
X875739Y600390D01*
X876109Y600680D01*
X876520Y600929D01*
X876949Y601120D01*
X877399Y601260D01*
X877870Y601350D01*
X878350Y601379D01*
X921649Y601379D01*
X922129Y601350D01*
X922600Y601260D01*
X923050Y601120D01*
X923479Y600929D01*
X923890Y600680D01*
X924260Y600390D01*
X924600Y600050D01*
X924889Y599679D01*
X925140Y599270D01*
X925330Y598840D01*
X925479Y598380D01*
X925559Y597919D01*
X925590Y597440D01*
X925590Y573820D01*
X925559Y573339D01*
X925479Y572880D01*
X925330Y572420D01*
X925140Y571990D01*
X924889Y571579D01*
X924600Y571210D01*
X924260Y570869D01*
X923890Y570579D01*
X923479Y570329D01*
X923050Y570140D01*
X922600Y570000D01*
X922129Y569909D01*
X921649Y569879D01*
G37*
G36*
X878350Y648620D02*
G01*
X877870Y648649D01*
X877399Y648739D01*
X876949Y648879D01*
X876520Y649070D01*
X876109Y649319D01*
X875739Y649609D01*
X875399Y649949D01*
X875110Y650320D01*
X874859Y650729D01*
X874669Y651159D01*
X874520Y651619D01*
X874440Y652080D01*
X874409Y652559D01*
X874409Y676179D01*
X874440Y676660D01*
X874520Y677119D01*
X874669Y677579D01*
X874859Y678009D01*
X875110Y678420D01*
X875399Y678789D01*
X875739Y679130D01*
X876109Y679420D01*
X876520Y679670D01*
X876949Y679859D01*
X877399Y680000D01*
X877870Y680090D01*
X878350Y680120D01*
X921649Y680120D01*
X922129Y680090D01*
X922600Y680000D01*
X923050Y679859D01*
X923479Y679670D01*
X923890Y679420D01*
X924260Y679130D01*
X924600Y678789D01*
X924889Y678420D01*
X925140Y678009D01*
X925330Y677579D01*
X925479Y677119D01*
X925559Y676660D01*
X925590Y676179D01*
X925590Y652559D01*
X925559Y652080D01*
X925479Y651619D01*
X925330Y651159D01*
X925140Y650729D01*
X924889Y650320D01*
X924600Y649949D01*
X924260Y649609D01*
X923890Y649319D01*
X923479Y649070D01*
X923050Y648879D01*
X922600Y648739D01*
X922129Y648649D01*
X921649Y648620D01*
G37*
G36*
X618350Y569879D02*
G01*
X617869Y569909D01*
X617399Y570000D01*
X616950Y570140D01*
X616520Y570329D01*
X616109Y570579D01*
X615740Y570869D01*
X615399Y571210D01*
X615109Y571579D01*
X614859Y571990D01*
X614670Y572420D01*
X614520Y572880D01*
X614440Y573339D01*
X614409Y573820D01*
X614409Y597440D01*
X614440Y597919D01*
X614520Y598380D01*
X614670Y598840D01*
X614859Y599270D01*
X615109Y599679D01*
X615399Y600050D01*
X615740Y600390D01*
X616109Y600680D01*
X616520Y600929D01*
X616950Y601120D01*
X617399Y601260D01*
X617869Y601350D01*
X618350Y601379D01*
X661649Y601379D01*
X662130Y601350D01*
X662600Y601260D01*
X663049Y601120D01*
X663479Y600929D01*
X663890Y600680D01*
X664259Y600390D01*
X664600Y600050D01*
X664890Y599679D01*
X665140Y599270D01*
X665329Y598840D01*
X665479Y598380D01*
X665559Y597919D01*
X665590Y597440D01*
X665590Y573820D01*
X665559Y573339D01*
X665479Y572880D01*
X665329Y572420D01*
X665140Y571990D01*
X664890Y571579D01*
X664600Y571210D01*
X664259Y570869D01*
X663890Y570579D01*
X663479Y570329D01*
X663049Y570140D01*
X662600Y570000D01*
X662130Y569909D01*
X661649Y569879D01*
G37*
G36*
X618350Y648620D02*
G01*
X617869Y648649D01*
X617399Y648739D01*
X616950Y648879D01*
X616520Y649070D01*
X616109Y649319D01*
X615740Y649609D01*
X615399Y649949D01*
X615109Y650320D01*
X614859Y650729D01*
X614670Y651159D01*
X614520Y651619D01*
X614440Y652080D01*
X614409Y652559D01*
X614409Y676179D01*
X614440Y676660D01*
X614520Y677119D01*
X614670Y677579D01*
X614859Y678009D01*
X615109Y678420D01*
X615399Y678789D01*
X615740Y679130D01*
X616109Y679420D01*
X616520Y679670D01*
X616950Y679859D01*
X617399Y680000D01*
X617869Y680090D01*
X618350Y680120D01*
X661649Y680120D01*
X662130Y680090D01*
X662600Y680000D01*
X663049Y679859D01*
X663479Y679670D01*
X663890Y679420D01*
X664259Y679130D01*
X664600Y678789D01*
X664890Y678420D01*
X665140Y678009D01*
X665329Y677579D01*
X665479Y677119D01*
X665559Y676660D01*
X665590Y676179D01*
X665590Y652559D01*
X665559Y652080D01*
X665479Y651619D01*
X665329Y651159D01*
X665140Y650729D01*
X664890Y650320D01*
X664600Y649949D01*
X664259Y649609D01*
X663890Y649319D01*
X663479Y649070D01*
X663049Y648879D01*
X662600Y648739D01*
X662130Y648649D01*
X661649Y648620D01*
G37*
G36*
X703350Y569879D02*
G01*
X702869Y569909D01*
X702399Y570000D01*
X701950Y570140D01*
X701520Y570329D01*
X701109Y570579D01*
X700740Y570869D01*
X700399Y571210D01*
X700109Y571579D01*
X699859Y571990D01*
X699670Y572420D01*
X699520Y572880D01*
X699440Y573339D01*
X699409Y573820D01*
X699409Y597440D01*
X699440Y597919D01*
X699520Y598380D01*
X699670Y598840D01*
X699859Y599270D01*
X700109Y599679D01*
X700399Y600050D01*
X700740Y600390D01*
X701109Y600680D01*
X701520Y600929D01*
X701950Y601120D01*
X702399Y601260D01*
X702869Y601350D01*
X703350Y601379D01*
X746649Y601379D01*
X747130Y601350D01*
X747600Y601260D01*
X748049Y601120D01*
X748479Y600929D01*
X748890Y600680D01*
X749259Y600390D01*
X749600Y600050D01*
X749890Y599679D01*
X750140Y599270D01*
X750329Y598840D01*
X750479Y598380D01*
X750559Y597919D01*
X750590Y597440D01*
X750590Y573820D01*
X750559Y573339D01*
X750479Y572880D01*
X750329Y572420D01*
X750140Y571990D01*
X749890Y571579D01*
X749600Y571210D01*
X749259Y570869D01*
X748890Y570579D01*
X748479Y570329D01*
X748049Y570140D01*
X747600Y570000D01*
X747130Y569909D01*
X746649Y569879D01*
G37*
G36*
X703350Y648620D02*
G01*
X702869Y648649D01*
X702399Y648739D01*
X701950Y648879D01*
X701520Y649070D01*
X701109Y649319D01*
X700740Y649609D01*
X700399Y649949D01*
X700109Y650320D01*
X699859Y650729D01*
X699670Y651159D01*
X699520Y651619D01*
X699440Y652080D01*
X699409Y652559D01*
X699409Y676179D01*
X699440Y676660D01*
X699520Y677119D01*
X699670Y677579D01*
X699859Y678009D01*
X700109Y678420D01*
X700399Y678789D01*
X700740Y679130D01*
X701109Y679420D01*
X701520Y679670D01*
X701950Y679859D01*
X702399Y680000D01*
X702869Y680090D01*
X703350Y680120D01*
X746649Y680120D01*
X747130Y680090D01*
X747600Y680000D01*
X748049Y679859D01*
X748479Y679670D01*
X748890Y679420D01*
X749259Y679130D01*
X749600Y678789D01*
X749890Y678420D01*
X750140Y678009D01*
X750329Y677579D01*
X750479Y677119D01*
X750559Y676660D01*
X750590Y676179D01*
X750590Y652559D01*
X750559Y652080D01*
X750479Y651619D01*
X750329Y651159D01*
X750140Y650729D01*
X749890Y650320D01*
X749600Y649949D01*
X749259Y649609D01*
X748890Y649319D01*
X748479Y649070D01*
X748049Y648879D01*
X747600Y648739D01*
X747130Y648649D01*
X746649Y648620D01*
G37*
G01*
X813310Y340000D03*
G01*
X726689Y340000D03*
G01*
X813310Y489169D03*
G01*
X726689Y489169D03*
G36*
X1780000Y2052500D02*
G01*
X1780039Y2053099D01*
X1780150Y2053699D01*
X1780330Y2054270D01*
X1780569Y2054819D01*
X1780889Y2055340D01*
X1781260Y2055820D01*
X1781679Y2056239D01*
X1782160Y2056609D01*
X1782680Y2056930D01*
X1783230Y2057179D01*
X1783800Y2057350D01*
X1784399Y2057460D01*
X1785000Y2057500D01*
X1815000Y2057500D01*
X1815600Y2057460D01*
X1816199Y2057350D01*
X1816769Y2057179D01*
X1817319Y2056930D01*
X1817839Y2056609D01*
X1818320Y2056239D01*
X1818739Y2055820D01*
X1819110Y2055340D01*
X1819430Y2054819D01*
X1819679Y2054270D01*
X1819849Y2053699D01*
X1819960Y2053099D01*
X1820000Y2052500D01*
X1820000Y2007500D01*
X1819960Y2006900D01*
X1819849Y2006300D01*
X1819679Y2005729D01*
X1819430Y2005180D01*
X1819110Y2004659D01*
X1818739Y2004179D01*
X1818320Y2003760D01*
X1817839Y2003390D01*
X1817319Y2003069D01*
X1816769Y2002820D01*
X1816199Y2002649D01*
X1815600Y2002539D01*
X1815000Y2002500D01*
X1785000Y2002500D01*
X1784399Y2002539D01*
X1783800Y2002649D01*
X1783230Y2002820D01*
X1782680Y2003069D01*
X1782160Y2003390D01*
X1781679Y2003760D01*
X1781260Y2004179D01*
X1780889Y2004659D01*
X1780569Y2005180D01*
X1780330Y2005729D01*
X1780150Y2006300D01*
X1780039Y2006900D01*
X1780000Y2007500D01*
G37*
G36*
X1850000Y2052500D02*
G01*
X1850039Y2053099D01*
X1850150Y2053699D01*
X1850320Y2054270D01*
X1850569Y2054819D01*
X1850889Y2055340D01*
X1851260Y2055820D01*
X1851679Y2056239D01*
X1852160Y2056609D01*
X1852680Y2056930D01*
X1853230Y2057179D01*
X1853800Y2057350D01*
X1854399Y2057460D01*
X1855000Y2057500D01*
X1885000Y2057500D01*
X1885600Y2057460D01*
X1886199Y2057350D01*
X1886769Y2057179D01*
X1887319Y2056930D01*
X1887839Y2056609D01*
X1888320Y2056239D01*
X1888739Y2055820D01*
X1889110Y2055340D01*
X1889430Y2054819D01*
X1889669Y2054270D01*
X1889849Y2053699D01*
X1889960Y2053099D01*
X1890000Y2052500D01*
X1890000Y2007500D01*
X1889960Y2006900D01*
X1889849Y2006300D01*
X1889669Y2005729D01*
X1889430Y2005180D01*
X1889110Y2004659D01*
X1888739Y2004179D01*
X1888320Y2003760D01*
X1887839Y2003390D01*
X1887319Y2003069D01*
X1886769Y2002820D01*
X1886199Y2002649D01*
X1885600Y2002539D01*
X1885000Y2002500D01*
X1855000Y2002500D01*
X1854399Y2002539D01*
X1853800Y2002649D01*
X1853230Y2002820D01*
X1852680Y2003069D01*
X1852160Y2003390D01*
X1851679Y2003760D01*
X1851260Y2004179D01*
X1850889Y2004659D01*
X1850569Y2005180D01*
X1850320Y2005729D01*
X1850150Y2006300D01*
X1850039Y2006900D01*
X1850000Y2007500D01*
G37*
G36*
X1230000Y2052500D02*
G01*
X1230039Y2053099D01*
X1230150Y2053699D01*
X1230330Y2054270D01*
X1230569Y2054819D01*
X1230889Y2055340D01*
X1231260Y2055820D01*
X1231679Y2056239D01*
X1232160Y2056609D01*
X1232680Y2056930D01*
X1233230Y2057179D01*
X1233800Y2057350D01*
X1234399Y2057460D01*
X1235000Y2057500D01*
X1265000Y2057500D01*
X1265600Y2057460D01*
X1266199Y2057350D01*
X1266769Y2057179D01*
X1267319Y2056930D01*
X1267839Y2056609D01*
X1268320Y2056239D01*
X1268739Y2055820D01*
X1269110Y2055340D01*
X1269430Y2054819D01*
X1269679Y2054270D01*
X1269849Y2053699D01*
X1269960Y2053099D01*
X1270000Y2052500D01*
X1270000Y2007500D01*
X1269960Y2006900D01*
X1269849Y2006300D01*
X1269679Y2005729D01*
X1269430Y2005180D01*
X1269110Y2004659D01*
X1268739Y2004179D01*
X1268320Y2003760D01*
X1267839Y2003390D01*
X1267319Y2003069D01*
X1266769Y2002820D01*
X1266199Y2002649D01*
X1265600Y2002539D01*
X1265000Y2002500D01*
X1235000Y2002500D01*
X1234399Y2002539D01*
X1233800Y2002649D01*
X1233230Y2002820D01*
X1232680Y2003069D01*
X1232160Y2003390D01*
X1231679Y2003760D01*
X1231260Y2004179D01*
X1230889Y2004659D01*
X1230569Y2005180D01*
X1230330Y2005729D01*
X1230150Y2006300D01*
X1230039Y2006900D01*
X1230000Y2007500D01*
G37*
G36*
X1300000Y2052500D02*
G01*
X1300039Y2053099D01*
X1300150Y2053699D01*
X1300320Y2054270D01*
X1300569Y2054819D01*
X1300889Y2055340D01*
X1301260Y2055820D01*
X1301679Y2056239D01*
X1302160Y2056609D01*
X1302680Y2056930D01*
X1303230Y2057179D01*
X1303800Y2057350D01*
X1304399Y2057460D01*
X1305000Y2057500D01*
X1335000Y2057500D01*
X1335600Y2057460D01*
X1336199Y2057350D01*
X1336769Y2057179D01*
X1337319Y2056930D01*
X1337839Y2056609D01*
X1338320Y2056239D01*
X1338739Y2055820D01*
X1339110Y2055340D01*
X1339430Y2054819D01*
X1339669Y2054270D01*
X1339849Y2053699D01*
X1339960Y2053099D01*
X1340000Y2052500D01*
X1340000Y2007500D01*
X1339960Y2006900D01*
X1339849Y2006300D01*
X1339669Y2005729D01*
X1339430Y2005180D01*
X1339110Y2004659D01*
X1338739Y2004179D01*
X1338320Y2003760D01*
X1337839Y2003390D01*
X1337319Y2003069D01*
X1336769Y2002820D01*
X1336199Y2002649D01*
X1335600Y2002539D01*
X1335000Y2002500D01*
X1305000Y2002500D01*
X1304399Y2002539D01*
X1303800Y2002649D01*
X1303230Y2002820D01*
X1302680Y2003069D01*
X1302160Y2003390D01*
X1301679Y2003760D01*
X1301260Y2004179D01*
X1300889Y2004659D01*
X1300569Y2005180D01*
X1300320Y2005729D01*
X1300150Y2006300D01*
X1300039Y2006900D01*
X1300000Y2007500D01*
G37*
G36*
X680000Y2052500D02*
G01*
X680039Y2053099D01*
X680149Y2053699D01*
X680329Y2054270D01*
X680569Y2054819D01*
X680890Y2055340D01*
X681260Y2055820D01*
X681679Y2056239D01*
X682159Y2056609D01*
X682680Y2056930D01*
X683229Y2057179D01*
X683800Y2057350D01*
X684400Y2057460D01*
X685000Y2057500D01*
X715000Y2057500D01*
X715599Y2057460D01*
X716199Y2057350D01*
X716770Y2057179D01*
X717319Y2056930D01*
X717840Y2056609D01*
X718320Y2056239D01*
X718739Y2055820D01*
X719109Y2055340D01*
X719430Y2054819D01*
X719679Y2054270D01*
X719850Y2053699D01*
X719960Y2053099D01*
X720000Y2052500D01*
X720000Y2007500D01*
X719960Y2006900D01*
X719850Y2006300D01*
X719679Y2005729D01*
X719430Y2005180D01*
X719109Y2004659D01*
X718739Y2004179D01*
X718320Y2003760D01*
X717840Y2003390D01*
X717319Y2003069D01*
X716770Y2002820D01*
X716199Y2002649D01*
X715599Y2002539D01*
X715000Y2002500D01*
X685000Y2002500D01*
X684400Y2002539D01*
X683800Y2002649D01*
X683229Y2002820D01*
X682680Y2003069D01*
X682159Y2003390D01*
X681679Y2003760D01*
X681260Y2004179D01*
X680890Y2004659D01*
X680569Y2005180D01*
X680329Y2005729D01*
X680149Y2006300D01*
X680039Y2006900D01*
X680000Y2007500D01*
G37*
G36*
X750000Y2052500D02*
G01*
X750039Y2053099D01*
X750149Y2053699D01*
X750320Y2054270D01*
X750569Y2054819D01*
X750890Y2055340D01*
X751260Y2055820D01*
X751679Y2056239D01*
X752159Y2056609D01*
X752680Y2056930D01*
X753229Y2057179D01*
X753800Y2057350D01*
X754400Y2057460D01*
X755000Y2057500D01*
X785000Y2057500D01*
X785600Y2057460D01*
X786199Y2057350D01*
X786769Y2057179D01*
X787319Y2056930D01*
X787839Y2056609D01*
X788320Y2056239D01*
X788739Y2055820D01*
X789110Y2055340D01*
X789430Y2054819D01*
X789669Y2054270D01*
X789849Y2053699D01*
X789960Y2053099D01*
X790000Y2052500D01*
X790000Y2007500D01*
X789960Y2006900D01*
X789849Y2006300D01*
X789669Y2005729D01*
X789430Y2005180D01*
X789110Y2004659D01*
X788739Y2004179D01*
X788320Y2003760D01*
X787839Y2003390D01*
X787319Y2003069D01*
X786769Y2002820D01*
X786199Y2002649D01*
X785600Y2002539D01*
X785000Y2002500D01*
X755000Y2002500D01*
X754400Y2002539D01*
X753800Y2002649D01*
X753229Y2002820D01*
X752680Y2003069D01*
X752159Y2003390D01*
X751679Y2003760D01*
X751260Y2004179D01*
X750890Y2004659D01*
X750569Y2005180D01*
X750320Y2005729D01*
X750149Y2006300D01*
X750039Y2006900D01*
X750000Y2007500D01*
G37*
G36*
X434879Y1111649D02*
G01*
X434909Y1112130D01*
X435000Y1112600D01*
X435140Y1113049D01*
X435329Y1113479D01*
X435579Y1113890D01*
X435869Y1114259D01*
X436210Y1114600D01*
X436579Y1114890D01*
X436990Y1115140D01*
X437420Y1115329D01*
X437880Y1115479D01*
X438339Y1115559D01*
X438820Y1115590D01*
X462440Y1115590D01*
X462919Y1115559D01*
X463380Y1115479D01*
X463840Y1115329D01*
X464270Y1115140D01*
X464679Y1114890D01*
X465050Y1114600D01*
X465390Y1114259D01*
X465680Y1113890D01*
X465929Y1113479D01*
X466120Y1113049D01*
X466260Y1112600D01*
X466350Y1112130D01*
X466379Y1111649D01*
X466379Y1068350D01*
X466350Y1067869D01*
X466260Y1067399D01*
X466120Y1066950D01*
X465929Y1066520D01*
X465680Y1066109D01*
X465390Y1065740D01*
X465050Y1065399D01*
X464679Y1065109D01*
X464270Y1064859D01*
X463840Y1064670D01*
X463380Y1064520D01*
X462919Y1064440D01*
X462440Y1064409D01*
X438820Y1064409D01*
X438339Y1064440D01*
X437880Y1064520D01*
X437420Y1064670D01*
X436990Y1064859D01*
X436579Y1065109D01*
X436210Y1065399D01*
X435869Y1065740D01*
X435579Y1066109D01*
X435329Y1066520D01*
X435140Y1066950D01*
X435000Y1067399D01*
X434909Y1067869D01*
X434879Y1068350D01*
G37*
G36*
X513620Y1111649D02*
G01*
X513649Y1112130D01*
X513739Y1112600D01*
X513879Y1113049D01*
X514070Y1113479D01*
X514319Y1113890D01*
X514609Y1114259D01*
X514949Y1114600D01*
X515320Y1114890D01*
X515729Y1115140D01*
X516159Y1115329D01*
X516619Y1115479D01*
X517080Y1115559D01*
X517559Y1115590D01*
X541179Y1115590D01*
X541660Y1115559D01*
X542119Y1115479D01*
X542579Y1115329D01*
X543009Y1115140D01*
X543420Y1114890D01*
X543789Y1114600D01*
X544130Y1114259D01*
X544420Y1113890D01*
X544670Y1113479D01*
X544859Y1113049D01*
X545000Y1112600D01*
X545090Y1112130D01*
X545120Y1111649D01*
X545120Y1068350D01*
X545090Y1067869D01*
X545000Y1067399D01*
X544859Y1066950D01*
X544670Y1066520D01*
X544420Y1066109D01*
X544130Y1065740D01*
X543789Y1065399D01*
X543420Y1065109D01*
X543009Y1064859D01*
X542579Y1064670D01*
X542119Y1064520D01*
X541660Y1064440D01*
X541179Y1064409D01*
X517559Y1064409D01*
X517080Y1064440D01*
X516619Y1064520D01*
X516159Y1064670D01*
X515729Y1064859D01*
X515320Y1065109D01*
X514949Y1065399D01*
X514609Y1065740D01*
X514319Y1066109D01*
X514070Y1066520D01*
X513879Y1066950D01*
X513739Y1067399D01*
X513649Y1067869D01*
X513620Y1068350D01*
G37*
G36*
X434879Y1261649D02*
G01*
X434909Y1262130D01*
X435000Y1262600D01*
X435140Y1263049D01*
X435329Y1263479D01*
X435579Y1263890D01*
X435869Y1264259D01*
X436210Y1264600D01*
X436579Y1264890D01*
X436990Y1265140D01*
X437420Y1265329D01*
X437880Y1265479D01*
X438339Y1265559D01*
X438820Y1265590D01*
X462440Y1265590D01*
X462919Y1265559D01*
X463380Y1265479D01*
X463840Y1265329D01*
X464270Y1265140D01*
X464679Y1264890D01*
X465050Y1264600D01*
X465390Y1264259D01*
X465680Y1263890D01*
X465929Y1263479D01*
X466120Y1263049D01*
X466260Y1262600D01*
X466350Y1262130D01*
X466379Y1261649D01*
X466379Y1218350D01*
X466350Y1217869D01*
X466260Y1217399D01*
X466120Y1216950D01*
X465929Y1216520D01*
X465680Y1216109D01*
X465390Y1215740D01*
X465050Y1215399D01*
X464679Y1215109D01*
X464270Y1214859D01*
X463840Y1214670D01*
X463380Y1214520D01*
X462919Y1214440D01*
X462440Y1214409D01*
X438820Y1214409D01*
X438339Y1214440D01*
X437880Y1214520D01*
X437420Y1214670D01*
X436990Y1214859D01*
X436579Y1215109D01*
X436210Y1215399D01*
X435869Y1215740D01*
X435579Y1216109D01*
X435329Y1216520D01*
X435140Y1216950D01*
X435000Y1217399D01*
X434909Y1217869D01*
X434879Y1218350D01*
G37*
G36*
X513620Y1261649D02*
G01*
X513649Y1262130D01*
X513739Y1262600D01*
X513879Y1263049D01*
X514070Y1263479D01*
X514319Y1263890D01*
X514609Y1264259D01*
X514949Y1264600D01*
X515320Y1264890D01*
X515729Y1265140D01*
X516159Y1265329D01*
X516619Y1265479D01*
X517080Y1265559D01*
X517559Y1265590D01*
X541179Y1265590D01*
X541660Y1265559D01*
X542119Y1265479D01*
X542579Y1265329D01*
X543009Y1265140D01*
X543420Y1264890D01*
X543789Y1264600D01*
X544130Y1264259D01*
X544420Y1263890D01*
X544670Y1263479D01*
X544859Y1263049D01*
X545000Y1262600D01*
X545090Y1262130D01*
X545120Y1261649D01*
X545120Y1218350D01*
X545090Y1217869D01*
X545000Y1217399D01*
X544859Y1216950D01*
X544670Y1216520D01*
X544420Y1216109D01*
X544130Y1215740D01*
X543789Y1215399D01*
X543420Y1215109D01*
X543009Y1214859D01*
X542579Y1214670D01*
X542119Y1214520D01*
X541660Y1214440D01*
X541179Y1214409D01*
X517559Y1214409D01*
X517080Y1214440D01*
X516619Y1214520D01*
X516159Y1214670D01*
X515729Y1214859D01*
X515320Y1215109D01*
X514949Y1215399D01*
X514609Y1215740D01*
X514319Y1216109D01*
X514070Y1216520D01*
X513879Y1216950D01*
X513739Y1217399D01*
X513649Y1217869D01*
X513620Y1218350D01*
G37*
G36*
X434879Y961649D02*
G01*
X434909Y962130D01*
X435000Y962600D01*
X435140Y963049D01*
X435329Y963479D01*
X435579Y963890D01*
X435869Y964259D01*
X436210Y964600D01*
X436579Y964890D01*
X436990Y965140D01*
X437420Y965329D01*
X437880Y965479D01*
X438339Y965559D01*
X438820Y965590D01*
X462440Y965590D01*
X462919Y965559D01*
X463380Y965479D01*
X463840Y965329D01*
X464270Y965140D01*
X464679Y964890D01*
X465050Y964600D01*
X465390Y964259D01*
X465680Y963890D01*
X465929Y963479D01*
X466120Y963049D01*
X466260Y962600D01*
X466350Y962130D01*
X466379Y961649D01*
X466379Y918350D01*
X466350Y917869D01*
X466260Y917399D01*
X466120Y916950D01*
X465929Y916520D01*
X465680Y916109D01*
X465390Y915740D01*
X465050Y915399D01*
X464679Y915109D01*
X464270Y914859D01*
X463840Y914670D01*
X463380Y914520D01*
X462919Y914440D01*
X462440Y914409D01*
X438820Y914409D01*
X438339Y914440D01*
X437880Y914520D01*
X437420Y914670D01*
X436990Y914859D01*
X436579Y915109D01*
X436210Y915399D01*
X435869Y915740D01*
X435579Y916109D01*
X435329Y916520D01*
X435140Y916950D01*
X435000Y917399D01*
X434909Y917869D01*
X434879Y918350D01*
G37*
G36*
X513620Y961649D02*
G01*
X513649Y962130D01*
X513739Y962600D01*
X513879Y963049D01*
X514070Y963479D01*
X514319Y963890D01*
X514609Y964259D01*
X514949Y964600D01*
X515320Y964890D01*
X515729Y965140D01*
X516159Y965329D01*
X516619Y965479D01*
X517080Y965559D01*
X517559Y965590D01*
X541179Y965590D01*
X541660Y965559D01*
X542119Y965479D01*
X542579Y965329D01*
X543009Y965140D01*
X543420Y964890D01*
X543789Y964600D01*
X544130Y964259D01*
X544420Y963890D01*
X544670Y963479D01*
X544859Y963049D01*
X545000Y962600D01*
X545090Y962130D01*
X545120Y961649D01*
X545120Y918350D01*
X545090Y917869D01*
X545000Y917399D01*
X544859Y916950D01*
X544670Y916520D01*
X544420Y916109D01*
X544130Y915740D01*
X543789Y915399D01*
X543420Y915109D01*
X543009Y914859D01*
X542579Y914670D01*
X542119Y914520D01*
X541660Y914440D01*
X541179Y914409D01*
X517559Y914409D01*
X517080Y914440D01*
X516619Y914520D01*
X516159Y914670D01*
X515729Y914859D01*
X515320Y915109D01*
X514949Y915399D01*
X514609Y915740D01*
X514319Y916109D01*
X514070Y916520D01*
X513879Y916950D01*
X513739Y917399D01*
X513649Y917869D01*
X513620Y918350D01*
G37*
G36*
X434879Y816649D02*
G01*
X434909Y817130D01*
X435000Y817600D01*
X435140Y818049D01*
X435329Y818479D01*
X435579Y818890D01*
X435869Y819259D01*
X436210Y819600D01*
X436579Y819890D01*
X436990Y820140D01*
X437420Y820329D01*
X437880Y820479D01*
X438339Y820559D01*
X438820Y820590D01*
X462440Y820590D01*
X462919Y820559D01*
X463380Y820479D01*
X463840Y820329D01*
X464270Y820140D01*
X464679Y819890D01*
X465050Y819600D01*
X465390Y819259D01*
X465680Y818890D01*
X465929Y818479D01*
X466120Y818049D01*
X466260Y817600D01*
X466350Y817130D01*
X466379Y816649D01*
X466379Y773350D01*
X466350Y772869D01*
X466260Y772399D01*
X466120Y771950D01*
X465929Y771520D01*
X465680Y771109D01*
X465390Y770740D01*
X465050Y770399D01*
X464679Y770109D01*
X464270Y769859D01*
X463840Y769670D01*
X463380Y769520D01*
X462919Y769440D01*
X462440Y769409D01*
X438820Y769409D01*
X438339Y769440D01*
X437880Y769520D01*
X437420Y769670D01*
X436990Y769859D01*
X436579Y770109D01*
X436210Y770399D01*
X435869Y770740D01*
X435579Y771109D01*
X435329Y771520D01*
X435140Y771950D01*
X435000Y772399D01*
X434909Y772869D01*
X434879Y773350D01*
G37*
G36*
X513620Y816649D02*
G01*
X513649Y817130D01*
X513739Y817600D01*
X513879Y818049D01*
X514070Y818479D01*
X514319Y818890D01*
X514609Y819259D01*
X514949Y819600D01*
X515320Y819890D01*
X515729Y820140D01*
X516159Y820329D01*
X516619Y820479D01*
X517080Y820559D01*
X517559Y820590D01*
X541179Y820590D01*
X541660Y820559D01*
X542119Y820479D01*
X542579Y820329D01*
X543009Y820140D01*
X543420Y819890D01*
X543789Y819600D01*
X544130Y819259D01*
X544420Y818890D01*
X544670Y818479D01*
X544859Y818049D01*
X545000Y817600D01*
X545090Y817130D01*
X545120Y816649D01*
X545120Y773350D01*
X545090Y772869D01*
X545000Y772399D01*
X544859Y771950D01*
X544670Y771520D01*
X544420Y771109D01*
X544130Y770740D01*
X543789Y770399D01*
X543420Y770109D01*
X543009Y769859D01*
X542579Y769670D01*
X542119Y769520D01*
X541660Y769440D01*
X541179Y769409D01*
X517559Y769409D01*
X517080Y769440D01*
X516619Y769520D01*
X516159Y769670D01*
X515729Y769859D01*
X515320Y770109D01*
X514949Y770399D01*
X514609Y770740D01*
X514319Y771109D01*
X514070Y771520D01*
X513879Y771950D01*
X513739Y772399D01*
X513649Y772869D01*
X513620Y773350D01*
G37*
G36*
X434879Y666649D02*
G01*
X434909Y667130D01*
X435000Y667600D01*
X435140Y668049D01*
X435329Y668479D01*
X435579Y668890D01*
X435869Y669259D01*
X436210Y669600D01*
X436579Y669890D01*
X436990Y670140D01*
X437420Y670329D01*
X437880Y670479D01*
X438339Y670559D01*
X438820Y670590D01*
X462440Y670590D01*
X462919Y670559D01*
X463380Y670479D01*
X463840Y670329D01*
X464270Y670140D01*
X464679Y669890D01*
X465050Y669600D01*
X465390Y669259D01*
X465680Y668890D01*
X465929Y668479D01*
X466120Y668049D01*
X466260Y667600D01*
X466350Y667130D01*
X466379Y666649D01*
X466379Y623350D01*
X466350Y622869D01*
X466260Y622399D01*
X466120Y621950D01*
X465929Y621520D01*
X465680Y621109D01*
X465390Y620740D01*
X465050Y620399D01*
X464679Y620109D01*
X464270Y619859D01*
X463840Y619670D01*
X463380Y619520D01*
X462919Y619440D01*
X462440Y619409D01*
X438820Y619409D01*
X438339Y619440D01*
X437880Y619520D01*
X437420Y619670D01*
X436990Y619859D01*
X436579Y620109D01*
X436210Y620399D01*
X435869Y620740D01*
X435579Y621109D01*
X435329Y621520D01*
X435140Y621950D01*
X435000Y622399D01*
X434909Y622869D01*
X434879Y623350D01*
G37*
G36*
X513620Y666649D02*
G01*
X513649Y667130D01*
X513739Y667600D01*
X513879Y668049D01*
X514070Y668479D01*
X514319Y668890D01*
X514609Y669259D01*
X514949Y669600D01*
X515320Y669890D01*
X515729Y670140D01*
X516159Y670329D01*
X516619Y670479D01*
X517080Y670559D01*
X517559Y670590D01*
X541179Y670590D01*
X541660Y670559D01*
X542119Y670479D01*
X542579Y670329D01*
X543009Y670140D01*
X543420Y669890D01*
X543789Y669600D01*
X544130Y669259D01*
X544420Y668890D01*
X544670Y668479D01*
X544859Y668049D01*
X545000Y667600D01*
X545090Y667130D01*
X545120Y666649D01*
X545120Y623350D01*
X545090Y622869D01*
X545000Y622399D01*
X544859Y621950D01*
X544670Y621520D01*
X544420Y621109D01*
X544130Y620740D01*
X543789Y620399D01*
X543420Y620109D01*
X543009Y619859D01*
X542579Y619670D01*
X542119Y619520D01*
X541660Y619440D01*
X541179Y619409D01*
X517559Y619409D01*
X517080Y619440D01*
X516619Y619520D01*
X516159Y619670D01*
X515729Y619859D01*
X515320Y620109D01*
X514949Y620399D01*
X514609Y620740D01*
X514319Y621109D01*
X514070Y621520D01*
X513879Y621950D01*
X513739Y622399D01*
X513649Y622869D01*
X513620Y623350D01*
G37*
G36*
X1064880Y946649D02*
G01*
X1064909Y947130D01*
X1065000Y947600D01*
X1065140Y948049D01*
X1065330Y948479D01*
X1065580Y948890D01*
X1065870Y949259D01*
X1066210Y949600D01*
X1066580Y949890D01*
X1066989Y950140D01*
X1067420Y950329D01*
X1067879Y950479D01*
X1068339Y950559D01*
X1068819Y950590D01*
X1092439Y950590D01*
X1092920Y950559D01*
X1093379Y950479D01*
X1093840Y950329D01*
X1094269Y950140D01*
X1094679Y949890D01*
X1095050Y949600D01*
X1095389Y949259D01*
X1095680Y948890D01*
X1095929Y948479D01*
X1096120Y948049D01*
X1096260Y947600D01*
X1096350Y947130D01*
X1096379Y946649D01*
X1096379Y903350D01*
X1096350Y902869D01*
X1096260Y902399D01*
X1096120Y901950D01*
X1095929Y901520D01*
X1095680Y901109D01*
X1095389Y900740D01*
X1095050Y900399D01*
X1094679Y900109D01*
X1094269Y899859D01*
X1093840Y899670D01*
X1093379Y899520D01*
X1092920Y899440D01*
X1092439Y899409D01*
X1068819Y899409D01*
X1068339Y899440D01*
X1067879Y899520D01*
X1067420Y899670D01*
X1066989Y899859D01*
X1066580Y900109D01*
X1066210Y900399D01*
X1065870Y900740D01*
X1065580Y901109D01*
X1065330Y901520D01*
X1065140Y901950D01*
X1065000Y902399D01*
X1064909Y902869D01*
X1064880Y903350D01*
G37*
G36*
X1143620Y946649D02*
G01*
X1143649Y947130D01*
X1143739Y947600D01*
X1143879Y948049D01*
X1144070Y948479D01*
X1144319Y948890D01*
X1144610Y949259D01*
X1144949Y949600D01*
X1145320Y949890D01*
X1145730Y950140D01*
X1146159Y950329D01*
X1146620Y950479D01*
X1147079Y950559D01*
X1147560Y950590D01*
X1171180Y950590D01*
X1171660Y950559D01*
X1172120Y950479D01*
X1172579Y950329D01*
X1173010Y950140D01*
X1173419Y949890D01*
X1173789Y949600D01*
X1174129Y949259D01*
X1174420Y948890D01*
X1174669Y948479D01*
X1174859Y948049D01*
X1175000Y947600D01*
X1175090Y947130D01*
X1175119Y946649D01*
X1175119Y903350D01*
X1175090Y902869D01*
X1175000Y902399D01*
X1174859Y901950D01*
X1174669Y901520D01*
X1174420Y901109D01*
X1174129Y900740D01*
X1173789Y900399D01*
X1173419Y900109D01*
X1173010Y899859D01*
X1172579Y899670D01*
X1172120Y899520D01*
X1171660Y899440D01*
X1171180Y899409D01*
X1147560Y899409D01*
X1147079Y899440D01*
X1146620Y899520D01*
X1146159Y899670D01*
X1145730Y899859D01*
X1145320Y900109D01*
X1144949Y900399D01*
X1144610Y900740D01*
X1144319Y901109D01*
X1144070Y901520D01*
X1143879Y901950D01*
X1143739Y902399D01*
X1143649Y902869D01*
X1143620Y903350D01*
G37*
D21*
G01*
X2268109Y1540500D03*
G01*
X2268109Y1566500D03*
G01*
X2268109Y1591500D03*
G01*
X2268109Y1617500D03*
G01*
X2268109Y1643499D03*
G01*
X2268109Y1668499D03*
G01*
X2268109Y1694499D03*
G01*
X2268109Y1719499D03*
G01*
X2031890Y1719499D03*
G01*
X2031890Y1694499D03*
G01*
X2031890Y1668499D03*
G01*
X2031890Y1643499D03*
G01*
X2031890Y1617500D03*
G01*
X2031890Y1591500D03*
G01*
X2031890Y1566500D03*
G01*
X2031890Y1540500D03*
G36*
X2095000Y1417500D02*
G01*
X2095039Y1418099D01*
X2095150Y1418699D01*
X2095330Y1419270D01*
X2095569Y1419819D01*
X2095889Y1420340D01*
X2096260Y1420820D01*
X2096679Y1421239D01*
X2097160Y1421609D01*
X2097680Y1421930D01*
X2098230Y1422179D01*
X2098800Y1422350D01*
X2099399Y1422460D01*
X2100000Y1422500D01*
X2130000Y1422500D01*
X2130600Y1422460D01*
X2131199Y1422350D01*
X2131769Y1422179D01*
X2132319Y1421930D01*
X2132839Y1421609D01*
X2133320Y1421239D01*
X2133739Y1420820D01*
X2134110Y1420340D01*
X2134430Y1419819D01*
X2134679Y1419270D01*
X2134849Y1418699D01*
X2134960Y1418099D01*
X2135000Y1417500D01*
X2135000Y1372500D01*
X2134960Y1371900D01*
X2134849Y1371300D01*
X2134679Y1370729D01*
X2134430Y1370180D01*
X2134110Y1369659D01*
X2133739Y1369179D01*
X2133320Y1368760D01*
X2132839Y1368390D01*
X2132319Y1368069D01*
X2131769Y1367820D01*
X2131199Y1367649D01*
X2130600Y1367539D01*
X2130000Y1367500D01*
X2100000Y1367500D01*
X2099399Y1367539D01*
X2098800Y1367649D01*
X2098230Y1367820D01*
X2097680Y1368069D01*
X2097160Y1368390D01*
X2096679Y1368760D01*
X2096260Y1369179D01*
X2095889Y1369659D01*
X2095569Y1370180D01*
X2095330Y1370729D01*
X2095150Y1371300D01*
X2095039Y1371900D01*
X2095000Y1372500D01*
G37*
G36*
X2165000Y1417500D02*
G01*
X2165039Y1418099D01*
X2165150Y1418699D01*
X2165320Y1419270D01*
X2165569Y1419819D01*
X2165889Y1420340D01*
X2166260Y1420820D01*
X2166679Y1421239D01*
X2167160Y1421609D01*
X2167680Y1421930D01*
X2168230Y1422179D01*
X2168800Y1422350D01*
X2169399Y1422460D01*
X2170000Y1422500D01*
X2200000Y1422500D01*
X2200600Y1422460D01*
X2201199Y1422350D01*
X2201769Y1422179D01*
X2202319Y1421930D01*
X2202839Y1421609D01*
X2203320Y1421239D01*
X2203739Y1420820D01*
X2204110Y1420340D01*
X2204430Y1419819D01*
X2204669Y1419270D01*
X2204849Y1418699D01*
X2204960Y1418099D01*
X2205000Y1417500D01*
X2205000Y1372500D01*
X2204960Y1371900D01*
X2204849Y1371300D01*
X2204669Y1370729D01*
X2204430Y1370180D01*
X2204110Y1369659D01*
X2203739Y1369179D01*
X2203320Y1368760D01*
X2202839Y1368390D01*
X2202319Y1368069D01*
X2201769Y1367820D01*
X2201199Y1367649D01*
X2200600Y1367539D01*
X2200000Y1367500D01*
X2170000Y1367500D01*
X2169399Y1367539D01*
X2168800Y1367649D01*
X2168230Y1367820D01*
X2167680Y1368069D01*
X2167160Y1368390D01*
X2166679Y1368760D01*
X2166260Y1369179D01*
X2165889Y1369659D01*
X2165569Y1370180D01*
X2165320Y1370729D01*
X2165150Y1371300D01*
X2165039Y1371900D01*
X2165000Y1372500D01*
G37*
D22*
G01*
X842579Y1720000D03*
G01*
X842579Y1770000D03*
G01*
X842579Y1820000D03*
G01*
X842579Y1870000D03*
D23*
G01*
X627420Y1870000D03*
G01*
X627420Y1820000D03*
G01*
X627420Y1770000D03*
G01*
X627420Y1720000D03*
D24*
G01*
X710300Y1795000D03*
D25*
G01*
X1343620Y1877600D03*
G01*
X1343620Y1952399D03*
G01*
X1246379Y1915000D03*
G01*
X1088620Y1747600D03*
G01*
X1088620Y1822399D03*
G01*
X991379Y1785000D03*
G36*
X1344880Y1161649D02*
G01*
X1344909Y1162130D01*
X1345000Y1162600D01*
X1345140Y1163049D01*
X1345330Y1163479D01*
X1345580Y1163890D01*
X1345870Y1164259D01*
X1346210Y1164600D01*
X1346580Y1164890D01*
X1346989Y1165140D01*
X1347420Y1165329D01*
X1347879Y1165479D01*
X1348339Y1165559D01*
X1348819Y1165590D01*
X1372439Y1165590D01*
X1372920Y1165559D01*
X1373379Y1165479D01*
X1373840Y1165329D01*
X1374269Y1165140D01*
X1374679Y1164890D01*
X1375050Y1164600D01*
X1375389Y1164259D01*
X1375680Y1163890D01*
X1375929Y1163479D01*
X1376120Y1163049D01*
X1376260Y1162600D01*
X1376350Y1162130D01*
X1376379Y1161649D01*
X1376379Y1118350D01*
X1376350Y1117869D01*
X1376260Y1117399D01*
X1376120Y1116950D01*
X1375929Y1116520D01*
X1375680Y1116109D01*
X1375389Y1115740D01*
X1375050Y1115399D01*
X1374679Y1115109D01*
X1374269Y1114859D01*
X1373840Y1114670D01*
X1373379Y1114520D01*
X1372920Y1114440D01*
X1372439Y1114409D01*
X1348819Y1114409D01*
X1348339Y1114440D01*
X1347879Y1114520D01*
X1347420Y1114670D01*
X1346989Y1114859D01*
X1346580Y1115109D01*
X1346210Y1115399D01*
X1345870Y1115740D01*
X1345580Y1116109D01*
X1345330Y1116520D01*
X1345140Y1116950D01*
X1345000Y1117399D01*
X1344909Y1117869D01*
X1344880Y1118350D01*
G37*
G36*
X1423620Y1161649D02*
G01*
X1423649Y1162130D01*
X1423739Y1162600D01*
X1423879Y1163049D01*
X1424070Y1163479D01*
X1424319Y1163890D01*
X1424610Y1164259D01*
X1424949Y1164600D01*
X1425320Y1164890D01*
X1425730Y1165140D01*
X1426159Y1165329D01*
X1426620Y1165479D01*
X1427079Y1165559D01*
X1427560Y1165590D01*
X1451180Y1165590D01*
X1451660Y1165559D01*
X1452120Y1165479D01*
X1452579Y1165329D01*
X1453010Y1165140D01*
X1453419Y1164890D01*
X1453789Y1164600D01*
X1454129Y1164259D01*
X1454420Y1163890D01*
X1454669Y1163479D01*
X1454859Y1163049D01*
X1455000Y1162600D01*
X1455090Y1162130D01*
X1455119Y1161649D01*
X1455119Y1118350D01*
X1455090Y1117869D01*
X1455000Y1117399D01*
X1454859Y1116950D01*
X1454669Y1116520D01*
X1454420Y1116109D01*
X1454129Y1115740D01*
X1453789Y1115399D01*
X1453419Y1115109D01*
X1453010Y1114859D01*
X1452579Y1114670D01*
X1452120Y1114520D01*
X1451660Y1114440D01*
X1451180Y1114409D01*
X1427560Y1114409D01*
X1427079Y1114440D01*
X1426620Y1114520D01*
X1426159Y1114670D01*
X1425730Y1114859D01*
X1425320Y1115109D01*
X1424949Y1115399D01*
X1424610Y1115740D01*
X1424319Y1116109D01*
X1424070Y1116520D01*
X1423879Y1116950D01*
X1423739Y1117399D01*
X1423649Y1117869D01*
X1423620Y1118350D01*
G37*
G36*
X963350Y1044879D02*
G01*
X962870Y1044909D01*
X962399Y1045000D01*
X961949Y1045140D01*
X961520Y1045329D01*
X961109Y1045579D01*
X960739Y1045869D01*
X960399Y1046210D01*
X960110Y1046579D01*
X959859Y1046990D01*
X959669Y1047420D01*
X959520Y1047880D01*
X959440Y1048339D01*
X959409Y1048820D01*
X959409Y1072440D01*
X959440Y1072919D01*
X959520Y1073380D01*
X959669Y1073840D01*
X959859Y1074270D01*
X960110Y1074679D01*
X960399Y1075050D01*
X960739Y1075390D01*
X961109Y1075680D01*
X961520Y1075929D01*
X961949Y1076120D01*
X962399Y1076260D01*
X962870Y1076350D01*
X963350Y1076379D01*
X1006649Y1076379D01*
X1007129Y1076350D01*
X1007600Y1076260D01*
X1008050Y1076120D01*
X1008479Y1075929D01*
X1008890Y1075680D01*
X1009260Y1075390D01*
X1009600Y1075050D01*
X1009889Y1074679D01*
X1010140Y1074270D01*
X1010330Y1073840D01*
X1010479Y1073380D01*
X1010559Y1072919D01*
X1010590Y1072440D01*
X1010590Y1048820D01*
X1010559Y1048339D01*
X1010479Y1047880D01*
X1010330Y1047420D01*
X1010140Y1046990D01*
X1009889Y1046579D01*
X1009600Y1046210D01*
X1009260Y1045869D01*
X1008890Y1045579D01*
X1008479Y1045329D01*
X1008050Y1045140D01*
X1007600Y1045000D01*
X1007129Y1044909D01*
X1006649Y1044879D01*
G37*
G36*
X963350Y1123620D02*
G01*
X962870Y1123649D01*
X962399Y1123739D01*
X961949Y1123879D01*
X961520Y1124070D01*
X961109Y1124319D01*
X960739Y1124609D01*
X960399Y1124949D01*
X960110Y1125320D01*
X959859Y1125729D01*
X959669Y1126159D01*
X959520Y1126619D01*
X959440Y1127080D01*
X959409Y1127559D01*
X959409Y1151179D01*
X959440Y1151660D01*
X959520Y1152120D01*
X959669Y1152579D01*
X959859Y1153009D01*
X960110Y1153420D01*
X960399Y1153789D01*
X960739Y1154130D01*
X961109Y1154420D01*
X961520Y1154670D01*
X961949Y1154859D01*
X962399Y1155000D01*
X962870Y1155090D01*
X963350Y1155120D01*
X1006649Y1155120D01*
X1007129Y1155090D01*
X1007600Y1155000D01*
X1008050Y1154859D01*
X1008479Y1154670D01*
X1008890Y1154420D01*
X1009260Y1154130D01*
X1009600Y1153789D01*
X1009889Y1153420D01*
X1010140Y1153009D01*
X1010330Y1152579D01*
X1010479Y1152120D01*
X1010559Y1151660D01*
X1010590Y1151179D01*
X1010590Y1127559D01*
X1010559Y1127080D01*
X1010479Y1126619D01*
X1010330Y1126159D01*
X1010140Y1125729D01*
X1009889Y1125320D01*
X1009600Y1124949D01*
X1009260Y1124609D01*
X1008890Y1124319D01*
X1008479Y1124070D01*
X1008050Y1123879D01*
X1007600Y1123739D01*
X1007129Y1123649D01*
X1006649Y1123620D01*
G37*
G36*
X941649Y1885120D02*
G01*
X942129Y1885090D01*
X942600Y1885000D01*
X943050Y1884859D01*
X943479Y1884670D01*
X943890Y1884420D01*
X944260Y1884130D01*
X944600Y1883789D01*
X944889Y1883420D01*
X945140Y1883009D01*
X945330Y1882579D01*
X945479Y1882120D01*
X945559Y1881660D01*
X945590Y1881179D01*
X945590Y1857559D01*
X945559Y1857080D01*
X945479Y1856619D01*
X945330Y1856159D01*
X945140Y1855729D01*
X944889Y1855320D01*
X944600Y1854949D01*
X944260Y1854609D01*
X943890Y1854319D01*
X943479Y1854070D01*
X943050Y1853879D01*
X942600Y1853739D01*
X942129Y1853649D01*
X941649Y1853620D01*
X898350Y1853620D01*
X897870Y1853649D01*
X897399Y1853739D01*
X896949Y1853879D01*
X896520Y1854070D01*
X896109Y1854319D01*
X895739Y1854609D01*
X895399Y1854949D01*
X895110Y1855320D01*
X894859Y1855729D01*
X894669Y1856159D01*
X894520Y1856619D01*
X894440Y1857080D01*
X894409Y1857559D01*
X894409Y1881179D01*
X894440Y1881660D01*
X894520Y1882120D01*
X894669Y1882579D01*
X894859Y1883009D01*
X895110Y1883420D01*
X895399Y1883789D01*
X895739Y1884130D01*
X896109Y1884420D01*
X896520Y1884670D01*
X896949Y1884859D01*
X897399Y1885000D01*
X897870Y1885090D01*
X898350Y1885120D01*
G37*
G36*
X941649Y1806379D02*
G01*
X942129Y1806350D01*
X942600Y1806260D01*
X943050Y1806120D01*
X943479Y1805929D01*
X943890Y1805680D01*
X944260Y1805390D01*
X944600Y1805050D01*
X944889Y1804679D01*
X945140Y1804270D01*
X945330Y1803840D01*
X945479Y1803380D01*
X945559Y1802919D01*
X945590Y1802440D01*
X945590Y1778820D01*
X945559Y1778339D01*
X945479Y1777880D01*
X945330Y1777420D01*
X945140Y1776990D01*
X944889Y1776579D01*
X944600Y1776210D01*
X944260Y1775870D01*
X943890Y1775580D01*
X943479Y1775329D01*
X943050Y1775140D01*
X942600Y1775000D01*
X942129Y1774909D01*
X941649Y1774879D01*
X898350Y1774879D01*
X897870Y1774909D01*
X897399Y1775000D01*
X896949Y1775140D01*
X896520Y1775329D01*
X896109Y1775580D01*
X895739Y1775870D01*
X895399Y1776210D01*
X895110Y1776579D01*
X894859Y1776990D01*
X894669Y1777420D01*
X894520Y1777880D01*
X894440Y1778339D01*
X894409Y1778820D01*
X894409Y1802440D01*
X894440Y1802919D01*
X894520Y1803380D01*
X894669Y1803840D01*
X894859Y1804270D01*
X895110Y1804679D01*
X895399Y1805050D01*
X895739Y1805390D01*
X896109Y1805680D01*
X896520Y1805929D01*
X896949Y1806120D01*
X897399Y1806260D01*
X897870Y1806350D01*
X898350Y1806379D01*
G37*
G36*
X994880Y1696649D02*
G01*
X994909Y1697130D01*
X995000Y1697600D01*
X995140Y1698049D01*
X995330Y1698479D01*
X995579Y1698890D01*
X995870Y1699259D01*
X996210Y1699600D01*
X996580Y1699890D01*
X996989Y1700140D01*
X997420Y1700329D01*
X997879Y1700479D01*
X998339Y1700559D01*
X998819Y1700590D01*
X1022439Y1700590D01*
X1022920Y1700559D01*
X1023379Y1700479D01*
X1023840Y1700329D01*
X1024269Y1700140D01*
X1024679Y1699890D01*
X1025050Y1699600D01*
X1025389Y1699259D01*
X1025680Y1698890D01*
X1025929Y1698479D01*
X1026120Y1698049D01*
X1026260Y1697600D01*
X1026350Y1697130D01*
X1026379Y1696649D01*
X1026379Y1653350D01*
X1026350Y1652869D01*
X1026260Y1652399D01*
X1026120Y1651950D01*
X1025929Y1651520D01*
X1025680Y1651109D01*
X1025389Y1650740D01*
X1025050Y1650399D01*
X1024679Y1650109D01*
X1024269Y1649859D01*
X1023840Y1649670D01*
X1023379Y1649520D01*
X1022920Y1649440D01*
X1022439Y1649409D01*
X998819Y1649409D01*
X998339Y1649440D01*
X997879Y1649520D01*
X997420Y1649670D01*
X996989Y1649859D01*
X996580Y1650109D01*
X996210Y1650399D01*
X995870Y1650740D01*
X995579Y1651109D01*
X995330Y1651520D01*
X995140Y1651950D01*
X995000Y1652399D01*
X994909Y1652869D01*
X994880Y1653350D01*
G37*
G36*
X1073620Y1696649D02*
G01*
X1073649Y1697130D01*
X1073739Y1697600D01*
X1073879Y1698049D01*
X1074070Y1698479D01*
X1074319Y1698890D01*
X1074610Y1699259D01*
X1074949Y1699600D01*
X1075320Y1699890D01*
X1075730Y1700140D01*
X1076159Y1700329D01*
X1076620Y1700479D01*
X1077079Y1700559D01*
X1077560Y1700590D01*
X1101180Y1700590D01*
X1101660Y1700559D01*
X1102120Y1700479D01*
X1102579Y1700329D01*
X1103010Y1700140D01*
X1103419Y1699890D01*
X1103789Y1699600D01*
X1104129Y1699259D01*
X1104420Y1698890D01*
X1104669Y1698479D01*
X1104859Y1698049D01*
X1105000Y1697600D01*
X1105090Y1697130D01*
X1105119Y1696649D01*
X1105119Y1653350D01*
X1105090Y1652869D01*
X1105000Y1652399D01*
X1104859Y1651950D01*
X1104669Y1651520D01*
X1104420Y1651109D01*
X1104129Y1650740D01*
X1103789Y1650399D01*
X1103419Y1650109D01*
X1103010Y1649859D01*
X1102579Y1649670D01*
X1102120Y1649520D01*
X1101660Y1649440D01*
X1101180Y1649409D01*
X1077560Y1649409D01*
X1077079Y1649440D01*
X1076620Y1649520D01*
X1076159Y1649670D01*
X1075730Y1649859D01*
X1075320Y1650109D01*
X1074949Y1650399D01*
X1074610Y1650740D01*
X1074319Y1651109D01*
X1074070Y1651520D01*
X1073879Y1651950D01*
X1073739Y1652399D01*
X1073649Y1652869D01*
X1073620Y1653350D01*
G37*
G36*
X1393350Y1859879D02*
G01*
X1392870Y1859909D01*
X1392399Y1860000D01*
X1391949Y1860140D01*
X1391520Y1860329D01*
X1391109Y1860580D01*
X1390739Y1860870D01*
X1390399Y1861210D01*
X1390110Y1861579D01*
X1389859Y1861990D01*
X1389669Y1862420D01*
X1389520Y1862880D01*
X1389440Y1863339D01*
X1389409Y1863820D01*
X1389409Y1887440D01*
X1389440Y1887919D01*
X1389520Y1888380D01*
X1389669Y1888840D01*
X1389859Y1889270D01*
X1390110Y1889679D01*
X1390399Y1890050D01*
X1390739Y1890390D01*
X1391109Y1890680D01*
X1391520Y1890929D01*
X1391949Y1891120D01*
X1392399Y1891260D01*
X1392870Y1891350D01*
X1393350Y1891379D01*
X1436649Y1891379D01*
X1437129Y1891350D01*
X1437600Y1891260D01*
X1438050Y1891120D01*
X1438479Y1890929D01*
X1438890Y1890680D01*
X1439260Y1890390D01*
X1439600Y1890050D01*
X1439889Y1889679D01*
X1440140Y1889270D01*
X1440330Y1888840D01*
X1440479Y1888380D01*
X1440559Y1887919D01*
X1440590Y1887440D01*
X1440590Y1863820D01*
X1440559Y1863339D01*
X1440479Y1862880D01*
X1440330Y1862420D01*
X1440140Y1861990D01*
X1439889Y1861579D01*
X1439600Y1861210D01*
X1439260Y1860870D01*
X1438890Y1860580D01*
X1438479Y1860329D01*
X1438050Y1860140D01*
X1437600Y1860000D01*
X1437129Y1859909D01*
X1436649Y1859879D01*
G37*
G36*
X1393350Y1938620D02*
G01*
X1392870Y1938649D01*
X1392399Y1938739D01*
X1391949Y1938879D01*
X1391520Y1939070D01*
X1391109Y1939319D01*
X1390739Y1939609D01*
X1390399Y1939949D01*
X1390110Y1940320D01*
X1389859Y1940729D01*
X1389669Y1941159D01*
X1389520Y1941619D01*
X1389440Y1942080D01*
X1389409Y1942559D01*
X1389409Y1966179D01*
X1389440Y1966660D01*
X1389520Y1967120D01*
X1389669Y1967579D01*
X1389859Y1968009D01*
X1390110Y1968420D01*
X1390399Y1968789D01*
X1390739Y1969130D01*
X1391109Y1969420D01*
X1391520Y1969670D01*
X1391949Y1969859D01*
X1392399Y1970000D01*
X1392870Y1970090D01*
X1393350Y1970120D01*
X1436649Y1970120D01*
X1437129Y1970090D01*
X1437600Y1970000D01*
X1438050Y1969859D01*
X1438479Y1969670D01*
X1438890Y1969420D01*
X1439260Y1969130D01*
X1439600Y1968789D01*
X1439889Y1968420D01*
X1440140Y1968009D01*
X1440330Y1967579D01*
X1440479Y1967120D01*
X1440559Y1966660D01*
X1440590Y1966179D01*
X1440590Y1942559D01*
X1440559Y1942080D01*
X1440479Y1941619D01*
X1440330Y1941159D01*
X1440140Y1940729D01*
X1439889Y1940320D01*
X1439600Y1939949D01*
X1439260Y1939609D01*
X1438890Y1939319D01*
X1438479Y1939070D01*
X1438050Y1938879D01*
X1437600Y1938739D01*
X1437129Y1938649D01*
X1436649Y1938620D01*
G37*
D26*
G01*
X921643Y807401D03*
G01*
X921643Y732598D03*
G01*
X1008356Y770000D03*
G01*
X921643Y937401D03*
G01*
X921643Y862598D03*
G01*
X1008356Y900000D03*
G36*
X838350Y774879D02*
G01*
X837870Y774909D01*
X837399Y775000D01*
X836949Y775140D01*
X836520Y775329D01*
X836109Y775579D01*
X835739Y775869D01*
X835399Y776210D01*
X835110Y776579D01*
X834859Y776990D01*
X834669Y777420D01*
X834520Y777880D01*
X834440Y778339D01*
X834409Y778820D01*
X834409Y802440D01*
X834440Y802919D01*
X834520Y803380D01*
X834669Y803840D01*
X834859Y804270D01*
X835110Y804679D01*
X835399Y805050D01*
X835739Y805390D01*
X836109Y805680D01*
X836520Y805929D01*
X836949Y806120D01*
X837399Y806260D01*
X837870Y806350D01*
X838350Y806379D01*
X881649Y806379D01*
X882129Y806350D01*
X882600Y806260D01*
X883050Y806120D01*
X883479Y805929D01*
X883890Y805680D01*
X884260Y805390D01*
X884600Y805050D01*
X884889Y804679D01*
X885140Y804270D01*
X885330Y803840D01*
X885479Y803380D01*
X885559Y802919D01*
X885590Y802440D01*
X885590Y778820D01*
X885559Y778339D01*
X885479Y777880D01*
X885330Y777420D01*
X885140Y776990D01*
X884889Y776579D01*
X884600Y776210D01*
X884260Y775869D01*
X883890Y775579D01*
X883479Y775329D01*
X883050Y775140D01*
X882600Y775000D01*
X882129Y774909D01*
X881649Y774879D01*
G37*
G36*
X838350Y853620D02*
G01*
X837870Y853649D01*
X837399Y853739D01*
X836949Y853879D01*
X836520Y854070D01*
X836109Y854319D01*
X835739Y854609D01*
X835399Y854949D01*
X835110Y855320D01*
X834859Y855729D01*
X834669Y856159D01*
X834520Y856619D01*
X834440Y857080D01*
X834409Y857559D01*
X834409Y881179D01*
X834440Y881660D01*
X834520Y882119D01*
X834669Y882579D01*
X834859Y883009D01*
X835110Y883420D01*
X835399Y883789D01*
X835739Y884130D01*
X836109Y884420D01*
X836520Y884670D01*
X836949Y884859D01*
X837399Y885000D01*
X837870Y885090D01*
X838350Y885120D01*
X881649Y885120D01*
X882129Y885090D01*
X882600Y885000D01*
X883050Y884859D01*
X883479Y884670D01*
X883890Y884420D01*
X884260Y884130D01*
X884600Y883789D01*
X884889Y883420D01*
X885140Y883009D01*
X885330Y882579D01*
X885479Y882119D01*
X885559Y881660D01*
X885590Y881179D01*
X885590Y857559D01*
X885559Y857080D01*
X885479Y856619D01*
X885330Y856159D01*
X885140Y855729D01*
X884889Y855320D01*
X884600Y854949D01*
X884260Y854609D01*
X883890Y854319D01*
X883479Y854070D01*
X883050Y853879D01*
X882600Y853739D01*
X882129Y853649D01*
X881649Y853620D01*
G37*
G36*
X811649Y885120D02*
G01*
X812129Y885090D01*
X812600Y885000D01*
X813050Y884859D01*
X813479Y884670D01*
X813890Y884420D01*
X814260Y884130D01*
X814600Y883789D01*
X814889Y883420D01*
X815140Y883009D01*
X815330Y882579D01*
X815479Y882119D01*
X815559Y881660D01*
X815590Y881179D01*
X815590Y857559D01*
X815559Y857080D01*
X815479Y856619D01*
X815330Y856159D01*
X815140Y855729D01*
X814889Y855320D01*
X814600Y854949D01*
X814260Y854609D01*
X813890Y854319D01*
X813479Y854070D01*
X813050Y853879D01*
X812600Y853739D01*
X812129Y853649D01*
X811649Y853620D01*
X768350Y853620D01*
X767870Y853649D01*
X767399Y853739D01*
X766949Y853879D01*
X766520Y854070D01*
X766109Y854319D01*
X765739Y854609D01*
X765399Y854949D01*
X765110Y855320D01*
X764859Y855729D01*
X764669Y856159D01*
X764520Y856619D01*
X764440Y857080D01*
X764409Y857559D01*
X764409Y881179D01*
X764440Y881660D01*
X764520Y882119D01*
X764669Y882579D01*
X764859Y883009D01*
X765110Y883420D01*
X765399Y883789D01*
X765739Y884130D01*
X766109Y884420D01*
X766520Y884670D01*
X766949Y884859D01*
X767399Y885000D01*
X767870Y885090D01*
X768350Y885120D01*
G37*
G36*
X811649Y806379D02*
G01*
X812129Y806350D01*
X812600Y806260D01*
X813050Y806120D01*
X813479Y805929D01*
X813890Y805680D01*
X814260Y805390D01*
X814600Y805050D01*
X814889Y804679D01*
X815140Y804270D01*
X815330Y803840D01*
X815479Y803380D01*
X815559Y802919D01*
X815590Y802440D01*
X815590Y778820D01*
X815559Y778339D01*
X815479Y777880D01*
X815330Y777420D01*
X815140Y776990D01*
X814889Y776579D01*
X814600Y776210D01*
X814260Y775869D01*
X813890Y775579D01*
X813479Y775329D01*
X813050Y775140D01*
X812600Y775000D01*
X812129Y774909D01*
X811649Y774879D01*
X768350Y774879D01*
X767870Y774909D01*
X767399Y775000D01*
X766949Y775140D01*
X766520Y775329D01*
X766109Y775579D01*
X765739Y775869D01*
X765399Y776210D01*
X765110Y776579D01*
X764859Y776990D01*
X764669Y777420D01*
X764520Y777880D01*
X764440Y778339D01*
X764409Y778820D01*
X764409Y802440D01*
X764440Y802919D01*
X764520Y803380D01*
X764669Y803840D01*
X764859Y804270D01*
X765110Y804679D01*
X765399Y805050D01*
X765739Y805390D01*
X766109Y805680D01*
X766520Y805929D01*
X766949Y806120D01*
X767399Y806260D01*
X767870Y806350D01*
X768350Y806379D01*
G37*
G36*
X2133350Y929879D02*
G01*
X2132870Y929909D01*
X2132399Y930000D01*
X2131949Y930140D01*
X2131520Y930329D01*
X2131109Y930579D01*
X2130739Y930869D01*
X2130399Y931210D01*
X2130110Y931579D01*
X2129859Y931990D01*
X2129669Y932420D01*
X2129520Y932880D01*
X2129440Y933339D01*
X2129409Y933820D01*
X2129409Y957440D01*
X2129440Y957919D01*
X2129520Y958380D01*
X2129669Y958840D01*
X2129859Y959270D01*
X2130110Y959679D01*
X2130399Y960050D01*
X2130739Y960390D01*
X2131109Y960680D01*
X2131520Y960929D01*
X2131949Y961120D01*
X2132399Y961260D01*
X2132870Y961350D01*
X2133350Y961379D01*
X2176649Y961379D01*
X2177129Y961350D01*
X2177600Y961260D01*
X2178050Y961120D01*
X2178479Y960929D01*
X2178890Y960680D01*
X2179260Y960390D01*
X2179600Y960050D01*
X2179889Y959679D01*
X2180140Y959270D01*
X2180330Y958840D01*
X2180479Y958380D01*
X2180559Y957919D01*
X2180590Y957440D01*
X2180590Y933820D01*
X2180559Y933339D01*
X2180479Y932880D01*
X2180330Y932420D01*
X2180140Y931990D01*
X2179889Y931579D01*
X2179600Y931210D01*
X2179260Y930869D01*
X2178890Y930579D01*
X2178479Y930329D01*
X2178050Y930140D01*
X2177600Y930000D01*
X2177129Y929909D01*
X2176649Y929879D01*
G37*
G36*
X2133350Y1008620D02*
G01*
X2132870Y1008649D01*
X2132399Y1008739D01*
X2131949Y1008879D01*
X2131520Y1009070D01*
X2131109Y1009319D01*
X2130739Y1009609D01*
X2130399Y1009949D01*
X2130110Y1010320D01*
X2129859Y1010729D01*
X2129669Y1011159D01*
X2129520Y1011619D01*
X2129440Y1012080D01*
X2129409Y1012559D01*
X2129409Y1036179D01*
X2129440Y1036660D01*
X2129520Y1037119D01*
X2129669Y1037579D01*
X2129859Y1038009D01*
X2130110Y1038420D01*
X2130399Y1038789D01*
X2130739Y1039130D01*
X2131109Y1039420D01*
X2131520Y1039670D01*
X2131949Y1039859D01*
X2132399Y1040000D01*
X2132870Y1040090D01*
X2133350Y1040120D01*
X2176649Y1040120D01*
X2177129Y1040090D01*
X2177600Y1040000D01*
X2178050Y1039859D01*
X2178479Y1039670D01*
X2178890Y1039420D01*
X2179260Y1039130D01*
X2179600Y1038789D01*
X2179889Y1038420D01*
X2180140Y1038009D01*
X2180330Y1037579D01*
X2180479Y1037119D01*
X2180559Y1036660D01*
X2180590Y1036179D01*
X2180590Y1012559D01*
X2180559Y1012080D01*
X2180479Y1011619D01*
X2180330Y1011159D01*
X2180140Y1010729D01*
X2179889Y1010320D01*
X2179600Y1009949D01*
X2179260Y1009609D01*
X2178890Y1009319D01*
X2178479Y1009070D01*
X2178050Y1008879D01*
X2177600Y1008739D01*
X2177129Y1008649D01*
X2176649Y1008620D01*
G37*
D27*
G01*
X2302399Y945419D03*
G01*
X2265000Y945419D03*
G01*
X2227600Y945419D03*
D28*
G01*
X2227600Y854580D03*
G01*
X2302399Y854580D03*
D22*
G01*
X937579Y1410000D03*
G01*
X937579Y1460000D03*
G01*
X937579Y1510000D03*
G01*
X937579Y1560000D03*
D23*
G01*
X722420Y1560000D03*
G01*
X722420Y1510000D03*
G01*
X722420Y1460000D03*
G01*
X722420Y1410000D03*
D24*
G01*
X805299Y1485000D03*
D25*
G01*
X1118620Y1522600D03*
G01*
X1118620Y1597399D03*
G01*
X1021379Y1560000D03*
G36*
X1098350Y1369879D02*
G01*
X1097870Y1369909D01*
X1097399Y1370000D01*
X1096949Y1370140D01*
X1096520Y1370329D01*
X1096109Y1370580D01*
X1095739Y1370870D01*
X1095399Y1371210D01*
X1095110Y1371579D01*
X1094859Y1371990D01*
X1094669Y1372420D01*
X1094520Y1372880D01*
X1094440Y1373339D01*
X1094409Y1373820D01*
X1094409Y1397440D01*
X1094440Y1397919D01*
X1094520Y1398380D01*
X1094669Y1398840D01*
X1094859Y1399270D01*
X1095110Y1399679D01*
X1095399Y1400050D01*
X1095739Y1400390D01*
X1096109Y1400680D01*
X1096520Y1400929D01*
X1096949Y1401120D01*
X1097399Y1401260D01*
X1097870Y1401350D01*
X1098350Y1401379D01*
X1141649Y1401379D01*
X1142129Y1401350D01*
X1142600Y1401260D01*
X1143050Y1401120D01*
X1143479Y1400929D01*
X1143890Y1400680D01*
X1144260Y1400390D01*
X1144600Y1400050D01*
X1144889Y1399679D01*
X1145140Y1399270D01*
X1145330Y1398840D01*
X1145479Y1398380D01*
X1145559Y1397919D01*
X1145590Y1397440D01*
X1145590Y1373820D01*
X1145559Y1373339D01*
X1145479Y1372880D01*
X1145330Y1372420D01*
X1145140Y1371990D01*
X1144889Y1371579D01*
X1144600Y1371210D01*
X1144260Y1370870D01*
X1143890Y1370580D01*
X1143479Y1370329D01*
X1143050Y1370140D01*
X1142600Y1370000D01*
X1142129Y1369909D01*
X1141649Y1369879D01*
G37*
G36*
X1098350Y1448620D02*
G01*
X1097870Y1448649D01*
X1097399Y1448739D01*
X1096949Y1448879D01*
X1096520Y1449070D01*
X1096109Y1449319D01*
X1095739Y1449609D01*
X1095399Y1449949D01*
X1095110Y1450320D01*
X1094859Y1450729D01*
X1094669Y1451159D01*
X1094520Y1451619D01*
X1094440Y1452080D01*
X1094409Y1452559D01*
X1094409Y1476179D01*
X1094440Y1476660D01*
X1094520Y1477120D01*
X1094669Y1477579D01*
X1094859Y1478009D01*
X1095110Y1478420D01*
X1095399Y1478789D01*
X1095739Y1479130D01*
X1096109Y1479420D01*
X1096520Y1479670D01*
X1096949Y1479859D01*
X1097399Y1480000D01*
X1097870Y1480090D01*
X1098350Y1480120D01*
X1141649Y1480120D01*
X1142129Y1480090D01*
X1142600Y1480000D01*
X1143050Y1479859D01*
X1143479Y1479670D01*
X1143890Y1479420D01*
X1144260Y1479130D01*
X1144600Y1478789D01*
X1144889Y1478420D01*
X1145140Y1478009D01*
X1145330Y1477579D01*
X1145479Y1477120D01*
X1145559Y1476660D01*
X1145590Y1476179D01*
X1145590Y1452559D01*
X1145559Y1452080D01*
X1145479Y1451619D01*
X1145330Y1451159D01*
X1145140Y1450729D01*
X1144889Y1450320D01*
X1144600Y1449949D01*
X1144260Y1449609D01*
X1143890Y1449319D01*
X1143479Y1449070D01*
X1143050Y1448879D01*
X1142600Y1448739D01*
X1142129Y1448649D01*
X1141649Y1448620D01*
G37*
G36*
X1031649Y1485120D02*
G01*
X1032129Y1485090D01*
X1032600Y1485000D01*
X1033050Y1484859D01*
X1033479Y1484670D01*
X1033890Y1484420D01*
X1034260Y1484130D01*
X1034600Y1483789D01*
X1034889Y1483420D01*
X1035140Y1483009D01*
X1035330Y1482579D01*
X1035479Y1482120D01*
X1035559Y1481660D01*
X1035590Y1481179D01*
X1035590Y1457559D01*
X1035559Y1457080D01*
X1035479Y1456619D01*
X1035330Y1456159D01*
X1035140Y1455729D01*
X1034889Y1455320D01*
X1034600Y1454949D01*
X1034260Y1454609D01*
X1033890Y1454319D01*
X1033479Y1454070D01*
X1033050Y1453879D01*
X1032600Y1453739D01*
X1032129Y1453649D01*
X1031649Y1453620D01*
X988350Y1453620D01*
X987870Y1453649D01*
X987399Y1453739D01*
X986949Y1453879D01*
X986520Y1454070D01*
X986109Y1454319D01*
X985739Y1454609D01*
X985399Y1454949D01*
X985110Y1455320D01*
X984859Y1455729D01*
X984669Y1456159D01*
X984520Y1456619D01*
X984440Y1457080D01*
X984409Y1457559D01*
X984409Y1481179D01*
X984440Y1481660D01*
X984520Y1482120D01*
X984669Y1482579D01*
X984859Y1483009D01*
X985110Y1483420D01*
X985399Y1483789D01*
X985739Y1484130D01*
X986109Y1484420D01*
X986520Y1484670D01*
X986949Y1484859D01*
X987399Y1485000D01*
X987870Y1485090D01*
X988350Y1485120D01*
G37*
G36*
X1031649Y1406379D02*
G01*
X1032129Y1406350D01*
X1032600Y1406260D01*
X1033050Y1406120D01*
X1033479Y1405929D01*
X1033890Y1405680D01*
X1034260Y1405390D01*
X1034600Y1405050D01*
X1034889Y1404679D01*
X1035140Y1404270D01*
X1035330Y1403840D01*
X1035479Y1403380D01*
X1035559Y1402919D01*
X1035590Y1402440D01*
X1035590Y1378820D01*
X1035559Y1378339D01*
X1035479Y1377880D01*
X1035330Y1377420D01*
X1035140Y1376990D01*
X1034889Y1376579D01*
X1034600Y1376210D01*
X1034260Y1375870D01*
X1033890Y1375580D01*
X1033479Y1375329D01*
X1033050Y1375140D01*
X1032600Y1375000D01*
X1032129Y1374909D01*
X1031649Y1374879D01*
X988350Y1374879D01*
X987870Y1374909D01*
X987399Y1375000D01*
X986949Y1375140D01*
X986520Y1375329D01*
X986109Y1375580D01*
X985739Y1375870D01*
X985399Y1376210D01*
X985110Y1376579D01*
X984859Y1376990D01*
X984669Y1377420D01*
X984520Y1377880D01*
X984440Y1378339D01*
X984409Y1378820D01*
X984409Y1402440D01*
X984440Y1402919D01*
X984520Y1403380D01*
X984669Y1403840D01*
X984859Y1404270D01*
X985110Y1404679D01*
X985399Y1405050D01*
X985739Y1405390D01*
X986109Y1405680D01*
X986520Y1405929D01*
X986949Y1406120D01*
X987399Y1406260D01*
X987870Y1406350D01*
X988350Y1406379D01*
G37*
G36*
X2320000Y747500D02*
G01*
X2319960Y746900D01*
X2319849Y746300D01*
X2319669Y745729D01*
X2319430Y745180D01*
X2319110Y744659D01*
X2318739Y744179D01*
X2318320Y743760D01*
X2317839Y743390D01*
X2317319Y743069D01*
X2316769Y742820D01*
X2316199Y742649D01*
X2315600Y742539D01*
X2315000Y742500D01*
X2285000Y742500D01*
X2284399Y742539D01*
X2283800Y742649D01*
X2283230Y742820D01*
X2282680Y743069D01*
X2282160Y743390D01*
X2281679Y743760D01*
X2281260Y744179D01*
X2280889Y744659D01*
X2280569Y745180D01*
X2280320Y745729D01*
X2280150Y746300D01*
X2280039Y746900D01*
X2280000Y747500D01*
X2280000Y792500D01*
X2280039Y793099D01*
X2280150Y793699D01*
X2280320Y794270D01*
X2280569Y794819D01*
X2280889Y795340D01*
X2281260Y795820D01*
X2281679Y796239D01*
X2282160Y796609D01*
X2282680Y796930D01*
X2283230Y797179D01*
X2283800Y797350D01*
X2284399Y797460D01*
X2285000Y797500D01*
X2315000Y797500D01*
X2315600Y797460D01*
X2316199Y797350D01*
X2316769Y797179D01*
X2317319Y796930D01*
X2317839Y796609D01*
X2318320Y796239D01*
X2318739Y795820D01*
X2319110Y795340D01*
X2319430Y794819D01*
X2319669Y794270D01*
X2319849Y793699D01*
X2319960Y793099D01*
X2320000Y792500D01*
G37*
G36*
X2250000Y747500D02*
G01*
X2249960Y746900D01*
X2249849Y746300D01*
X2249679Y745729D01*
X2249430Y745180D01*
X2249110Y744659D01*
X2248739Y744179D01*
X2248320Y743760D01*
X2247839Y743390D01*
X2247319Y743069D01*
X2246769Y742820D01*
X2246199Y742649D01*
X2245600Y742539D01*
X2245000Y742500D01*
X2215000Y742500D01*
X2214399Y742539D01*
X2213800Y742649D01*
X2213230Y742820D01*
X2212680Y743069D01*
X2212160Y743390D01*
X2211679Y743760D01*
X2211260Y744179D01*
X2210889Y744659D01*
X2210569Y745180D01*
X2210330Y745729D01*
X2210150Y746300D01*
X2210039Y746900D01*
X2210000Y747500D01*
X2210000Y792500D01*
X2210039Y793099D01*
X2210150Y793699D01*
X2210330Y794270D01*
X2210569Y794819D01*
X2210889Y795340D01*
X2211260Y795820D01*
X2211679Y796239D01*
X2212160Y796609D01*
X2212680Y796930D01*
X2213230Y797179D01*
X2213800Y797350D01*
X2214399Y797460D01*
X2215000Y797500D01*
X2245000Y797500D01*
X2245600Y797460D01*
X2246199Y797350D01*
X2246769Y797179D01*
X2247319Y796930D01*
X2247839Y796609D01*
X2248320Y796239D01*
X2248739Y795820D01*
X2249110Y795340D01*
X2249430Y794819D01*
X2249679Y794270D01*
X2249849Y793699D01*
X2249960Y793099D01*
X2250000Y792500D01*
G37*
G36*
X2325000Y1087500D02*
G01*
X2324960Y1086900D01*
X2324849Y1086300D01*
X2324669Y1085729D01*
X2324430Y1085180D01*
X2324110Y1084659D01*
X2323739Y1084179D01*
X2323320Y1083760D01*
X2322839Y1083390D01*
X2322319Y1083069D01*
X2321769Y1082820D01*
X2321199Y1082649D01*
X2320600Y1082539D01*
X2320000Y1082500D01*
X2290000Y1082500D01*
X2289399Y1082539D01*
X2288800Y1082649D01*
X2288230Y1082820D01*
X2287680Y1083069D01*
X2287160Y1083390D01*
X2286679Y1083760D01*
X2286260Y1084179D01*
X2285889Y1084659D01*
X2285569Y1085180D01*
X2285320Y1085729D01*
X2285150Y1086300D01*
X2285039Y1086900D01*
X2285000Y1087500D01*
X2285000Y1132500D01*
X2285039Y1133099D01*
X2285150Y1133699D01*
X2285320Y1134270D01*
X2285569Y1134819D01*
X2285889Y1135340D01*
X2286260Y1135820D01*
X2286679Y1136239D01*
X2287160Y1136609D01*
X2287680Y1136930D01*
X2288230Y1137179D01*
X2288800Y1137350D01*
X2289399Y1137460D01*
X2290000Y1137500D01*
X2320000Y1137500D01*
X2320600Y1137460D01*
X2321199Y1137350D01*
X2321769Y1137179D01*
X2322319Y1136930D01*
X2322839Y1136609D01*
X2323320Y1136239D01*
X2323739Y1135820D01*
X2324110Y1135340D01*
X2324430Y1134819D01*
X2324669Y1134270D01*
X2324849Y1133699D01*
X2324960Y1133099D01*
X2325000Y1132500D01*
G37*
G36*
X2255000Y1087500D02*
G01*
X2254960Y1086900D01*
X2254849Y1086300D01*
X2254679Y1085729D01*
X2254430Y1085180D01*
X2254110Y1084659D01*
X2253739Y1084179D01*
X2253320Y1083760D01*
X2252839Y1083390D01*
X2252319Y1083069D01*
X2251769Y1082820D01*
X2251199Y1082649D01*
X2250600Y1082539D01*
X2250000Y1082500D01*
X2220000Y1082500D01*
X2219399Y1082539D01*
X2218800Y1082649D01*
X2218230Y1082820D01*
X2217680Y1083069D01*
X2217160Y1083390D01*
X2216679Y1083760D01*
X2216260Y1084179D01*
X2215889Y1084659D01*
X2215569Y1085180D01*
X2215330Y1085729D01*
X2215150Y1086300D01*
X2215039Y1086900D01*
X2215000Y1087500D01*
X2215000Y1132500D01*
X2215039Y1133099D01*
X2215150Y1133699D01*
X2215330Y1134270D01*
X2215569Y1134819D01*
X2215889Y1135340D01*
X2216260Y1135820D01*
X2216679Y1136239D01*
X2217160Y1136609D01*
X2217680Y1136930D01*
X2218230Y1137179D01*
X2218800Y1137350D01*
X2219399Y1137460D01*
X2220000Y1137500D01*
X2250000Y1137500D01*
X2250600Y1137460D01*
X2251199Y1137350D01*
X2251769Y1137179D01*
X2252319Y1136930D01*
X2252839Y1136609D01*
X2253320Y1136239D01*
X2253739Y1135820D01*
X2254110Y1135340D01*
X2254430Y1134819D01*
X2254679Y1134270D01*
X2254849Y1133699D01*
X2254960Y1133099D01*
X2255000Y1132500D01*
G37*
G36*
X2320000Y662500D02*
G01*
X2319960Y661900D01*
X2319849Y661300D01*
X2319669Y660729D01*
X2319430Y660180D01*
X2319110Y659659D01*
X2318739Y659179D01*
X2318320Y658760D01*
X2317839Y658390D01*
X2317319Y658069D01*
X2316769Y657820D01*
X2316199Y657649D01*
X2315600Y657539D01*
X2315000Y657500D01*
X2285000Y657500D01*
X2284399Y657539D01*
X2283800Y657649D01*
X2283230Y657820D01*
X2282680Y658069D01*
X2282160Y658390D01*
X2281679Y658760D01*
X2281260Y659179D01*
X2280889Y659659D01*
X2280569Y660180D01*
X2280320Y660729D01*
X2280150Y661300D01*
X2280039Y661900D01*
X2280000Y662500D01*
X2280000Y707500D01*
X2280039Y708099D01*
X2280150Y708699D01*
X2280320Y709270D01*
X2280569Y709819D01*
X2280889Y710340D01*
X2281260Y710820D01*
X2281679Y711239D01*
X2282160Y711609D01*
X2282680Y711930D01*
X2283230Y712179D01*
X2283800Y712350D01*
X2284399Y712460D01*
X2285000Y712500D01*
X2315000Y712500D01*
X2315600Y712460D01*
X2316199Y712350D01*
X2316769Y712179D01*
X2317319Y711930D01*
X2317839Y711609D01*
X2318320Y711239D01*
X2318739Y710820D01*
X2319110Y710340D01*
X2319430Y709819D01*
X2319669Y709270D01*
X2319849Y708699D01*
X2319960Y708099D01*
X2320000Y707500D01*
G37*
G36*
X2250000Y662500D02*
G01*
X2249960Y661900D01*
X2249849Y661300D01*
X2249679Y660729D01*
X2249430Y660180D01*
X2249110Y659659D01*
X2248739Y659179D01*
X2248320Y658760D01*
X2247839Y658390D01*
X2247319Y658069D01*
X2246769Y657820D01*
X2246199Y657649D01*
X2245600Y657539D01*
X2245000Y657500D01*
X2215000Y657500D01*
X2214399Y657539D01*
X2213800Y657649D01*
X2213230Y657820D01*
X2212680Y658069D01*
X2212160Y658390D01*
X2211679Y658760D01*
X2211260Y659179D01*
X2210889Y659659D01*
X2210569Y660180D01*
X2210330Y660729D01*
X2210150Y661300D01*
X2210039Y661900D01*
X2210000Y662500D01*
X2210000Y707500D01*
X2210039Y708099D01*
X2210150Y708699D01*
X2210330Y709270D01*
X2210569Y709819D01*
X2210889Y710340D01*
X2211260Y710820D01*
X2211679Y711239D01*
X2212160Y711609D01*
X2212680Y711930D01*
X2213230Y712179D01*
X2213800Y712350D01*
X2214399Y712460D01*
X2215000Y712500D01*
X2245000Y712500D01*
X2245600Y712460D01*
X2246199Y712350D01*
X2246769Y712179D01*
X2247319Y711930D01*
X2247839Y711609D01*
X2248320Y711239D01*
X2248739Y710820D01*
X2249110Y710340D01*
X2249430Y709819D01*
X2249679Y709270D01*
X2249849Y708699D01*
X2249960Y708099D01*
X2250000Y707500D01*
G37*
G36*
X2325000Y1002500D02*
G01*
X2324960Y1001900D01*
X2324849Y1001300D01*
X2324669Y1000729D01*
X2324430Y1000180D01*
X2324110Y999659D01*
X2323739Y999179D01*
X2323320Y998760D01*
X2322839Y998390D01*
X2322319Y998069D01*
X2321769Y997820D01*
X2321199Y997649D01*
X2320600Y997539D01*
X2320000Y997500D01*
X2290000Y997500D01*
X2289399Y997539D01*
X2288800Y997649D01*
X2288230Y997820D01*
X2287680Y998069D01*
X2287160Y998390D01*
X2286679Y998760D01*
X2286260Y999179D01*
X2285889Y999659D01*
X2285569Y1000180D01*
X2285320Y1000729D01*
X2285150Y1001300D01*
X2285039Y1001900D01*
X2285000Y1002500D01*
X2285000Y1047500D01*
X2285039Y1048099D01*
X2285150Y1048699D01*
X2285320Y1049270D01*
X2285569Y1049819D01*
X2285889Y1050340D01*
X2286260Y1050820D01*
X2286679Y1051239D01*
X2287160Y1051609D01*
X2287680Y1051930D01*
X2288230Y1052179D01*
X2288800Y1052350D01*
X2289399Y1052460D01*
X2290000Y1052500D01*
X2320000Y1052500D01*
X2320600Y1052460D01*
X2321199Y1052350D01*
X2321769Y1052179D01*
X2322319Y1051930D01*
X2322839Y1051609D01*
X2323320Y1051239D01*
X2323739Y1050820D01*
X2324110Y1050340D01*
X2324430Y1049819D01*
X2324669Y1049270D01*
X2324849Y1048699D01*
X2324960Y1048099D01*
X2325000Y1047500D01*
G37*
G36*
X2255000Y1002500D02*
G01*
X2254960Y1001900D01*
X2254849Y1001300D01*
X2254679Y1000729D01*
X2254430Y1000180D01*
X2254110Y999659D01*
X2253739Y999179D01*
X2253320Y998760D01*
X2252839Y998390D01*
X2252319Y998069D01*
X2251769Y997820D01*
X2251199Y997649D01*
X2250600Y997539D01*
X2250000Y997500D01*
X2220000Y997500D01*
X2219399Y997539D01*
X2218800Y997649D01*
X2218230Y997820D01*
X2217680Y998069D01*
X2217160Y998390D01*
X2216679Y998760D01*
X2216260Y999179D01*
X2215889Y999659D01*
X2215569Y1000180D01*
X2215330Y1000729D01*
X2215150Y1001300D01*
X2215039Y1001900D01*
X2215000Y1002500D01*
X2215000Y1047500D01*
X2215039Y1048099D01*
X2215150Y1048699D01*
X2215330Y1049270D01*
X2215569Y1049819D01*
X2215889Y1050340D01*
X2216260Y1050820D01*
X2216679Y1051239D01*
X2217160Y1051609D01*
X2217680Y1051930D01*
X2218230Y1052179D01*
X2218800Y1052350D01*
X2219399Y1052460D01*
X2220000Y1052500D01*
X2250000Y1052500D01*
X2250600Y1052460D01*
X2251199Y1052350D01*
X2251769Y1052179D01*
X2252319Y1051930D01*
X2252839Y1051609D01*
X2253320Y1051239D01*
X2253739Y1050820D01*
X2254110Y1050340D01*
X2254430Y1049819D01*
X2254679Y1049270D01*
X2254849Y1048699D01*
X2254960Y1048099D01*
X2255000Y1047500D01*
G37*
G36*
X2095000Y1497500D02*
G01*
X2095039Y1498099D01*
X2095150Y1498699D01*
X2095330Y1499270D01*
X2095569Y1499819D01*
X2095889Y1500340D01*
X2096260Y1500820D01*
X2096679Y1501239D01*
X2097160Y1501609D01*
X2097680Y1501930D01*
X2098230Y1502179D01*
X2098800Y1502350D01*
X2099399Y1502460D01*
X2100000Y1502500D01*
X2130000Y1502500D01*
X2130600Y1502460D01*
X2131199Y1502350D01*
X2131769Y1502179D01*
X2132319Y1501930D01*
X2132839Y1501609D01*
X2133320Y1501239D01*
X2133739Y1500820D01*
X2134110Y1500340D01*
X2134430Y1499819D01*
X2134679Y1499270D01*
X2134849Y1498699D01*
X2134960Y1498099D01*
X2135000Y1497500D01*
X2135000Y1452500D01*
X2134960Y1451900D01*
X2134849Y1451300D01*
X2134679Y1450729D01*
X2134430Y1450180D01*
X2134110Y1449659D01*
X2133739Y1449179D01*
X2133320Y1448760D01*
X2132839Y1448390D01*
X2132319Y1448069D01*
X2131769Y1447820D01*
X2131199Y1447649D01*
X2130600Y1447539D01*
X2130000Y1447500D01*
X2100000Y1447500D01*
X2099399Y1447539D01*
X2098800Y1447649D01*
X2098230Y1447820D01*
X2097680Y1448069D01*
X2097160Y1448390D01*
X2096679Y1448760D01*
X2096260Y1449179D01*
X2095889Y1449659D01*
X2095569Y1450180D01*
X2095330Y1450729D01*
X2095150Y1451300D01*
X2095039Y1451900D01*
X2095000Y1452500D01*
G37*
G36*
X2165000Y1497500D02*
G01*
X2165039Y1498099D01*
X2165150Y1498699D01*
X2165320Y1499270D01*
X2165569Y1499819D01*
X2165889Y1500340D01*
X2166260Y1500820D01*
X2166679Y1501239D01*
X2167160Y1501609D01*
X2167680Y1501930D01*
X2168230Y1502179D01*
X2168800Y1502350D01*
X2169399Y1502460D01*
X2170000Y1502500D01*
X2200000Y1502500D01*
X2200600Y1502460D01*
X2201199Y1502350D01*
X2201769Y1502179D01*
X2202319Y1501930D01*
X2202839Y1501609D01*
X2203320Y1501239D01*
X2203739Y1500820D01*
X2204110Y1500340D01*
X2204430Y1499819D01*
X2204669Y1499270D01*
X2204849Y1498699D01*
X2204960Y1498099D01*
X2205000Y1497500D01*
X2205000Y1452500D01*
X2204960Y1451900D01*
X2204849Y1451300D01*
X2204669Y1450729D01*
X2204430Y1450180D01*
X2204110Y1449659D01*
X2203739Y1449179D01*
X2203320Y1448760D01*
X2202839Y1448390D01*
X2202319Y1448069D01*
X2201769Y1447820D01*
X2201199Y1447649D01*
X2200600Y1447539D01*
X2200000Y1447500D01*
X2170000Y1447500D01*
X2169399Y1447539D01*
X2168800Y1447649D01*
X2168230Y1447820D01*
X2167680Y1448069D01*
X2167160Y1448390D01*
X2166679Y1448760D01*
X2166260Y1449179D01*
X2165889Y1449659D01*
X2165569Y1450180D01*
X2165320Y1450729D01*
X2165150Y1451300D01*
X2165039Y1451900D01*
X2165000Y1452500D01*
G37*
G36*
X1137500Y975000D02*
G01*
X1136899Y975039D01*
X1136300Y975149D01*
X1135730Y975329D01*
X1135180Y975569D01*
X1134660Y975890D01*
X1134179Y976260D01*
X1133760Y976679D01*
X1133389Y977159D01*
X1133069Y977680D01*
X1132820Y978229D01*
X1132650Y978800D01*
X1132539Y979400D01*
X1132500Y980000D01*
X1132500Y1010000D01*
X1132539Y1010599D01*
X1132650Y1011199D01*
X1132820Y1011770D01*
X1133069Y1012319D01*
X1133389Y1012840D01*
X1133760Y1013320D01*
X1134179Y1013739D01*
X1134660Y1014109D01*
X1135180Y1014430D01*
X1135730Y1014679D01*
X1136300Y1014850D01*
X1136899Y1014960D01*
X1137500Y1015000D01*
X1182500Y1015000D01*
X1183100Y1014960D01*
X1183699Y1014850D01*
X1184269Y1014679D01*
X1184819Y1014430D01*
X1185339Y1014109D01*
X1185820Y1013739D01*
X1186239Y1013320D01*
X1186610Y1012840D01*
X1186930Y1012319D01*
X1187179Y1011770D01*
X1187349Y1011199D01*
X1187460Y1010599D01*
X1187500Y1010000D01*
X1187500Y980000D01*
X1187460Y979400D01*
X1187349Y978800D01*
X1187179Y978229D01*
X1186930Y977680D01*
X1186610Y977159D01*
X1186239Y976679D01*
X1185820Y976260D01*
X1185339Y975890D01*
X1184819Y975569D01*
X1184269Y975329D01*
X1183699Y975149D01*
X1183100Y975039D01*
X1182500Y975000D01*
G37*
G36*
X1137500Y1045000D02*
G01*
X1136899Y1045039D01*
X1136300Y1045149D01*
X1135730Y1045320D01*
X1135180Y1045569D01*
X1134660Y1045890D01*
X1134179Y1046260D01*
X1133760Y1046679D01*
X1133389Y1047159D01*
X1133069Y1047680D01*
X1132820Y1048229D01*
X1132650Y1048800D01*
X1132539Y1049400D01*
X1132500Y1050000D01*
X1132500Y1080000D01*
X1132539Y1080599D01*
X1132650Y1081199D01*
X1132820Y1081770D01*
X1133069Y1082319D01*
X1133389Y1082840D01*
X1133760Y1083320D01*
X1134179Y1083739D01*
X1134660Y1084109D01*
X1135180Y1084430D01*
X1135730Y1084670D01*
X1136300Y1084850D01*
X1136899Y1084960D01*
X1137500Y1085000D01*
X1182500Y1085000D01*
X1183100Y1084960D01*
X1183699Y1084850D01*
X1184269Y1084670D01*
X1184819Y1084430D01*
X1185339Y1084109D01*
X1185820Y1083739D01*
X1186239Y1083320D01*
X1186610Y1082840D01*
X1186930Y1082319D01*
X1187179Y1081770D01*
X1187349Y1081199D01*
X1187460Y1080599D01*
X1187500Y1080000D01*
X1187500Y1050000D01*
X1187460Y1049400D01*
X1187349Y1048800D01*
X1187179Y1048229D01*
X1186930Y1047680D01*
X1186610Y1047159D01*
X1186239Y1046679D01*
X1185820Y1046260D01*
X1185339Y1045890D01*
X1184819Y1045569D01*
X1184269Y1045320D01*
X1183699Y1045149D01*
X1183100Y1045039D01*
X1182500Y1045000D01*
G37*
G36*
X1057500Y975000D02*
G01*
X1056899Y975039D01*
X1056300Y975149D01*
X1055730Y975329D01*
X1055180Y975569D01*
X1054660Y975890D01*
X1054179Y976260D01*
X1053760Y976679D01*
X1053389Y977159D01*
X1053069Y977680D01*
X1052820Y978229D01*
X1052650Y978800D01*
X1052539Y979400D01*
X1052500Y980000D01*
X1052500Y1010000D01*
X1052539Y1010599D01*
X1052650Y1011199D01*
X1052820Y1011770D01*
X1053069Y1012319D01*
X1053389Y1012840D01*
X1053760Y1013320D01*
X1054179Y1013739D01*
X1054660Y1014109D01*
X1055180Y1014430D01*
X1055730Y1014679D01*
X1056300Y1014850D01*
X1056899Y1014960D01*
X1057500Y1015000D01*
X1102500Y1015000D01*
X1103100Y1014960D01*
X1103699Y1014850D01*
X1104269Y1014679D01*
X1104819Y1014430D01*
X1105339Y1014109D01*
X1105820Y1013739D01*
X1106239Y1013320D01*
X1106610Y1012840D01*
X1106930Y1012319D01*
X1107179Y1011770D01*
X1107349Y1011199D01*
X1107460Y1010599D01*
X1107500Y1010000D01*
X1107500Y980000D01*
X1107460Y979400D01*
X1107349Y978800D01*
X1107179Y978229D01*
X1106930Y977680D01*
X1106610Y977159D01*
X1106239Y976679D01*
X1105820Y976260D01*
X1105339Y975890D01*
X1104819Y975569D01*
X1104269Y975329D01*
X1103699Y975149D01*
X1103100Y975039D01*
X1102500Y975000D01*
G37*
G36*
X1057500Y1045000D02*
G01*
X1056899Y1045039D01*
X1056300Y1045149D01*
X1055730Y1045320D01*
X1055180Y1045569D01*
X1054660Y1045890D01*
X1054179Y1046260D01*
X1053760Y1046679D01*
X1053389Y1047159D01*
X1053069Y1047680D01*
X1052820Y1048229D01*
X1052650Y1048800D01*
X1052539Y1049400D01*
X1052500Y1050000D01*
X1052500Y1080000D01*
X1052539Y1080599D01*
X1052650Y1081199D01*
X1052820Y1081770D01*
X1053069Y1082319D01*
X1053389Y1082840D01*
X1053760Y1083320D01*
X1054179Y1083739D01*
X1054660Y1084109D01*
X1055180Y1084430D01*
X1055730Y1084670D01*
X1056300Y1084850D01*
X1056899Y1084960D01*
X1057500Y1085000D01*
X1102500Y1085000D01*
X1103100Y1084960D01*
X1103699Y1084850D01*
X1104269Y1084670D01*
X1104819Y1084430D01*
X1105339Y1084109D01*
X1105820Y1083739D01*
X1106239Y1083320D01*
X1106610Y1082840D01*
X1106930Y1082319D01*
X1107179Y1081770D01*
X1107349Y1081199D01*
X1107460Y1080599D01*
X1107500Y1080000D01*
X1107500Y1050000D01*
X1107460Y1049400D01*
X1107349Y1048800D01*
X1107179Y1048229D01*
X1106930Y1047680D01*
X1106610Y1047159D01*
X1106239Y1046679D01*
X1105820Y1046260D01*
X1105339Y1045890D01*
X1104819Y1045569D01*
X1104269Y1045320D01*
X1103699Y1045149D01*
X1103100Y1045039D01*
X1102500Y1045000D01*
G37*
G36*
X1217500Y975000D02*
G01*
X1216899Y975039D01*
X1216300Y975149D01*
X1215730Y975329D01*
X1215180Y975569D01*
X1214660Y975890D01*
X1214179Y976260D01*
X1213760Y976679D01*
X1213389Y977159D01*
X1213069Y977680D01*
X1212820Y978229D01*
X1212650Y978800D01*
X1212539Y979400D01*
X1212500Y980000D01*
X1212500Y1010000D01*
X1212539Y1010599D01*
X1212650Y1011199D01*
X1212820Y1011770D01*
X1213069Y1012319D01*
X1213389Y1012840D01*
X1213760Y1013320D01*
X1214179Y1013739D01*
X1214660Y1014109D01*
X1215180Y1014430D01*
X1215730Y1014679D01*
X1216300Y1014850D01*
X1216899Y1014960D01*
X1217500Y1015000D01*
X1262500Y1015000D01*
X1263100Y1014960D01*
X1263699Y1014850D01*
X1264269Y1014679D01*
X1264819Y1014430D01*
X1265339Y1014109D01*
X1265820Y1013739D01*
X1266239Y1013320D01*
X1266610Y1012840D01*
X1266930Y1012319D01*
X1267179Y1011770D01*
X1267349Y1011199D01*
X1267460Y1010599D01*
X1267500Y1010000D01*
X1267500Y980000D01*
X1267460Y979400D01*
X1267349Y978800D01*
X1267179Y978229D01*
X1266930Y977680D01*
X1266610Y977159D01*
X1266239Y976679D01*
X1265820Y976260D01*
X1265339Y975890D01*
X1264819Y975569D01*
X1264269Y975329D01*
X1263699Y975149D01*
X1263100Y975039D01*
X1262500Y975000D01*
G37*
G36*
X1217500Y1045000D02*
G01*
X1216899Y1045039D01*
X1216300Y1045149D01*
X1215730Y1045320D01*
X1215180Y1045569D01*
X1214660Y1045890D01*
X1214179Y1046260D01*
X1213760Y1046679D01*
X1213389Y1047159D01*
X1213069Y1047680D01*
X1212820Y1048229D01*
X1212650Y1048800D01*
X1212539Y1049400D01*
X1212500Y1050000D01*
X1212500Y1080000D01*
X1212539Y1080599D01*
X1212650Y1081199D01*
X1212820Y1081770D01*
X1213069Y1082319D01*
X1213389Y1082840D01*
X1213760Y1083320D01*
X1214179Y1083739D01*
X1214660Y1084109D01*
X1215180Y1084430D01*
X1215730Y1084670D01*
X1216300Y1084850D01*
X1216899Y1084960D01*
X1217500Y1085000D01*
X1262500Y1085000D01*
X1263100Y1084960D01*
X1263699Y1084850D01*
X1264269Y1084670D01*
X1264819Y1084430D01*
X1265339Y1084109D01*
X1265820Y1083739D01*
X1266239Y1083320D01*
X1266610Y1082840D01*
X1266930Y1082319D01*
X1267179Y1081770D01*
X1267349Y1081199D01*
X1267460Y1080599D01*
X1267500Y1080000D01*
X1267500Y1050000D01*
X1267460Y1049400D01*
X1267349Y1048800D01*
X1267179Y1048229D01*
X1266930Y1047680D01*
X1266610Y1047159D01*
X1266239Y1046679D01*
X1265820Y1046260D01*
X1265339Y1045890D01*
X1264819Y1045569D01*
X1264269Y1045320D01*
X1263699Y1045149D01*
X1263100Y1045039D01*
X1262500Y1045000D01*
G37*
G36*
X2177500Y875000D02*
G01*
X2178100Y874960D01*
X2178699Y874850D01*
X2179269Y874670D01*
X2179819Y874430D01*
X2180339Y874109D01*
X2180820Y873739D01*
X2181239Y873320D01*
X2181610Y872840D01*
X2181930Y872319D01*
X2182179Y871770D01*
X2182349Y871199D01*
X2182460Y870599D01*
X2182500Y870000D01*
X2182500Y840000D01*
X2182460Y839400D01*
X2182349Y838800D01*
X2182179Y838229D01*
X2181930Y837680D01*
X2181610Y837159D01*
X2181239Y836679D01*
X2180820Y836260D01*
X2180339Y835890D01*
X2179819Y835569D01*
X2179269Y835320D01*
X2178699Y835149D01*
X2178100Y835039D01*
X2177500Y835000D01*
X2132500Y835000D01*
X2131899Y835039D01*
X2131300Y835149D01*
X2130730Y835320D01*
X2130180Y835569D01*
X2129660Y835890D01*
X2129179Y836260D01*
X2128760Y836679D01*
X2128389Y837159D01*
X2128069Y837680D01*
X2127820Y838229D01*
X2127650Y838800D01*
X2127539Y839400D01*
X2127500Y840000D01*
X2127500Y870000D01*
X2127539Y870599D01*
X2127650Y871199D01*
X2127820Y871770D01*
X2128069Y872319D01*
X2128389Y872840D01*
X2128760Y873320D01*
X2129179Y873739D01*
X2129660Y874109D01*
X2130180Y874430D01*
X2130730Y874670D01*
X2131300Y874850D01*
X2131899Y874960D01*
X2132500Y875000D01*
G37*
G36*
X2177500Y805000D02*
G01*
X2178100Y804960D01*
X2178699Y804850D01*
X2179269Y804679D01*
X2179819Y804430D01*
X2180339Y804109D01*
X2180820Y803739D01*
X2181239Y803320D01*
X2181610Y802840D01*
X2181930Y802319D01*
X2182179Y801770D01*
X2182349Y801199D01*
X2182460Y800599D01*
X2182500Y800000D01*
X2182500Y770000D01*
X2182460Y769400D01*
X2182349Y768800D01*
X2182179Y768229D01*
X2181930Y767680D01*
X2181610Y767159D01*
X2181239Y766679D01*
X2180820Y766260D01*
X2180339Y765890D01*
X2179819Y765569D01*
X2179269Y765329D01*
X2178699Y765149D01*
X2178100Y765039D01*
X2177500Y765000D01*
X2132500Y765000D01*
X2131899Y765039D01*
X2131300Y765149D01*
X2130730Y765329D01*
X2130180Y765569D01*
X2129660Y765890D01*
X2129179Y766260D01*
X2128760Y766679D01*
X2128389Y767159D01*
X2128069Y767680D01*
X2127820Y768229D01*
X2127650Y768800D01*
X2127539Y769400D01*
X2127500Y770000D01*
X2127500Y800000D01*
X2127539Y800599D01*
X2127650Y801199D01*
X2127820Y801770D01*
X2128069Y802319D01*
X2128389Y802840D01*
X2128760Y803320D01*
X2129179Y803739D01*
X2129660Y804109D01*
X2130180Y804430D01*
X2130730Y804679D01*
X2131300Y804850D01*
X2131899Y804960D01*
X2132500Y805000D01*
G37*
G36*
X587500Y1565000D02*
G01*
X588099Y1564960D01*
X588699Y1564850D01*
X589270Y1564670D01*
X589819Y1564430D01*
X590340Y1564109D01*
X590820Y1563739D01*
X591239Y1563320D01*
X591609Y1562840D01*
X591930Y1562319D01*
X592179Y1561770D01*
X592350Y1561199D01*
X592460Y1560599D01*
X592500Y1560000D01*
X592500Y1530000D01*
X592460Y1529400D01*
X592350Y1528800D01*
X592179Y1528229D01*
X591930Y1527680D01*
X591609Y1527159D01*
X591239Y1526679D01*
X590820Y1526260D01*
X590340Y1525890D01*
X589819Y1525569D01*
X589270Y1525320D01*
X588699Y1525149D01*
X588099Y1525039D01*
X587500Y1525000D01*
X542500Y1525000D01*
X541900Y1525039D01*
X541300Y1525149D01*
X540729Y1525320D01*
X540180Y1525569D01*
X539659Y1525890D01*
X539179Y1526260D01*
X538760Y1526679D01*
X538390Y1527159D01*
X538069Y1527680D01*
X537820Y1528229D01*
X537649Y1528800D01*
X537539Y1529400D01*
X537500Y1530000D01*
X537500Y1560000D01*
X537539Y1560599D01*
X537649Y1561199D01*
X537820Y1561770D01*
X538069Y1562319D01*
X538390Y1562840D01*
X538760Y1563320D01*
X539179Y1563739D01*
X539659Y1564109D01*
X540180Y1564430D01*
X540729Y1564670D01*
X541300Y1564850D01*
X541900Y1564960D01*
X542500Y1565000D01*
G37*
G36*
X587500Y1495000D02*
G01*
X588099Y1494960D01*
X588699Y1494850D01*
X589270Y1494679D01*
X589819Y1494430D01*
X590340Y1494109D01*
X590820Y1493739D01*
X591239Y1493320D01*
X591609Y1492840D01*
X591930Y1492319D01*
X592179Y1491770D01*
X592350Y1491199D01*
X592460Y1490599D01*
X592500Y1490000D01*
X592500Y1460000D01*
X592460Y1459400D01*
X592350Y1458800D01*
X592179Y1458229D01*
X591930Y1457680D01*
X591609Y1457159D01*
X591239Y1456679D01*
X590820Y1456260D01*
X590340Y1455890D01*
X589819Y1455569D01*
X589270Y1455329D01*
X588699Y1455149D01*
X588099Y1455039D01*
X587500Y1455000D01*
X542500Y1455000D01*
X541900Y1455039D01*
X541300Y1455149D01*
X540729Y1455329D01*
X540180Y1455569D01*
X539659Y1455890D01*
X539179Y1456260D01*
X538760Y1456679D01*
X538390Y1457159D01*
X538069Y1457680D01*
X537820Y1458229D01*
X537649Y1458800D01*
X537539Y1459400D01*
X537500Y1460000D01*
X537500Y1490000D01*
X537539Y1490599D01*
X537649Y1491199D01*
X537820Y1491770D01*
X538069Y1492319D01*
X538390Y1492840D01*
X538760Y1493320D01*
X539179Y1493739D01*
X539659Y1494109D01*
X540180Y1494430D01*
X540729Y1494679D01*
X541300Y1494850D01*
X541900Y1494960D01*
X542500Y1495000D01*
G37*
G36*
X672500Y1565000D02*
G01*
X673099Y1564960D01*
X673699Y1564850D01*
X674270Y1564670D01*
X674819Y1564430D01*
X675340Y1564109D01*
X675820Y1563739D01*
X676239Y1563320D01*
X676609Y1562840D01*
X676930Y1562319D01*
X677179Y1561770D01*
X677350Y1561199D01*
X677460Y1560599D01*
X677500Y1560000D01*
X677500Y1530000D01*
X677460Y1529400D01*
X677350Y1528800D01*
X677179Y1528229D01*
X676930Y1527680D01*
X676609Y1527159D01*
X676239Y1526679D01*
X675820Y1526260D01*
X675340Y1525890D01*
X674819Y1525569D01*
X674270Y1525320D01*
X673699Y1525149D01*
X673099Y1525039D01*
X672500Y1525000D01*
X627500Y1525000D01*
X626900Y1525039D01*
X626300Y1525149D01*
X625729Y1525320D01*
X625180Y1525569D01*
X624659Y1525890D01*
X624179Y1526260D01*
X623760Y1526679D01*
X623390Y1527159D01*
X623069Y1527680D01*
X622820Y1528229D01*
X622649Y1528800D01*
X622539Y1529400D01*
X622500Y1530000D01*
X622500Y1560000D01*
X622539Y1560599D01*
X622649Y1561199D01*
X622820Y1561770D01*
X623069Y1562319D01*
X623390Y1562840D01*
X623760Y1563320D01*
X624179Y1563739D01*
X624659Y1564109D01*
X625180Y1564430D01*
X625729Y1564670D01*
X626300Y1564850D01*
X626900Y1564960D01*
X627500Y1565000D01*
G37*
G36*
X672500Y1495000D02*
G01*
X673099Y1494960D01*
X673699Y1494850D01*
X674270Y1494679D01*
X674819Y1494430D01*
X675340Y1494109D01*
X675820Y1493739D01*
X676239Y1493320D01*
X676609Y1492840D01*
X676930Y1492319D01*
X677179Y1491770D01*
X677350Y1491199D01*
X677460Y1490599D01*
X677500Y1490000D01*
X677500Y1460000D01*
X677460Y1459400D01*
X677350Y1458800D01*
X677179Y1458229D01*
X676930Y1457680D01*
X676609Y1457159D01*
X676239Y1456679D01*
X675820Y1456260D01*
X675340Y1455890D01*
X674819Y1455569D01*
X674270Y1455329D01*
X673699Y1455149D01*
X673099Y1455039D01*
X672500Y1455000D01*
X627500Y1455000D01*
X626900Y1455039D01*
X626300Y1455149D01*
X625729Y1455329D01*
X625180Y1455569D01*
X624659Y1455890D01*
X624179Y1456260D01*
X623760Y1456679D01*
X623390Y1457159D01*
X623069Y1457680D01*
X622820Y1458229D01*
X622649Y1458800D01*
X622539Y1459400D01*
X622500Y1460000D01*
X622500Y1490000D01*
X622539Y1490599D01*
X622649Y1491199D01*
X622820Y1491770D01*
X623069Y1492319D01*
X623390Y1492840D01*
X623760Y1493320D01*
X624179Y1493739D01*
X624659Y1494109D01*
X625180Y1494430D01*
X625729Y1494679D01*
X626300Y1494850D01*
X626900Y1494960D01*
X627500Y1495000D01*
G37*
G36*
X1112500Y1290000D02*
G01*
X1113100Y1289960D01*
X1113699Y1289850D01*
X1114269Y1289670D01*
X1114819Y1289430D01*
X1115339Y1289109D01*
X1115820Y1288739D01*
X1116239Y1288320D01*
X1116610Y1287840D01*
X1116930Y1287319D01*
X1117179Y1286770D01*
X1117349Y1286199D01*
X1117460Y1285599D01*
X1117500Y1285000D01*
X1117500Y1255000D01*
X1117460Y1254400D01*
X1117349Y1253800D01*
X1117179Y1253229D01*
X1116930Y1252680D01*
X1116610Y1252159D01*
X1116239Y1251679D01*
X1115820Y1251260D01*
X1115339Y1250890D01*
X1114819Y1250569D01*
X1114269Y1250320D01*
X1113699Y1250149D01*
X1113100Y1250039D01*
X1112500Y1250000D01*
X1067500Y1250000D01*
X1066899Y1250039D01*
X1066300Y1250149D01*
X1065730Y1250320D01*
X1065180Y1250569D01*
X1064660Y1250890D01*
X1064179Y1251260D01*
X1063760Y1251679D01*
X1063389Y1252159D01*
X1063069Y1252680D01*
X1062820Y1253229D01*
X1062650Y1253800D01*
X1062539Y1254400D01*
X1062500Y1255000D01*
X1062500Y1285000D01*
X1062539Y1285599D01*
X1062650Y1286199D01*
X1062820Y1286770D01*
X1063069Y1287319D01*
X1063389Y1287840D01*
X1063760Y1288320D01*
X1064179Y1288739D01*
X1064660Y1289109D01*
X1065180Y1289430D01*
X1065730Y1289670D01*
X1066300Y1289850D01*
X1066899Y1289960D01*
X1067500Y1290000D01*
G37*
G36*
X1112500Y1220000D02*
G01*
X1113100Y1219960D01*
X1113699Y1219850D01*
X1114269Y1219679D01*
X1114819Y1219430D01*
X1115339Y1219109D01*
X1115820Y1218739D01*
X1116239Y1218320D01*
X1116610Y1217840D01*
X1116930Y1217319D01*
X1117179Y1216770D01*
X1117349Y1216199D01*
X1117460Y1215599D01*
X1117500Y1215000D01*
X1117500Y1185000D01*
X1117460Y1184400D01*
X1117349Y1183800D01*
X1117179Y1183229D01*
X1116930Y1182680D01*
X1116610Y1182159D01*
X1116239Y1181679D01*
X1115820Y1181260D01*
X1115339Y1180890D01*
X1114819Y1180569D01*
X1114269Y1180329D01*
X1113699Y1180149D01*
X1113100Y1180039D01*
X1112500Y1180000D01*
X1067500Y1180000D01*
X1066899Y1180039D01*
X1066300Y1180149D01*
X1065730Y1180329D01*
X1065180Y1180569D01*
X1064660Y1180890D01*
X1064179Y1181260D01*
X1063760Y1181679D01*
X1063389Y1182159D01*
X1063069Y1182680D01*
X1062820Y1183229D01*
X1062650Y1183800D01*
X1062539Y1184400D01*
X1062500Y1185000D01*
X1062500Y1215000D01*
X1062539Y1215599D01*
X1062650Y1216199D01*
X1062820Y1216770D01*
X1063069Y1217319D01*
X1063389Y1217840D01*
X1063760Y1218320D01*
X1064179Y1218739D01*
X1064660Y1219109D01*
X1065180Y1219430D01*
X1065730Y1219679D01*
X1066300Y1219850D01*
X1066899Y1219960D01*
X1067500Y1220000D01*
G37*
G36*
X517500Y1815000D02*
G01*
X516900Y1815039D01*
X516300Y1815149D01*
X515729Y1815329D01*
X515180Y1815569D01*
X514659Y1815890D01*
X514179Y1816260D01*
X513760Y1816679D01*
X513390Y1817159D01*
X513069Y1817680D01*
X512820Y1818229D01*
X512649Y1818800D01*
X512539Y1819400D01*
X512500Y1820000D01*
X512500Y1850000D01*
X512539Y1850599D01*
X512649Y1851199D01*
X512820Y1851770D01*
X513069Y1852319D01*
X513390Y1852840D01*
X513760Y1853320D01*
X514179Y1853739D01*
X514659Y1854109D01*
X515180Y1854430D01*
X515729Y1854679D01*
X516300Y1854850D01*
X516900Y1854960D01*
X517500Y1855000D01*
X562500Y1855000D01*
X563099Y1854960D01*
X563699Y1854850D01*
X564270Y1854679D01*
X564819Y1854430D01*
X565340Y1854109D01*
X565820Y1853739D01*
X566239Y1853320D01*
X566609Y1852840D01*
X566930Y1852319D01*
X567179Y1851770D01*
X567350Y1851199D01*
X567460Y1850599D01*
X567500Y1850000D01*
X567500Y1820000D01*
X567460Y1819400D01*
X567350Y1818800D01*
X567179Y1818229D01*
X566930Y1817680D01*
X566609Y1817159D01*
X566239Y1816679D01*
X565820Y1816260D01*
X565340Y1815890D01*
X564819Y1815569D01*
X564270Y1815329D01*
X563699Y1815149D01*
X563099Y1815039D01*
X562500Y1815000D01*
G37*
G36*
X517500Y1885000D02*
G01*
X516900Y1885039D01*
X516300Y1885149D01*
X515729Y1885320D01*
X515180Y1885569D01*
X514659Y1885890D01*
X514179Y1886260D01*
X513760Y1886679D01*
X513390Y1887159D01*
X513069Y1887680D01*
X512820Y1888229D01*
X512649Y1888800D01*
X512539Y1889400D01*
X512500Y1890000D01*
X512500Y1920000D01*
X512539Y1920599D01*
X512649Y1921199D01*
X512820Y1921770D01*
X513069Y1922319D01*
X513390Y1922840D01*
X513760Y1923320D01*
X514179Y1923739D01*
X514659Y1924109D01*
X515180Y1924430D01*
X515729Y1924670D01*
X516300Y1924850D01*
X516900Y1924960D01*
X517500Y1925000D01*
X562500Y1925000D01*
X563099Y1924960D01*
X563699Y1924850D01*
X564270Y1924670D01*
X564819Y1924430D01*
X565340Y1924109D01*
X565820Y1923739D01*
X566239Y1923320D01*
X566609Y1922840D01*
X566930Y1922319D01*
X567179Y1921770D01*
X567350Y1921199D01*
X567460Y1920599D01*
X567500Y1920000D01*
X567500Y1890000D01*
X567460Y1889400D01*
X567350Y1888800D01*
X567179Y1888229D01*
X566930Y1887680D01*
X566609Y1887159D01*
X566239Y1886679D01*
X565820Y1886260D01*
X565340Y1885890D01*
X564819Y1885569D01*
X564270Y1885320D01*
X563699Y1885149D01*
X563099Y1885039D01*
X562500Y1885000D01*
G37*
G36*
X517500Y2125000D02*
G01*
X516900Y2125039D01*
X516300Y2125149D01*
X515729Y2125329D01*
X515180Y2125569D01*
X514659Y2125890D01*
X514179Y2126260D01*
X513760Y2126679D01*
X513390Y2127159D01*
X513069Y2127680D01*
X512820Y2128229D01*
X512649Y2128800D01*
X512539Y2129400D01*
X512500Y2130000D01*
X512500Y2160000D01*
X512539Y2160599D01*
X512649Y2161199D01*
X512820Y2161770D01*
X513069Y2162319D01*
X513390Y2162840D01*
X513760Y2163320D01*
X514179Y2163739D01*
X514659Y2164109D01*
X515180Y2164430D01*
X515729Y2164679D01*
X516300Y2164850D01*
X516900Y2164960D01*
X517500Y2165000D01*
X562500Y2165000D01*
X563099Y2164960D01*
X563699Y2164850D01*
X564270Y2164679D01*
X564819Y2164430D01*
X565340Y2164109D01*
X565820Y2163739D01*
X566239Y2163320D01*
X566609Y2162840D01*
X566930Y2162319D01*
X567179Y2161770D01*
X567350Y2161199D01*
X567460Y2160599D01*
X567500Y2160000D01*
X567500Y2130000D01*
X567460Y2129400D01*
X567350Y2128800D01*
X567179Y2128229D01*
X566930Y2127680D01*
X566609Y2127159D01*
X566239Y2126679D01*
X565820Y2126260D01*
X565340Y2125890D01*
X564819Y2125569D01*
X564270Y2125329D01*
X563699Y2125149D01*
X563099Y2125039D01*
X562500Y2125000D01*
G37*
G36*
X517500Y2195000D02*
G01*
X516900Y2195039D01*
X516300Y2195149D01*
X515729Y2195320D01*
X515180Y2195569D01*
X514659Y2195890D01*
X514179Y2196260D01*
X513760Y2196679D01*
X513390Y2197159D01*
X513069Y2197680D01*
X512820Y2198229D01*
X512649Y2198800D01*
X512539Y2199400D01*
X512500Y2200000D01*
X512500Y2230000D01*
X512539Y2230599D01*
X512649Y2231199D01*
X512820Y2231770D01*
X513069Y2232319D01*
X513390Y2232840D01*
X513760Y2233320D01*
X514179Y2233739D01*
X514659Y2234109D01*
X515180Y2234430D01*
X515729Y2234670D01*
X516300Y2234850D01*
X516900Y2234960D01*
X517500Y2235000D01*
X562500Y2235000D01*
X563099Y2234960D01*
X563699Y2234850D01*
X564270Y2234670D01*
X564819Y2234430D01*
X565340Y2234109D01*
X565820Y2233739D01*
X566239Y2233320D01*
X566609Y2232840D01*
X566930Y2232319D01*
X567179Y2231770D01*
X567350Y2231199D01*
X567460Y2230599D01*
X567500Y2230000D01*
X567500Y2200000D01*
X567460Y2199400D01*
X567350Y2198800D01*
X567179Y2198229D01*
X566930Y2197680D01*
X566609Y2197159D01*
X566239Y2196679D01*
X565820Y2196260D01*
X565340Y2195890D01*
X564819Y2195569D01*
X564270Y2195320D01*
X563699Y2195149D01*
X563099Y2195039D01*
X562500Y2195000D01*
G37*
M02*
