G04 Layer: BottomPasteMaskLayer*
G04 EasyEDA v6.5.22, 2023-01-05 17:43:04*
G04 408631a24da54ebd81f1ad95a11f4f05,373fc183506b451e961249744e80b011,10*
G04 Gerber Generator version 0.2*
G04 Scale: 100 percent, Rotated: No, Reflected: No *
G04 Dimensions in inches *
G04 leading zeros omitted , absolute positions ,3 integer and 6 decimal *
%FSLAX36Y36*%
%MOIN*%

%AMMACRO1*21,1,$1,$2,0,0,$3*%
%ADD10MACRO1,0.0421X0.0236X0.0000*%
%ADD11C,0.0394*%

%LPD*%
D10*
G01*
X2993622Y1272400D03*
G01*
X2993622Y1197600D03*
G01*
X2896377Y1235000D03*
G01*
X2686377Y1187600D03*
G01*
X2686377Y1262400D03*
G01*
X2783622Y1225000D03*
G36*
X2909880Y1318350D02*
G01*
X2909910Y1317869D01*
X2910000Y1317399D01*
X2910140Y1316950D01*
X2910330Y1316520D01*
X2910580Y1316109D01*
X2910870Y1315740D01*
X2911210Y1315399D01*
X2911580Y1315109D01*
X2911989Y1314859D01*
X2912420Y1314670D01*
X2912879Y1314520D01*
X2913339Y1314440D01*
X2913819Y1314409D01*
X2937439Y1314409D01*
X2937920Y1314440D01*
X2938379Y1314520D01*
X2938840Y1314670D01*
X2939269Y1314859D01*
X2939679Y1315109D01*
X2940050Y1315399D01*
X2940389Y1315740D01*
X2940680Y1316109D01*
X2940929Y1316520D01*
X2941120Y1316950D01*
X2941260Y1317399D01*
X2941350Y1317869D01*
X2941379Y1318350D01*
X2941379Y1361649D01*
X2941350Y1362130D01*
X2941260Y1362600D01*
X2941120Y1363049D01*
X2940929Y1363479D01*
X2940680Y1363890D01*
X2940389Y1364259D01*
X2940050Y1364600D01*
X2939679Y1364890D01*
X2939269Y1365140D01*
X2938840Y1365329D01*
X2938379Y1365479D01*
X2937920Y1365559D01*
X2937439Y1365590D01*
X2913819Y1365590D01*
X2913339Y1365559D01*
X2912879Y1365479D01*
X2912420Y1365329D01*
X2911989Y1365140D01*
X2911580Y1364890D01*
X2911210Y1364600D01*
X2910870Y1364259D01*
X2910580Y1363890D01*
X2910330Y1363479D01*
X2910140Y1363049D01*
X2910000Y1362600D01*
X2909910Y1362130D01*
X2909880Y1361649D01*
G37*
G36*
X2988620Y1318350D02*
G01*
X2988649Y1317869D01*
X2988739Y1317399D01*
X2988879Y1316950D01*
X2989070Y1316520D01*
X2989319Y1316109D01*
X2989610Y1315740D01*
X2989949Y1315399D01*
X2990320Y1315109D01*
X2990730Y1314859D01*
X2991160Y1314670D01*
X2991620Y1314520D01*
X2992079Y1314440D01*
X2992560Y1314409D01*
X3016180Y1314409D01*
X3016660Y1314440D01*
X3017120Y1314520D01*
X3017579Y1314670D01*
X3018010Y1314859D01*
X3018419Y1315109D01*
X3018789Y1315399D01*
X3019129Y1315740D01*
X3019420Y1316109D01*
X3019669Y1316520D01*
X3019859Y1316950D01*
X3020000Y1317399D01*
X3020090Y1317869D01*
X3020119Y1318350D01*
X3020119Y1361649D01*
X3020090Y1362130D01*
X3020000Y1362600D01*
X3019859Y1363049D01*
X3019669Y1363479D01*
X3019420Y1363890D01*
X3019129Y1364259D01*
X3018789Y1364600D01*
X3018419Y1364890D01*
X3018010Y1365140D01*
X3017579Y1365329D01*
X3017120Y1365479D01*
X3016660Y1365559D01*
X3016180Y1365590D01*
X2992560Y1365590D01*
X2992079Y1365559D01*
X2991620Y1365479D01*
X2991160Y1365329D01*
X2990730Y1365140D01*
X2990320Y1364890D01*
X2989949Y1364600D01*
X2989610Y1364259D01*
X2989319Y1363890D01*
X2989070Y1363479D01*
X2988879Y1363049D01*
X2988739Y1362600D01*
X2988649Y1362130D01*
X2988620Y1361649D01*
G37*
G36*
X2641649Y1169879D02*
G01*
X2642129Y1169909D01*
X2642600Y1170000D01*
X2643050Y1170140D01*
X2643479Y1170329D01*
X2643890Y1170580D01*
X2644260Y1170870D01*
X2644600Y1171210D01*
X2644889Y1171579D01*
X2645140Y1171990D01*
X2645330Y1172420D01*
X2645479Y1172880D01*
X2645559Y1173339D01*
X2645590Y1173820D01*
X2645590Y1197440D01*
X2645559Y1197919D01*
X2645479Y1198380D01*
X2645330Y1198840D01*
X2645140Y1199270D01*
X2644889Y1199679D01*
X2644600Y1200050D01*
X2644260Y1200390D01*
X2643890Y1200680D01*
X2643479Y1200929D01*
X2643050Y1201120D01*
X2642600Y1201260D01*
X2642129Y1201350D01*
X2641649Y1201379D01*
X2598350Y1201379D01*
X2597870Y1201350D01*
X2597399Y1201260D01*
X2596949Y1201120D01*
X2596520Y1200929D01*
X2596109Y1200680D01*
X2595739Y1200390D01*
X2595399Y1200050D01*
X2595110Y1199679D01*
X2594859Y1199270D01*
X2594669Y1198840D01*
X2594520Y1198380D01*
X2594440Y1197919D01*
X2594409Y1197440D01*
X2594409Y1173820D01*
X2594440Y1173339D01*
X2594520Y1172880D01*
X2594669Y1172420D01*
X2594859Y1171990D01*
X2595110Y1171579D01*
X2595399Y1171210D01*
X2595739Y1170870D01*
X2596109Y1170580D01*
X2596520Y1170329D01*
X2596949Y1170140D01*
X2597399Y1170000D01*
X2597870Y1169909D01*
X2598350Y1169879D01*
G37*
G36*
X2641649Y1248620D02*
G01*
X2642129Y1248649D01*
X2642600Y1248739D01*
X2643050Y1248879D01*
X2643479Y1249070D01*
X2643890Y1249319D01*
X2644260Y1249609D01*
X2644600Y1249949D01*
X2644889Y1250320D01*
X2645140Y1250729D01*
X2645330Y1251159D01*
X2645479Y1251619D01*
X2645559Y1252080D01*
X2645590Y1252559D01*
X2645590Y1276179D01*
X2645559Y1276660D01*
X2645479Y1277120D01*
X2645330Y1277579D01*
X2645140Y1278009D01*
X2644889Y1278420D01*
X2644600Y1278789D01*
X2644260Y1279130D01*
X2643890Y1279420D01*
X2643479Y1279670D01*
X2643050Y1279859D01*
X2642600Y1280000D01*
X2642129Y1280090D01*
X2641649Y1280120D01*
X2598350Y1280120D01*
X2597870Y1280090D01*
X2597399Y1280000D01*
X2596949Y1279859D01*
X2596520Y1279670D01*
X2596109Y1279420D01*
X2595739Y1279130D01*
X2595399Y1278789D01*
X2595110Y1278420D01*
X2594859Y1278009D01*
X2594669Y1277579D01*
X2594520Y1277120D01*
X2594440Y1276660D01*
X2594409Y1276179D01*
X2594409Y1252559D01*
X2594440Y1252080D01*
X2594520Y1251619D01*
X2594669Y1251159D01*
X2594859Y1250729D01*
X2595110Y1250320D01*
X2595399Y1249949D01*
X2595739Y1249609D01*
X2596109Y1249319D01*
X2596520Y1249070D01*
X2596949Y1248879D01*
X2597399Y1248739D01*
X2597870Y1248649D01*
X2598350Y1248620D01*
G37*
D11*
G01*
X2645000Y1135000D03*
G01*
X2010000Y1860000D03*
M02*
